<?xml version="1.0" encoding="UTF-8"?>
<svg id="Capa_1" data-name="Capa 1" xmlns="http://www.w3.org/2000/svg" viewBox="0 0 50.59 50.59">
  <defs>
    <style>
      .cls-1 {
        fill: #fff;
      }
    </style>
  </defs>
  <path class="cls-1" d="m32.08,12.18h-13.57c-3.5,0-6.33,2.84-6.33,6.33v13.57c0,3.5,2.84,6.33,6.33,6.33h13.57c3.5,0,6.33-2.84,6.33-6.33v-13.57c0-3.5-2.84-6.33-6.33-6.33Zm4.07,19.44c0,2.5-2.03,4.52-4.52,4.52h-12.66c-2.5,0-4.52-2.03-4.52-4.52v-12.66c0-2.5,2.03-4.52,4.52-4.52h12.66c2.5,0,4.52,2.03,4.52,4.52v12.66Z"/>
  <path class="cls-1" d="m25.31,18.51c-3.74,0-6.78,3.04-6.78,6.78s3.04,6.78,6.78,6.78,6.78-3.04,6.78-6.78-3.04-6.78-6.78-6.78Zm0,11.3c-2.49,0-4.52-2.03-4.52-4.52s2.03-4.52,4.52-4.52,4.52,2.03,4.52,4.52-2.03,4.52-4.52,4.52Z"/>
  <circle class="cls-1" cx="32.54" cy="18.06" r="1.36"/>
  <path class="cls-1" d="m25.3,0h0C11.33,0,0,11.33,0,25.3h0c0,13.97,11.33,25.3,25.3,25.3h0c13.97,0,25.3-11.33,25.3-25.3h0C50.59,11.33,39.27,0,25.3,0Zm24.74,25.3c0,13.66-11.08,24.74-24.74,24.74h0C11.63,50.04.56,38.96.56,25.3h0C.56,11.63,11.63.56,25.3.56h0c13.66,0,24.74,11.08,24.74,24.74h0Z"/>
</svg>