<?xml version="1.0" encoding="UTF-8"?>
<svg id="Capa_1" data-name="Capa 1" xmlns="http://www.w3.org/2000/svg" fill="#fff" viewBox="0 0 1759.07 425.66">
  <g>
    <polygon points="81.02 8.52 21.64 225.36 157.15 225.36 216.41 8.52 81.02 8.52"/>
    <path d="m774.14,225.36c3.69-15.99,5.78-32.48,5.78-49.46,0-48.23-13.89-86.82-43.97-116.32-30.66-30.07-79.85-51.06-158.53-51.06h-143.48l-59.39,216.84h135.41l27.54-101.09h22.55c32.41,0,52.66,7.37,65.39,19.85,10.41,10.22,16.78,24.4,16.78,45.96,0,11.71-2.85,23.91-7.61,35.28h139.53Z"/>
    <path d="m1040.55,119.16c30.66,0,54.38,15.88,63.05,48.22l120.93-51.63C1207.75,45.4,1145.85,0,1058.48,0c-166.93,0-251.94,120.13-259.21,225.36h141.3c1.29-53.54,40.24-106.2,99.98-106.2Z"/>
    <path d="m1448.42,157.18c-56.12-20.43-64.81-22.7-64.81-34.61s12.14-15.9,29.5-15.9c42.82,0,86.22,19.86,116.88,44.26l77.53-90.78C1563.55,23.27,1499.33.57,1427.01.57c-110.51,0-182.25,62.42-182.25,139.02,0,40.32,16.82,65.24,51.95,85.77h253.49c-17.09-31.19-53.2-50.57-101.79-68.18Z"/>
  </g>
  <g>
    <polygon points="46.58 247.08 0 417.14 319.95 417.14 351.19 303.66 166.63 303.66 182.09 247.08 46.58 247.08"/>
    <path d="m399.48,247.08l-46.57,170.06h175.89c93.73,0,163.73-25.54,212.33-73.19,28.36-27.81,47.89-60.78,58.15-96.87h-141.82c-4.57,8.31-10.17,15.85-16.41,21.97-20.83,20.42-56.12,32.34-97.2,32.34h-23.72l14.8-54.31h-135.43Z"/>
    <path d="m826.46,251.46c0,106.67,78.69,174.2,192.09,174.2,86.2,0,145.22-34.62,185.72-86.82l-93.73-72.63c-21.99,26.68-47.45,41.42-78.69,41.42-33.75,0-60.32-21.62-63.34-60.56h-141.94c-.03,1.46-.11,2.93-.11,4.38Z"/>
    <path d="m1383.02,262.81c59,21.56,66.53,25.54,66.53,38.01,0,11.36-12.14,17.59-29.5,17.59-42.82,0-90.27-18.15-136.55-56.15l-77.53,90.78c49.17,43.68,119.19,72.06,199.6,72.06,116.29,0,183.4-62.42,183.4-142.43,0-13.35-2.24-25.05-6.29-35.58h-238.42c11.49,5.36,24.39,10.52,38.76,15.73Z"/>
    <polygon points="1723.21 417.14 1759.07 286.64 1624.86 286.64 1588.98 417.14 1723.21 417.14"/>
  </g>
</svg>