<?xml version="1.0" encoding="utf-8"?>
<!-- Generator: Adobe Illustrator 27.2.0, SVG Export Plug-In . SVG Version: 6.00 Build 0)  -->
<svg version="1.1" id="Capa_1" xmlns="http://www.w3.org/2000/svg" fill="#fff" xmlns:xlink="http://www.w3.org/1999/xlink" x="0px" y="0px"
	 viewBox="0 0 790.5 165.5" style="enable-background:new 0 0 790.5 165.5;" xml:space="preserve">
<style type="text/css">
	.st0{stroke:#000000;stroke-miterlimit:10;}
</style>
<g>
	<g>
		<rect x="209.22" y="1.19" class="st0" width="8.89" height="164.36"/>
		<g>
			<path d="M115.42,107l25.86-10.56c-0.65-1.64-1.39-3.14-2.18-4.5c-2.57-4.89-5.92-8.23-10.08-9.99
				c-5.02-2.13-10.75-1.81-15.77,0.24c-5.81,2.37-14.47,4.11-20.27,1.6c-0.51-0.22-0.03,0.02-0.51-0.22l-10.55,24.26
				c3.38,1.21,4.09,1.18,6.94,1.78c5.42,6.94,4.47,20.13-6.67,24.67c-7.34,2.23-12.07,4.19-11.86,5.12
				c0.34,1.48,12.99-0.23,28.26-3.8c15.27-3.58,27.37-7.66,27.03-9.13c-0.2-0.89-4.91-0.62-11.97,0.52
				c-11.97,0.42-17.21-6.59-16.77-16.5C103.61,110.89,108.72,109.73,115.42,107z"/>
			<path d="M54.95,85.84c3.37,8.34,11.9,18.52,20.32,22.92l10.88-25.22c-2.64-2.33-4.82-5.21-6.23-8.7l-9.38-23.22
				c-2.12-5.25-5.83-9-11.12-11.24c-5.29-2.25-18.12-0.5-21.61,2.99l-0.02,0.02c-0.01,0,0.01,0,0,0L54.95,85.84z"/>
			<path class="st0" d="M162.76,49.31c-7.45-16.74-20.48-30.58-36.68-38.98l-1.03-0.53l-3.62,8.34l0.89,0.47
				c14.2,7.47,25.63,19.69,32.18,34.4c7.81,17.54,8.37,37.07,1.56,55c-6.8,17.93-20.15,32.1-37.59,39.91
				c-4.69,2.1-9.58,3.69-14.52,4.72c-12.51,2.63-26.29,1.61-38.81-2.87l-0.95-0.34l-3.45,8.39l0.92,0.33
				c9.08,3.31,18.77,4.99,28.31,4.99c5.38,0,10.71-0.54,15.86-1.62c5.61-1.18,11.11-2.97,16.35-5.32
				c19.64-8.8,34.68-24.76,42.35-44.95C172.18,91.06,171.56,69.06,162.76,49.31z"/>
			<path class="st0" d="M52,148.49c-0.56-0.24-1.07-0.46-1.73-0.79c-14.66-7.43-26.44-19.83-33.16-34.92
				c-7.81-17.54-8.37-37.07-1.56-55c6.81-17.92,20.16-32.1,37.6-39.91c4.66-2.09,9.55-3.68,14.52-4.73
				c14.44-3.04,29.08-1.62,42.34,4.08l0.99,0.43l3.63-8.31l-1-0.43C98.62,2.43,82.08,0.82,65.8,4.25
				c-5.59,1.17-11.09,2.96-16.36,5.32C29.8,18.37,14.76,34.33,7.1,54.52c-7.66,20.19-7.04,42.19,1.75,61.95
				c7.57,17,20.84,30.97,37.36,39.33c0.81,0.41,1.45,0.69,2.16,1c0.31,0.13,0.63,0.27,0.99,0.43l1,0.45l3.61-8.32l-0.97-0.44
				C52.63,148.76,52.3,148.62,52,148.49z"/>
		</g>
	</g>
	<g>
		<g>
			<polygon points="282.2,23.33 264.21,89.01 305.26,89.01 323.21,23.33 			"/>
			<path d="M492.15,89.01c1.12-4.84,1.75-9.84,1.75-14.98c0-14.61-4.21-26.3-13.32-35.23c-9.29-9.11-24.19-15.47-48.02-15.47H389.1
				l-17.99,65.68h41.02l8.34-30.62h6.83c9.82,0,15.95,2.23,19.81,6.01c3.15,3.1,5.08,7.39,5.08,13.92c0,3.55-0.86,7.24-2.3,10.69
				H492.15z"/>
			<path d="M572.85,56.84c9.29,0,16.47,4.81,19.1,14.61l36.63-15.64c-5.08-21.31-23.83-35.06-50.3-35.06
				c-50.56,0-76.32,36.39-78.52,68.26h42.8C542.96,72.79,554.76,56.84,572.85,56.84z"/>
			<path d="M696.4,68.36c-17-6.19-19.63-6.88-19.63-10.48c0-3.44,3.68-4.82,8.94-4.82c12.97,0,26.12,6.01,35.4,13.41l23.48-27.5
				c-13.32-11.17-32.77-18.05-54.68-18.05c-33.47,0-55.2,18.91-55.2,42.11c0,12.21,5.1,19.76,15.74,25.98h76.79
				C722.06,79.56,711.12,73.7,696.4,68.36z"/>
		</g>
		<g>
			<polygon points="271.77,95.59 257.66,147.11 354.58,147.11 364.04,112.73 308.13,112.73 312.82,95.59 			"/>
			<path d="M378.67,95.59l-14.11,51.51h53.28c28.39,0,49.6-7.74,64.32-22.17c8.59-8.43,14.51-18.41,17.61-29.34h-42.96
				c-1.39,2.52-3.08,4.8-4.97,6.66c-6.31,6.19-17,9.79-29.44,9.79h-7.19l4.48-16.45H378.67z"/>
			<path d="M508,96.92c0,32.31,23.84,52.77,58.19,52.77c26.11,0,43.99-10.49,56.26-26.3l-28.39-22
				c-6.66,8.08-14.37,12.55-23.84,12.55c-10.22,0-18.27-6.55-19.19-18.34h-42.99C508.02,96.04,508,96.48,508,96.92z"/>
			<path d="M676.59,100.36c17.87,6.53,20.15,7.74,20.15,11.52c0,3.44-3.68,5.33-8.94,5.33c-12.97,0-27.34-5.5-41.36-17.01
				l-23.48,27.5c14.89,13.23,36.1,21.83,60.46,21.83c35.23,0,55.55-18.91,55.55-43.14c0-4.04-0.68-7.59-1.91-10.78h-72.22
				C668.33,97.22,672.24,98.78,676.59,100.36z"/>
			<polygon points="779.64,147.11 790.5,107.58 749.84,107.58 738.98,147.11 			"/>
		</g>
	</g>
</g>
</svg>
