<?xml version="1.0" encoding="UTF-8"?>
<svg id="Capa_1" data-name="Capa 1" xmlns="http://www.w3.org/2000/svg" viewBox="0 0 50.59 50.59">
  <defs>
    <style>
      .cls-1 {
        fill: #fff;
      }
    </style>
  </defs>
  <circle class="cls-1" cx="32.54" cy="18.06" r="1.36"/>
  <path class="cls-1" d="m25.3,0h0C11.33,0,0,11.33,0,25.3h0c0,13.97,11.33,25.3,25.3,25.3h0c13.97,0,25.3-11.33,25.3-25.3h0C50.59,11.33,39.27,0,25.3,0Zm24.74,25.3c0,13.66-11.08,24.74-24.74,24.74h0C11.63,50.04.56,38.96.56,25.3h0C.56,11.63,11.63.56,25.3.56h0c13.66,0,24.74,11.08,24.74,24.74h0Z"/>
  <path class="cls-1" d="m39.12,17.38c0-.14,0-.15-.15-.15-.36,0-.72-.04-1.08-.09-1.29-.2-5.49-2.4-6.2-6-.01-.07-.17-.96-.17-1.35,0-.17,0-.17-.17-.17-.04,0-.08,0-.12,0-1.64,0-3.29,0-4.93,0-.33,0-.28-.04-.28.29,0,7.13,0,14.25,0,21.38,0,.27,0,.53-.05.79-.25,1.38-.95,2.46-2.15,3.2-1.04.64-2.16.82-3.35.58-.38-.07-.73-.22-1.08-.36-.03-.03-.06-.05-.09-.08-.12-.1-.25-.18-.38-.27-1.52-1.05-2.24-2.52-2.02-4.34.22-1.86,1.29-3.11,3.05-3.76.52-.19,1.08-.27,1.64-.24.36.02.72.07,1.07.16.12.03.19,0,.19-.14,0-.05,0-.09,0-.14,0-1.28-.05-4.07-.05-4.08,0-.37,0-.74,0-1.1,0-.11-.05-.12-.14-.14-.66-.08-1.33-.09-1.99-.04-.92.07-1.81.26-2.68.57-1.38.5-2.6,1.27-3.65,2.29-.9.88-1.61,1.9-2.13,3.05-.5,1.1-.78,2.26-.86,3.46-.03.52-.03,1.05.02,1.57.07.72.2,1.43.42,2.12.63,1.99,1.78,3.61,3.41,4.91.17.13.32.28.52.36,0,0,0,0,0,0,.08.07.17.15.25.22.26.2.55.37.84.51,1.83.9,3.75,1.27,5.78,1.02,2.63-.32,4.82-1.49,6.55-3.5,1.62-1.89,2.41-4.11,2.43-6.59.02-3.55,0-7.1,0-10.65,0-.08-.05-.21.04-.25.07-.03.15.06.22.11,1.32.87,2.74,1.49,4.29,1.85.9.21,1.8.33,2.73.33.29,0,.33-.01.33-.3,0-1.26-.06-4.71-.06-5.04Z"/>
</svg>