<?xml version="1.0" encoding="UTF-8"?>
<svg id="Capa_1" data-name="Capa 1" xmlns="http://www.w3.org/2000/svg" viewBox="0 0 50.59 50.59">
  <defs>
    <style>
      .cls-1 {
        fill: #fff;
      }
    </style>
  </defs>
  <circle class="cls-1" cx="32.54" cy="18.06" r="1.36"/>
  <path class="cls-1" d="m25.3,0h0C11.33,0,0,11.33,0,25.3h0c0,13.97,11.33,25.3,25.3,25.3h0c13.97,0,25.3-11.33,25.3-25.3h0C50.59,11.33,39.27,0,25.3,0Zm24.74,25.3c0,13.66-11.08,24.74-24.74,24.74h0C11.63,50.04.56,38.96.56,25.3h0C.56,11.63,11.63.56,25.3.56h0c13.66,0,24.74,11.08,24.74,24.74h0Z"/>
  <path class="cls-1" d="m36.07,14.7H14.52c-2.13,0-3.86,1.73-3.86,3.85v13.48c0,2.13,1.73,3.85,3.86,3.85h21.55c2.13,0,3.85-1.73,3.85-3.85v-13.48c0-2.13-1.73-3.85-3.85-3.85Zm-7.31,11.52l-5.99,2.99c-.69.35-1.51-.16-1.51-.93v-5.99c0-.77.81-1.28,1.51-.93l5.99,3c.77.38.77,1.48,0,1.86Z"/>
</svg>