<?xml version="1.0" encoding="UTF-8"?>
<svg id="Capa_1" data-name="Capa 1" xmlns="http://www.w3.org/2000/svg" viewBox="0 0 92.8 92.8">
  <defs>
    <style>
      .cls-1 {
        fill: #f80000;
      }
    </style>
  </defs>
  <path class="cls-1" d="m19.16,61.37c0-9.98,0-19.96,0-29.94.02-.05.05-.09.07-.14.77-2.79,2.36-4,5.27-4,11.55,0,23.11,0,34.66,0,3.22,0,6.45-.02,9.67,0,2.03.02,3.5,1,4.38,2.83.2.41.29.87.43,1.3v29.94s-.06.09-.07.14c-.71,2.71-2.36,4-5.16,4-11.98,0-23.96,0-35.93,0-2.83,0-5.67.02-8.5,0-1.82-.02-3.24-.83-4.15-2.41-.3-.52-.44-1.14-.65-1.72Zm48.89-30.74l-.08-.11H24.81c.07.2.21.29.32.4,6.59,6.59,13.17,13.18,19.75,19.77,1.02,1.02,2.01,1.02,3.04,0,4.73-4.74,9.46-9.48,14.2-14.2,1.97-1.96,3.96-3.9,5.94-5.85Zm-43.35,31.65h43.39c-4.61-4.56-9.14-9.04-13.69-13.54-.1.1-.24.23-.38.36-1.33,1.33-2.65,2.66-3.98,3.98-2.09,2.07-5.19,2.07-7.28,0-.8-.8-1.6-1.61-2.4-2.41-.66-.66-1.32-1.32-1.96-1.95-4.56,4.51-9.09,8.99-13.7,13.55Zm-2.32-29.39v27.02c4.53-4.47,9.09-8.99,13.66-13.51-4.57-4.52-9.13-9.04-13.66-13.52Zm48.03.1c-4.5,4.44-9.06,8.95-13.6,13.43,4.55,4.5,9.1,9.01,13.6,13.46v-26.89Z"/>
  <path class="cls-1" d="m46.4,92.8C20.81,92.8,0,71.98,0,46.4S20.81,0,46.4,0s46.4,20.81,46.4,46.4-20.81,46.4-46.4,46.4Zm0-90.54C22.06,2.25,2.25,22.06,2.25,46.4s19.8,44.14,44.14,44.14,44.14-19.8,44.14-44.14S70.74,2.25,46.4,2.25Z"/>
</svg>