<?xml version="1.0" encoding="UTF-8"?>
<svg id="Capa_1" data-name="Capa 1" xmlns="http://www.w3.org/2000/svg" viewBox="0 0 92.8 92.8">
  <defs>
    <style>
      .cls-1 {
        fill: #f80000;
      }
    </style>
  </defs>
  <path class="cls-1" d="m60.02,73.9c-.77-.12-1.55-.23-2.31-.38-2.99-.56-5.79-1.68-8.5-3.02-4.45-2.19-8.59-4.86-12.3-8.15-7.44-6.58-13.32-14.28-16.63-23.76-.82-2.34-1.31-4.75-1.25-7.25.05-2.41.84-4.52,2.54-6.25,1.51-1.53,2.97-3.11,4.58-4.52,2.61-2.28,5.31-2.25,7.81.12,2.53,2.39,4.98,4.89,7.36,7.43,1.96,2.09,1.95,4.92.03,7.04-1.34,1.49-2.79,2.87-4.22,4.27-.28.28-.31.47-.14.82,1.42,2.98,3.48,5.49,5.7,7.87,2.27,2.43,4.76,4.6,7.56,6.39.74.47,1.53.84,2.29,1.29.3.18.48.15.73-.1,1.19-1.21,2.39-2.41,3.6-3.61.94-.93,1.99-1.69,3.34-1.91,1.82-.3,3.36.29,4.64,1.55,2.33,2.29,4.64,4.61,6.95,6.93,2.48,2.5,2.68,5.32.39,7.97-1.59,1.83-3.35,3.53-5.11,5.19-1.25,1.18-2.84,1.76-4.55,1.97-.12.01-.24.06-.36.1h-2.15Zm1.06-2.77c1.66.03,3.19-.38,4.39-1.54,1.61-1.55,3.17-3.15,4.68-4.8,1.15-1.25,1.13-2.6-.06-3.83-2.4-2.46-4.83-4.88-7.28-7.28-.99-.97-2.26-.98-3.36-.13-.25.2-.49.42-.71.65-1.33,1.32-2.65,2.66-3.99,3.98-.87.86-1.81,1.01-2.89.46-.78-.4-1.56-.8-2.31-1.25-3.54-2.12-6.61-4.81-9.38-7.86-2.34-2.57-4.47-5.3-5.9-8.51-.64-1.43-.48-2.22.64-3.31,1.31-1.27,2.62-2.54,3.9-3.84,1.52-1.55,1.5-2.8,0-4.37-.01-.01-.02-.03-.04-.04-2.21-2.21-4.42-4.43-6.65-6.63-.35-.35-.76-.67-1.21-.87-1.25-.56-2.26,0-3.14.85-1.36,1.33-2.73,2.64-4.01,4.03-.6.66-1.15,1.43-1.5,2.25-.75,1.78-.56,3.65-.18,5.49.72,3.57,2.14,6.88,3.9,10.05,3.11,5.59,7.08,10.52,11.82,14.82,4.75,4.3,10.07,7.69,16.03,10.06,2.32.92,4.72,1.53,7.23,1.61Z"/>
  <path class="cls-1" d="m46.4,92.8C20.81,92.8,0,71.98,0,46.4S20.81,0,46.4,0s46.4,20.81,46.4,46.4h0c0,25.58-20.81,46.4-46.4,46.4Zm0-90.54C22.06,2.25,2.25,22.06,2.25,46.4s19.8,44.14,44.14,44.14,44.14-19.8,44.14-44.14S70.74,2.25,46.4,2.25Z"/>
</svg>