<?xml version="1.0" encoding="UTF-8"?>
<svg id="Capa_1" data-name="Capa 1" xmlns="http://www.w3.org/2000/svg" viewBox="0 0 1116.01 207.06">
  <defs>
    <style>
      .cls-1 {
        fill: #fff;
      }

      .cls-2 {
        fill: #f80000;
      }
    </style>
  </defs>
  <g>
    <path class="cls-1" d="m153.39,58.46c-4.64,0-8.62-.91-11.97-2.74-3.34-1.82-5.9-4.42-7.66-7.78-1.76-3.36-2.65-7.3-2.65-11.81s.88-8.44,2.65-11.78c1.76-3.34,4.32-5.93,7.66-7.75,3.34-1.83,7.33-2.74,11.97-2.74,2.87,0,5.64.44,8.31,1.32,2.67.88,4.82,2.1,6.46,3.66l-3.02,7.57c-1.81-1.43-3.64-2.49-5.51-3.17-1.87-.68-3.83-1.01-5.88-1.01-4.1,0-7.21,1.21-9.32,3.63-2.11,2.42-3.17,5.85-3.17,10.28s1.06,7.92,3.17,10.34c2.11,2.42,5.22,3.63,9.32,3.63,2.05,0,4.01-.34,5.88-1.02,1.87-.68,3.7-1.73,5.51-3.17l3.02,7.57c-1.64,1.52-3.79,2.73-6.46,3.63-2.67.9-5.44,1.35-8.31,1.35Z"/>
    <path class="cls-1" d="m194.55,58.46c-3.2,0-6.11-.52-8.74-1.57-2.63-1.05-4.88-2.56-6.77-4.55-1.89-1.99-3.34-4.35-4.37-7.08-1.03-2.73-1.54-5.77-1.54-9.14s.5-6.42,1.51-9.17c1-2.75,2.45-5.11,4.34-7.08,1.89-1.97,4.15-3.47,6.8-4.49,2.65-1.03,5.57-1.54,8.77-1.54s6.17.52,8.8,1.57c2.62,1.05,4.88,2.53,6.77,4.46,1.89,1.93,3.34,4.27,4.37,7.02,1.02,2.75,1.54,5.83,1.54,9.23s-.5,6.42-1.51,9.17c-1.01,2.75-2.46,5.12-4.37,7.11-1.91,1.99-4.17,3.5-6.8,4.52-2.63,1.02-5.56,1.54-8.8,1.54Zm0-8.06c2.42,0,4.48-.57,6.18-1.72,1.7-1.15,3.02-2.79,3.94-4.92.92-2.13,1.38-4.68,1.38-7.63s-.45-5.56-1.35-7.69c-.9-2.13-2.21-3.75-3.91-4.86-1.7-1.11-3.78-1.66-6.25-1.66s-4.43.55-6.15,1.66c-1.72,1.11-3.04,2.72-3.94,4.83-.9,2.11-1.35,4.69-1.35,7.72s.45,5.56,1.35,7.69c.9,2.13,2.22,3.76,3.94,4.89,1.72,1.13,3.77,1.69,6.15,1.69Z"/>
    <path class="cls-1" d="m223.41,57.84V14.46h7.08l23.32,29.72h-1.72V14.46h8.92v43.38h-7.08l-23.32-29.78h1.66v29.78h-8.86Z"/>
    <path class="cls-1" d="m289.87,58.46c-3.2,0-6.11-.52-8.74-1.57-2.63-1.05-4.88-2.56-6.77-4.55-1.89-1.99-3.34-4.35-4.37-7.08-1.03-2.73-1.54-5.77-1.54-9.14s.5-6.42,1.51-9.17c1-2.75,2.45-5.11,4.34-7.08,1.89-1.97,4.15-3.47,6.8-4.49,2.65-1.03,5.57-1.54,8.77-1.54s6.17.52,8.8,1.57c2.62,1.05,4.88,2.53,6.77,4.46,1.89,1.93,3.34,4.27,4.37,7.02,1.02,2.75,1.54,5.83,1.54,9.23s-.5,6.42-1.51,9.17c-1.01,2.75-2.46,5.12-4.37,7.11-1.91,1.99-4.17,3.5-6.8,4.52-2.63,1.02-5.56,1.54-8.8,1.54Zm0-8.06c2.42,0,4.48-.57,6.18-1.72,1.7-1.15,3.02-2.79,3.94-4.92.92-2.13,1.38-4.68,1.38-7.63s-.45-5.56-1.35-7.69c-.9-2.13-2.21-3.75-3.91-4.86-1.7-1.11-3.78-1.66-6.25-1.66s-4.43.55-6.15,1.66c-1.72,1.11-3.04,2.72-3.94,4.83-.9,2.11-1.35,4.69-1.35,7.72s.45,5.56,1.35,7.69c.9,2.13,2.22,3.76,3.94,4.89,1.72,1.13,3.77,1.69,6.15,1.69Z"/>
    <path class="cls-1" d="m339.71,58.46c-4.64,0-8.62-.91-11.97-2.74-3.34-1.82-5.9-4.42-7.66-7.78-1.76-3.36-2.65-7.3-2.65-11.81s.88-8.44,2.65-11.78c1.76-3.34,4.32-5.93,7.66-7.75,3.34-1.83,7.33-2.74,11.97-2.74,2.87,0,5.64.44,8.31,1.32,2.67.88,4.82,2.1,6.46,3.66l-3.02,7.57c-1.81-1.43-3.64-2.49-5.51-3.17-1.87-.68-3.83-1.01-5.88-1.01-4.1,0-7.21,1.21-9.32,3.63-2.11,2.42-3.17,5.85-3.17,10.28s1.06,7.92,3.17,10.34c2.11,2.42,5.22,3.63,9.32,3.63,2.05,0,4.01-.34,5.88-1.02,1.87-.68,3.7-1.73,5.51-3.17l3.02,7.57c-1.64,1.52-3.79,2.73-6.46,3.63-2.67.9-5.44,1.35-8.31,1.35Z"/>
    <path class="cls-1" d="m360.75,57.84V14.46h29.72v7.45h-20.55v10.15h19.14v7.45h-19.14v10.89h20.55v7.45h-29.72Z"/>
    <path class="cls-1" d="m415.2,57.84V14.46h8l15.57,28.49h-1.97l15.57-28.49h7.81v43.38h-8.68v-28.8h1.35l-12.55,22.27h-5.35l-12.55-22.34h1.42v28.86h-8.61Z"/>
    <path class="cls-1" d="m464,57.84l19.94-43.38h7.63l19.94,43.38h-9.6l-5.17-12.06,3.81,2.65h-25.66l3.81-2.65-5.11,12.06h-9.6Zm23.69-33.23l-7.94,18.83-1.66-2.46h19.26l-1.6,2.46-7.94-18.83h-.12Zm-3.14-13.84l7.26-10.77h9.48l-10.28,10.77h-6.46Z"/>
    <path class="cls-1" d="m530.76,58.46c-2.26,0-4.45-.18-6.58-.55-2.13-.37-4.08-.91-5.85-1.63-1.76-.72-3.34-1.57-4.74-2.55l2.77-7.45c1.31.86,2.73,1.61,4.25,2.25,1.52.64,3.14,1.13,4.86,1.48,1.72.35,3.49.52,5.29.52,2.95,0,5.09-.45,6.4-1.35,1.31-.9,1.97-2.05,1.97-3.45,0-.82-.21-1.51-.62-2.06-.41-.55-1.07-1.04-1.97-1.45-.9-.41-2.09-.76-3.57-1.05l-6.95-1.48c-3.94-.86-6.85-2.29-8.74-4.28-1.89-1.99-2.83-4.6-2.83-7.84,0-2.75.74-5.16,2.22-7.23,1.48-2.07,3.54-3.67,6.18-4.8,2.65-1.13,5.71-1.69,9.2-1.69,1.97,0,3.88.18,5.72.55,1.85.37,3.56.92,5.14,1.66,1.58.74,2.92,1.6,4.03,2.58l-2.77,7.14c-1.64-1.35-3.5-2.36-5.57-3.01-2.07-.66-4.3-.98-6.68-.98-1.72,0-3.19.23-4.4.68-1.21.45-2.12,1.08-2.74,1.88s-.92,1.75-.92,2.86.42,2.09,1.26,2.83c.84.74,2.33,1.33,4.46,1.78l6.89,1.48c4.06.86,7.09,2.25,9.08,4.15,1.99,1.91,2.98,4.42,2.98,7.54,0,2.67-.74,5.03-2.22,7.08-1.48,2.05-3.54,3.63-6.18,4.74-2.65,1.11-5.77,1.66-9.38,1.66Z"/>
    <path class="cls-1" d="m571.74,57.84V14.46h29.72v7.45h-20.55v10.15h19.14v7.45h-19.14v10.89h20.55v7.45h-29.72Z"/>
    <path class="cls-1" d="m609.03,57.84V14.46h7.08l23.32,29.72h-1.72V14.46h8.92v43.38h-7.08l-23.32-29.78h1.66v29.78h-8.86Z"/>
    <path class="cls-1" d="m672.4,57.84V14.46h7.08l23.32,29.72h-1.72V14.46h8.92v43.38h-7.08l-23.32-29.78h1.66v29.78h-8.86Z"/>
    <path class="cls-1" d="m737.32,58.46c-6.15,0-10.84-1.57-14.06-4.71-3.22-3.14-4.83-7.8-4.83-14V14.46h9.54v25.29c0,3.53.8,6.18,2.4,7.97,1.6,1.78,3.92,2.68,6.95,2.68s5.29-.89,6.89-2.68c1.6-1.78,2.4-4.44,2.4-7.97V14.46h9.41v25.29c0,6.2-1.59,10.86-4.77,14-3.18,3.14-7.83,4.71-13.94,4.71Z"/>
    <path class="cls-1" d="m764.46,57.84V14.46h29.72v7.45h-20.55v10.15h19.14v7.45h-19.14v10.89h20.55v7.45h-29.72Z"/>
    <path class="cls-1" d="m817.25,58.46c-2.26,0-4.45-.18-6.58-.55s-4.08-.91-5.85-1.63c-1.76-.72-3.34-1.57-4.74-2.55l2.77-7.45c1.31.86,2.73,1.61,4.25,2.25,1.52.64,3.14,1.13,4.86,1.48,1.72.35,3.49.52,5.29.52,2.95,0,5.09-.45,6.4-1.35,1.31-.9,1.97-2.05,1.97-3.45,0-.82-.21-1.51-.62-2.06-.41-.55-1.07-1.04-1.97-1.45-.9-.41-2.09-.76-3.57-1.05l-6.95-1.48c-3.94-.86-6.85-2.29-8.74-4.28-1.89-1.99-2.83-4.6-2.83-7.84,0-2.75.74-5.16,2.21-7.23,1.48-2.07,3.54-3.67,6.18-4.8,2.65-1.13,5.71-1.69,9.2-1.69,1.97,0,3.88.18,5.72.55s3.56.92,5.14,1.66,2.92,1.6,4.03,2.58l-2.77,7.14c-1.64-1.35-3.5-2.36-5.57-3.01-2.07-.66-4.3-.98-6.68-.98-1.72,0-3.19.23-4.4.68-1.21.45-2.12,1.08-2.74,1.88s-.92,1.75-.92,2.86.42,2.09,1.26,2.83c.84.74,2.33,1.33,4.46,1.78l6.89,1.48c4.06.86,7.09,2.25,9.08,4.15,1.99,1.91,2.98,4.42,2.98,7.54,0,2.67-.74,5.03-2.22,7.08-1.48,2.05-3.54,3.63-6.18,4.74s-5.77,1.66-9.38,1.66Z"/>
    <path class="cls-1" d="m851.52,57.84V22.34h-14.4v-7.88h38.27v7.88h-14.34v35.5h-9.54Z"/>
    <path class="cls-1" d="m880.07,57.84V14.46h19.81c4.8,0,8.52,1.17,11.17,3.51,2.65,2.34,3.97,5.6,3.97,9.78,0,2.71-.59,5.04-1.78,7.01-1.19,1.97-2.91,3.49-5.17,4.55-2.26,1.07-4.98,1.6-8.18,1.6l.55-.99h2.46c1.72,0,3.23.41,4.52,1.23,1.29.82,2.39,2.09,3.29,3.81l7.01,12.86h-10.46l-7.57-13.78c-.37-.78-.83-1.38-1.38-1.82s-1.16-.73-1.82-.89-1.42-.25-2.28-.25h-4.62v16.74h-9.54Zm9.54-23.69h8.62c2.5,0,4.4-.51,5.69-1.54,1.29-1.02,1.94-2.56,1.94-4.61s-.65-3.53-1.94-4.55c-1.29-1.02-3.19-1.54-5.69-1.54h-8.62v12.25Z"/>
    <path class="cls-1" d="m943.02,58.46c-3.2,0-6.11-.52-8.74-1.57-2.63-1.05-4.88-2.56-6.77-4.55-1.89-1.99-3.34-4.35-4.37-7.08-1.03-2.73-1.54-5.77-1.54-9.14s.5-6.42,1.51-9.17,2.45-5.11,4.34-7.08c1.89-1.97,4.15-3.47,6.8-4.49s5.57-1.54,8.77-1.54,6.17.52,8.8,1.57c2.62,1.05,4.88,2.53,6.77,4.46,1.89,1.93,3.34,4.27,4.37,7.02,1.02,2.75,1.54,5.83,1.54,9.23s-.5,6.42-1.51,9.17c-1.01,2.75-2.46,5.12-4.37,7.11-1.91,1.99-4.17,3.5-6.8,4.52-2.63,1.02-5.56,1.54-8.8,1.54Zm0-8.06c2.42,0,4.48-.57,6.18-1.72s3.02-2.79,3.94-4.92c.92-2.13,1.38-4.68,1.38-7.63s-.45-5.56-1.35-7.69-2.21-3.75-3.91-4.86-3.78-1.66-6.25-1.66-4.43.55-6.15,1.66-3.04,2.72-3.94,4.83c-.9,2.11-1.35,4.69-1.35,7.72s.45,5.56,1.35,7.69c.9,2.13,2.22,3.76,3.94,4.89,1.72,1.13,3.77,1.69,6.15,1.69Z"/>
  </g>
  <g>
    <path class="cls-2" d="m38.04,114.97h19.4c8.94,0,12.14,5.57,12.14,11.97,0,8.92-4.4,15.03-10.41,17.56h39.15c2.99-6.86,4.65-14.87,4.65-23.97,0-20.58-11.47-34.07-35.25-34.07H9.2L0,144.51h33.36l4.68-29.54Z"/>
    <path class="cls-2" d="m1.48,204.53h33.39l4.89-31.37h21.59c18.98,0,34.99-7.56,44.2-21.65H9.89L1.48,204.53Z"/>
    <path class="cls-2" d="m174.15,111.77c13.16,0,20.24,6.07,20.24,21.59,0,3.33-.3,6.96-.9,11.16h34.07c.59-4.85.9-9.43.9-13.85,0-30.86-15.52-46.72-51.44-46.72-39.53,0-60.76,20.31-66.17,60.57h33.64c4-24.23,13.56-32.74,29.66-32.74Z"/>
    <path class="cls-2" d="m174.35,179.4c-13.16,0-20.24-6.07-20.24-21.59,0-1.94.16-4.05.41-6.3h-33.43c-.24,2.94-.37,5.79-.37,8.49,0,31.03,15.68,47.05,51.44,47.05,37.64,0,58.84-18.57,65.36-55.55h-34.33c-4.59,20.43-13.9,27.89-28.84,27.89Z"/>
    <path class="cls-2" d="m353.59,119.36c0-19.73-11.3-32.89-34.74-32.89h-60.38l-9.2,58.04h98.74c3.58-6.93,5.59-15.33,5.59-25.15Zm-49.25,22.6h-21.76l4.39-27.83h22.26c7.93,0,10.96,4.38,10.96,10.46,0,10.96-6.92,17.37-15.85,17.37Z"/>
    <path class="cls-2" d="m250.75,204.53h33.06l5.57-35.92h18.05l8.77,35.92h36.43l-11.97-42c5.41-2.68,10.08-6.37,13.83-11.02h-95.32l-8.41,53.02Z"/>
    <polygon class="cls-2" points="430.66 115.14 464.9 115.14 469.45 86.47 367.58 86.47 363.03 115.14 397.44 115.14 392.78 144.51 426 144.51 430.66 115.14"/>
    <polygon class="cls-2" points="394.27 204.53 427.49 204.53 435.9 151.51 402.67 151.51 394.27 204.53"/>
    <polygon class="cls-2" points="517.01 119.86 520.54 144.51 552.34 144.51 542.64 86.47 502.84 86.47 474.73 144.51 505.73 144.51 517.01 119.86"/>
    <polygon class="cls-2" points="534.25 163.38 508.11 163.38 513.53 151.51 482.34 151.51 456.67 204.53 489.72 204.53 496.81 188.67 537.28 188.67 539.48 204.53 573.38 204.53 564.51 151.51 532.55 151.51 534.25 163.38"/>
    <polygon class="cls-2" points="588.55 204.53 621.95 204.53 628.52 162.36 676.59 162.36 678.37 151.51 596.96 151.51 588.55 204.53"/>
    <polygon class="cls-2" points="670.14 134.54 622.08 134.54 625.28 113.62 681.61 113.62 685.83 86.47 596.27 86.47 587.07 144.51 668.51 144.51 670.14 134.54"/>
    <path class="cls-2" d="m752.99,179.4c-13.16,0-20.24-6.07-20.24-21.59,0-1.94.16-4.05.41-6.3h-33.43c-.24,2.94-.37,5.79-.37,8.49,0,31.03,15.69,47.05,51.44,47.05,37.64,0,58.84-18.57,65.36-55.55h-34.33c-4.59,20.43-13.9,27.89-28.84,27.89Z"/>
    <path class="cls-2" d="m752.78,111.77c13.16,0,20.24,6.07,20.24,21.59,0,3.33-.3,6.96-.9,11.16h34.07c.59-4.85.9-9.43.9-13.85,0-30.86-15.52-46.72-51.44-46.72-39.53,0-60.76,20.31-66.16,60.57h33.64c4-24.23,13.56-32.74,29.66-32.74Z"/>
    <polygon class="cls-2" points="870.33 86.47 837.1 86.47 827.9 144.51 861.2 144.51 870.33 86.47"/>
    <polygon class="cls-2" points="829.38 204.53 918.94 204.53 923.49 176.53 867.16 176.53 871.1 151.51 837.79 151.51 829.38 204.53"/>
    <polygon class="cls-2" points="936.98 204.53 970.37 204.53 978.78 151.51 945.39 151.51 936.98 204.53"/>
    <polygon class="cls-2" points="978.09 86.47 944.7 86.47 935.5 144.51 968.89 144.51 978.09 86.47"/>
    <path class="cls-2" d="m1052.84,179.4c-13.16,0-20.24-6.07-20.24-21.59,0-1.94.16-4.05.41-6.3h-33.43c-.24,2.94-.37,5.79-.37,8.49,0,31.03,15.69,47.05,51.44,47.05,37.64,0,58.84-18.57,65.36-55.55h-34.33c-4.59,20.43-13.9,27.89-28.84,27.89Z"/>
    <path class="cls-2" d="m1052.64,111.77c13.16,0,20.24,6.07,20.24,21.59,0,3.33-.3,6.96-.9,11.16h34.07c.59-4.85.9-9.43.9-13.85,0-30.86-15.52-46.72-51.44-46.72-39.53,0-60.76,20.31-66.16,60.57h33.64c4-24.23,13.56-32.74,29.66-32.74Z"/>
  </g>
</svg>