<?xml version="1.0" encoding="UTF-8"?>
<svg id="Capa_1" data-name="Capa 1" xmlns="http://www.w3.org/2000/svg" viewBox="0 0 382.18 81.44">
  <defs>
    <style>
      .cls-1 {
        fill: #fff;
      }
    </style>
  </defs>
  <path class="cls-1" d="m9.56,66.07c.56.23,1.12.46,1.68.69,8.88,3.79,16.9,1.96,23.25-5.32,3.5-4.01,5.93-8.66,7.95-13.54,2.89-6.96,6.07-13.78,10.41-19.98,2.25-3.22,4.78-6.19,8.09-8.39,4.7-3.12,9.5-2.98,13.95.47.66.51,1.25,1.22,1.64,1.96,13.04,24.14-1.61,54.34-28.7,58.83-14.78,2.45-27.31-2.14-37.44-13.21-.37-.4-.69-.85-1.03-1.27.06-.08.13-.16.19-.24Z"/>
  <path class="cls-1" d="m291.69,6.86h11.31v22.05c2.36-.93,4.46-1.88,6.63-2.6,2.75-.91,5.58-1.11,8.41-.34,4.78,1.29,7.9,5.32,7.97,10.67.1,8.5.12,17,0,25.5-.09,6.59-4.15,11.45-11.04,13.06-7.27,1.7-14.54,1.49-21.73-.71-1.13-.35-1.2-1.02-1.2-1.95-.05-13.13-.1-26.27-.18-39.4-.05-8.16-.12-16.32-.18-24.48,0-.57,0-1.13,0-1.8Zm11.33,60.11c3.12-.2,6.01-.2,8.83-.64,2.07-.33,3.01-1.89,3.03-4.01.02-2.46.01-4.92.02-7.38,0-5.12.04-10.23.02-15.35-.01-2.88-1.09-4.03-3.96-4.25-2.47-.19-4.83.33-6.91,1.68-.52.34-1.01,1.2-1.01,1.82-.06,8.69-.03,17.37-.02,26.06,0,.52,0,1.05,0,2.08Z"/>
  <path class="cls-1" d="m131.92,7.04h11.26v22.17c1.43-.68,2.62-1.28,3.85-1.81,3.25-1.42,6.65-2.07,10.18-1.51,5.12.81,8.8,5.02,8.88,10.45.13,8.64.16,17.29.03,25.93-.1,6.84-4.23,11.6-11.42,13.19-7.19,1.59-14.37,1.32-21.45-.87-.94-.29-.99-.83-1-1.61-.1-19.99-.22-39.98-.33-59.97-.01-1.96,0-3.93,0-5.98Zm11.27,59.77c2.68,0,5.24.24,7.74-.06,3.08-.37,4.16-1.92,4.17-5.05,0-3.48,0-6.95,0-10.43,0-3.81.04-7.63.01-11.44-.02-2.98-1.22-4.17-4.22-4.32-2.27-.11-4.39.38-6.42,1.42-1,.51-1.33,1.14-1.32,2.26.05,8.69.03,17.38.03,26.07,0,.47,0,.95,0,1.55Z"/>
  <path class="cls-1" d="m116.26,71.99c-2.35,2.23-5.05,3.61-8.12,3.97-2.23.26-4.55.36-6.76.05-3.8-.53-6.37-2.83-7.67-6.46-1.34-3.76-1.59-7.67-.93-11.56,1.18-6.94,5.92-10.88,12.97-11,3.13-.05,6.26,0,9.42,0,0-2.68.19-5.24-.06-7.76-.19-1.84-1.76-2.8-3.46-3.33-2.63-.81-5.27-.56-7.86.13-2.18.58-4.3,1.37-6.67,2.14-.63-3.06-1.27-6.15-1.98-9.63,2.85-.78,5.63-1.7,8.49-2.27,4.62-.92,9.29-1.19,13.92.08,5.63,1.55,8.81,5.39,8.87,11.21.11,12.17.05,24.34.1,36.51,0,1.04-.39,1.33-1.36,1.29-1.64-.06-3.29-.13-4.92.02-1.81.17-2.82-.63-3.4-2.22-.13-.35-.32-.67-.56-1.18Zm-1.1-10.97h-.02c0-1.45.06-2.9-.04-4.34-.02-.35-.56-.93-.87-.94-2.07-.08-4.15-.1-6.21,0-1.69.08-3.06.97-3.45,2.61-.41,1.74-.62,3.6-.52,5.38.11,2.05,1.56,3.25,3.5,3.75,2.19.57,4.29.19,6.34-.71.95-.42,1.39-1.05,1.31-2.14-.09-1.2-.02-2.41-.02-3.62Z"/>
  <path class="cls-1" d="m193.97,71.95c-3.82,3.44-8.2,4.48-13.01,4.25-5.05-.24-8.47-2.81-9.85-7.66-1.12-3.96-1.35-7.99-.35-12.01,1.44-5.75,6.01-9.38,11.95-9.55,2.99-.08,5.99-.07,8.98,0,1.11.02,1.44-.37,1.39-1.42-.07-1.44-.02-2.9-.02-4.34,0-3.25-1.45-5.02-4.63-5.63-3.81-.72-7.36.34-10.88,1.59-.85.3-1.69.66-2.72,1.07-.62-3.09-1.22-6.05-1.76-9.02-.04-.23.32-.69.59-.8,7.08-2.7,14.33-4,21.81-2.04,5.48,1.44,8.55,5.24,8.62,10.91.16,11.53.1,23.07.13,34.61,0,1.06,0,2.11,0,3.37-2.68,0-5.26.08-7.84-.07-.53-.03-1.06-.87-1.48-1.43-.36-.48-.56-1.09-.93-1.83Zm-1.13-16.27c-2.61,0-5.02-.1-7.41.03-1.56.09-2.83,1.05-3.19,2.56-.41,1.7-.63,3.51-.54,5.25.11,2.1,1.5,3.42,3.54,3.88,2.28.52,4.52.26,6.59-.87.44-.24.95-.82.96-1.26.08-3.13.04-6.26.04-9.6Z"/>
  <path class="cls-1" d="m360.87,54.92c0,2.49-.15,4.71.04,6.91.21,2.35,1.78,3.81,3.96,4.51,3.41,1.1,6.88.81,10.31.18,1.65-.3,3.25-.86,5.05-1.35.65,2.71,1.34,5.44,1.91,8.2.05.25-.65.85-1.09.98-5.53,1.61-11.21,2.16-16.9,1.65-2.48-.22-5.05-1.03-7.27-2.16-4.76-2.43-7.26-6.47-7.24-11.94.02-6.86.16-13.72-.05-20.57-.23-7.46,5.19-15.04,14.89-15.77,3.56-.27,7.05.12,10.27,1.82,4.46,2.35,7.02,6.08,7.27,11.08.25,5.06.09,10.14.16,15.21.01,1.07-.44,1.28-1.39,1.28-5.84-.03-11.69-.02-17.53-.02-.77,0-1.53,0-2.38,0Zm10.81-8.86c0-2.73.06-5.28-.02-7.83-.04-1.38-.75-2.52-2.04-3.1-2.33-1.05-4.71-1.1-6.91.27-.72.45-1.57,1.31-1.65,2.06-.32,2.84-.35,5.71-.49,8.61h11.12Z"/>
  <path class="cls-1" d="m236.61,36.43c-3.64-.49-7.02-.97-10.41-1.4-.57-.07-1.16-.02-1.73.06-2.46.33-3.69,1.33-4.09,3.25-.43,2.11.4,4.34,2.29,5.36,1.6.86,3.37,1.42,5.05,2.13,1.95.83,3.98,1.51,5.82,2.55,3.55,2,5.47,5.19,5.57,9.24.06,2.78-.06,5.62-.58,8.34-1.45,7.55-6.33,11.5-13.95,10.93-4.69-.35-9.31-1.52-13.96-2.33-.23-.04-.44-.17-.81-.31.58-3.1,1.16-6.15,1.75-9.3,2.17.55,4.19,1.21,6.25,1.54,2.12.35,4.3.55,6.45.5,2.06-.05,3.27-1.45,3.82-3.41.55-1.97.18-3.77-1.56-4.87-1.77-1.13-3.74-1.96-5.65-2.88-.87-.42-1.78-.74-2.68-1.09-5.81-2.27-8.54-6.76-8.77-12.77-.1-2.71,0-5.56.73-8.14,1.4-4.89,5.33-7.11,10.08-8,5.71-1.07,11.24.03,16.71,1.55.33.09.81.64.77.93-.32,2.77-.73,5.53-1.1,8.13Z"/>
  <path class="cls-1" d="m242.17,26.59c1.44,0,2.74-.07,4.02.02,1.25.09,1.54-.42,1.51-1.59-.06-3.62-.02-7.24-.02-11.1,3.65-.52,7.28-1.04,11.02-1.57,0,1.58.01,2.92,0,4.26-.03,2.75-.03,5.51-.15,8.25-.06,1.28.25,1.82,1.65,1.75,2.17-.11,4.34-.03,6.52-.03.52,0,1.04.05,1.77.08-.23,3.37-.45,6.62-.69,10.14h-9.23c0,.93,0,1.59,0,2.25,0,7.87,0,15.74.01,23.61,0,3.15,1.44,4.56,4.57,4.29,1.27-.11,2.51-.55,3.95-.88.14,1.67.29,3.33.42,4.98.03.34.02.68.04,1.01.13,2.8.14,2.89-2.7,3.38-2.13.37-4.3.65-6.46.68-7.03.11-10.66-3.51-10.69-10.53-.03-8.98-.02-17.96-.03-26.95,0-.52,0-1.05,0-1.82-1.56,0-2.99.05-4.42-.04-.38-.02-1.03-.49-1.04-.76-.07-3.08-.05-6.16-.05-9.46Z"/>
  <path class="cls-1" d="m5.93,61.7c-4.63-6.62-5.51-15.65-.26-23.18,3.39-4.86,7.93-8.43,13.06-11.24,7.24-3.96,14.55-7.8,21.85-11.64,3.05-1.61,5.95-3.4,8.35-5.91.12-.12.3-.18.55-.33.55,3.8.12,7.37-.73,10.97-2.19,9.32-8.62,14.7-16.75,18.7-6.66,3.27-13.27,6.67-19.77,10.26-3.36,1.86-5.66,4.82-6.27,8.77-.18,1.16-.03,2.38-.03,3.61Z"/>
  <path class="cls-1" d="m343.39,75.15h-11.03V7.09h11.03v68.06Z"/>
  <path class="cls-1" d="m285.19,75.17h-11.1c-.03-.5-.07-.92-.07-1.35-.01-15.11,0-30.21-.06-45.32,0-1.36.4-1.73,1.7-1.7,2.7.08,5.41.06,8.11,0,1.06-.02,1.53.23,1.53,1.44-.02,15.2,0,30.41.01,45.61,0,.42-.07.84-.12,1.31Z"/>
  <path class="cls-1" d="m.15,43.52C-1.26,27.54,7.52,10.56,24.49,3.25c15.83-6.82,33.03-2.13,42.46,6.89-13.96-4.89-27.52-4.39-40.61,2.16C13.29,18.83,4.72,29.3.15,43.52Z"/>
  <path class="cls-1" d="m274.08,20.34V7.24h11.09v13.1h-11.09Z"/>
</svg>