<?xml version="1.0" encoding="UTF-8"?>
<svg id="Capa_1" data-name="Capa 1" xmlns="http://www.w3.org/2000/svg" fill="#fff" viewBox="0 0 1440 970">
  <path d="m859,0c29.53,51,59.08,101.99,88.58,153.01,92.26,159.54,184.51,319.09,276.75,478.64.82,1.42,1.56,2.88,2.63,4.87-2.06.12-3.62.29-5.18.29-91.49.01-182.99-.01-274.48.09-3.68,0-5.55-1.27-7.35-4.39-96.9-168.58-193.88-337.12-290.85-505.66-.81-1.41-1.53-2.87-2.48-4.67,2.05-1.2,3.88-2.29,5.72-3.36,67.41-38.73,134.82-77.45,202.22-116.2,1.24-.71,2.3-1.74,3.45-2.62.33,0,.67,0,1,0Z"/>
  <path d="m765,970c-9.39-2.7-19.04-4.7-28.12-8.21-49.13-19-82.27-69.1-80.58-121.13,1.77-54.46,36.32-100.91,88.15-116.85,37.71-11.6,74.02-7.56,108.03,13.21.94.58,1.88,1.15,3.42,2.09v-101.86h59.69v327.52h-59.46v-15.57c-1.63.85-2.65,1.29-3.57,1.88-14.87,9.29-30.96,15.33-48.29,18.04-.78.12-1.5.58-2.25.88h-37Zm19.84-56.79c38.87,0,71.16-31.51,71.19-69.49.03-38.07-32.61-70.47-71.06-70.54-37.35-.06-69.93,32.9-69.84,70.66.09,37.47,32.14,69.35,69.72,69.36Z"/>
  <path d="m390,970c-3.83-.96-7.65-1.95-11.49-2.86-58.89-14.09-99.3-67.66-97.45-129.2,1.74-57.77,45.81-107.82,104.33-118.06,32.75-5.73,63.63-.55,92.04,17.3.7.44,1.43.84,2.16,1.24.13.07.31.04,1.07.13v-101.39h60.17v327.53h-59.7v-15.22c-1.66.63-2.74.87-3.63,1.41-15.24,9.27-31.55,15.68-49.24,18.4-.45.07-.84.48-1.26.73h-37Zm20.15-56.79c38.33.06,70.65-31.75,70.65-69.53,0-37.85-32.73-70.53-70.61-70.49-38.42.04-71.16,32.44-71.17,70.46-.01,37.93,32.28,69.51,71.13,69.57Z"/>
  <path d="m1045,970c-9.07-2.59-18.4-4.52-27.18-7.89-51.08-19.57-85.05-70.86-81.42-126.4,4.05-61.89,50.79-106.93,103.89-115.88,32.75-5.52,63.66-.62,91.94,17.59.66.43,1.35.81,2.61,1.57v-18.64h60.49v244.37h-60.26v-14.67c-9.94,4.61-19.34,9.57-29.19,13.35-7.68,2.95-15.91,4.45-23.9,6.6-12.33,0-24.67,0-37,0Zm20.29-56.78c37.95.1,69.62-31.24,69.75-69.03.14-38.4-31.39-70.76-69.18-71.01-37.84-.25-70.73,32.34-70.83,70.19-.11,37.88,31.95,69.74,70.27,69.85Z"/>
  <path d="m0,833c1.31-6.83,2.32-13.73,3.98-20.46,12.18-49.35,55.71-87.69,106.12-93.66,31.32-3.71,60.66,1.74,87.48,18.87.53.34,1.12.59,2.35,1.22v-18.78h59.61v244.57h-59.42v-15.56c-1.76.94-2.92,1.47-3.99,2.13-14.77,9.13-30.71,15.09-47.87,17.77-.78.12-1.5.58-2.25.88h-37c-.91-.33-1.8-.77-2.74-.96-48.91-9.92-82.21-38.25-99.34-85.07C3.52,874.71,2.25,864.68,0,855c0-7.33,0-14.67,0-22Zm128.69,80.21c38.9.04,71.29-31.45,71.33-69.35.04-38.14-32.42-70.49-70.91-70.68-37.87-.19-70.64,32.33-70.83,70.27-.18,37.71,32.13,69.72,70.41,69.76Z"/>
  <path d="m1308,970c-10.43-2.68-21.19-4.46-31.21-8.21-30.15-11.28-50.31-31.79-56.31-64.4-.6-3.25-.77-6.58-1.19-10.31h63.12c.13.15.47.37.51.64,3.36,20.79,12.77,30.89,33.55,35.58,11.52,2.61,23.11,3.15,34.57-.36,8.36-2.56,15.43-7.08,20.07-14.74,6.16-10.17,3.81-21.38-7.04-26.12-9-3.93-18.93-6.17-28.66-7.94-22.25-4.04-44.59-7.3-66.18-14.6-49.45-16.73-59.83-82.84-19.67-117.23,17.94-15.36,39.32-22.1,62.33-24,23.33-1.93,46.32,0,68.02,9.72,27.71,12.41,44.68,33.37,49.73,63.57.3,1.78.35,3.6.55,5.83h-60.98c-.25-1.21-.63-2.6-.81-4.01-2.18-16.9-9.05-24.64-25.8-27.71-12.74-2.33-25.59-1.8-38.13,1.6-7.35,1.99-13.43,5.93-16.07,13.64-2.77,8.12-.11,15.17,7.81,20.02,9.87,6.03,21.14,7.73,32.21,10.04,20.5,4.28,41.31,7.51,61.35,13.35,19.92,5.8,36.08,17.94,44.96,37.63,2.42,5.37,3.56,11.33,5.28,17.02v18c-1.79,7.02-2.93,14.3-5.49,21.03-9.46,24.88-29.05,38.42-53.5,45.82-8.82,2.67-18,4.14-27.02,6.15h-46Z"/>
  <path d="m615.86,223.47c79.5,137.72,158.78,275.06,238.52,413.2h-222.39v60.15h-60.8v-5.47c0-16.67.13-33.33-.11-50-.05-3.14-.92-6.63-2.49-9.34-53.96-93.42-108.05-186.76-162.11-280.11-1-1.73-1.99-3.46-3.29-5.72,70.84-40.88,141.55-81.67,212.67-122.71Z"/>
  <path d="m153.84,564.68c71.03-41.07,141.59-81.88,212.7-123,37.39,64.83,74.68,129.46,112.39,194.83-2.26.13-3.8.3-5.34.3-91.29.01-182.58.03-273.87-.09-1.97,0-4.92-.89-5.76-2.32-13.43-22.97-26.6-46.1-40.12-69.71Z"/>
  <path d="m571.5,720.34h59.98v244.35h-59.98v-244.35Z"/>
</svg>