<?xml version="1.0" encoding="UTF-8"?>
<svg id="Capa_1" data-name="Capa 1" xmlns="http://www.w3.org/2000/svg" viewBox="0 0 644.24 280.18">
  <defs>
    <style>
      .cls-1 {
        fill: #fff;
      }
    </style>
  </defs>
  <path class="cls-1" d="m520.3,35.92c-2.54,17.05-17.07,28.71-34,27.03-15.22-1.51-27.29-15.17-27.26-30.95.03-15.86,12.26-29.51,27.57-30.87,16.7-1.49,31.22,10.08,33.6,27.26,5.28-19.41,17.18-29.66,37.83-26.62,10.74,1.58,22.5,10.78,24.85,27.55,2.84-20.55,21.26-29.66,35.44-27.29,16.49,2.77,26.29,17.46,25.9,31.49-.41,14.52-11.25,27.4-25.36,29.91-14.05,2.5-33-6.23-35.98-27.31-2.31,17.51-15.55,26.72-27.2,28.11-8.85,1.06-16.77-1.18-23.67-6.78-6.82-5.54-10.48-12.89-11.71-21.54Z"/>
  <path class="cls-1" d="m5.12,174.56c3.16-7.73,6.17-15.08,9.18-22.44C33.93,104.11,53.57,56.09,73.16,8.05c.61-1.49,1.26-2.09,2.94-2.05,4.81.14,9.62.13,14.43,0,1.66-.05,2.36.51,2.96,2.02,14.68,36.99,29.42,73.97,44.15,110.94,7.06,17.72,14.11,35.45,21.17,53.17.27.68.54,1.37.88,2.24-.61.08-.99.18-1.37.18-7.01.01-14.02-.04-21.03.05-1.5.02-2-.59-2.42-1.85-4.42-13.35-8.92-26.68-13.29-40.05-.59-1.82-1.38-2.38-3.3-2.37-23.58.08-47.16.07-70.73,0-1.82,0-2.58.58-3.22,2.26-5.11,13.33-10.37,26.6-15.47,39.93-.64,1.67-1.48,2.1-3.14,2.08-6.72-.09-13.45-.04-20.58-.04Zm110.28-60.84c-10.96-27.25-21.85-54.35-32.95-81.97-11.11,27.63-21.99,54.71-32.95,81.97h65.9Z"/>
  <path class="cls-1" d="m432.87,12.91c-2.06,5.81-4.07,11.49-6.17,17.4-2.28-1.2-4.39-2.29-6.48-3.41-6.76-3.6-13.73-6.87-21.44-7.49-24.85-2.01-53.36,7.03-65.12,39.52-4.86,13.42-5.84,27.33-4.78,41.44.73,9.74,2.88,19.14,7.17,27.96,8.96,18.46,23.89,28.88,43.89,32.42,16.76,2.97,32.64.02,47.91-7.1.42-.2.85-.37,1.52-.66,1.47,5.89,2.91,11.65,4.39,17.58-.61.33-1.18.68-1.78.96-15.63,7.35-32.09,10.2-49.28,9.16-15.23-.92-29.49-4.95-42.26-13.48-16.74-11.18-27-27-31.69-46.33-6.03-24.87-5.14-49.44,5.84-72.9,11.86-25.35,32.14-40.35,59.38-45.97,11.18-2.31,22.48-2.78,33.77-.51,9.19,1.84,17.22,6.26,25.14,11.43Z"/>
  <path class="cls-1" d="m185.89,6.16h99.24v19.48h-79.23v51.33h70.61v19.56h-70.69v77.88h-19.94V6.16Z"/>
  <path class="cls-1" d="m0,221.61v-6.73h641.38v6.73H0Z"/>
  <path class="cls-1" d="m552.17,176h-7.94c-.04-.78-.11-1.5-.11-2.22,0-7.56.05-15.12-.04-22.67-.02-2.18-.18-4.42-.71-6.53-1.68-6.66-8.34-9.55-14.41-6.29-4.22,2.27-6.37,5.95-6.4,10.76-.05,8.18-.01,16.35-.01,24.53,0,.74,0,1.48,0,2.36h-7.84v-65.4h7.83v27.1c.22.14.44.29.65.43.11-.32.13-.7.33-.96,4.14-5.51,10.86-8.07,17.07-6.35,6.77,1.88,10.02,6.81,11.14,13.41.31,1.82.41,3.69.42,5.53.04,8.04.02,16.08.02,24.12v2.18Z"/>
  <path class="cls-1" d="m506.05,115.46c-.66,2.24-1.27,4.32-1.92,6.52-5.43-2.29-10.96-3.08-16.65-2.2-10.97,1.71-17.91,8.88-19.42,19.92-.64,4.68-.55,9.32.66,13.91,2.68,10.09,10.3,16.19,20.73,16.62,5.06.21,9.97-.47,14.85-2.49.56,2.15,1.09,4.19,1.76,6.74-3.33.74-6.49,1.65-9.7,2.11-5.34.77-10.71.76-15.95-.7-9.81-2.73-16.41-8.92-19.43-18.69-2.46-7.97-2.42-16.01.22-23.92,4.43-13.27,16.64-21.22,31.38-20.59,4.54.19,9.04.66,13.47,2.78Z"/>
  <path class="cls-1" d="m640.46,155.19h-30.65c-1.33,5.19,2.47,12.05,7.94,14.21,5.64,2.23,11.32,1.47,16.96-.19.59-.17,1.16-.41,2.08-.74.41,1.76.86,3.44,1.14,5.15.05.32-.5.96-.89,1.1-7.8,2.66-15.68,3.55-23.53.35-4.08-1.66-7.25-4.57-9.07-8.6-4.42-9.74-3.88-19.3,2.12-28.19,4.92-7.3,14.76-10.02,22.92-6.74,1.56.63,3.14,1.51,4.37,2.64,6.16,5.68,7.33,12.97,6.63,21.02Zm-7.71-6.03c.67-7.02-3.68-12.53-10.19-13.04-6.62-.52-12.32,5.17-12.95,13.04h23.13Z"/>
  <path class="cls-1" d="m584.49,175.95v-65.45h7.91v65.45h-7.91Z"/>
  <path class="cls-1" d="m486.9,252.86v26.52h-3.87c-.04-.57-.12-1.1-.12-1.63,0-9.97,0-19.93,0-29.9,0-.94-.25-2.02,1.22-2.15,1.27-.11,2.5-.92,3.55.83,4.87,8.12,9.88,16.16,14.91,24.36.05-.47.14-.94.14-1.42-.02-6.87-.07-13.75-.09-20.62-.01-3.31.07-3.38,3.81-3.36v33.82c-2.33.72-3.69-.06-4.89-2.13-4.67-8-9.53-15.88-14.64-24.33Z"/>
  <path class="cls-1" d="m185.53,262.63c0-3.3.2-6.39,1.29-9.3,2.04-5.47,6.81-8.4,12.74-8.34,5.97.06,10.61,3.05,12.66,8.51,2.28,6.08,2.28,12.27-.04,18.34-2.08,5.46-6.45,8.21-12.53,8.25-6.29.04-10.74-2.57-12.82-8.08-1.11-2.97-1.3-5.66-1.3-9.37Zm4.12-.41c0,3.3.16,6.8,1.92,9.74,1.87,3.14,4.71,4.43,8.3,4.34,3.45-.09,6.27-1.46,7.7-4.61,2.72-5.99,2.76-12.15-.09-18.12-1.6-3.36-4.62-4.72-8.31-4.65-3.63.07-6.52,1.57-7.88,4.93-1.08,2.68-1.64,5.47-1.64,8.36Z"/>
  <path class="cls-1" d="m248.7,279.24v-33.44c6-.98,11.96-1.7,17.64,1.29,3.64,1.92,5.6,5.19,6.54,9.08.93,3.86.97,7.76.11,11.65-1.46,6.61-5.48,10.59-12.18,11.33-3.92.43-7.93.08-12.11.08Zm4.32-30.44v26.77c2.31,0,4.5.21,6.65-.04,4.9-.57,7.63-3.06,8.87-7.86.93-3.59.91-7.2-.01-10.8-1.05-4.09-3.52-6.89-7.71-7.65-2.51-.45-5.13-.3-7.79-.42Z"/>
  <path class="cls-1" d="m564.22,175.95v-44.48h7.84v44.48h-7.84Z"/>
  <path class="cls-1" d="m151.84,245.93c3.9-.84,7.78-1.22,11.67-.51,4.75.86,7.76,4,8.31,8.45.62,4.93-1.47,8.77-5.92,10.91-.36.17-.72.36-1.27.63,2.73,4.65,5.42,9.23,8.28,14.1-1.6,0-2.83.14-4.01-.06-.59-.1-1.24-.73-1.57-1.29-1.88-3.27-3.8-6.53-5.44-9.92-.92-1.9-2.1-2.67-4.13-2.33-.53.09-1.08.01-1.88.01v13.48h-4.05v-33.48Zm4.11,16.45c2.48-.2,4.87-.22,7.18-.62,2.2-.38,3.58-1.93,4.12-4.11,1.18-4.78-1.09-8.19-5.95-8.77-1.73-.21-3.51-.03-5.35-.03v13.53Z"/>
  <path class="cls-1" d="m94.22,249.93c-2.81-.35-5.37-.91-7.94-.96-6.32-.12-10.37,3.06-11.32,9.32-.48,3.18-.43,6.63.27,9.76,1.55,6.87,7.58,9.71,15.46,7.62v-13.76h4.45c0,5.25.03,10.45-.05,15.65,0,.42-.61,1.06-1.06,1.21-4.73,1.59-9.55,1.95-14.35.42-4.31-1.38-6.96-4.53-8.39-8.71-1.52-4.46-1.69-9.04-.65-13.61,1.67-7.36,6.47-11.38,14.33-11.79,2.57-.13,5.18.4,7.76.66,1.85.18,2.49,1.16,1.85,2.94-.16.45-.27.91-.36,1.23Z"/>
  <path class="cls-1" d="m626.82,279.61c-9.06-.02-16.12-7.04-16.12-16.03,0-8.95,7.12-15.92,16.24-15.89,9.02.03,15.97,6.95,15.97,15.9,0,9.06-7,16.03-16.09,16.02Zm12.01-16.05c-.03-7.25-5.25-12.74-12.08-12.67-6.85.06-12.05,5.6-11.99,12.78.05,7.16,5.33,12.59,12.23,12.56,6.75-.03,11.87-5.51,11.84-12.67Z"/>
  <path class="cls-1" d="m115.13,245.53c0,.72,0,1.45,0,2.19,0,6.66-.04,13.33.02,19.99.05,4.96,1.88,7.6,5.63,8.42,5.9,1.3,9.95-1.8,10.04-7.85.1-6.32.02-12.64.03-18.96,0-3.83.1-3.93,4.3-3.85,0,.87,0,1.74,0,2.62,0,6.8.05,13.6-.03,20.4-.06,5.83-2.99,10.04-8.2,11.16-7.36,1.59-13.41-.59-15.38-7.24-.46-1.55-.59-3.25-.61-4.88-.07-6.18-.03-12.36-.03-18.55,0-3.44.22-3.63,4.22-3.46Z"/>
  <path class="cls-1" d="m378.46,245.82h18.57c0,.75,0,1.42,0,2.08-.02,1.29-.63,1.75-1.95,1.72-3.36-.08-6.73-.03-10.1-.03-.74,0-1.47,0-2.3,0v10.89h12.71c0,.81,0,1.41,0,2.01.01,1.35-.54,1.9-1.99,1.86-3.49-.1-6.99-.03-10.66-.03v11.29h14.43c-.14,1.43-.25,2.62-.37,3.84h-18.35v-33.62Z"/>
  <path class="cls-1" d="m446.57,279.45h-3.93c.13-.6.19-1.12.35-1.61,3.18-9.99,7.42-22.13,10.62-32.11.54-1.7,3.01-.97,4.5-.06.29.18.46.65.58,1.02,3.4,10.56,6.78,21.13,10.16,31.7.1.31.09.65.13.96-.22.07-.34.13-.48.14q-3.63.19-4.68-3.3-1.56-5.22-7.02-5.22c-1.72,0-3.44.12-5.14-.03-1.79-.16-2.73.35-3.13,2.24-.45,2.13-1.28,4.17-1.95,6.27Zm14.48-12.33c-1.72-5.61-3.4-11.09-5.09-16.57-.16.03-.31.06-.47.08-1.67,5.45-3.34,10.9-5.05,16.49h10.61Z"/>
  <path class="cls-1" d="m602.28,279.44h-4.3c-.72-2.39-1.46-4.73-2.12-7.11-.28-1.02-.78-1.41-1.87-1.39-3.36.07-6.73.09-10.09,0-1.24-.04-1.69.5-1.98,1.55-.41,1.52-1.04,2.99-1.33,4.53-.39,2.07-1.44,2.93-3.52,2.49-.39-.08-.8-.07-1.38-.11,1.38-4.34,2.73-8.57,4.08-12.81,2.02-6.33,4.11-12.64,6.02-19,.8-2.65,2.94-1.66,4.58-2.02,1.55-.34,1.5,1.09,1.78,1.97,3.16,9.78,6.29,19.56,9.42,29.35.25.77.44,1.57.7,2.53Zm-13.12-28.93c-.14,0-.27-.02-.41-.03-1.69,5.5-3.39,10.99-5.1,16.56h10.58c-1.72-5.62-3.39-11.08-5.07-16.53Z"/>
  <path class="cls-1" d="m307.98,275.62c-.14,1.36-.27,2.49-.4,3.76h-18.42v-33.49h18.79c-.13,1.16-.26,2.28-.42,3.65h-14.11v10.9h12.9c-.16,1.41-.29,2.53-.44,3.85h-12.61c0,3.54-.06,6.89.08,10.23.02.39,1.09,1.04,1.68,1.06,3.5.1,7,.05,10.5.05.75,0,1.49,0,2.44,0Z"/>
  <path class="cls-1" d="m42.11,275.68h14.6c-.15,1.36-.28,2.49-.41,3.68-.45.06-.78.15-1.11.15-5.69,0-11.39,0-17.24,0v-33.67h18.47c.09.2.19.32.18.44-.39,4.01.03,3.26-3.48,3.31-3.63.05-7.25.01-11.01.01v10.88h12.9c-.15,1.4-.27,2.52-.41,3.84h-12.5v11.37Z"/>
  <path class="cls-1" d="m20.8,249.58c-3.24-.23-6.37-.71-9.47-.59-2.87.11-4.47,1.76-4.81,3.99-.42,2.72.6,4.74,3.27,6.01,2.41,1.14,4.97,1.98,7.37,3.15,4.01,1.95,5.85,5.21,5.46,9.71-.35,4.04-3.34,7.41-7.94,7.93-3.15.36-6.46.13-9.6-.4-3.45-.59-3.59-1.22-2.7-4.16,3.52.38,6.94,1.06,10.35,1.03,3.19-.03,5-1.85,5.46-4.37.51-2.8-.66-4.9-3.71-6.37-2.41-1.16-4.95-2.06-7.32-3.28-3.56-1.84-5.32-4.88-5.1-8.92.24-4.35,2.94-7.41,7.52-7.89,2.95-.31,6.03-.12,8.97.32,3.32.5,3.39.94,2.25,3.86Z"/>
  <path class="cls-1" d="m410.98,274.56c3.43,1.45,6.79,2.3,10.37,1.74,3.09-.48,4.93-2.07,5.33-4.63.4-2.56-.79-4.73-3.59-6.09-2.28-1.11-4.69-1.94-6.97-3.06-3.71-1.82-5.81-4.75-5.64-9.02.18-4.49,2.84-7.61,7.5-8.11,2.95-.32,6.03-.12,8.97.32,3.32.5,3.41,1,2.29,3.84-3.33-.21-6.52-.67-9.68-.53-2.78.12-4.34,1.83-4.68,4.14-.35,2.47.67,4.55,3.11,5.72,2.28,1.09,4.71,1.89,7.01,2.95,3.08,1.41,5.4,3.55,5.93,7.11.85,5.7-2.25,10.19-8.01,10.87-3.08.36-6.32.11-9.39-.42-3.53-.62-3.58-1.05-2.55-4.82Z"/>
  <path class="cls-1" d="m362.8,249.89c-2.52-.33-4.93-.87-7.35-.9-4.47-.04-7.56,2.25-9.1,6.42-1.67,4.52-1.73,9.17-.2,13.73,2.09,6.21,7.84,8.64,14.99,6.48.64-.19,1.28-.41,1.94-.63.16,3.84-.44,4.69-3.99,4.92-2.38.15-4.85.28-7.17-.17-4.73-.91-7.95-3.93-9.66-8.39-2.14-5.59-2.21-11.31-.21-16.93,2.87-8.07,12.44-11.97,20.21-8.29,2.15,1.02.64,2.65.54,3.76Z"/>
  <path class="cls-1" d="m543.92,245.89c0,.66-.02,1.14,0,1.62.08,1.53-.49,2.21-2.16,2.12-2.39-.14-4.8-.04-7.48-.04v29.78h-4.33v-29.76h-9.68c.08-1.34.15-2.46.22-3.72h23.43Z"/>
  <path class="cls-1" d="m561.79,279.45h-4.14c0-.86,0-1.65,0-2.45,0-9.26,0-18.52,0-27.78,0-3.69.04-3.73,4.14-3.75v33.99Z"/>
  <path class="cls-1" d="m568.06,123.66c-2.87,0-4.86-1.99-4.88-4.92-.03-2.98,2.01-5.09,4.95-5.11,2.94-.02,4.98,2.03,5.01,5.05.03,2.92-2.06,4.97-5.07,4.97Z"/>
  <path class="cls-1" d="m634.23,271.52h-3.56l-3.9-6.09h-3.06v6.09h-3.08v-16.31h7.72c1.72,0,3.11.47,4.16,1.42,1.05.95,1.58,2.18,1.58,3.69,0,1.37-.41,2.47-1.21,3.29s-1.79,1.32-2.95,1.5l4.29,6.41Zm-6.3-8.61c.88,0,1.6-.24,2.16-.71s.84-1.1.84-1.88-.28-1.41-.84-1.88-1.28-.71-2.16-.71h-4.22v5.19h4.22Z"/>
</svg>