<?xml version="1.0" encoding="UTF-8"?>
<svg id="Capa_1" data-name="Capa 1" xmlns="http://www.w3.org/2000/svg" fill="#fff" viewBox="0 0 1252.71 219.26">
  <g>
    <path d="m759.2,166.43h-20.32c0-2.05,0-3.88,0-5.71,0-15.14.06-30.28-.02-45.43-.1-18.33-13.96-32.46-31.74-32.47-17.79-.01-31.57,14.08-31.65,32.51-.07,16.84-.02,33.68-.02,50.92h-20.61c0-1.65,0-3.45,0-5.25,0-15.66.19-31.32-.08-46.97-.29-16.28-12.76-29.41-28.97-31.1-15-1.56-29.73,8.64-33.46,23.45-.83,3.29-.97,6.81-.99,10.22-.1,14.62-.04,29.25-.04,43.88v5.87h-20.12c-.21-.88-.49-1.52-.49-2.15,0-17.38-.52-34.78.17-52.13,1.16-29.18,25.17-50.87,54.41-49.71,14.28.57,26.22,6.52,36.05,16.79,1.07,1.12,2.09,2.27,3.15,3.4.09.1.3.09-.59-.16,7.01-5.13,12.98-10.79,20.01-14.42,33.73-17.46,74.7,7.03,75.52,44.96.36,16.68.08,33.38.07,50.07,0,1-.17,2-.29,3.43Z"/>
    <path d="m209.22,167.16v41.49h-20.74c0-1.7,0-3.35,0-5,0-29.08-.07-58.16.02-87.23.09-29.06,19.25-50.35,48.09-53.68,27.69-3.2,53.46,18.34,56.78,47.47,3.03,26.6-18.33,53.66-44.99,56.19-10.77,1.02-21.68.55-32.53.75-2.02.04-4.03,0-6.63,0Zm-.31-38.89c.09,0,.18,0,.26.01,0,4.99-.21,9.99.15,14.96.09,1.2,2.06,3.22,3.17,3.23,10.85.1,21.76.48,32.54-.45,16.23-1.41,28.28-15.68,27.9-31.78-.39-16.63-13.66-30.06-30.7-31.08-15.62-.94-30.24,10.84-32.42,26.6-.84,6.1-.63,12.34-.91,18.52Z"/>
    <path d="m970.75,62.77V21.29h20.22c.13,1.3.41,2.76.41,4.22.02,29.94.21,59.88-.04,89.81-.23,27.16-19.95,48.4-47.38,51.64-24.7,2.92-49.2-14.2-55.64-38.89-8.68-33.34,15.98-64.76,51.31-65.28,10.14-.15,20.28-.02,31.11-.02Zm-.36,20.93c-12.15,0-23.87-.7-35.48.17-16.06,1.2-28,15.59-27.63,31.85.38,16.86,13.35,29.97,30.57,30.93,15.65.87,30.86-10.94,32.31-26.58,1.11-11.89.22-23.97.22-36.36Z"/>
    <path d="m1107.34,112.37c-26.23,6.54-52.51,13.09-78.96,19.68,8.82,15.73,31.27,19.55,45.74,7.79,4.35-3.54,8.82-5.58,14.12-6.66,5.33-1.09,10.58-2.56,16.1-3.93-5.01,23.45-30.92,40.81-55.51,37.67-27.75-3.54-47.83-26.4-46.8-53.26,1.08-27.88,22.79-49.66,50.61-50.76,28.05-1.12,50.9,19.4,54.69,49.46Zm-26.91-14.45c-6.83-12.15-21.52-17.43-35.31-13.22-12.73,3.89-22.33,15.85-21.49,27.24,18.84-4.65,37.61-9.28,56.79-14.02Z"/>
    <path d="m79.36,145.94v21.38c-13.71-.85-27.56,0-40.57-2.89C13.82,158.88-2.47,133.95.31,108.79c2.78-25.14,24.2-45.55,48.87-46.56,26.99-1.1,49.73,16.21,54.94,41.87.38,1.85.65,3.75.65,5.63.05,18.71.03,37.43.03,56.47h-20.09c-.1-2.13-.28-4.13-.29-6.13-.03-14.97.19-29.94-.09-44.91-.35-19.15-14.35-32.81-32.77-32.42-16.92.36-30.72,14.35-30.82,31.27-.11,17.37,13.4,31.53,30.6,31.87,9.13.18,18.26.03,28.02.03Z"/>
    <path d="m824.01,62.82c29.06.56,52.51,24.49,51.73,52.79-.81,29.3-24.57,52.23-53.5,51.63-29.11-.6-51.93-24.45-51.36-53.66.55-28.43,24.51-51.32,53.13-50.76Zm-.86,20.58c-17.83.02-31.89,14.06-31.79,31.75.1,17.71,14.29,31.67,32.05,31.53,17.72-.14,31.74-14.36,31.6-32.05-.14-17.32-14.36-31.26-31.86-31.24Z"/>
    <path d="m1147.94,114.9c-.03-28.95,23.18-52.09,52.25-52.08,28.9,0,52.51,23.39,52.52,52,0,28.91-23.71,52.51-52.7,52.43-28.91-.08-52.03-23.34-52.07-52.35Zm52.27-31.48c-17.76-.03-32.14,14.21-31.98,31.65.16,17.72,14.34,31.71,32.06,31.62,17.66-.09,31.88-14.38,31.8-31.97-.08-17.2-14.42-31.28-31.88-31.31Z"/>
    <path d="m180.12,20.52v20.01c-14.66-.69-28.27,1.5-37.06,15.07-5.41,8.37-4.9,17.55-4.38,27.34h41.25v20.36h-41.27v62.89h-20.66c-.09-1.8-.27-3.61-.27-5.43-.02-28.72.69-57.47-.2-86.17-1.01-32.49,27.27-58.61,62.59-54.08Z"/>
    <path d="m1117.48,21.07h19.84v145.92h-19.84V21.07Z"/>
  </g>
  <path d="m532.94,100.75c.05,15.24-.87,40.12-32.24,61.03,0,0,18.44-21.78,18.44-54.44,0-11.56-2.45-24.62-13.33-24.44-14,.22-20.22,7.56-25.56,93.78l-12.22,1.56s1.11-49.33,0-61.33c-1.11-12-4.22-29.11-22-29.11s-25.78,17.78-25.78,35.33,11.33,45.33,19.78,58.67h-26.89s-19.33-29.11-19.33-58.67,25.11-59.78,52.67-59.78c20,0,29.56,12.89,30.22,14.22,0,0,13.56-19.56,30.22-19.56,9.52,0,16.65,7.98,21.01,17.56C513.73,31.7,472.82,0,424.56,0c-60.06,0-108.74,49.08-108.74,109.63s48.68,109.63,108.74,109.63,108.74-49.08,108.74-109.63c0-2.99-.12-5.95-.36-8.88Z"/>
</svg>