<?xml version="1.0" encoding="UTF-8"?>
<svg id="Capa_1" data-name="Capa 1" xmlns="http://www.w3.org/2000/svg" viewBox="0 0 908 168.8">
  <defs>
    <style>
      .cls-1 {
        fill: #fff;
      }
    </style>
  </defs>
  <path class="cls-1" d="m201.32,139.89c1.14-6.18,2.28-12.3,3.41-18.43,3.37-18.24,6.78-36.47,10.06-54.73.29-1.62,0-3.45-.42-5.07-.75-2.8-1.83-5.52-2.85-8.51.65-.08,1.14-.2,1.63-.2,12.03.06,24.06-.06,36.08.32,4.14.13,8.4,1.11,12.34,2.47,7.75,2.68,11.34,8.21,11.13,16.39-.25,10.06-4.32,17.91-13.56,22.61-.21.11-.39.26-.58.4-.03.02-.02.11-.05.31.41.2.86.44,1.32.65,7.25,3.37,10.67,10.95,9.08,18.82-2.11,10.47-7.45,18.38-17.31,22.72-3.88,1.7-8.07,3.01-12.25,3.64-12.53,1.88-25.05,1.04-37.49-1.1-.11-.02-.21-.11-.54-.28Zm17.44-11.3c.43.13.7.28.98.29,5.41.14,10.82.5,16.22.32,4.35-.15,8.66-1.12,12.2-3.94,4.77-3.79,6.49-8.97,5.55-14.78-.81-4.97-4.92-6.62-9.31-7.57-.29-.06-.59-.12-.88-.13-6.3-.13-12.6-.27-18.9-.31-.41,0-1.11.75-1.21,1.25-.9,4.42-1.7,8.87-2.52,13.31-.71,3.84-1.41,7.68-2.13,11.57Zm7.28-39.14c.3.12.46.25.62.25,5.48-.03,10.98.23,16.42-.19,7.97-.6,12.37-4.45,14.16-11.59,1.53-6.09-.87-10.3-7-11.85-6.28-1.59-12.67-.77-19.01-.35-.38.03-.93.82-1.04,1.33-.61,2.85-1.12,5.71-1.65,8.58-.85,4.61-1.68,9.22-2.51,13.82Z"/>
  <path class="cls-1" d="m605.44,54.01c.06,4.58-.6,8.84-2.35,12.87-.19.45-1.24.75-1.89.75-11.97.04-23.94.08-35.91-.02-1.88-.02-2.52.49-2.82,2.35-.99,6.1-2.21,12.17-3.33,18.25-.04.23,0,.47,0,.93h35.62c.32,3.14.02,5.98-.85,8.78q-1.45,4.65-6.2,4.66c-9.71,0-19.42.03-29.12-.03-1.58-.01-2.26.33-2.55,2.04-1.12,6.74-2.44,13.45-3.67,20.18-.08.46-.07.94-.12,1.63h40.61c.76,4.69-.08,8.94-1.96,13-.18.39-1.19.57-1.81.57-14.71.03-29.42.02-44.13.02-3.44,0-6.88,0-10.57,0,.6-3.31,1.16-6.39,1.73-9.47,3.95-21.4,7.93-42.79,11.82-64.2.23-1.28,0-2.74-.35-4.02-.73-2.74-1.67-5.43-2.57-8.28h60.42Z"/>
  <path class="cls-1" d="m823.99,76.63c.97-5.25,2.06-10.55,2.88-15.88.31-2.02,1-3.04,3.09-3.52,4.4-1.01,8.72-2.33,13.44-3.62-.46,2.61-.85,4.97-1.28,7.33-4.5,24.45-9,48.9-13.49,73.35-.2,1.08-.58,1.74-1.7,2.21-10.44,4.37-21.25,6.51-32.57,5.59-4.3-.35-8.45-1.41-12.3-3.42-7.64-3.98-11.61-10.45-12.27-18.87-1.63-20.84,12.12-39.39,32.53-43.9,6.71-1.48,13.47-1.51,20.13.54.34.1.68.21,1.03.29.1.02.23-.04.5-.09Zm-21.31,52.57c3.29-.57,6.61-1.18,9.95-1.7,1.7-.26,2.24-1.26,2.53-2.85,1.9-10.65,3.84-21.29,5.89-31.91.31-1.59-.17-2.24-1.49-2.83-5.55-2.48-11.24-2.47-16.92-.79-11.22,3.31-18.24,13.78-17.16,26.28.51,5.94,3.6,10.32,9.41,12.25,2.45.81,5.09,1.03,7.8,1.55Z"/>
  <path class="cls-1" d="m751.01,103.76c.31-1.84.67-3.41.81-5,.53-6.01-2.81-9.82-9.22-10.64-7.74-.98-14.9.82-21.58,4.65-1.15.66-1.87.57-2.79-.27-2.23-2.02-3.58-4.45-3.59-7.49,0-.59.36-1.43.83-1.75,11.85-8.02,24.75-10.59,38.59-6.73,8.3,2.31,12.9,8.48,12.67,17.09-.15,5.61-1.18,11.21-2.12,16.77-1.37,8.09-2.98,16.14-4.57,24.19-.13.65-.78,1.47-1.39,1.72-10.57,4.28-21.57,6.3-32.97,5.72-3.12-.16-6.3-.71-9.29-1.61-9.48-2.87-13.46-9.97-11.17-19.62,2.24-9.46,8.84-14.71,17.62-17.49,8.43-2.67,17.01-2.51,25.54-.24.79.21,1.59.42,2.62.69Zm-15.62,26.97c3.09-.51,6.96-1.16,10.82-1.79,1.08-.18,1.56-.76,1.74-1.89.59-3.64,1.26-7.27,1.99-10.88.22-1.09-.01-1.6-1.09-1.97-4.62-1.57-9.36-2.29-14.23-2.01-3.35.2-6.66.73-9.39,2.92-3.04,2.44-4.11,5.72-3.34,9.41.71,3.43,3.55,4.78,6.64,5.42,1.97.41,4.01.47,6.86.77Z"/>
  <path class="cls-1" d="m319.31,103.97c.24-2.56.71-4.97.63-7.37-.13-3.72-2.32-6.17-5.76-7.41-5.13-1.83-10.37-1.51-15.47-.07-3.34.95-6.53,2.5-9.72,3.92-.95.42-1.58.51-2.39-.18-2.34-2-3.79-4.44-3.81-7.55,0-.68.45-1.64,1.01-2.02,9.29-6.31,19.54-9.23,30.76-8,3.33.36,6.74,1.08,9.83,2.33,6.79,2.75,10.08,8.17,10.57,15.42.34,5.07-.94,9.93-1.83,14.84-1.6,8.9-3.29,17.78-4.87,26.68-.19,1.05-.65,1.49-1.57,1.85-10.55,4.2-21.49,6.18-32.82,5.62-3.01-.15-6.06-.65-8.96-1.47-9.72-2.75-13.9-10.05-11.52-19.89,2.26-9.37,8.8-14.61,17.52-17.36,8.81-2.78,17.72-2.54,26.55.17.5.15,1.01.27,1.85.48Zm-14.07,8.4c-5.36,0-8.6.68-11.14,2.36-3.45,2.28-4.76,5.62-4.14,9.58.56,3.55,3.3,5.04,6.51,5.76,6.28,1.4,12.43.42,18.51-1.21.45-.12.91-.9,1.02-1.45.75-3.73,1.37-7.49,2.11-11.22.21-1.07-.15-1.48-1.1-1.81-3.92-1.34-7.93-2.09-11.77-2.02Z"/>
  <path class="cls-1" d="m867,142.24c-6.41-.1-12.45-1.43-17.71-5.23-7.34-5.3-10.3-12.87-10.06-21.59.42-15.18,6.99-27.14,20.03-35.16,8.59-5.28,17.99-7.04,27.96-5.23,12.28,2.23,20.28,11.78,20.76,24.63.79,21.13-14.85,39.54-35.82,42.14-1.71.21-3.43.3-5.15.45Zm-12.42-28.87c.05.95.07,1.9.16,2.85.6,6.56,4.97,11.29,11.4,12.41,5.82,1.01,11.07-.42,15.97-3.55,9.67-6.16,12.02-19.46,9.6-27.7-1.53-5.22-5.1-8.33-10.44-9.33-5.94-1.11-11.37.34-16.26,3.71-7.54,5.2-10.24,12.81-10.43,21.6Z"/>
  <path class="cls-1" d="m491.41,142.24c-5.08-.04-9.99-.89-14.52-3.23-9.37-4.83-13.27-12.96-13.39-23.1-.2-16.89,10.18-32.32,25.81-38.58,7.3-2.92,14.86-3.85,22.59-2.21,12.3,2.61,19.88,11.78,20.35,24.4.81,21.26-14.72,39.58-35.86,42.28-1.65.21-3.32.29-4.97.44Zm-12.5-28.46c.02.54.04,1.44.11,2.33.54,6.62,4.94,11.41,11.47,12.54,5.76,1,10.96-.43,15.81-3.5,9.67-6.14,12.05-19.19,9.78-27.51-1.44-5.3-5.04-8.55-10.46-9.55-6.68-1.23-12.64.54-17.87,4.74-6.59,5.28-8.64,12.56-8.84,20.96Z"/>
  <path class="cls-1" d="m380.96,140.18c.85-4.68,1.66-9.11,2.47-13.55,1.45-7.95,2.97-15.9,4.32-23.87.31-1.85.3-3.83,0-5.69-.87-5.37-4.39-8.14-10.66-8.56-5.44-.36-10.65.66-15.66,2.81-1.06.45-1.54,1.11-1.74,2.21-2.39,13.22-4.82,26.43-7.24,39.65-.36,1.99-.66,3.99-1.13,5.95-.11.47-.74,1.08-1.2,1.15-4.61.71-9.23.67-14-.09,4.06-22.01,8.1-43.91,12.18-66.01,3.2.93,6.22,1.99,9.32,2.65,1.72.37,3.68.43,5.37,0,8.71-2.21,17.43-3.24,26.27-.86,11.25,3.03,15.83,11.95,14.41,22.07-1.4,10-3.49,19.9-5.29,29.85-.64,3.57-1.35,7.13-1.94,10.7-.19,1.17-.61,1.7-1.88,1.83-4.45.46-8.88.52-13.6-.25Z"/>
  <path class="cls-1" d="m658.14,80.91c-1.28,4.13-3.56,7.37-6.7,10.08-.84.72-1.42.42-2.19,0-7.01-3.78-14.47-5.06-22.27-3.51-1.94.39-3.99,1.44-5.43,2.78-3.21,2.99-2.41,7.36,1.66,8.89,3.25,1.22,6.77,1.74,10.15,2.64,3.49.93,7.11,1.6,10.42,2.99,7.76,3.27,10.42,9.01,8.41,17.19-1.81,7.4-6.18,12.95-12.98,16.15-11.26,5.29-22.92,6.03-34.61,1.42-3.04-1.2-5.77-3.21-8.68-4.88,1.95-4.8,4.88-8.18,8.95-10.7,3.69,3.03,7.81,5.07,12.48,5.88,4.39.76,8.78.69,13.08-.56,2.73-.79,4.97-2.3,6.14-5.03,1.46-3.39.66-6.18-2.75-7.51-3.34-1.3-6.94-1.98-10.44-2.88-2.53-.65-5.13-1.05-7.62-1.83-9.35-2.93-12.96-9.7-10.27-19.14,1.96-6.88,6.51-11.68,12.9-14.42,12.71-5.46,25.4-5.5,37.8,1.21.62.34,1.21.75,1.95,1.22Z"/>
  <path class="cls-1" d="m468.2,81.65c-2.16,4.65-5.42,8.14-9.34,10.41-2.98-1.4-5.57-3.13-8.41-3.86-9.2-2.35-19.89,3.16-24.25,12.27-2.5,5.24-3.25,10.87-2.47,16.55,1.09,8,7.31,12.62,15.63,12.13,5.01-.29,9.55-1.75,13.65-4.67.42-.3,1.41-.33,1.81-.04,2.95,2.12,4.64,5.06,5.02,8.68.05.49-.38,1.23-.81,1.54-6.06,4.44-12.86,6.92-20.34,7.39-4.54.28-9.04-.05-13.43-1.35-10.08-2.98-16.11-9.67-17.14-20.1-1.32-13.33,2.14-25.32,12.14-34.74,10.21-9.62,22.36-13.26,36.19-10.49,4.43.89,8.3,3.15,11.77,6.25Z"/>
  <path class="cls-1" d="m687.73,60.94c-1.04,5.66-2.01,10.97-3.03,16.51h23.75c.32,4.14-.55,7.87-1.95,11.49-.16.41-1.15.69-1.76.69-6.67.05-13.34.03-20.01.03-.71,0-1.41,0-2.27,0-.72,3.8-1.43,7.47-2.1,11.14-1.06,5.79-2.14,11.57-3.11,17.38-.24,1.45-.26,2.98-.14,4.45.26,3.19,2.14,5.28,5.25,5.96,5.01,1.09,9.58-.18,13.74-2.93,1.3-.86,1.91-.58,2.76.46,1.87,2.3,2.95,4.89,2.99,7.84,0,.64-.41,1.55-.93,1.9-9.43,6.3-19.61,8.09-30.4,4.28-5.79-2.04-9.07-6.57-9-12.67.06-4.95.96-9.92,1.83-14.82,2.72-15.28,5.61-30.52,8.4-45.78.21-1.15.63-1.71,1.81-2.02,4.65-1.2,9.26-2.54,14.17-3.91Z"/>
  <path class="cls-1" d="m59.91,77.74c0,5.79.04,11.27-.06,16.74,0,.54-.77,1.29-1.35,1.55-9.84,4.38-19.7,8.7-29.56,13.03-9.04,3.97-18.09,7.93-27.14,11.89-.43.19-.87.33-1.47.55-.07-.57-.16-1.01-.16-1.45-.01-4.89.03-9.77-.03-14.66-.01-1.19.38-1.79,1.49-2.27,18.92-8.26,37.82-16.56,56.72-24.84.42-.18.87-.3,1.57-.54Z"/>
  <path class="cls-1" d="m168.65,143.03c0-2.41,0-2.42-2.43-2.41-20.37.02-40.75.07-61.12.07-15.06,0-30.12-.01-45.17-.02-.03-7.55,0-18.04-.01-24.8,0-.34-.05-.68-.1-1.3-19.46,8.52-40.14,17.54-59.81,26.15v2.5h0l.07,25.2h168.57c0-8.6,0-17,0-25.39Z"/>
  <path class="cls-1" d="m79.21,50.52c0,5.92.02,11.51-.03,17.1,0,.42-.38,1.07-.75,1.23-5.81,2.59-11.64,5.12-17.63,7.73-.13-.56-.29-.93-.29-1.3-.02-5.06-.04-10.13.03-15.19,0-.59.41-1.5.88-1.71,5.79-2.63,11.62-5.15,17.8-7.86Z"/>
  <path class="cls-1" d="m60.55,113.63c0-5.9-.02-11.49.04-17.07,0-.4.47-.98.87-1.16,5.7-2.53,11.43-5,17.15-7.48.09-.04.23,0,.62.03,0,.83,0,1.69,0,2.56,0,4.46.03,8.93-.04,13.39-.01.65-.38,1.66-.86,1.88-5.78,2.63-11.61,5.15-17.78,7.85Z"/>
  <path class="cls-1" d="m855.96,157.12c-1.98-1.77-1.8-3.98-.5-6.27,1.5-2.65,4.35-3.93,7.6-3.47,4.03.57,5.47,3.74,3.18,7.12-.62.92-1.48,1.68-2.33,2.62,2.44,1.97,2.59,4.53,1.1,7.19-1.86,3.32-4.95,4.21-8.54,3.84-4.35-.45-5.86-3.11-3.76-6.95.81-1.47,2.1-2.67,3.23-4.08Zm2.32,7.99c2.58.02,4.34-1.26,4.38-3.2.03-1.28-2.74-3.58-4.23-3.51-1.12.05-3.21,2.84-3.27,4.36-.06,1.5,1.05,2.33,3.12,2.35Zm3.06-15.16c-1.91-.01-3.5,1.23-3.57,2.79-.05,1.21,2.06,3.08,3.48,3.09,1.17,0,2.89-2.15,2.9-3.66.02-1.45-.95-2.2-2.82-2.22Z"/>
  <path class="cls-1" d="m765.65,153.68c.3-1.29.56-2.38.8-3.48.51-2.35.96-2.6,3.59-1.81-.76,3.75-1.52,7.51-2.3,11.28-.43,2.09-.83,4.2-1.35,6.27-.14.54-.66,1.31-1.1,1.38-2.55.39-5.15.93-7.7.77-2.76-.17-4.31-2.4-4.31-5.22,0-5.76,5.13-10.21,10.82-9.37.46.07.93.11,1.55.18Zm-3.16,2.71c-3.49,0-6.18,3.04-5.73,6.46.23,1.73,1.53,2.8,3.49,2.88,2.38.1,3.03-.36,3.47-2.44.31-1.45.65-2.89.95-4.34.44-2.1.03-2.57-2.18-2.57Z"/>
  <path class="cls-1" d="m813.18,153.67c.25-1.14.46-2.12.67-3.1.59-2.68.71-2.74,3.7-2.13-1.22,5.93-2.42,11.87-3.69,17.79-.09.42-.61,1-1,1.07-2.2.42-4.45,1.08-6.64.95-4.35-.25-6.22-3.18-5.19-7.45,1.22-5.05,5.69-8.02,10.89-7.25.35.05.7.07,1.26.12Zm-9.24,8.32c-.05,2.55,1.59,4.03,4.28,3.7,1.12-.14,2.61.14,2.9-1.67.31-1.93.72-3.86,1.16-5.77.24-1.05-.15-1.54-1.14-1.78-3.52-.86-7.14,1.89-7.21,5.52Z"/>
  <path class="cls-1" d="m870.2,159.09c.67-3.3,1.23-6.32,1.95-9.3.11-.44.97-.97,1.5-.99,2.85-.1,5.71-.05,8.56-.04.73,0,1.58-.05,1.39,1.05-.14.85.05,2.02-1.44,1.98-1.78-.05-3.58.09-5.35-.04-1.59-.12-2.51.28-2.51,2.04,0,.62-.21,1.24-.34,1.96,1.61,0,3.03-.13,4.42.03,2.69.31,4,1.9,3.9,4.6-.13,3.6-1.8,6.35-5.16,7.65-3.11,1.2-6.27,1.15-9.01-1.17.97-2.52,1.41-2.72,3.64-1.7,3.4,1.55,6.93-.41,7.07-3.9.06-1.56-.61-2.59-2.15-2.74-1.21-.11-2.46.08-3.69.18-.86.08-1.71.24-2.78.39Z"/>
  <path class="cls-1" d="m886.15,159.14c.7-3.46,1.32-6.64,2.01-9.8.06-.25.62-.55.96-.56,3.38-.04,6.76-.03,10.12-.03.28,2.66-.02,3.01-2.4,3.01-1.43,0-2.86.1-4.28-.03-1.58-.14-2.51.27-2.53,2.03,0,.62-.19,1.23-.32,1.97,1.61,0,3.03-.13,4.43.03,2.68.31,4,1.9,3.89,4.6-.29,7.4-7.61,9.87-12.77,7.45-.83-.39-1.72-.9-.81-1.99.65-.77.98-2.09,2.61-1.09,3.31,2.03,6.82.7,7.65-2.71.48-2-.3-3.32-2.33-3.57-1.09-.13-2.23.09-3.34.21-.86.09-1.71.28-2.88.48Z"/>
  <path class="cls-1" d="m774,161.75c-.38,1.52.03,2.61,1.12,3.31,2.33,1.51,4.44.21,6.59-.63,1.37,1.43,1.28,2.24-.46,2.99-1.08.47-2.23.86-3.39,1.04-5.04.78-8.34-3.37-6.88-8.58,1.22-4.34,5.52-7.19,9.98-6.62,3.36.42,5.62,5.31,3.63,7.97-.27.36-1.02.48-1.56.49-2.97.05-5.95.02-9.03.02Zm1.12-2.4h6.64c.36-2.12-.13-3.06-1.68-3.36-2.22-.43-4.31.94-4.96,3.36Z"/>
  <path class="cls-1" d="m821.34,161.83c.16,4.15,2.57,4.82,7.87,2.54,1.4,1.41,1.39,2.18-.41,2.78-1.82.6-3.79,1.06-5.69,1.06-2.92,0-5.16-2.67-5.08-5.58.14-5.35,4.56-9.55,9.91-9.36,4.39.16,5.67,4.65,4.32,7.89-.14.34-.96.55-1.46.56-2.55.06-5.11.02-7.67.03-.57,0-1.14.05-1.78.08Zm1.24-2.23c2.14,0,4.09.05,6.02-.04.34-.02.87-.56.95-.94.27-1.34-.62-2.41-2.03-2.6-2.18-.31-4.03.94-4.94,3.59Z"/>
  <path class="cls-1" d="m785.46,166.63c.8-1.73,1.63-2.43,3.57-1.38,1.11.59,2.77.39,4.12.18.59-.09,1.3-1.04,1.45-1.71.08-.34-.89-1.12-1.52-1.37-.98-.4-2.09-.45-3.1-.78-2.37-.76-3.07-2.54-1.96-4.77,1.85-3.71,7.04-4.74,11.23-2.24-.4,2.11-.93,2.32-2.93,1.82-1.29-.32-2.7-.37-4.02-.21-.55.07-.99,1-1.49,1.53.49.44.91,1.06,1.48,1.29.98.39,2.09.46,3.09.81,2.72.95,3.41,3.01,1.91,5.49-2.25,3.72-8.21,4.43-11.84,1.35Z"/>
  <path class="cls-1" d="m843.89,167.75c1.04-5.05,2.07-9.98,3.16-15.24-1.44.54-2.62.99-3.77,1.42-1.17-2.06-1.02-2.59.93-3.46,1.52-.68,3.02-1.42,4.58-1.98.62-.22,1.38-.04,2.27-.04-.87,4.24-1.7,8.3-2.53,12.36-.32,1.57-.66,3.14-.98,4.71q-.53,2.64-3.66,2.23Z"/>
  <path class="cls-1" d="m108.83,12.33l59.87,51.54c0-1.55,0-3.09,0-4.64.02-19.12,0-38.25,0-57.37V0H.09v84.37c.51-.18.96-.31,1.38-.5,19.09-8.36,38.18-16.73,57.28-25.07.97-.42,1.29-.96,1.28-2-.05-5.36.02-10.72-.05-16.08-.02-1.28.39-1.74,1.64-1.95,14.31-2.5,27.05-8.45,38.02-17.97,3.09-2.68,5.75-5.84,8.6-8.78.2.11.4.22.59.33Z"/>
</svg>