<?xml version="1.0" encoding="UTF-8"?>
<svg id="Capa_1" data-name="Capa 1" xmlns="http://www.w3.org/2000/svg" viewBox="0 0 846.72 120.96">
  <defs>
    <style>
      .cls-1 {
        fill: #fff;
      }
    </style>
  </defs>
  <g>
    <path class="cls-1" d="m223.24,69.09c0-4.81-3.25-8.76-7.81-9.81v-.07c3.37-1.67,5.13-4.93,5.13-8.45,0-4.93-3.81-10.11-11.88-10.11h-13.13v40.65h13.07c10.38,0,14.63-6.41,14.63-12.21m-10.25-16.91c0,3.21-2.7,5.36-5.38,5.36h-4.5v-10.61h3.69c4.18,0,6.19,2.16,6.19,5.24m2.5,16.91c0,3.7-2.5,5.92-7.58,5.92h-4.81v-11.23h5.13c4.62,0,7.26,2.16,7.26,5.31"/>
    <path class="cls-1" d="m254.79,81.48l-9.76-25.6c-.75-2.04-1.25-3.7-1.57-5.06-.31,1.42-.87,3.02-1.56,4.93l-9.69,25.73h-7.44l16.02-40.84h5.5l16.57,40.84h-8.07Z"/>
    <path class="cls-1" d="m304.12,81.31v-40.65h-7.51v22.64c0,1.79,0,4.13.13,5.92h-.13c-1-1.67-2.13-3.2-4.06-5.68l-17.95-22.88h-7.68v40.65h7.57v-23.93c0-1.92-.07-4.07-.19-5.43h.12c1.13,1.72,2.32,3.27,4.07,5.54l18.63,23.82h7.01Z"/>
    <path class="cls-1" d="m344.67,78.1l-2.07-5.37c-3.13,1.67-6.38,2.72-10.13,2.72-8.51,0-13.76-6.35-13.76-14.56,0-7.65,4.75-14.49,14.32-14.49,3.69,0,7,.86,10.44,2.9l.07-6.79c-2.44-1.36-6.32-2.22-10.7-2.22-13.57,0-22.32,9.44-22.32,21.1s7.62,20.55,20.75,20.55c4.44,0,8.82-1.11,13.39-3.83"/>
    <path class="cls-1" d="m390.6,61.01c0-5.68-1.75-10.73-5.18-14.43-3.69-4.01-9.2-6.29-15.82-6.29-6.25,0-11.45,2.22-15.14,5.92-3.81,3.82-5.94,9.13-5.94,15.18,0,6.35,2.31,11.85,6.51,15.54,3.62,3.27,8.56,5,14.57,5s11.39-2.16,15.13-5.86c3.82-3.71,5.88-9.07,5.88-15.05m-8.07.12c0,9.2-5.37,14.69-13.01,14.69s-13.07-5.5-13.07-14.69,5.38-14.61,13.07-14.61,13.01,5.73,13.01,14.61"/>
  </g>
  <g>
    <path class="cls-1" d="m0,120.96V0h846.72v120.96H0Zm4.11-4.09h415.09V4.12H4.11v112.75Zm605.56-33.5c5.73-1.31,11.13-2.55,16.66-3.82-.17-1.28-.31-2.34-.45-3.43-.64.04-1.01.05-1.37.08-3.13.2-3.82-.33-4.27-3.41-.14-.95-.26-1.92-.26-2.88.04-6.55.13-13.09.18-19.64.03-4,0-8,0-12.04-5.66.81-11.34,1.63-17.16,2.46.14,1.17.26,2.17.37,3.13,5.88.47,6.27.76,6.39,6.58.12,5.57-.04,11.16-.09,16.73q-.05,5.44-5.14,7.47c-7.72,3.08-12.45.36-12.71-7.88-.28-8.91.09-17.84.18-26.76,0-.86,0-1.72,0-2.64-5.63,1.09-11.07,2.14-16.61,3.22.03.6.04,1.11.1,1.61.07.56.18,1.12.28,1.71.59,0,1.03,0,1.47,0,2.86-.04,3.74.61,4.1,3.49.22,1.76.18,3.56.18,5.35,0,6.09-.28,12.2.04,18.28.36,6.94,3.97,11.2,9.72,12.17,4.79.81,9.12-.57,13.16-3.07,1.67-1.04,3.32-2.12,5.23-3.35v6.66Zm143.92-41.47c4.31.54,5.2,1.23,4.23,3.97-2.92,8.24-6.08,16.39-9.15,24.57-3.13-7.34-5.81-14.57-8.33-21.86-1.83-5.29-1.47-5.79,3.92-6.66v-3.35h-21.43v3.45c3.31.26,4.56,2.71,5.57,5.21,4.65,11.58,9.23,23.19,13.79,34.8.26.67.27,1.64-.02,2.28-1.26,2.77-2.63,5.49-4.06,8.18-1.39,2.62-3.05,4.83-6.45,5.18-1.91.19-3.47,1.67-2.97,3.72.34,1.41,1.47,2.88,2.66,3.77,1.37,1.03,3.19.83,4.52-.45,1.23-1.18,2.51-2.39,3.37-3.83,2.32-3.88,4.71-7.77,6.58-11.88,6.32-13.94,12.42-27.97,18.6-41.97,1.18-2.67,2.54-5.1,5.91-4.99v-3.46h-16.73v3.32Zm-222.69,16.78c-.13-1.65-.15-2.9-.33-4.12-1.11-7.52-4.29-13.78-11.84-16.47-7.76-2.77-14.81-.95-20.78,4.73-4.89,4.65-7.03,10.54-7.46,17.17-.65,10.06,4.46,18.9,12.87,22.17,8.28,3.22,19.12.84,27.35-6.94-.55-1.07-1.12-2.17-1.59-3.09-3.18,1.17-6.07,2.6-9.14,3.29-10.92,2.46-19.95-5.73-18.18-16.74h29.1Zm-47.86-8.17c-.27-3.66-.47-7.14-.84-10.59-.05-.48-.9-1.12-1.48-1.25-2.97-.66-5.95-1.5-8.96-1.67-5.97-.34-11.61.79-15.89,5.48-5.88,6.45-4.02,15.82,3.84,19.46,1.41.65,2.93,1.07,4.36,1.69,2.93,1.26,5.99,2.31,8.7,3.93,4.06,2.43,3.81,7.21-.27,9.65-5.94,3.55-13.67.88-16.04-5.59-.52-1.43-.88-2.92-1.34-4.51-1.35.39-2.52.74-3.52,1.03.2,3.77.49,7.25.5,10.74,0,1.44.4,2.11,1.73,2.59,5.15,1.83,10.44,2.41,15.82,1.71,4.78-.62,9-2.53,12.2-6.31,5.47-6.46,3.63-15.39-3.96-19.01-1.94-.92-4.02-1.52-6.02-2.33-2.47-1-5-1.91-7.37-3.12-1.82-.93-3.37-2.31-3.13-4.7.25-2.46,1.7-4.07,3.88-5.04,6.05-2.69,12.16.45,13.5,6.9.1.49.24.98.41,1.66,1.38-.25,2.66-.48,3.87-.7Zm88.31,21.64c-2.41,1.02-4.46,2.14-6.65,2.77-5.51,1.59-10.5.68-14.38-3.86-4.6-5.39-5.35-17.03-1.58-23.03,2.85-4.56,7.8-5.72,12.34-2.85,1.38.87,2.65,1.91,3.99,2.85,1.57,1.1,3.23,1.6,4.95.36,1.76-1.27,2.65-3,2.37-5.2-.4-3.09-2.49-4.92-5.26-5.33-3.7-.55-7.62-1.08-11.25-.48-20.23,3.31-25.39,25.54-16.05,38.29,7.54,10.29,21.85,10.71,33.64.32-.7-1.27-1.41-2.55-2.11-3.83Zm126.72-27.52c0,.85.01,1.65,0,2.45-.14,7.14-.45,14.28-.37,21.42.03,3.07.53,6.22,1.38,9.17.96,3.33,3.6,5.17,7.07,5.66,6.55.91,11.59-2.69,17.05-5.35-.64-1.38-1.14-2.45-1.68-3.61-.71.3-1.31.56-1.91.82-7.26,3.16-10.93,1.09-11.21-6.76-.28-7.65-.07-15.31-.06-22.97,0-.27.14-.54.21-.78h12.31c.34-1.87.66-3.66.99-5.5h-13.55c.2-3.05.39-5.98.58-8.87-1.38-.39-2.5-.7-3.69-1.04-2.54,6.42-7.02,10.24-13.64,11.28v4.09h6.54Zm-43.93,37.1v-3.25c-6.64-.19-7.59-.85-7.99-7.28-.35-5.63-.15-11.3-.17-16.96,0-.36.05-.75.18-1.09,1.93-4.83,6.99-7.15,11.95-5.52,3.45,1.14,5.74-.4,5.96-4.01.24-3.83-3.14-6.81-6.95-6.18-3.35.56-5.54,2.73-7.45,5.27-1.29,1.72-2.47,3.53-4.09,5.85.23-4.37.42-8.04.62-11.7-5.64,1.46-11.08,2.87-16.57,4.3.08,1.05.16,2.07.23,3.07,4.47-.04,5.58.54,5.63,3.71.15,8.55.16,17.11,0,25.66-.06,3.31-1.5,4.45-4.77,4.71-.51.04-1.02.08-1.64.14v3.28h25.06Zm34.4.02v-3.32c-5.19-.23-5.97-1.03-6.13-6.15-.01-.45-.04-.89-.03-1.34.11-8.85.23-17.69.33-26.54.03-2.43,0-4.86,0-7.21-5.69,1.3-11.36,2.59-17.06,3.89.21,1.09.4,2.08.58,3.03,4.86.14,5.74.59,5.8,4.38.11,7.8.06,15.61-.3,23.39-.21,4.43-1.82,5.81-6.04,6.68v3.17h22.87Zm-4.5-59.83c-.68-1.22-1.09-2.46-1.9-3.34-3.77-4.1-5.79-4.18-10.06-.65-3,2.48-2.97,5.4.06,7.83,4.33,3.47,6.24,3.38,10.11-.69.77-.81,1.14-1.99,1.78-3.16Z"/>
    <path class="cls-1" d="m520.18,53.46c-6.09.29-12.22.58-18.34.87-.36-6.52,4.15-12.14,9.47-12.16,4.72-.02,9.15,5.39,8.87,11.29Z"/>
  </g>
</svg>