<?xml version="1.0" encoding="UTF-8"?>
<svg id="Capa_1" data-name="Capa 1" xmlns="http://www.w3.org/2000/svg" viewBox="0 0 714.88 169.86">
  <defs>
    <style>
      .cls-1 {
        fill: #fff;
      }
    </style>
  </defs>
  <path class="cls-1" d="m550,145.83c53.78,0,107.56,0,161.34,0q3.48,0,3.48,3.55c0,5.95,0,11.9,0,17.85,0,2.2-.37,2.57-2.53,2.63-.51.01-1.02,0-1.53,0-107.36,0-214.73,0-322.09,0-3.32,0-3.6-.27-3.6-3.61,0-5.76,0-11.52,0-17.27,0-2.83.3-3.14,3.04-3.14,53.97,0,107.94,0,161.91,0Z"/>
  <path class="cls-1" d="m654.37,114.27c1.93-3.71,3.81-7.26,5.62-10.85.64-1.26,1.37-.99,2.33-.46,5.59,3.13,11.55,4.64,17.99,4.48,8.89-.23,16.25-6.16,18.08-14.84.06-.29,0-.6,0-1-3.62.36-7.15.83-10.69,1.04-8.95.52-17.49-.81-24.96-6.23-7.92-5.75-11.34-13.84-11.49-23.35-.18-11.45-.01-22.9-.08-34.36,0-1.77.56-2.36,2.32-2.32,3.96.1,7.93.11,11.89,0,1.81-.05,2.28.62,2.27,2.35-.06,10.68-.04,21.37-.03,32.05,0,4.61.97,8.85,4.36,12.3,3.93,4.01,8.86,4.95,14.1,4.6,3.49-.23,6.94-1.03,10.42-1.47,1.62-.2,2.02-.96,2.01-2.54-.06-14.78-.04-29.56-.04-44.34q0-2.93,2.96-2.93c3.77,0,7.55.04,11.32-.02,1.41-.02,2.06.31,2.06,1.91-.04,21.43.19,42.87-.12,64.3-.18,12.16-6.68,20.87-17.5,25.86-14.31,6.59-28.32,5.28-41.61-3.22-.37-.24-.69-.54-1.23-.97Z"/>
  <path class="cls-1" d="m16.46,27.98c4.34-.5,8.43-1.35,12.53-1.37,22.81-.09,39.36,19.11,36.14,41.68-2.56,17.88-16.25,30.3-34.19,31.18-10.3.5-20-1.98-29.58-5.37-1.42-.5-1.33-1.47-1.33-2.58,0-24.05,0-48.09,0-72.14,0-4.92.07-9.85-.04-14.77-.04-1.79.44-2.51,2.35-2.45,3.89.13,7.8.11,11.7,0,1.81-.05,2.47.5,2.45,2.39-.09,7.23-.04,14.45-.04,21.68,0,.68,0,1.35,0,1.74Zm31.95,35.03c-.09-1.2-.15-2.48-.28-3.75-.97-9.01-7.14-15.81-15.86-17.4-4.63-.84-9.15.04-13.66,1.04-1.66.37-2.2,1.09-2.19,2.84.09,10.55.05,21.11.05,31.67,0,5.11-.03,5.24,4.9,6.37,5.73,1.31,11.48,1.38,16.8-1.56,7.48-4.14,9.98-11.06,10.25-19.2Z"/>
  <path class="cls-1" d="m487.58,97.79c0,1.24,0,2.38,0,3.51,0,6.27-.05,12.53.03,18.8.02,1.8-.45,2.52-2.37,2.46-3.89-.13-7.8-.04-11.7-.04-2.5,0-2.55-.05-2.55-2.61,0-26.6,0-53.21,0-79.81,0-1.28,0-2.56,0-3.84.02-4.34-.35-3.61,3.45-4.99,9.65-3.49,19.53-5.38,29.87-4.49,16.03,1.39,29.59,14.15,31.73,30.07,1.78,13.23-1.49,24.84-11.72,33.78-8.68,7.59-19,10.11-30.36,8.38-2.07-.31-4.11-.79-6.39-1.24Zm0-34.65c0,5.95,0,11.9,0,17.85,0,.97.04,1.78,1.27,1.94,3.85.51,7.69,1.47,11.53,1.49,7.46.03,13.08-3.54,16.56-10.17,2.59-4.94,3.04-10.29,2.14-15.69-1.33-8.03-5.6-13.79-13.61-16.21-5.32-1.61-10.62-.63-15.9.58-1.7.39-2.04,1.18-2.02,2.75.08,5.82.03,11.64.03,17.46Z"/>
  <path class="cls-1" d="m592.93,71.3c2.2,7.63,9.5,12.91,17.67,13.24,6.19.25,11.95-.91,17.14-4.39,1.18-.79,1.82-.41,2.4.73,1.56,3.08,3.13,6.15,4.78,9.18.68,1.25.07,1.87-.86,2.5-4.97,3.43-10.45,5.7-16.41,6.54-9.74,1.37-19.02-.03-27.34-5.58-9.23-6.16-13.98-15.08-15.01-25.96-1.13-11.9,1.34-22.83,9.92-31.68,6.99-7.21,15.79-9.83,25.65-9.26,19.31,1.13,30.86,17.22,30.88,35.27,0,.68-.49,1.36-.78,2.03-.07.16-.26.28-.4.41-2.34,2.27-4.32,5.38-7.12,6.57-2.72,1.16-6.28.38-9.47.39-9.65.02-19.31,0-28.96,0h-2.09Zm-.02-14.57h30.86c.17-7.46-7.44-15.06-15.08-15.21-7.78-.15-15.57,7.27-15.79,15.21Z"/>
  <path class="cls-1" d="m115.78,53.16c-.14-6.04-3.14-9.91-8.77-11.13-7.29-1.58-14.22-.09-20.88,2.94-2.42,1.1-2.38,1.17-3.58-1.16-1.37-2.67-2.66-5.39-4.16-7.99-.9-1.56-.5-2.36.9-3.24,8.23-5.21,17.24-6.77,26.81-5.92,6.25.56,12.09,2.2,16.94,6.38,6.68,5.76,9.15,13.41,9.27,21.91.15,10.43.06,20.86-.01,31.29,0,.83-.47,1.84-1.06,2.44-2.6,2.64-5.29,5.19-8.01,7.71-.58.53-1.37,1-2.13,1.14-9.53,1.78-19.12,2.75-28.78,1.26-6.57-1.02-12.72-3.2-17.25-8.37-10.07-11.48-5.28-29.72,9.21-35.5,6.63-2.64,13.56-3.03,20.56-2.72,3.61.16,7.21.63,10.96.96Zm.13,22.27c0-1.79-.08-3.58.03-5.37.08-1.33-.48-1.85-1.72-1.96-3.69-.33-7.36-.82-11.05-1.01-3.7-.19-7.44-.1-10.92,1.45-2.94,1.31-4.92,3.5-5.14,6.82-.22,3.28,1.56,5.56,4.24,7.19.75.46,1.61.79,2.47,1.02,7.09,1.87,14.07.66,21.01-.92.45-.1,1-.95,1.04-1.48.13-1.91.05-3.83.05-5.75Z"/>
  <path class="cls-1" d="m346.45,63.43c-.45,15.75-9.12,29.11-23.11,34.24-19.33,7.09-40.14-2.58-46.28-23.21-4.48-15.05.54-31.29,12.18-40.27,19.62-15.13,48.07-6,55.1,17.8,1.09,3.7,1.42,7.62,2.11,11.43Zm-53.86-.03c-.02,4.64,1.07,8.97,3.43,12.98,6.23,10.55,20.56,11.53,28.13,1.91,6.39-8.12,6.35-21.83-.09-29.88-6.35-7.95-17.81-8.8-25.05-1.72-4.64,4.54-6.35,10.34-6.42,16.71Z"/>
  <path class="cls-1" d="m142.75,64.93c0-9.85.03-19.7-.03-29.55-.01-1.74.57-2.69,2.25-3.25,9.82-3.27,19.81-5.64,30.24-5.18,10.62.46,19.92,3.86,26.23,13.06,3.27,4.77,4.78,10.17,4.82,15.91.09,12.92.03,25.84.03,38.76,0,2.37-.16,2.53-2.48,2.53-3.84,0-7.67,0-11.51,0-2.25,0-2.49-.25-2.49-2.57,0-12.22-.19-24.43.06-36.64.17-8.25-5.47-16.11-15.98-16-4.09.04-8.18,1.13-12.25,1.84-1.84.32-2.51,1.51-2.51,3.45.07,15.73.04,31.47.04,47.2,0,2.68-.04,2.73-2.65,2.73-3.71,0-7.41,0-11.12,0-2.58,0-2.65-.08-2.65-2.74,0-9.85,0-19.7,0-29.55Z"/>
  <path class="cls-1" d="m251.5,99.87c-17.53,0-31.21-9.9-35.63-26.41-6.25-23.35,9.21-46.21,35.01-46.55,7.82-.1,15.01,1.9,21.62,6.08,1.48.94,1.86,1.8.93,3.41-1.56,2.71-2.94,5.52-4.32,8.33-.68,1.39-1.32,1.65-2.8.83-8.15-4.51-16.45-5.4-24.7-.27-8.52,5.3-12.16,16.21-8.66,25.53,3.61,9.6,13.28,15.39,23.28,13.94,3.92-.57,7.58-1.83,10.81-4.14,1.32-.94,2-.57,2.65.73,1.48,2.97,2.99,5.93,4.58,8.85.73,1.33.29,2.04-.81,2.85-4.44,3.27-13.55,7.31-21.95,6.82Z"/>
  <path class="cls-1" d="m564.82,50.01c0,14.77,0,29.54,0,44.31q0,2.9-2.99,2.9c-3.64,0-7.28,0-10.93,0q-2.71,0-2.71-2.81c0-3.32,0-6.65,0-9.97,0-26.34,0-52.68,0-79.02q0-2.83,2.9-2.83c3.71,0,7.41,0,11.12,0,2.57,0,2.61.04,2.61,2.54,0,14.96,0,29.92,0,44.88Z"/>
  <path class="cls-1" d="m385.36,64.88c0-9.72.07-19.44-.05-29.16-.03-2.09.53-3.19,2.53-3.98,11.31-4.48,22.84-6.53,34.84-3.29,2.88.78,5.63,2.05,8.44,3.08,1.11.41,1.44,1.14,1.08,2.26-1.16,3.65-2.35,7.29-3.4,10.98-.46,1.62-1.11,1.65-2.45.91-6.52-3.65-13.36-4.95-20.65-2.62-.3.1-.62.17-.92.28q-3.01,1.13-3.01,4.37c0,15.41,0,30.83,0,46.24q0,3.27-3.36,3.27c-3.32,0-6.65,0-9.97,0q-3.07,0-3.07-2.98c0-9.78,0-19.57,0-29.35Z"/>
  <path class="cls-1" d="m457.03,63.53c0,10.43-.04,20.86.03,31.29.01,1.8-.45,2.5-2.36,2.44-3.9-.13-7.8-.11-11.7,0-1.71.04-2.41-.48-2.4-2.28.04-21.18.03-42.36,0-63.54,0-1.41.46-1.91,1.88-1.89,4.16.07,8.31.08,12.47,0,1.59-.03,2.11.53,2.1,2.12-.05,10.62-.03,21.24-.03,31.86Z"/>
  <path class="cls-1" d="m448.97.03c5.68.02,9.93,4.38,9.91,10.16-.02,5.58-4.55,10.11-10.12,10.14-5.49.02-10.11-4.6-10.15-10.15-.04-5.1,4.17-10.66,10.36-10.15Z"/>
</svg>