<?xml version="1.0" encoding="UTF-8"?>
<svg id="Capa_1" data-name="Capa 1" xmlns="http://www.w3.org/2000/svg" fill="#fff" viewBox="0 0 1785.55 441.92">
  <g>
    <path d="m36.06,314.43h4.54c23.3,0,46.61-.02,69.91.03,2.68,0,5.44.14,8.02.79,7.95,2.03,13.63,10.4,12.79,18.4-.99,9.35-7.86,16.33-16.81,16.36-32.38.12-64.76.12-97.14.01-9.42-.03-16.74-7.56-17.26-17.14-.06-1.1-.03-2.21-.03-3.31,0-66.11.06-132.22-.07-198.33-.02-8.51,3.13-14.59,10.14-19.47C60.81,76.45,111.36,40.93,161.95,5.46c10.37-7.27,16.34-7.28,26.72-.02,50.74,35.47,101.44,70.98,152.25,106.35,6.86,4.78,10,10.74,9.98,19.16-.15,65.99-.08,131.97-.08,197.96,0,11.84-8.36,20.57-20.26,21.14-1.35.06-2.7.06-4.05.06-49.43,0-98.86-.23-148.28.16-13.43.1-21.29-9.04-20.78-20.98.5-11.51-.02-23.06.19-34.58.06-3.05-1.05-4.53-3.61-5.9-14.05-7.49-27.99-15.2-42.01-22.73-6.63-3.56-10.39-8.93-10.44-16.47-.12-17.03-.04-34.07-.04-51.55h19.27c0-1.86,0-3.28,0-4.7,0-14.1-.06-28.21.02-42.31.05-9.42,8.13-15.49,16.63-12.67,5.13,1.7,8.2,6.08,8.23,12.18.06,14.1,0,28.21-.01,42.31q0,5.07,4.88,5.07c16.68,0,33.36,0,50.04,0h4.4c.09-1.72.22-3.15.23-4.57.02-13.98.27-27.97-.08-41.94-.22-8.86,6.52-13.73,12.62-13.76,7.3-.03,12.33,5.69,12.34,13.98.02,15.2,0,30.41,0,46.17h19.29c.11,1.85.25,3.16.25,4.47-.04,15.21-.21,30.42-.11,45.63.06,8.64-3.64,14.61-11.26,18.62-14.1,7.41-28.04,15.11-42.1,22.58-2.11,1.12-2.97,2.38-2.91,4.83.18,6.6.06,13.21.06,20.16h121.57c.06-1.13.18-2.42.18-3.7,0-56.54-.01-113.09.07-169.63,0-2.67-.93-4.19-3.05-5.66-44.68-31.07-89.34-62.19-133.93-93.39-2.23-1.56-3.65-1.37-5.75.1-44.58,31.23-89.19,62.4-133.85,93.52-2.07,1.44-2.76,2.99-2.76,5.44.06,56.54.05,113.08.06,169.62,0,1.2.12,2.39.2,4.03Z"/>
    <path d="m1373.09,190.61c.47,37.6.95,75.2,1.43,113.18h-38.69v-166.15c1.35-.09,2.53-.25,3.71-.25,15.57-.02,31.15.06,46.72-.08,2.77-.02,4.05.97,5.21,3.39,16.84,35.38,33.77,70.7,50.69,106.04.55,1.16,1.19,2.27,2.63,3.28,0-1.39,0-2.78,0-4.16-.17-34.7-.3-69.41-.57-104.11-.02-3.22.64-4.53,4.21-4.45,10.3.24,20.6.13,30.9.05,2.34-.02,3.54.39,3.54,3.17-.07,53.71-.05,107.42-.06,161.13,0,.6-.11,1.21-.21,2.22-1.31.1-2.6.29-3.88.29-14.96.02-29.92-.08-44.88.09-2.96.03-4.27-1.07-5.51-3.59-17.36-35.54-34.83-71.02-52.28-106.51-.63-1.28-1.34-2.52-2.01-3.78-.32.08-.63.17-.95.25Z"/>
    <path d="m1032.17,298.93c9.99,9.57,19.78,18.95,30.25,28.98-1.85,0-2.87,0-3.9,0-13.61,0-27.22.08-40.83-.1-1.69-.02-3.77-.96-4.98-2.17-5.11-5.12-10.03-10.43-14.85-15.82-1.87-2.09-3.88-3.01-6.67-3-13.02.04-25.62-2.17-37.45-7.77-18.09-8.57-29.9-22.85-35.83-41.7-7.86-25-7.89-50.26.51-75.14,8.01-23.73,24.54-38.77,48.94-44.78,17.82-4.39,35.7-4.25,53.4.72,22.5,6.31,38.04,20.67,45.67,42.6,9.54,27.41,9.35,55.13-1.13,82.34-5.78,15.02-15.98,26.55-30.38,34.12-.85.45-1.63,1.01-2.75,1.71Zm-2.86-78.56c-.35-12.44-1.66-24.68-7.72-35.9-6.21-11.51-15.91-17.44-28.91-17.44-13.01,0-22.72,5.93-28.89,17.45-6.21,11.58-7.63,24.16-7.57,37.01.06,12.25,1.82,24.17,7.73,35.13,6.16,11.41,15.65,17.73,28.75,17.72,13.1-.01,22.57-6.33,28.75-17.73,6.13-11.31,7.58-23.65,7.86-36.23Z"/>
    <path d="m646.82,137.54h42.17c.07,1.44.19,2.74.19,4.04,0,52.84-.02,105.69.08,158.53,0,3.26-.9,4.18-4.13,4.13-11.4-.18-22.8-.07-34.21-.08-1.2,0-2.41-.11-4.07-.2v-81.3c-6.38,9.63-15.91,9.78-25.59,9.69-8.31-.08-16.62-.02-25.37-.02v71.49h-42.32v-166.15h42.18v4.13c0,18.39.07,36.78-.07,55.17-.03,3.25.69,4.46,4.2,4.42,14.22-.19,28.44-.17,42.66-.01,3.34.04,4.38-.91,4.35-4.33-.16-18.27-.08-36.54-.08-54.8,0-1.44,0-2.88,0-4.71Z"/>
    <path d="m1093.58,137.53h42.36c0,1.56,0,2.97,0,4.38,0,30.29.02,60.58,0,90.87,0,8.5.51,16.9,3.61,24.94,4.26,11.06,12.45,16.68,24.28,16.67,11.81-.02,20.41-5.52,23.96-16.88,2.16-6.91,3.46-14.36,3.55-21.59.38-31.14.17-62.29.18-93.44,0-1.46,0-2.92,0-4.74h42.19c.08,1,.23,2.05.23,3.11,0,34.46.22,68.92-.2,103.38-.09,7.72-1.57,15.67-3.88,23.05-5.74,18.31-18.62,30.02-36.79,35.48-19.97,5.99-40.17,6.06-60.04-.54-23.44-7.79-35.5-24.97-38.61-48.91-.69-5.32-.77-10.75-.79-16.14-.07-31.64-.03-63.28-.03-94.92v-4.71Z"/>
    <path d="m1782.72,303.9c-1.3.11-2.25.25-3.2.25-13.24.01-26.49-.06-39.73.07-2.58.03-3.66-.9-4.41-3.23-4.32-13.39-8.78-26.74-13.19-40.1-.34-1.04-.72-2.06-1.27-3.6-4.85,10.15-13.7,11.27-23.03,11.3-10.18.03-20.36.09-30.53-.05-2.63-.03-3.87.84-4.72,3.36-3.35,9.84-6.88,19.63-10.53,29.37-.44,1.18-2,2.74-3.06,2.76-12.99.17-25.99.09-38.99.06-.34,0-.69-.19-1.47-.42.32-1.14.55-2.28.94-3.36,19.4-53.23,38.83-106.45,58.18-159.71.9-2.47,2.1-3.38,4.75-3.36,15.2.12,30.41.08,45.61.04,2,0,3.35.32,4.17,2.55,19.96,54.19,40,108.35,60.02,162.52.13.34.21.7.45,1.54Zm-87.14-131.5c-.31-.05-.61-.1-.92-.15-6.93,21.44-13.86,42.87-20.91,64.68h40.67c-6.35-21.74-12.6-43.14-18.84-64.53Z"/>
    <path d="m534.7,143.34c-1.09,11.43-2.19,22.98-3.35,35.1-1.58-.78-2.72-1.33-3.84-1.91-14.77-7.53-30.34-11.36-46.87-8.75-20.79,3.28-35.89,18.71-40.02,39.83-2.06,10.52-1.97,20.96,1.05,31.27,5.68,19.4,22.28,32.71,42.54,34.91,15.38,1.67,29.95-1.32,44.31-6.3,1.25-.43,2.49-.89,4.34-1.54.38,5.25.77,10.07,1.07,14.9.34,5.63.69,11.26.82,16.89.02.99-.86,2.71-1.64,2.91-28.22,7.49-56.57,9.84-84.55-.48-32.78-12.09-50.18-36.08-52.67-70.9-1.28-17.91.89-35.27,9.09-51.45,11.12-21.94,29.72-34.33,53.06-40.06,25.79-6.33,51.06-3.2,75.94,5.02.21.07.38.28.74.56Z"/>
    <path d="m1540.1,303.95v-5.26c0-41.32,0-82.63,0-123.95q0-4.94-5.06-4.94c-10.05,0-20.11,0-30.16,0-1.31,0-2.63,0-4.16,0v-32.22c1.54-.08,2.97-.21,4.39-.21,37.39-.01,74.79.04,112.18-.09,3.67-.01,4.84.88,4.72,4.66-.29,9.06-.09,18.13-.09,27.73h-39.5v5.94c0,41.19,0,82.39,0,123.58q0,4.95-5.09,4.95c-10.91,0-21.82,0-32.73,0-1.32,0-2.65-.11-4.49-.2Z"/>
    <path d="m792.66,137.36c4.47,0,8.6,0,12.74,0,8.21,0,16.43.19,24.64-.09,3.72-.13,4.77.97,4.76,4.7-.13,41.19-.08,82.37-.08,123.56,0,1.81,0,3.63,0,5.8h66.08c.13,1.37.3,2.42.31,3.46.02,8.58-.08,17.16.07,25.74.04,2.64-.6,3.67-3.45,3.67-33.95-.08-67.91-.08-101.86,0-2.84,0-3.45-1.02-3.44-3.65.06-53.2.05-106.4.06-159.6,0-.97.1-1.94.2-3.6Z"/>
    <path d="m761.92,303.89h-41.92v-166.28h41.92v166.28Z"/>
    <path d="m1304.36,303.91c-1.16.09-2.24.24-3.32.24-11.65.02-23.3-.05-34.95.06-2.72.02-3.86-.56-3.86-3.65.1-53.23.07-106.46.08-159.69,0-.96.13-1.92.22-3.19h41.83v166.23Z"/>
  </g>
  <g>
    <path d="m1379.76,388.66c32.28,1.7,34.77-12.05,34.77-20.26s-6.84-16.43-24.37-16.43c-25.19,0-30.94,25.74-30.94,35.6s5.2,25.74,25.46,26.29c13.18.36,22.43-3.31,25.05-7.67l.14-11.23c-2.19,2.46-6,4.53-19.17,5.2-16.15.82-16.15-11.77-10.95-11.5Zm13.04-19.17c4.35,6.04-2.46,10.95-13.14,9.58-3.29-7.67,8.21-16.43,13.14-9.58Z"/>
    <path d="m1516.39,388.66c32.28,1.7,34.77-12.05,34.77-20.26s-6.84-16.43-24.37-16.43c-25.19,0-30.94,25.74-30.94,35.6s5.2,25.74,25.46,26.29c13.18.36,22.43-3.31,25.05-7.67l.14-11.23c-2.19,2.46-6,4.53-19.17,5.2-16.15.82-16.15-11.77-10.95-11.5Zm13.04-19.17c4.35,6.04-2.46,10.95-13.14,9.58-3.29-7.67,8.21-16.43,13.14-9.58Z"/>
    <path d="m1576.69,413.25h-15.51c1.33-8.52,2.62-16.82,3.92-25.11,1.62-10.31,3.32-20.62,4.84-30.94.41-2.81,1.2-4.7,4.52-4,.31.06.64,0,.96,0q7.07,0,10.17,6.2c1.9-1.11,3.78-2.24,5.68-3.31,4.75-2.67,9.81-3.12,15.3-3.02v14.92s-2.79-.96-11.18-.96c-9.31,0-12.71,6.07-13.06,9.61-1.19,12.25-3.68,24.38-5.63,36.61Z"/>
    <path d="m1440.83,413.23h-15.56c1.33-8.55,2.62-16.87,3.93-25.19,1.63-10.34,3.33-20.68,4.86-31.03.42-2.82,1.2-4.71,4.53-4.01.31.06.64,0,.96,0q7.1,0,10.2,6.22c1.91-1.11,3.79-2.25,5.7-3.32,4.76-2.68,9.84-4.01,15.34-3.91,9.3.18,14.57,5,14.32,14.32-.17,6.16-1.45,12.29-2.36,18.42-1.28,8.67-2.66,17.32-4.03,25.97-.13.83-.45,1.63-.72,2.55h-15.22c.58-4.08,1.09-7.96,1.69-11.81,1.52-9.82,3.13-19.63,4.62-29.45.78-5.14-1.36-7.58-6.47-7.42-2.12.07-4.3.28-6.32.85-5.57,1.58-9.15,4.28-9.81,11.09-1.2,12.29-3.69,24.45-5.65,36.72Z"/>
    <path d="m1771.58,353.05l-.48,4.18c-3.86-1.94-10.69-4.27-21.29-4.18-18.07.16-25.05,15.36-25.05,35.48s13.14,25.35,22.18,25.35c6.7,0,13.4-2.2,18.26-5.18l-.59,5.18h14.99l5.96-60.83h-13.96Zm-18.28,44.93c-7.6-.82-10.88-4.72-10.88-11.29s5.75-18.48,12.73-18.48,7.5,1.33,9.45,3.29c0,0,2.54,27.99-11.29,26.49Z"/>
    <path d="m1660.07,353.05l-.48,4.18c-3.86-1.94-10.69-4.27-21.29-4.18-18.07.16-25.05,15.36-25.05,35.48s13.14,25.35,22.18,25.35c5.11,0,10.2-1.28,14.49-3.21-1.19,5.84-5.34,15.78-16.89,15.78-15.4,0-19.78-3.01-19.78-3.01v15.33s3.7,3.15,23.41,3.15,30.1-14.55,31.42-28.04l5.96-60.83h-13.96Zm-18.28,44.93c-7.6-.82-10.88-4.72-10.88-11.29s5.75-18.48,12.73-18.48,7.5,1.33,9.45,3.29c0,0,2.54,27.99-11.29,26.49Z"/>
    <path d="m1693.55,353.05h18.07s-6.69,26.03-6.85,39.16c-.05,4.18,2.23,5.41,5.82,5.28v12.4s-2.46,3.36-8.01,3.36c-7.6,0-21.36,1.56-9.04-60.2Z"/>
    <polygon points="1696.83 345.46 1711.62 345.46 1727.22 325.69 1707.51 325.69 1696.83 345.46"/>
  </g>
</svg>