<?xml version="1.0" encoding="UTF-8"?>
<svg id="Capa_1" data-name="Capa 1" xmlns="http://www.w3.org/2000/svg" viewBox="0 0 722 365.31">
  <defs>
    <style>
      .cls-1 {
        fill: #fff;
      }
    </style>
  </defs>
  <path class="cls-1" d="m73.56,0c7.39,5.64,14.54,11.11,21.71,16.57,29.24,22.3,58.48,44.6,87.76,66.85,1.79,1.36,2.48,2.8,2.46,5.05-.11,11.77-.04,23.53-.05,35.3,0,.79-.08,1.57-.14,2.64-1.3.07-2.47.2-3.65.2-59.41.01-118.82,0-178.23.07-2.53,0-3.47-.52-3.42-3.32.18-10.66.17-21.32,0-31.98-.04-2.85.91-3.55,3.62-3.54,42.32.09,84.64.09,126.96.1.85,0,1.71-.1,3.46-.2-1.27-1.29-1.89-2.1-2.67-2.7-18.52-14.15-37.04-28.3-55.62-42.37-1.89-1.43-2.64-3.01-2.61-5.34.15-11.96.17-23.93.25-35.89,0-.37.08-.74.16-1.42Z"/>
  <path class="cls-1" d="m167.14,252.5c5.23,0,10.45.03,15.68-.02,1.63-.02,2.71.25,2.64,2.27-.39,10.54.27,21.23-1.28,31.59-3.56,23.92-15.22,43.55-34.16,58.71-13.1,10.48-28.1,16.58-44.58,19.21-18.01,2.87-35.18-.3-51.49-7.96-25-11.74-41.48-31.16-49.81-57.43C1.02,289.06-.05,278.88.08,268.57c.06-4.53.06-9.05-.04-13.58-.04-1.81.58-2.53,2.41-2.52,10.66.04,21.31.05,31.97-.02,2.13-.01,2.18,1.21,2.18,2.73,0,6.44-.09,12.88.09,19.31.7,25.02,19.48,47.55,43.91,52.79,31.99,6.87,63.19-14.54,67.71-46.95,1.09-7.8.4-15.86.49-23.8.04-4.04,0-4.04,4.17-4.04,4.72,0,9.45,0,14.17,0Z"/>
  <path class="cls-1" d="m386.08,58.04c-5.21,3.97-10.19,7.69-15.07,11.54-1.9,1.5-2.67.07-3.62-1.04-6.82-7.99-15.18-13.69-25.18-16.92-21.26-6.86-45.06.69-58.8,18.63-18.32,23.92-16.3,56.85,4.81,78.17,22.24,22.46,59.09,20.68,79.39-3.84.88-1.07,1.76-2.15,2.86-3.5,5.07,4.5,9.98,8.76,14.72,13.21.41.38.04,2.24-.54,2.92-8.17,9.58-18.06,16.92-29.83,21.38-23.38,8.85-46.43,7.79-67.83-5.28-28.56-17.45-41.54-43.76-37.29-76.86,3.99-31.03,21.96-52.31,51.5-62.96,29.73-10.72,63.42-1.19,83.86,23.05.31.37.55.8,1.03,1.51Z"/>
  <path class="cls-1" d="m418.15,103.94c.75-.85,1.57-1.65,2.26-2.55,10.57-13.74,34.18-17.47,48.28-7.46,6.08,4.32,9.67,10.52,11.15,17.7.99,4.78,1.4,9.75,1.45,14.65.17,17,0,34,.13,51,.02,2.82-.62,3.97-3.65,3.82-4.71-.24-9.45-.21-14.17-.01-2.78.12-3.63-.77-3.6-3.58.13-15.09.18-30.18,0-45.27-.06-4.38-.48-8.9-1.64-13.1-3.08-11.17-13.15-15.95-24.2-11.79-2.52.95-5.01,2.14-7.25,3.62-6.16,4.09-10,9.17-9.74,17.38.52,16.38.1,32.79.24,49.19.02,2.85-.87,3.66-3.61,3.55-4.92-.19-9.85-.14-14.78,0-2.29.07-2.96-.8-2.93-2.99.1-5.83.03-11.67.03-17.5,0-41.85,0-83.7,0-125.55q0-4.11,4.12-4.11c4.73,0,9.45.1,14.18-.03,2.28-.07,2.95.77,2.94,2.97-.06,22.53-.04,45.07-.04,67.6,0,.67,0,1.34,0,2,.28.15.56.3.84.45Z"/>
  <path class="cls-1" d="m381.33,207.82c-21.48,49.91-42.75,99.35-64.38,149.62-21.61-50.22-42.9-99.69-64.47-149.8,7.52,0,14.23-.08,20.93.11.78.02,1.83,1.4,2.23,2.37,9.21,22.04,18.35,44.11,27.49,66.18,4.15,10.01,8.26,20.03,12.41,30.04.25.61.74,1.13,1.38,2.09.65-.99,1.24-1.63,1.56-2.4,13.18-31.8,26.35-63.6,39.44-95.45.91-2.21,2.02-3.11,4.42-3.03,5.12.16,10.26.04,15.38.05.97,0,1.94.12,3.6.22Z"/>
  <path class="cls-1" d="m590.53,144.98c2.24,8.64,6.8,14.62,13.54,18.96,5.89,3.79,12.33,4.99,19.31,3.97,8.82-1.28,17.3-3.39,24.95-8.62,2.84,3.74,5.66,7.25,8.17,10.97.33.49-.6,2.33-1.4,3-6.38,5.33-13.78,8.68-21.9,10.19-9.77,1.81-19.53,1.86-29.23-.98-21.57-6.31-36.55-29.66-33.2-51.9,2.95-19.63,13.44-33.35,32.2-39.93,24.79-8.7,52.07,5.5,59.98,30.57,2.1,6.65,2.43,13.37,2.15,20.24-.11,2.7-.96,3.6-3.76,3.59-22.11-.11-44.23-.06-66.34-.06-1.28,0-2.55,0-4.46,0Zm27.21-15.59c7.14,0,14.28,0,21.41,0q7.11,0,4.42-6.67c-5.15-12.75-17.92-20.3-30.88-17.59-11.36,2.38-18.08,10.14-21.73,20.85-.99,2.91-.69,3.39,2.34,3.4,8.14.03,16.29.01,24.43.01Z"/>
  <path class="cls-1" d="m528.88,311.21c-.28-26.68,21.44-48.86,48.06-49.11,27.59-.25,50.11,20.97,50.34,47.44.24,27.32-21.24,49.69-47.93,49.92-28.06.24-50.19-20.92-50.48-48.25Zm20.79.62c-.11,5.76,1.93,12.05,5.99,17.7,7.25,10.1,19.8,14.35,30.86,10.45,16.92-5.97,24.92-26.44,16.82-43.07-6.61-13.57-19.78-19.58-33.74-15.41-11.36,3.4-19.89,15.86-19.92,30.33Z"/>
  <path class="cls-1" d="m657.75,276.97c4.13-3.52,7.4-7.22,11.45-9.6,11.23-6.6,23.16-8.43,35.47-2.93,8.54,3.81,13.41,10.89,15.36,19.69,1.29,5.83,1.74,11.93,1.83,17.92.23,16.29.01,32.6.14,48.89.02,2.75-.85,3.43-3.45,3.33-4.92-.19-9.86-.17-14.78,0-2.45.09-3.29-.56-3.27-3.17.12-14.99.17-29.98,0-44.97-.05-4.29-.58-8.64-1.5-12.83-2.42-11-11.3-16.3-22.28-13.53-6.11,1.54-11.26,4.73-15.44,9.48-2.34,2.66-3.58,5.65-3.56,9.32.09,17.4-.02,34.81.11,52.21.02,2.83-.8,3.62-3.54,3.49-4.41-.22-8.85,0-13.27-.08-4.8-.08-4.58,1.03-4.59-4.77-.01-18.21,0-36.42,0-54.63,0-9.56.13-19.12-.07-28.67-.07-3.17.99-3.97,3.97-3.82,4.61.23,9.25.18,13.87,0,2.66-.1,3.84.56,3.62,3.5-.27,3.64-.06,7.32-.06,11.13Z"/>
  <path class="cls-1" d="m478.12,273.9c-3.84,4.53-7.28,8.58-10.54,12.43-4.14-2.48-7.93-5.36-12.17-7.15-6.77-2.85-13.59-2.62-19.54,2.41-6.4,5.4-4.87,14.54,3.18,16.83,5.83,1.66,12.04,1.98,18.08,2.94,2.77.44,5.53.98,8.29,1.49,15.7,3.31,23.29,22.28,14.93,37.36-6.51,11.75-16.85,17.36-29.86,18.62-15.07,1.45-30.06-5.67-40.62-17.61,4.02-3.68,8.01-7.43,12.17-10.98.38-.32,2.13.42,2.82,1.1,4.97,4.97,10.64,8.66,17.77,9.39,8.51.88,16.29,2.21,21.59-4.99,3.37-4.58,1.33-14.35-4.23-15.7-5.43-.6-11.16-.98-15.7-1.81-7.8-1.42-12.9-2.83-19.09-7.98-14.35-11.94-13.33-31.38,2.32-41.55,13.87-9.01,28.02-8.5,42.11-.39,2.84,1.63,5.49,3.6,8.49,5.59Z"/>
  <path class="cls-1" d="m555.61,106.34c0,23.73-.04,47.45.05,71.18.01,2.69-.61,3.74-3.49,3.6-4.91-.24-9.85-.18-14.77-.02-2.56.09-3.24-.88-3.24-3.32.05-47.85.05-95.71,0-143.56,0-2.46.75-3.4,3.29-3.31,4.92.17,9.86.25,14.77,0,2.98-.15,3.44,1.06,3.43,3.66-.09,20.31-.05,40.61-.05,60.92,0,3.62,0,7.24,0,10.86Z"/>
  <path class="cls-1" d="m71.69,207.95c-1.21.11-2.48.31-3.75.31-21.3.02-42.59.02-63.89,0-3.98,0-3.98-.02-3.98-4.04,0-10.55.08-21.11-.06-31.66-.03-2.46.76-3.05,3.1-3.04,22,.07,44,.04,66,.02,1.61,0,2.91-.07,2.89,2.27-.09,11.66-.05,23.32-.06,34.98,0,.29-.12.58-.26,1.16Z"/>
  <path class="cls-1" d="m185.26,169.84v38.05c-1.32.13-2.67.37-4.02.37-21.29.03-42.58-.03-63.88.08-2.95.02-3.73-.95-3.69-3.81.15-10.65.1-21.3.02-31.95-.02-2.1.42-3.06,2.79-3.05,22.2.07,44.39.04,66.59.05.67,0,1.35.16,2.19.26Z"/>
  <path class="cls-1" d="m494.73,354.31v-91.25c2.41,1.15,4.48,2.07,6.47,3.12,4.18,2.19,8.28,4.52,12.49,6.65,1.64.83,2.31,1.86,2.3,3.75-.05,24.94-.05,49.88,0,74.82,0,2.19-.59,3.01-2.89,2.96-6.02-.14-12.04-.05-18.38-.05Z"/>
  <path class="cls-1" d="m497.21,89.8c6.85,3.59,13.32,6.93,19.71,10.43.64.35,1.07,1.66,1.07,2.53.06,25.22.03,50.44.09,75.66,0,2.18-.81,2.73-2.85,2.68-5.12-.12-10.24-.08-15.36,0-1.93.03-2.92-.38-2.92-2.65.05-28.94.02-57.88.02-86.82,0-.39.1-.78.25-1.84Z"/>
  <path class="cls-1" d="m377.71,262.84c7.11,3.79,13.5,7.13,19.78,10.65.71.4,1.18,1.83,1.18,2.79.06,25.13.04,50.27.08,75.4,0,1.93-.61,2.7-2.59,2.67-5.12-.08-10.25-.15-15.37.04-2.62.1-3.14-.91-3.13-3.33.08-25.23.05-50.47.05-75.7,0-3.89,0-7.78,0-12.51Z"/>
  <path class="cls-1" d="m577.98,248.28c-2.91,0-5.82-.04-8.72.02-1.52.03-2.13-.51-2.11-2.11.08-5.52.07-11.03,0-16.55-.02-1.63.71-2.08,2.18-2.07,5.81.03,11.63-.06,17.44.11.74.02,2.03,1.29,2.05,2.02.17,5.51.07,11.03.1,16.55.01,1.6-.74,2.08-2.23,2.05-2.91-.06-5.81-.02-8.72-.02h0Z"/>
  <path class="cls-1" d="m494.53,261.32c0-4.87-.08-9.19.09-13.5.03-.67,1.21-1.83,1.88-1.85,5.73-.15,11.46-.07,17.19-.11,1.69-.01,2.31.77,2.28,2.4-.05,3.62.09,7.25-.08,10.86-.04.76-1.07,2.08-1.67,2.1-6.41.15-12.82.1-19.69.1Z"/>
  <path class="cls-1" d="m507.42,88.14c-2.71,0-5.42-.06-8.12.02-1.69.05-2.35-.66-2.33-2.31.05-3.71-.08-7.43.11-11.13.04-.72,1.2-1.95,1.87-1.96,5.71-.16,11.43-.16,17.15,0,.67.02,1.83,1.22,1.87,1.92.19,3.8.21,7.63,0,11.43-.04.72-1.33,1.89-2.12,1.96-2.79.24-5.61.09-8.42.09Z"/>
  <path class="cls-1" d="m388.37,245.87c2.51,0,5.03.1,7.54-.03,2.06-.11,2.93.58,2.85,2.73-.13,3.42-.12,6.84-.02,10.26.05,1.81-.59,2.54-2.43,2.52-5.43-.07-10.86-.09-16.29,0-1.89.03-2.44-.75-2.39-2.52.1-3.42.14-6.84.02-10.26-.07-2.17.83-2.82,2.87-2.72,2.61.13,5.23.03,7.84.03Z"/>
</svg>