<?xml version="1.0" encoding="UTF-8"?>
<svg id="Capa_1" data-name="Capa 1" xmlns="http://www.w3.org/2000/svg" viewBox="0 0 604.7 126.7">
  <defs>
    <style>
      .cls-1 {
        fill: #fff;
      }
    </style>
  </defs>
  <path class="cls-1" d="m181.75,126.59c-35.07-.06-63.28-28.45-63.11-63.52C118.82,28.23,147.3.29,182.62.33c34.35.04,62.56,28.68,62.45,63.42-.11,34.91-28.31,62.9-63.32,62.83Zm-39.66-63.02c.08,21.93,17.99,39.84,39.81,39.81,22.04-.03,39.89-18.01,39.86-40.14-.03-21.83-18.01-39.59-40.01-39.52-21.96.07-39.73,17.93-39.66,39.85Z"/>
  <path class="cls-1" d="m265.94,63.35c0-17.1-.01-34.2,0-51.3,0-7.12,2-9.07,9.16-9.07,17.6,0,35.2-.01,52.8,0,24.3.02,43.51,18.9,44,43.22.47,23.36-19.44,43.72-43.34,44.12-11.6.19-23.22.15-34.82-.03-3.48-.05-4.63,1.15-4.54,4.55.18,7.11.09,14.23.04,21.34-.04,5.65-2.28,7.79-8.05,7.85-2.37.02-4.74.03-7.11,0-5.87-.08-8.07-2.27-8.12-8.25-.06-7.11-.01-14.23-.01-21.34,0-10.36,0-20.72,0-31.08h-.01Zm45.43,3.55c5.49,0,10.98.09,16.46-.04,2.22-.05,4.53-.25,6.61-.95,9.39-3.12,15.23-12.41,13.93-21.81-1.4-10.13-9.91-17.63-20.86-17.86-11.47-.24-22.95-.03-34.42-.1-2.7-.02-3.84,1.08-3.83,3.77.05,11.1.07,22.2,0,33.3-.02,2.72,1.03,3.77,3.78,3.72,6.11-.13,12.22-.04,18.33-.04Z"/>
  <path class="cls-1" d="m63.5,126.61C30.31,126.73,2.75,101.36.19,68.29-2.34,35.68,21.08,5.93,53.61,1.05c18-2.7,34.46,1.6,48.9,12.91,4.97,3.89,5.12,7.67.61,12.21q-9.08,9.16-20.17,2.72c-16.33-9.48-37.69-5.72-49.98,8.79-12.59,14.87-12.71,36.16-.3,51.33,11.94,14.6,33.41,18.6,49.88,9.26,1.84-1.04,3.58-2.27,5.34-3.45,3.35-2.25,6.21-2.12,9.13.59,2.28,2.12,4.53,4.3,6.66,6.58,3.43,3.67,3.16,7.47-.77,10.62-11.51,9.23-24.62,13.98-39.41,13.98Z"/>
  <path class="cls-1" d="m498.55,62.98c1.06-25.13,12.47-44.68,35.51-56.03,22.59-11.13,44.79-8.68,65.43,5.88,2.03,1.43,4.4,3.52,4.94,5.72,1.66,6.81-4.72,9.28-8.36,12.98-2.63,2.68-6.37,2.55-9.73.48-1.8-1.11-3.55-2.32-5.41-3.34-17.34-9.55-38.65-5.04-50.69,10.71-11.91,15.56-10.77,37.5,2.67,51.5,13.89,14.47,35.71,16.63,51.91,5.13,5.44-3.86,7.62-3.7,12.3.92,1.42,1.4,2.83,2.82,4.23,4.24,4.55,4.65,4.4,8.21-.63,12.15-9.16,7.17-19.57,11.56-31.08,12.93-30.5,3.63-58.52-14.38-68.05-43.57-1.04-3.19-1.75-6.52-2.27-9.83-.48-3.07-.51-6.22-.77-9.86Z"/>
  <path class="cls-1" d="m434.37,124.04c-13.11,0-26.22.01-39.34,0-6.31,0-8.38-2.03-8.45-8.21-.03-2.62-.05-5.25,0-7.87.11-4.64,2.52-7.09,7.21-7.24,3.37-.1,6.74-.03,10.11-.03,23.1,0,46.21,0,69.31,0,7.56,0,9.32,1.75,9.33,9.2,0,2.12.02,4.25,0,6.37-.08,5.59-2.12,7.71-7.72,7.73-13.49.05-26.97.02-40.46.02v.02Z"/>
  <path class="cls-1" d="m435.68,26.16c-13.47,0-26.94.02-40.41,0-5.32-.01-7.66-2.4-7.73-7.78-.03-2.87-.11-5.74.03-8.6.21-4.25,2.65-6.74,6.9-6.75,27.44-.05,54.87-.05,82.31.01,4.41,0,6.84,2.59,6.97,7.06.09,2.99.05,5.99-.02,8.98-.11,4.61-2.56,7.06-7.27,7.08-13.59.05-27.19.02-40.78.01Z"/>
  <path class="cls-1" d="m447.07,75.17c-7.87,0-15.73.05-23.6-.02-5.92-.05-8.12-2.33-8.16-8.21-.02-2.62-.07-5.25.01-7.87.15-4.65,2.65-7.26,7.22-7.28,16.36-.06,32.71-.06,49.07,0,4.47.02,6.95,2.49,7.11,6.93.11,3.12.09,6.24,0,9.36-.13,4.64-2.66,7.1-7.32,7.12-8.11.04-16.23.01-24.34.01,0-.02,0-.03,0-.05Z"/>
</svg>