<?xml version="1.0" encoding="UTF-8"?>
<svg id="Capa_1" data-name="Capa 1" xmlns="http://www.w3.org/2000/svg" fill="#fff" viewBox="0 0 1813.33 193.3">
  <path d="m233.1,13.6c-48.61,0-88.02,39.41-88.02,88.02s39.41,88.02,88.02,88.02,88.02-39.41,88.02-88.02S281.71,13.6,233.1,13.6Zm0,120.75c-18.08,0-32.74-14.66-32.74-32.74s14.66-32.74,32.74-32.74,32.74,14.66,32.74,32.74-14.66,32.74-32.74,32.74Z"/>
  <path d="m1342.84,118.92c0,39.05-34.4,70.71-76.84,70.71s-76.84-31.66-76.84-70.71V13.6h60.62v108.93c0,7.57,7.27,13.71,16.23,13.71s16.23-6.14,16.23-13.71V13.6h60.62v105.32Z"/>
  <path d="m825.16,58.13c-15.83-26.59-45.73-44.52-80-44.52-50.81,0-92,39.41-92,88.02s41.19,88.02,92,88.02,92-39.41,92-88.02c0-5.37-.5-10.64-1.47-15.75h-90.53v40.8h29.27c-6.38,9.19-16.19,15.08-27.21,15.08-19.22,0-34.8-17.95-34.8-40.09s15.58-40.09,34.8-40.09c11.33,0,21.4,6.24,27.76,15.9l50.18-19.35Z"/>
  <path d="m1087.35,13.6c-48.61,0-88.02,39.41-88.02,88.02s39.41,88.02,88.02,88.02,88.02-39.41,88.02-88.02-39.41-88.02-88.02-88.02Zm0,120.75c-18.08,0-32.74-14.66-32.74-32.74s14.66-32.74,32.74-32.74,32.74,14.66,32.74,32.74-14.66,32.74-32.74,32.74Z"/>
  <path d="m129.86,122.31c-6.88,8.62-17.95,14.22-30.43,14.22-20.86,0-37.78-15.63-37.78-34.91s16.91-34.91,37.78-34.91c12.48,0,23.55,5.59,30.42,14.21l.12-56.69c-12.47-6.77-26.76-10.62-41.95-10.62C39.41,13.6,0,53.01,0,101.62s39.41,88.02,88.02,88.02c15.14,0,29.39-3.82,41.84-10.56v-56.76Z"/>
  <path d="m1443.39,13.6h-88.97v176.03h60.85v-55.28h28.12c32.99,0,59.74-27.03,59.74-60.38s-26.75-60.38-59.74-60.38Zm-11.45,77.96h-16.67v-30.33h16.67c6.4,0,11.58,7.64,11.58,14.69s-5.19,15.65-11.58,15.65Z"/>
  <path d="m588.17,13.6h-88.97v176.03h60.85v-55.28h28.12c32.99,0,59.74-27.03,59.74-60.38s-26.75-60.38-59.74-60.38Zm-11.45,77.96h-16.67v-30.33h16.67c6.4,0,11.58,7.64,11.58,14.69s-5.19,15.65-11.58,15.65Z"/>
  <path d="m490.64,189.64l-42.01-67.96c21.11-8.69,35.88-28.56,35.88-51.69,0-31.14-26.75-56.38-59.74-56.38h-88.97v176.03h60.85v-60.36l28.48,60.36h65.51Zm-77.31-131.56c6.4,0,11.58,7.14,11.58,13.71s-5.19,14.61-11.58,14.61h-16.67v-28.33h16.67Z"/>
  <path d="m999.33,189.64l-42.01-67.96c21.11-8.69,35.88-28.56,35.88-51.69,0-31.14-26.75-56.38-59.74-56.38h-88.97v176.03h60.85v-60.36l28.48,60.36h65.51Zm-77.31-131.56c6.4,0,11.58,7.14,11.58,13.71s-5.19,14.61-11.58,14.61h-16.67v-28.33h16.67Z"/>
  <g>
    <path d="m1746.67,73.74l31.13-51.95c-16.66-13.61-37.93-21.79-61.12-21.79-45.48,0-83.61,31.43-93.9,73.74h123.88Z"/>
    <path d="m1783.78,27.12l-63.84,106.54,30.84,53.43c36.55-13.79,62.55-49.07,62.55-90.45,0-27.31-11.34-51.95-29.55-69.53Z"/>
    <path d="m1680.8,81.62h-59.6c-.77,4.9-1.17,9.92-1.17,15.03,0,53.38,43.27,96.65,96.65,96.65,9.18,0,18.04-1.31,26.45-3.7l-62.33-107.99Z"/>
  </g>
</svg>