<?xml version="1.0" encoding="UTF-8"?>
<svg id="Capa_1" data-name="Capa 1" xmlns="http://www.w3.org/2000/svg" fill="#fff" viewBox="0 0 1897.32 427.76">
  <g>
    <path d="m0,405.42V98.03c11.99-1.41,23.96-3.25,36.01-4.17,33.07-2.53,66.19-3.66,99.27-.33,29.65,2.98,57.93,10.16,82.77,27.83,26.11,18.58,43.01,43.55,50.42,74.4,10.03,41.72,7.96,83.05-8.7,122.94-16.17,38.71-45.18,63.71-84.64,77.25-37.18,12.76-75.55,15.11-114.34,13.76-18.45-.64-36.87-2.22-55.31-3.42-1.79-.12-3.55-.56-5.49-.88Zm69.22-154.42c0,32.33.08,64.66-.1,96.99-.02,4.43,1.17,6.56,5.72,6.39,15.12-.55,30.46.4,45.31-1.86,35.03-5.33,60.2-24.51,72.05-58.48,10.07-28.87,10.73-58.52,2.26-88.01-7.04-24.51-22.29-42.23-46.16-51.74-24.37-9.7-49.66-10.02-75.25-6.36-3.72.53-3.87,2.63-3.87,5.57.06,32.5.04,65,.04,97.49Z"/>
    <path d="m1284.58,303.39c-1.6,27.93-9.85,54-28.96,75.53-13.48,15.19-30.42,24.71-49.95,29.55-26.48,6.56-53.13,6.94-79.57-.08-34.21-9.08-55.8-31.59-66.97-64.69-6.35-18.81-8.83-38.31-8.92-58.03-.25-54-.22-167.39-.22-167.39h65.65s-.11,112.23-.08,165.39c0,15.91,1.41,31.61,7.42,46.57,8,19.9,23.41,30.42,44.77,30.48,22.3.06,37.63-10.08,45.86-30.35,5.15-12.69,7.06-26.02,7.1-39.58.15-55.33.03-172.51.03-172.51h65.36s-.1,65.67-.1,95.67c.18,0,.29,59.69-1.42,89.44Z"/>
    <path d="m659.27,412.37c-45.8-1.82-79.99-15.83-102.52-51.41-15.49-24.47-19.39-51.72-16.93-80.12,1.84-21.26,7.88-41.16,20.18-58.81,18.53-26.6,44.77-40.54,76.2-45.49,22.53-3.54,44.9-2.66,66.52,5.1,34.15,12.27,56.47,36.09,66.8,70.85,8.72,29.33,7.84,58.73-2.65,87.35-13.41,36.59-40.36,58.71-77.72,68.04-11.37,2.84-23.27,3.54-29.88,4.49Zm42.97-120.38c-.45-16.01-2.76-32.72-12.06-47.69-9.76-15.7-25.57-22.12-43.4-17.58-14.58,3.71-23.13,14.02-28.41,27.25-8.81,22.08-9.14,44.82-3.77,67.73,2.58,11.03,7.22,21.19,15.68,29.04,20.29,18.85,50.08,12.41,62.84-13.47,6.86-13.91,8.89-28.83,9.13-45.29Z"/>
    <path d="m299.86,179.67c2.31,0,4.1,0,5.89,0,19.32,0,38.63.15,57.95-.11,4.7-.06,6.18,1.1,6.16,6.01-.2,38.65-.36,77.31.07,115.96.11,9.71,1.55,19.62,3.95,29.03,3.33,13.05,11.68,22,25.78,23.84,15.89,2.07,28.36-3.72,37.21-17.11,4.96-7.5,6.36-15.87,6.34-24.75-.11-41.82-.05-83.64-.05-125.46q0-7.4,7.16-7.41c18.98,0,37.97.15,56.95-.11,4.73-.06,6.18,1.16,6.17,6.04-.13,54.65-.15,109.3.07,163.94.07,17.49.84,34.98,1.56,52.45.16,3.84-.94,4.86-4.67,4.82-17.15-.17-34.3-.19-51.45.01-4.06.05-5.09-1.61-5.32-5.23-.45-7.14-1.25-14.27-1.96-21.39-.16-1.57-.57-3.12-1-5.39-1.33,1.21-2.16,1.74-2.69,2.49-19.06,26.69-45.66,36.54-77.42,34.26-34.23-2.46-58.22-23.36-66.13-58.59-2.9-12.89-4.42-26.33-4.6-39.54-.57-42.98-.22-85.97-.21-128.95,0-1.32.13-2.64.25-4.82Z"/>
    <path d="m1533.75,349.55c1.08,5.52,2.12,10.81,3.14,16.11,1.98,10.3,6.58,35.41,6.58,35.41,0,0-.72.27-3.67,1.03-11.25,2.92-22.35,6.82-33.78,8.52-27.68,4.12-55.41,3.97-82.87-2.48-55.45-13.03-93.35-54.09-102.07-110.53-5.5-35.6-2.53-70.25,13.25-102.91,18.29-37.88,48.84-61.67,88.85-73.41,36.41-10.68,72.98-9.8,109.45-.07,15.01,4.01,15.29,4.96,15.29,4.96l-14.11,52.47s-.62-.11-4.66-1.61c-24.59-9.12-49.9-11.85-75.6-6.13-36.02,8.02-60.22,35.41-65.03,72.26-3.12,23.9-1.92,47.31,8.78,69.32,13.11,26.98,35.7,40.81,64.8,44.91,24.21,3.41,47.71-.31,71.66-7.86Z"/>
    <path d="m970.66,235.7c-16.09-5.9-31.82-8.09-47.94-5.97-28.72,3.78-48.29,24.01-51.03,52.95-1.7,17.97.39,35.35,11.51,50.45,12.88,17.49,31.02,23.7,51.92,23.58,12.9-.07,25.46-2.2,38.03-7.26,1.72,10.48,3.37,20.45,5,30.42.86,5.26,1.32,10.61,2.63,15.75,1.17,4.6-.37,6.57-4.62,7.97-26.29,8.64-53.19,10.14-80.43,6.78-17.39-2.15-33.68-7.83-48.44-17.44-22.52-14.65-36.93-35.28-43.48-61.18-7.61-30.07-6.63-59.84,6.03-88.51,14.97-33.89,41.65-54.22,76.92-63.43,29.46-7.69,59.01-6.81,88.33,1.42,7.13,2,7.01,2.06,5.44,9.25-2.9,13.33-5.64,26.7-8.47,40.05-.33,1.57-.85,3.11-1.42,5.17Z"/>
  </g>
  <g>
    <path d="m1634.29,92.54c-.19-.49-.26-.74-.38-.95-2.16-3.7-1.96-5.86,1.15-8.74,2.32-2.15,4.8-4.13,7.3-6.06,1.32-1.02,1.94-1.96,1.35-3.75-.94-2.84.43-5.73,3-7,2.67-1.32,5.86-.62,7.46,1.98,1,1.62,2.08,1.7,3.7,1.37,3.35-.69,6.72-1.3,10.1-1.74,3.75-.49,5.3.67,7.34,5.18,1.84-1.95,3.64-3.84,5.42-5.75,3.63-3.9,7.28-7.78,10.84-11.75,1.24-1.38,2.18-1.4,3.48-.11,2.09,2.08,4.31,4.02,6.8,6.32.38-4.91,1.42-9.2,5.31-12.05,3.74-2.74,8.01-3.13,12.46-2.4-1.35-2.75-2.58-5.36-3.93-7.9-.21-.39-.95-.64-1.47-.67-1.37-.07-1.9-.71-1.86-2.06.05-1.83.03-3.66,0-5.48-.03-1.29.59-2.04,1.8-1.84,3.76.63,6.11-.63,7.66-4.35,1.08-2.57,3.67-4.06,6.37-4.96q2.84-.94,2.35-4.39c-1.11,0-2.29,0-3.46,0-1.24,0-1.85-.56-1.84-1.85.03-1.96.03-3.93-.01-5.89-.03-1.42.69-1.94,1.99-1.91,1.07.02,2.13,0,3.57,0,0-1.23.05-2.34-.01-3.45-.09-1.6.5-2.38,2.21-2.31,2.21.09,4.43.07,6.64-.01,1.67-.06,2.33.66,2.22,2.3-.07,1.06-.01,2.14-.01,3.49,1.03,0,1.88-.01,2.73,0,2.5.04,2.7.24,2.73,2.83.02,1.49-.05,2.98.02,4.47.08,1.75-.67,2.49-2.4,2.36-.93-.07-1.86-.01-2.93-.01v3.34c1.34.45,2.78.79,4.09,1.4,3.14,1.47,5.29,3.91,6.28,7.27.36,1.22.88,1.7,2.21,1.7,6.07-.01,5.32-.84,5.38,5.57,0,.74.17,1.55-.06,2.22-.2.59-.85,1.45-1.29,1.44-1.48-.02-1.82.89-2.33,1.99-1.05,2.24-2.31,4.38-3.51,6.59,12.5.06,16.54,3.13,17.87,13.96,1.65-1.48,3.19-2.7,4.53-4.11,1.54-1.63,2.81-2.18,4.68-.3,1.06,1.06,2.65,1.79,4.12,2.19,3.03.83,3.81,2.85,3.36,6.05,3.22-1.65,5.69-.5,8.17,1.28.64.46,2.07.33,2.87-.07,2.09-1.04,3.62-1.06,5.56.67,1.36,1.22,3.58,1.59,5.48,2.05,2.19.53,4.45.73,6.73,1.08,2.06-4.2,5.55-5.7,9.16-3.83,3.51,1.82,4.4,5.59,2.34,9.32,2.02,2.03,3.84,4.21,6.02,5.94,1.4,1.11,3.28,1.73,5.05,2.22,1.32.37,2.13.79,2.4,2.25.44,2.38,1.05,4.72,1.62,7.23,2.48-1.3,5.01-1.68,7.57-.26.1.06.29.06.39.01,2.86-1.42,3.22.78,3.82,2.67.39,1.22.77,2.45,1.22,3.65.56,1.46.34,2.45-1.28,2.98-1.88.61-2.8,1.91-2.38,3.97,3.48,1.1,5.31,3.31,4.1,7.84-.55,2.07-1.26,4.1-1.95,6.33,5.2.5,9.94,1.99,13.41,6.09,3.54,4.17,4.74,8.87,2.54,14.04,3.67,2.35,4.77,4.27,4.17,7.06-.7,3.25-2.8,4.67-8,5.31.88,4.57,1.57,9.17,4.08,13.21,1.04,1.67,2.46,2.29,4.48,1.74,1.19-.32,2.53-.36,3.75-.18,2.52.36,3.79,1.67,3.89,3.65.12,2.3-1.12,4.46-3.42,4.86-1.97.34-4.09.02-6.12-.24-1.17-.15-2.28-.76-3.76-1.28,25.25,38.76,33.95,80.72,24.2,125.83-9.76,45.13-34.78,79.88-73.77,104.05-60.36,37.41-139.5,29.57-191.69-18.78-29.43-27.27-46.86-60.97-51.44-101.06-4.57-39.97,4.79-76.69,27.2-110.47-1.8.69-3.2,1.29-4.63,1.76-2.43.79-4.86,1.1-7.16-.44-1.69-1.13-2.37-2.75-2-4.74.34-1.84,1.74-2.77,3.38-3.05,1.35-.23,2.84-.29,4.14.06,2.12.57,3.72,0,4.56-1.86,1.02-2.25,1.75-4.65,2.41-7.03.5-1.8.7-3.69,1.06-5.69-.94-.2-1.71-.35-2.48-.52-2.35-.52-4.05-1.82-4.62-4.26-.6-2.58.1-4.77,2.09-6.6.59-.54,1.36-1.58,1.2-2.14-2.4-8.5,3.42-16.43,11.68-18.59v-9.6q-3.09-.61-3.35-4.48c-.22-3.44-.37-6.9-.66-10.33-.16-1.84.51-2.51,2.35-2.6,7.44-.35,14.87-.82,22.61-1.26Zm190.21,25.2c.06.23.13.65.19.65,1.05-.03,2.1-.12,3.32-.21.1-1.35.21-2.71.31-4.07-.69,1.95-.46,4.69-3.88,3.7.34-.19.69-.54,1.01-.53,1.83.1,2.08-.22,1.51-2.14-6.53,3.41-8.04,3.61-13.78,1.39-3.58-1.38-7.17-2.09-11-1.27-.53.11-1.57-.46-1.8-.97-1.68-3.8-4.76-6.08-8.11-8.17-1.41-.88-2.93-1.8-3.94-3.08-2.25-2.84-5.1-2.94-8.22-2.49-.31.04-.78.16-.92.01-2.02-2.24-5.79-2.88-6.06-6.75-.04-.55-.49-1.07-.76-1.62-.92,1.6-1.78,3.08-2.7,4.67.27.52.65,1.16.94,1.83,1.17,2.7,2.55,5.34,3.37,8.14.37,1.28.58,1.9,1.93,2.24,10.9,2.7,21.41,6.52,31.41,11.65,6.14,3.15,12.07,6.69,18.18,10.1.24-1.48,1.25-1.32,2.44-.74.66.32,1.35.63,2.05.8,1.54.38,2.86-.61,2.57-1.89-.22-.95-.54-1.88-.82-2.82-.1.18-.2.36-.3.54-1.43-.52-2.95-.9-4.28-1.61-.99-.53-1.06-1.47-.03-2.28.77-.6,1.46-1.31,2.18-1.96-1.12-1.84-2.37-2.73-4.43-1.94-.5.19-1.24-.24-1.86-.39.04-.2.08-.39.11-.59.46-.07.91-.15,1.36-.21Zm-179.87,15.44c.21-.24.39-.54.64-.72,13.37-9.25,27.84-16.14,43.25-21.2,7.98-2.62,16.43-3.32,24.28-6.45,5.72-2.28,11.57-4.24,17.34-6.42,1.2-.46,2.32-.84,3.37.09,1.89,1.67,3.71,1.4,5.51-.06.99-.8,1.91-.58,2.97-.14,3.6,1.48,7.2,2.94,10.85,4.28,2.7.99,5.48,1.8,8.22,2.66,2.64.83,5.29,1.64,7.94,2.46,1.91-5.7-2.3-8.19-4.58-11.39.37-.99,1.06-1.92.94-2.71-.22-1.45-.54-3.3-1.53-4.12-1.33-1.1-1.99-1.92-.93-3.17.63-.74,1.12-1.6,1.74-2.36,1.09-1.35,2.09-2.83,3.39-3.95,2.69-2.32,5.64-4.33,8.28-6.7.9-.81,2-2.79,1.64-3.38-1.43-2.3-1.24-5.89-4.79-6.56.13-.49.23-.89.41-1.61-1.11.99-1.9,1.83-2.82,2.48-.65.47-1.47.71-2.22,1.05-.2-.85-.58-1.7-.56-2.54.14-4.6-.58-8.84-4.75-11.58-5.94-3.92-14.53-1.63-17.7,4.7-.63,1.25-1.26,1.65-2.77,1.58-4.42-.2-8.85,0-13.28-.09-.73-.02-1.64-.56-2.12-1.15-1.05-1.29-1.61-3.11-2.86-4.09-4.28-3.34-9.19-3.64-14.02-1.56-4.4,1.89-5.93,5.86-5.83,10.46.06,2.6.45,5.02-2.55,6.61-1.6.85-2.64,2.76-3.98,4.25-.86-.76-1.6-1.42-2.49-2.21-1.44,1.58-2.78,3.04-4.23,4.62.96.69,1.75,1.27,2.6,1.89-1.27,1.36-2.5,2.67-3.82,4.07-1.66-1.52-3.21-2.95-4.85-4.45-2.85,3.04-5.54,5.87-8.17,8.75-.31.34-.52,1-.43,1.45.31,1.64.77,3.26,1.22,5.08,3.15-.17,6.27-.35,9.27-.51.55-1.71.91-3.31,1.57-4.77,1.53-3.41,4.01-5.77,7.84-6.21,3.9-.44,6.67,1.51,8.76,4.64,3.14,4.71,3.86,9.89,2.52,15.3-.91,3.67-3.06,6.46-6.95,7.41-5.42,1.33-9.45-.72-12.16-6.08-.3-.59-.84-1.5-1.28-1.51-2.57-.03-5.15.17-7.85.29.23,2,.31,3.77.66,5.47.34,1.63-.34,2.2-1.77,2.46-7.6,1.38-14.48,4.35-20.29,9.59-.95.86-1.83.96-2.76-.1-1.32-1.49-2.73-2.91-4.19-4.45-1.21,1.31-2.25,2.54-3.42,3.64-1.09,1.02-1.14,1.91-.5,3.31,2.25,4.95,1.51,8.49-2.22,12.35-.3.31-.36.85-.53,1.27-.55.06-1.1.08-1.64.19-1.3.27-2.59.81-3.88.82-5.6.05-9.33-3.29-12.47-7.44-2.04-2.69-3.32-5.82-3.06-9.23.49-6.47,6.14-10.35,12.49-7.71,4.16,1.73,6.16.47,8.31-2.49.24-.32.69-.55.8-.89.16-.5.3-1.18.09-1.59-1.32-2.54-3.27-3.88-6.28-3.21-1.1.25-2.26.24-3.39.26-4.27.09-4.27.07-4.11,4.31.02.54.07,1.09-.03,1.62-.06.35-.33.92-.54.93-1.4.08-2.84.23-4.17-.08-.37-.08-.39-1.64-.59-2.52-.03-.12-.13-.23-.27-.46-1.96.16-3.96.32-5.99.48.09,1.17.15,2.03.23,3.2-3.65-.6-3.85,2.25-4.2,4.42-.33,2.06-.04,4.27.27,6.36.41,2.77.52,2.7-2.16,3.29-5.18,1.14-8.74,4.33-9.9,9.48-.53,2.35.03,5.11.74,7.49.18.6,2.85.43,4.38.62.33.04.66.11.99.16,2.45.37,4.89.81,7.34,1.09,1.48.17,3.07.23,3.47-1.81.35-1.81-.42-2.94-2.48-3.74-.22-.09-.4-.3-.79-.59.44-.36.74-.66,1.09-.9,1.29-.88,1.63-2.15,1.26-3.57-.39-1.51-1.2-2.76-2.94-2.91-1.96-.17-3.57.44-4.55,2.29-.3.57-.57,1.16-.86,1.73-.77-2.27.35-3.59,1.94-4.53,2.17-1.29,4.61-1,6.12.56,1.87,1.94,2.01,4.06.34,7.27.16.1.44.2.62.39,1.41,1.42,1.88,3.63,1.06,5.19-.92,1.76-2.41,2.13-4.26,1.8-2.43-.44-4.88-.81-7.34-1.1-2.67-.32-5.37-.63-7.81.97-1.44.95-2.02,2.3-1.62,4.01.42,1.78,1.72,2.76,3.36,2.55,1.43-.18,2.92-.85,4.11-1.71,1.64-1.18,3.27-1.75,5.25-1.41,1.78.3,3.57.63,5.36.77,4.26.31,7.62-2.24,8.02-6.22.17-1.65-.23-3.35-.32-5.03-.03-.54.09-1.08.13-1.62.48.11.96.18,1.43.34,2.66.88,5.28,1.9,7.99,2.6.84.22,2.02-.2,2.83-.68,1.94-1.14,3.76-2.5,5.63-3.77Zm249.9,132.71c.4-86.86-69.2-157.75-154.93-159.29-90.33-1.62-159.11,70.26-161.57,153.86-2.72,92.3,70.15,162.34,153.55,164.61,91.2,2.49,163.51-71.87,162.95-159.18Zm-58.36-132.87c.22.11.44.22.66.33.58-.3,1.18-.59,1.75-.91,6.21-3.53,10.59-8.9,14.2-14.9,1.09-1.82,1.51-4.18,1.76-6.35.26-2.31-1.36-3.33-3.5-2.54-.98.36-1.92.82-2.91,1.26-.77-1.39-1.88-2.53.06-3.69.3-.18.53-1.15.33-1.42-1.05-1.44.07-2.06.92-2.74,2.01-1.63,2.48-3.54,1.37-5.71-.61-.04-1.48.16-1.71-.15-2-2.59-3.66-.6-5.75.29.75.45,1.38.64,1.72,1.07.52.65.84,1.46,1.25,2.2-.7.3-1.48.96-2.09.82-1.23-.27-1.93.06-2.78.93-.43.45-1.45.32-2.21.45.07-.68-.02-1.42.23-2.02,1.14-2.74,1.64-5.49.76-8.61-2.85.8-4.91,2.4-6.75,4.4-3.07,3.35-3.75,7.48-4,11.81-.17,2.86-.28,2.85,2.4,3.26,0,1.24-.42,2.72.08,3.74,1.57,3.21-.26,5.29-2.03,7.41-.62.74-1.55,1.2-2.31,1.77,1.84,2.09,3.46,1.29,5.1.76.27,1.23.46,2.43.83,3.57.14.43.7.96,1.1.99.38.03.91-.46,1.19-.85.4-.56.63-1.24.93-1.87.22.05.43.1.65.14-.41,2.19-.81,4.37-1.22,6.56Zm-39.45-49.49c-2.32,2.09-4.47,3.91-6.49,5.87-1.8,1.75-3.37,3.69-3.4,6.43-.04,3.91,1.89,6.67,5.07,8.61,3.7,2.25,7.26,4.59,9.29,8.68.23.46,1.27.65,1.96.72,2.5.24,5.05.21,7.52.61,1.69.28,3.29,1.12,4.93,1.68,5.98,2.03,11.37-.94,12.35-6.86.49-2.99.84-6,1.23-9,.04-.3-.03-.82-.2-.91-1.44-.68-2.93-1.84-4.37-1.78-2.15.09-4.49.67-6.3,1.78-1,.62-1.12,2.73-1.58,4.19-.44,1.42-.78,2.86-1.21,4.29-.17.58-.44,1.13-.8,2.06-2-2.79-3.81-5.13-5.41-7.61-.88-1.37-1.87-1.53-3.36-1.43-2.94.18-5.9.05-9.27.05,2.07-2.68,3.93-5.04,5.72-7.46.4-.54.89-1.39.73-1.91-1.14-3.75-2.14-7.71-6.42-8.02Zm33.26,14.75c2.18-3.35,4.69-6.09,8.27-7.67.71-.31,2.23-.15,1.67-1.67-.5-1.36.04-3.38-2.34-3.69-2.7-.35-4.75-1.86-6.57-3.93-1.4-1.59-3.17-2.86-4.91-4.1-1.27-.9-1.68-1.71-.46-2.88,1.57-1.5,1.58-3.19.59-4.97-.96-1.73-2.57-2.37-4.42-2.19-1.98.2-3.43,1.28-3.71,3.38-.25,1.9-1.2,1.84-2.69,1.45-2.31-.6-4.71-.85-7.01-1.44-1.78-.46-3.63-.98-5.18-1.93-2.58-1.59-3.44-1.7-6.09.37,1.41,4.31,1.14,8.6-.51,12.91,1.11.56,2.1,1.05,3.16,1.59.09-.73.15-1.21.23-1.86,3.02,1.04,5.9,1.93,8.69,3.04,1.45.57,2.46.32,3.6-.68,2.2-1.92,4.52-3.69,7.26-5.9,0,3.46.15,6.34-.05,9.2-.13,1.98.59,3.08,2.22,4.03,2.35,1.36,4.56,2.95,6.93,4.51-.59.47-.94.75-1.39,1.11.95.47,1.73.86,2.71,1.35Zm25.04,38.19c-.67.18-.91.24-1.14.31-1.85.51-2.66,1.7-2.45,3.57.23,1.97,1.63,2.05,3.12,1.97.8-.05,1.6-.13,2.4-.22,3.11-.35,6.22-.68,9.33-1.09.42-.06.97-.42,1.16-.8,2.08-4.13,1.36-8.97-1.8-12.4-3.54-3.84-8.03-5.13-13.08-5.09-1.32,0-2.25.29-3.02,1.44-2.64,3.94-6.33,6.74-10.25,9.27-2.39,1.54-4.43,1.98-4.1-2.08.02-.25-.07-.51-.19-1.22-1.26.74-2.34,1.37-3.42,1.99-.58,2.08,3.62,2.19.99,4.98,1.73.21,3.04.73,4.15.44,2.63-.68,5.17-1.75,7.75-2.63.4-.14.85-.15,1.28-.21.06.43.21.87.18,1.29-.11,1.14-.33,2.27-.44,3.41-.41,4.29,1.88,7.37,6.11,8.03,1.35.21,2.81.09,4.16-.16,3.29-.59,6.5-1.17,9.22,1.57.4.41,1.04.61,1.61.82,2.08.75,4.34-.43,5.15-2.65.62-1.69-.36-3.37-2.58-4.05-1.32-.41-2.76-.81-4.1-.7-3.66.3-7.29.93-10.95,1.32-2.53.27-4.36-1.65-3.85-4.15.27-1.31,1.1-2.51,1.74-3.87-1.47-2.65-1.12-5.51.99-7.06,2.01-1.48,5.51-1.05,7.14.87,1.07,1.26,1.25,2.48.5,3.31-2.04-3.5-4.44-4.95-6.43-3.52-3.42,2.46-2.24,5,.8,7.35Zm-69.06-58.97c.47-1.08,1-1.96,1.25-2.93.26-1.02.25-2.12.38-3.18.02-.19.11-.39.22-.54.84-1.21,3.69-2.25,4.87-1.71,1.75.8,2.02,2.32,1.84,4.07-.06.58.22,1.2.35,1.8,1.13-1.97.68-4.9-.75-6.07-1.64-1.35-3.56-1.83-5.64-1.01-.62.24-1.22.71-1.83.73-1.54.04-5-3.36-5.37-5.16,1.07-.26,2.14-.52,3.21-.78.05-.19.1-.38.15-.56-1.14-.64-2.28-1.3-3.43-1.92-1.19-.64-2.4-1.25-3.61-1.88-.97.81-1.84,1.53-2.82,2.35,1.21,2.38,2.36,4.74,3.6,7.05,1.2,2.24.92,4.65-1.02,6.26-2.83,2.35-5.83,4.5-8.61,6.91-1.29,1.12-2.26,2.63-3.31,4.01-.61.81-1.07,1.73-1.6,2.59.21.06.83.05.94.28,1.09,2.21,2.44,4.35,1.62,7.08-.21.69.13,1.76.57,2.4,1.87,2.73,4.64,5.05,3.6,9.08.77.23,1.42.42,2.63.78-1.84-3.95-3.44-7.39-5.13-11.01,2.45-1.34,2.89-3.83,3.29-6.55,1.13,1.1,2.49,2.18,2.69,3.45.49,3.17,3.05,4.25,5.07,5.9.32.26.99.1,1.5.13-1.5-1.17-2.84-2.12-4.05-3.22-.33-.31-.48-1.12-.34-1.6.61-2.14.79-4.2-.44-5.92,2.15-2.06,4.39-3.82,6.12-6,1.26-1.58,2.74-2.51,4.48-3.17,3.17-1.22,4.35-.38,4.47,3.02.04,1.05.18,2.09.28,3.14.25-.03.49-.07.74-.1-.19-1.37-.37-2.75-.56-4.12-.54-3.8-.29-4.4-4.57-3.5-.18.04-.39-.04-.78-.08Zm-107.84,14.76c.33,1.76.67,3.27.88,4.8.16,1.12.72,1.47,1.77,1.39,1.93-.16,3.87-.23,5.8-.41,1.44-.13,2.54-.05,3.09,1.7.39,1.25,1.21,2.43,2.05,3.46,3.36,4.15,10.13,3.93,13.33-.37,4.15-5.56,2.57-16.66-3.14-20.56-1.42-.97-3.5-1.56-5.19-1.4-4.15.39-7.13,3.73-7.89,8.72-.3,1.96-1.19,2.23-2.74,2.27-2.59.07-5.19.25-7.96.39Zm-37.19,20.43c-2.68-.88-4.89-1.87-7.21-2.32-5.22-1.02-9.88,3.52-8.95,8.78,1.13,6.39,4.85,10.85,10.81,13.31,3.35,1.38,6.4.78,9.07-1.76,2.75-2.61,3.81-6,2.07-9.18-2.06-3.78-.44-5.85,2.09-8.03.41-.35.9-.7,1.1-1.17.2-.46.3-1.22.06-1.56-.99-1.42-2.13-2.73-3.31-4.19-2.08,2.22-4.04,4.31-5.74,6.13ZM1733.71,3.46v5.17h-5.49v3.87h5.54c0,1.76,0,3.24,0,4.73s0,2.93,0,4.33c-7.22,1.27-11.49,4.72-11.18,8.88h28.2c-1.1-2.01-1.77-3.87-2.96-5.31-2.23-2.69-5.44-3.48-8.87-3.65v-9.08h5.35q.6-3.8-2.84-3.81c-.83,0-1.67,0-2.51,0-.05-.75-.1-1.15-.1-1.55q-.09-4.44-4.67-3.91c-.06,0-.11.08-.46.35Zm-60.9,71.93c-.47-4.95-1.42-6.53-6.58-5.65-2.44.42-4.91.72-7.29,1.37-2.74.75-4.89.69-6.49-2.18-.99-1.76-3.23-2.02-5-1.08-1.68.9-2.45,2.7-1.96,4.61.83,3.28.54,3.85-2.17,5.94-2.44,1.88-4.82,3.86-7.1,5.94-1.28,1.16-2.21,2.7-1.18,4.51.68,1.21,1.61,2.28,2.26,3.18,4.12-2.96,8.1-5.79,12.03-8.68.4-.29.6-.96.73-1.49.82-3.43,3.82-4.88,6.95-3.35.5.25,1.14.57,1.62.45,4.73-1.14,9.43-2.37,14.18-3.58Zm49.85-38.35c-.06.22-.13.35-.12.47.03.33.07.67.15,1,1.43,5.87,5.37,9.45,10.61,11.89,2.12.99,4.1.86,6.16-.09,5.71-2.62,9.62-6.67,10.64-13.27h-27.45Zm-32.75,37.05c1.92-2.06,3.73-4.01,5.55-5.97,1,.74,1.82,1.36,2.67,1.99,1.44-1.61,2.71-3.05,4.14-4.64-3.02-2.8-5.9-5.47-8.89-8.24-6.1,6.55-12.06,12.94-17.98,19.35-.31.34-.52.99-.44,1.43.32,1.78.78,3.53,1.28,5.72,3.17-3.36,6.09-6.45,9.05-9.59,1.73,1.57,3.26,2.95,4.93,4.48.67-.81,1.24-1.49,1.82-2.19-.74-.82-1.32-1.46-2.13-2.34Zm-71.16,34.39v-3.52c2.81-.14,5.58-.28,8.34-.42.19,1.16.36,2.18.55,3.3,1.02-.12,1.79-.21,2.51-.29v-6.47c3.9-.24,7.68-.46,11.8-.71-1.14-1.53-2.12-2.72-2.95-4.01-.7-1.1-1.53-1.42-2.83-1.33-4.41.3-8.83.44-13.24.68-3.58.2-7.16.46-10.7.69,0,2.18,0,4.14,0,6.09,0,.47-.06,1,.13,1.4.69,1.46-1.02,3.75,1.07,4.47,1.54.54,3.41.11,5.31.11Zm55.58-27.73c-13.5.76-24.54,6.14-33.73,15.77,1.25,1.67,2.44,3.25,3.54,4.72,3.1-2.23,5.92-4.37,8.88-6.32,1.13-.74,1.85-1.46,2.21-2.84.82-3.2,3.96-4.43,6.83-2.89.49.26,1.13.58,1.59.46,3.94-1,7.85-2.09,11.94-3.2-.39-1.78-.83-3.73-1.27-5.7Zm-22.97,29.75c2.74-1.84,5.26-3.48,7.72-5.22.52-.37.97-1.06,1.11-1.69.79-3.45,3.79-4.93,6.91-3.36.55.28,1.29.57,1.83.43,2.96-.79,5.89-1.72,9.06-2.67-.38-2.01-.77-4.03-1.19-6.2-11.42,1.2-21.29,5.33-29.3,13.85,1.3,1.64,2.58,3.26,3.85,4.86Zm63.68-74.99h42.24v-3.61h-42.24v3.61Zm2.78,1.52c1.14,4,3.15,7.11,5.59,10.03,2.14,2.56,4.06,5.3,6.13,7.92.39.49,1.05,1.05,1.6,1.07,3.42.1,6.85.09,10.27.01.53-.01,1.22-.42,1.56-.85,2.21-2.85,4.28-5.82,6.53-8.64,2.27-2.85,4.18-5.84,5.2-9.44q-3.11-.36-3.88,2.37c-1.53,5.44-5.06,9.16-10.05,11.45-1.65.75-3.67,1.55-5.32,1.24-3.95-.75-7.53-2.75-9.93-6.07-1.96-2.71-3.32-5.86-5.1-9.08h-2.59Zm71.31,42.3c-1.98.93-3.91,1.39-5.24,2.56-2.29,2-4.2,4.44-6.07,6.49-.11,1.9-.22,3.74-.32,5.58-.02.38-.15,1,.03,1.11,1.3.84,2.73,2.29,4,2.18,1.45-.12,3.09-1.4,4.1-2.63,1.54-1.86,2.61-4.12,3.87-6.21.27-.44.79-.92.74-1.33-.26-2.39-.66-4.76-1.1-7.75Zm-176.16,73.45c2.44.52,3.9-.41,3.5-2.1-.42-1.8-1.79-2.68-3.55-2.74-1.61-.06-3.33-.07-3.84,2.04-.62,2.55-1.25,5.1-1.79,7.68-.71,3.36-1.2,6.78-3.25,9.7-1.83,2.61-4.11,3.42-7.16,2.64-.87-.22-1.89-.32-2.72-.07-.67.2-1.63,1.01-1.63,1.55,0,.65.78,1.43,1.4,1.91.41.32,1.17.32,1.75.25,4.94-.58,9.15-2.59,11.88-6.94,2.65-4.23,4.91-8.68,5.41-13.91Zm246.53.05c.09.27.18.45.2.63.79,6.39,3.46,11.89,7.99,16.38,2.58,2.55,5.8,3.85,9.47,3.78,1.43-.03,2.81-.46,2.78-2.22-.02-1.75-1.64-1.46-2.73-1.73-.42-.11-.92.08-1.38.19-3.97.96-5.99.13-8.02-3.44-2.76-4.85-3.47-10.33-4.41-15.7-.28-1.61-.81-2.54-2.33-2.74-1.78-.23-3.62-.19-4.58,1.66-.36.7-.38,1.91,0,2.56.29.5,1.44.51,2.22.7.23.05.5-.05.77-.08Zm-219.57-57.33c9.41-9.73,20.69-15.04,33.79-15.93.2-2.2-.4-2.89-2.28-2.41-4.08,1.05-8.18,2-12.3,2.88-.77.16-1.78.01-2.45-.38-2.17-1.27-5.14-.25-5.3,2.22-.12,1.8-1.09,2.36-2.32,3.08-3.94,2.32-7.52,5.09-10.72,8.5.51.66.91,1.18,1.58,2.05Zm76.68,9.62c13.08-1.46,26.17-1.44,39.26.03-4.3-1.78-8.65-3.33-12.86-5.19-1.8-.79-3.27-.91-4.81.29-1.35,1.06-2.59,1-4.01,0-.81-.57-2.11-1.21-2.87-.94-4.95,1.8-9.81,3.84-14.7,5.81Zm-106.38,60.27c7.61-9.69,16.34-18.42,26.07-26.29-2.91-.86-5.57-1.65-8.23-2.44,1,9.55-3.32,12.4-10.83,12.13.77,3.82.73,3.89-2.79,5.59-.26.13-.55.4-.64.67-1.21,3.45-2.39,6.91-3.58,10.34Zm226.11-26.26c9.49,7.63,17.93,16.15,25.79,25.87-1.44-3.83-2.68-7.15-3.88-10.34-.91-.54-2.31-.88-2.72-1.71-.58-1.18-.45-2.72-.63-4.23-3,.18-6.21-.05-8.58-2.74-2.38-2.71-2.27-6.03-1.75-9.41-2.81.88-5.4,1.68-8.24,2.56Zm-160.03-48.52c.23-2.25-.71-2.86-2.57-2.37-3.23.85-6.45,1.73-9.7,2.48-.7.16-1.66.05-2.26-.33-2.38-1.51-5.39-.25-5.51,2.57-.05,1.25-.61,1.69-1.49,2.28-3.32,2.22-6.57,4.54-9.92,6.89.51.79.78,1.16,1.01,1.55.21.35.38.73.67,1.29,8.41-8.86,18.49-13.04,29.78-14.35Zm1.85,8.59c-2.97.88-5.73,1.64-8.44,2.54-1.15.38-2,.47-3.11-.31-2.18-1.53-5.13-.16-5.22,2.45-.05,1.38-.7,1.83-1.62,2.43-2.55,1.67-5.05,3.42-7.69,5.21.85.96,1.36,1.54,1.99,2.25,6.98-6.87,15.38-10.24,24.65-11.68-.2-1.08-.33-1.73-.54-2.88Zm.71,4.13c-9.22,1.22-17.25,4.64-24,11.27.69.77,1.3,1.44,1.64,1.82,3.76-2.3,7.14-4.78,10.85-6.53,3.71-1.74,7.76-2.74,11.84-4.12-.08-.57-.19-1.41-.33-2.45Zm109.34-27.5c3.42.62,3.48.69,4.13,4.34.26,1.46.5,2.92.79,4.6,2.51-2.68,3.78-6.23,3.54-9.48-.52.75-1.02,1.47-1.88,2.71-.63-1.9-1.38-3.27-1.47-4.68-.09-1.4.25-2.79-1.58-3.11-1.4-.25-2.91,1.17-3.09,2.7-.11.93-.28,1.85-.45,2.92Zm24.1,15.9c1.68-3.38,3.2-6.44,4.85-9.75-5.59,2.77-6.26,4.1-4.85,9.75Zm-10.11-6.98c1.91,7.01,2.94,7.96,7.99,7.57-2.64-2.5-5.14-4.88-7.99-7.57Zm21.81,11.47c0-.18,0-.36,0-.54-3.27-.48-6.55-.95-9.87-1.43.96,1.11,1.76,2.16,2.71,3.05.35.33,1.1.5,1.59.39,1.87-.41,3.71-.97,5.56-1.47Zm-22.58,2.98c.03.11.06.23.09.34,2.04,0,4.08.03,6.12-.03.32,0,.76-.3.91-.59.64-1.22,1.19-2.48,1.78-3.73-.1-.11-.2-.22-.3-.33-2.87,1.44-5.74,2.89-8.61,4.33Zm11.77,6.05l.38-.27c-.56-3.1-1.12-6.2-1.68-9.3-1.05,1.2-1.71,2.43-2.26,3.7-.16.36-.15.99.06,1.29,1.11,1.56,2.32,3.06,3.49,4.58Zm.38-13.67l.35.34c1-.5,2.04-.94,3-1.51.52-.31,1.28-.82,1.31-1.28.14-2.01.06-4.04.06-6.06-.15-.02-.3-.05-.46-.07-1.42,2.86-2.84,5.72-4.26,8.58Zm-12.75,6.72c3.39-1.62,6.27-3,9.58-4.59-6.24-1.19-6.66-.98-9.58,4.59Zm23.73-3.6c-5.12-4.27-6.84-4.49-10.41-1.38,3.45.46,6.72.89,10.41,1.38Zm-10.04,10.03c2.59-5.55,2.16-7.76-1.56-9.12.53,3.12,1.05,6.12,1.56,9.12Zm-4.06-13.17c.17-.1.35-.21.52-.31-.4-4.85-2.2-6.55-6.42-6.46,1.85,2.13,3.88,4.45,5.9,6.78Zm18.21,19.92c-.15.62-.43,1.54-.37,1.56,1.38.52.51,1.42.52,2.24.02,1.45-.64,3.3,1.47,4.03,1.57-2.5.76-7.04-1.62-7.83Zm-2.43,20.2c1.53,1.07,3.06,2.14,4.78,3.34-.41-3.09-2.39-3.55-4.78-3.34Z"/>
    <path d="m1616.51,265.81c-.25-66.24,54.02-121.68,122.18-120.45,63.86,1.15,118.66,54,117.4,123.04-1.19,65.1-54.91,120.05-123.91,117.89-63.63-2-115.74-54.74-115.67-120.49Zm60.47-1.34c17.12,0,34.23,0,51.35,0,4.44,0,6.67-2.24,6.67-6.69,0-34.33-.06-68.65.07-102.97.02-4.24-2.34-7.35-7.49-6.89-13.04,1.18-25.66,4.06-37.69,9.34-23.76,10.42-42.2,26.92-55.31,49.44-9.15,15.72-14.13,32.76-15.58,50.89-.33,4.14,2.11,6.88,6.22,6.88,17.25,0,34.5,0,51.75,0Zm0,2.77c-17.31,0-34.62,0-51.94,0-3.73,0-6.24,2.64-6.03,6.31.1,1.82.24,3.64.46,5.44,1.79,15.12,6.11,29.44,13.32,42.86,5.47,10.17,12.25,19.37,20.36,27.52,10.5,10.55,22.53,18.9,36.16,24.85,12.28,5.37,25.1,8.56,38.45,9.48,5.12.35,7.25-1.8,7.25-7.01,0-34.18,0-68.36,0-102.54,0-4.75-2.16-6.91-6.89-6.91-17.04,0-34.09,0-51.13,0Zm118.74,0c-17.18,0-34.36,0-51.54,0-4.5,0-6.77,2.27-6.8,6.87-.01,2.36.15,4.73.15,7.09.01,32.02-.02,64.03.08,96.05,0,1.62.66,3.47,1.59,4.8,1.44,2.06,3.91,1.82,6.13,1.65,14.99-1.18,29.29-5.01,42.78-11.72,12.86-6.4,24.23-14.84,34.04-25.44,7.84-8.47,14.35-17.85,19.44-28.2,6.77-13.77,10.73-28.34,11.88-43.68.38-4.97-1.71-7.42-6.61-7.42-17.05,0-34.09,0-51.14,0Zm-.17-2.77c17.32,0,34.63,0,51.95,0,3.85,0,6.48-2.65,5.98-6.47-.92-6.95-1.66-13.97-3.28-20.76-4.66-19.52-14-36.59-27.5-51.35-11.02-12.05-23.96-21.36-38.77-28.05-12.6-5.69-25.84-8.83-39.58-9.9-4.25-.33-6.79,2.07-6.79,6.51,0,34.53,0,69.05,0,103.58,0,4.22,2.25,6.46,6.46,6.46,17.18,0,34.37,0,51.55,0Z"/>
    <path d="m1763.72,141.72c.58-1.7,1.02-3.01,1.47-4.33.22,2.79,1.22,4.77,4.12,5.42,2.76.62,5.27-1.75,4.4-4.46-.52-1.62-1.59-3.09-2.55-4.53-1.32-1.98-2.64-3.9-2.55-6.45.11-3.07,1.94-5.12,5.01-5.18,1.31-.03,2.68.16,3.94.55,3.25,1,3.45,1.74,1.46,4.94-.14-2.29-1.1-3.96-3.38-4.16-1.07-.1-2.58.16-3.2.87-.63.72-.81,2.33-.49,3.31.44,1.35,1.54,2.49,2.36,3.72,1.58,2.34,3.39,4.6,2.73,7.74-.73,3.49-3.61,5.54-7.1,5.06-.53-.07-1.09-.12-1.57-.33-3.07-1.27-6.19-2.3-9.49-2.87-.9-.15-1.86-1.09-2.43-1.92-1.28-1.89-2.45-3.88-3.44-5.94-.91-1.88-2.25-2.48-4.36-2.16-.25,2.06-.52,4.11-.75,6.17-.18,1.62.5,2.59,2.13,3.01-2.29-.3-4.59-.59-6.87-.89,2.05-2.72,3.98-19.66,2.35-21.89,3.17.42,6.26.62,9.24,1.27,4.69,1.02,6.01,5.77,2.72,9.31-.81.88-1.77,1.62-2.82,2.56,2.77,3.81,4.11,8.76,9.07,11.19Zm-14.75-13.84c.08.21.13,1.1.58,1.47,1.55,1.27,4.44.76,5.2-1.13.67-1.65.96-3.61.83-5.39-.15-2.1-2.19-3.55-4.27-3.39-.51.04-1.32.68-1.4,1.15-.4,2.24-.61,4.51-.94,7.28Z"/>
    <path d="m1757.04,415.21c.25-.86.7-1.65.66-2.42-.13-2.49-.39-4.98-.73-7.45-.07-.5-.74-1.34-1.06-1.31-3.45.34-6.88.83-10.72,1.33.49,3.22.87,6.34,1.5,9.41.13.62,1.15,1.06,1.67,1.51-2.18.26-4.64.56-6.64.8.28-.83.94-1.83.85-2.74-.56-5.7-1.23-11.39-2.05-17.06-.11-.76-1.21-1.38-1.79-2,2-.25,4.37-.54,6.47-.8-2.02,3-.11,6.08-.23,9.4,3.92-.5,7.66-.98,11.75-1.51-1.17-3.11.64-6.89-2.85-8.99,2.23-.27,4.67-.56,7.12-.85-1.74.59-1.82,1.91-1.63,3.42.63,4.95,1.21,9.91,1.85,14.86.23,1.75.22,3.82,2.99,3.5-2.44.3-4.89.61-7.17.89Z"/>
    <path d="m1848.89,167.61c2.67,3.67,5.74,7.27,8.12,11.29,4.29,7.23-2.34,14.96-8.93,15.43-4.64.33-7.98-1.9-10.74-5.24-2-2.42-3.75-5.06-5.43-7.36.92-.38,2.04-.59,2.84-1.22,4.28-3.35,8.51-6.76,12.68-10.25.64-.54.88-1.56,1.46-2.66Zm6.39,13.99c.02-2.73-1.61-6.53-3.71-8.26-.42-.35-1.49-.52-1.84-.24-4.18,3.36-8.32,6.78-12.36,10.32-.51.45-.75,1.76-.5,2.44,1.11,2.91,3.28,4.79,6.19,5.93,4.81,1.88,12.44-4.62,12.22-10.18Z"/>
    <path d="m1654.8,393.61c.75-.83,1.6-1.49,2.1-2.37,2.64-4.62,5.18-9.3,7.78-13.94.67-1.2.89-2.25-.46-3.18.11-.12.22-.25.32-.37,4.17,2.57,8.53,4.88,12.47,7.79,3.89,2.88,4.57,7.96,2.32,12.44-2.43,4.84-7.44,7.29-12.57,6.02-1.6-.4-3.2-1.03-4.65-1.84-2.57-1.44-5.01-3.1-7.31-4.54Zm13.24,5.42c1.43-.62,3.1-.95,4.26-1.9,6.96-5.71,5.86-14.6-2.14-18.62-1.27-.64-1.9-.43-2.54.76-2.41,4.51-4.94,8.95-7.24,13.52-.36.72-.11,2.32.46,2.85,1.95,1.78,4.26,3.01,7.2,3.4Z"/>
    <path d="m1793.8,152.19c2.5-1.14,11.64-15.8,11.55-18.83,3.93,2.75,7.88,5.09,11.31,8.04,3.89,3.35,4.36,8.1,1.93,12.49-2.49,4.49-7.34,6.95-11.99,5.59-2.58-.76-4.99-2.19-7.37-3.54-1.85-1.05-3.52-2.42-5.42-3.75Zm14.61-14.93c-3.04,5.02-6.06,9.94-8.97,14.92-.29.49-.14,1.48.16,2.04,1.82,3.36,8.41,5.11,11.41,2.81,3.51-2.69,5.9-6.28,5.25-10.95-.61-4.41-3.67-6.98-7.85-8.82Z"/>
    <path d="m1884.82,285.17c-.02,7.42-4.28,12.28-10.76,12.27-7.04,0-12.12-4.99-12.08-11.84.05-7.18,4.74-12.05,11.58-12.03,6.58.02,11.27,4.85,11.26,11.61Zm-11,8.5c1.67-.39,3.37-.56,4.87-1.21,2.73-1.18,4.53-3.27,4.9-6.4.32-2.72-.56-4.91-2.78-6.51-3.69-2.65-10.13-2.84-13.91-.32-2.7,1.8-3.87,4.46-3.56,7.65.28,2.89,2.26,4.53,4.8,5.41,1.81.63,3.74.91,5.68,1.37Z"/>
    <path d="m1607.36,341.55c.01-5.6,5.4-10.56,11.58-10.66,6.13-.09,12.09,6.07,12.12,12.53.02,6.11-5.46,11.35-11.84,11.32-6.29-.03-11.87-6.24-11.85-13.19Zm2.58,3.88c-.03,3.88,3.88,7.68,8.14,6.68,4.16-.98,7.43-3.35,9.49-7.19,1.74-3.25,1.18-7.03-1.28-9.55-2.16-2.21-5.11-2.56-8.52-.83-1.54.78-3.06,1.72-4.36,2.84-2.09,1.8-3.5,4.07-3.46,8.04Z"/>
    <path d="m1617.73,317.05c.77,1.94,1.53,3.87,2.18,5.51-1.06,0-2.33-.32-3.35.05-5.35,1.95-10.64,4.09-15.95,6.15-.6.23-1.21.43-2.38.85,3.31-7.61,6.4-14.72,9.75-22.43-2.18.92-3.8,1.6-5.43,2.3-2.34,1-4.73,1.92-7.01,3.05-.91.45-1.58,1.38-2.4,2.14-.51-1.27-1.16-2.9-1.62-4.06,1.09-.07,2.3.11,3.31-.26,5.35-1.95,10.66-4.05,15.98-6.09.55-.21,1.11-.38,1.67-.57.19.11.37.22.56.33-3.05,7.09-6.11,14.18-9.31,21.61,1.62-.7,3.01-1.28,4.38-1.9,2.69-1.2,5.39-2.42,8.07-3.65,1.25-.57,1.93-1.44,1.54-3.03Z"/>
    <path d="m1656.68,137.82c7.91,2.72,15.22,5.22,23.11,7.93-1.56-2.94-2.85-5.39-4.15-7.82-.73-1.37-1.37-2.8-2.26-4.06-.64-.92-1.62-1.59-2.45-2.37.94-.47,2.34-1.18,3.34-1.69,1.26,2.83,2.42,5.57,3.68,8.26,1.57,3.36,3.23,6.68,4.84,10.02.28.59.48,1.21.97,2.47-7.8-2.6-15.03-5.01-22.68-7.55,1.54,2.92,2.92,5.55,4.33,8.17.67,1.25,1.25,2.57,2.12,3.66.63.79,1.67,1.25,2.44,1.8-1.1.57-2.68,1.38-4.16,2.13-.17-.98-.13-2.01-.52-2.85-2.42-5.19-4.94-10.34-7.42-15.51-.32-.66-.62-1.32-1.2-2.59Z"/>
    <path d="m1632.83,156.66c1.51-1.19,3.24-2.57,4.69-3.71.28,1.01.31,2.24.91,3.04,2.59,3.44,5.27,6.82,8.07,10.08,1.45,1.69,3.5,2.33,5.68,1.61,2.17-.72,3.9-2.19,4.03-4.57.08-1.5-.36-3.29-1.2-4.51-2.43-3.55-5.15-6.91-7.85-10.27-.47-.58-1.4-.79-2.2-1.21,1.08-.84,2.28-1.77,3.37-2.62.48,1.01.79,2.05,1.4,2.89,2.09,2.89,4.35,5.66,6.42,8.57,2.05,2.88,2.92,6.08.9,9.28-1.98,3.15-4.77,5.32-8.74,5.24-3.18-.06-5.04-2.29-6.85-4.47-2.02-2.43-3.85-5.03-5.89-7.45-.67-.8-1.76-1.24-2.74-1.91Z"/>
    <path d="m1599.34,204.73c1.64.75,3.09,1.41,4.05,1.85-1.36.6-3.24.97-4.42,2.09-1.24,1.18-2.04,3-2.61,4.69-1.19,3.53.04,6.46,3.31,8.69,5.46,3.71,12.12,2.77,15.28-2.17,2.19-3.41,2.07-5.87-.43-8.79,3.85,1.02,4.48,2.14,3.32,5.84-1.15,3.67-2.81,7.03-5.99,9.35-3.62,2.64-8.5,2.7-12.46.09-3.91-2.58-5.54-6.34-4.9-10.96.55-3.95,2.36-7.4,4.85-10.68Z"/>
    <path d="m1635.01,361.27c-3.11-1.42-5.89-.52-7.61,2.44-1.34,2.3-.81,4.58,1.7,6.53,2.53-2.4,5.11-4.82,7.65-7.29,1.64-1.59,3.29-3.19,4.81-4.9.69-.77,1.07-1.82,1.5-2.58,1.27,1.26,2.83,2.81,4.03,4.01-.71.26-1.98.36-2.72,1.05-4.05,3.74-8,7.59-11.89,11.5-.6.61-.66,1.76-.97,2.67.23-.07.46-.15.69-.22-2.19-1.97-4.52-3.81-6.53-5.95-2.68-2.85-2.44-6.1.31-8.29,2.87-2.28,6.85-1.82,9.02,1.04Z"/>
    <path d="m1825.56,175.08c.91-2.46,1.77-4.64,2.51-6.86.26-.79-4.46-5.38-5.22-4.98-1.99,1.04-3.83,2.37-5.7,3.62-.15.1-.08.55-.13,1-1.5-1.24-2.84-2.34-3.68-3.04,1.17-.29,2.74-.4,4.04-1.06,5.49-2.82,10.9-5.8,16.34-8.71.63-.34,1.29-.61,2.44-1.14-.29,1.14-.42,1.81-.63,2.46-1.82,5.58-3.7,11.15-5.45,16.76-.5,1.61-.63,3.33-.94,5.05-1.08-.93-2.39-2.06-3.58-3.08Zm3.22-8.93c1.02-2.76,1.91-5.16,3.01-8.13-2.79,1.59-5.06,2.89-7.52,4.28,1.54,1.31,2.89,2.47,4.5,3.85Z"/>
    <path d="m1863.15,252.2c-.26-1.53-.6-3.48-.88-5.12,2.2-1.28,4.26-2.42,6.25-3.68.92-.58.07-7.14-1-7.41-1.87-.47-3.8-.71-5.72-.9-.45-.05-.96.49-1.46.76-.3-1.63-.61-3.28-.83-4.48,1.23.56,2.56,1.46,4.01,1.78,6,1.35,12.04,2.53,18.06,3.8.63.13,1.23.39,2.38.76-1.79,1.15-3.15,2.04-4.52,2.9-4.31,2.72-8.67,5.36-12.91,8.19-1.32.89-2.3,2.29-3.38,3.4Zm7.32-10c2.51-1.45,4.69-2.72,7.41-4.28-3.12-.59-5.6-1.07-8.41-1.6.35,2.04.63,3.72,1,5.89Z"/>
    <path d="m1833.55,349.47c.67-.71,1.66-1.76,2.29-2.44.53,1.73.92,3.6,1.65,5.31,2.27,5.27,4.68,10.47,7.01,15.71.26.57.38,1.21.72,2.34-2.95-1.18-5.41-2.15-7.86-3.15-3.79-1.54-7.54-3.19-11.38-4.61-1.4-.52-2.99-.53-4-.69.87-.86,2.21-2.19,3.56-3.54,1.75.81,3.75,2.23,5.94,2.62,2.53.45,3.31-2.46,4.94-3.78.89-.72.74-1.42.24-2.27-1.02-1.73-1.99-3.49-3.13-5.5Zm.44,12.7c2.35,1.06,4.7,2.12,7.56,3.41-1.36-2.9-2.43-5.2-3.59-7.67-1.32,1.42-2.54,2.73-3.97,4.26Z"/>
    <path d="m1613.61,177.4c5.15,1.29,9.81,2.46,14.47,3.63,1.69.42,3.36.95,5.07,1.27,1.6.3,3.24.39,4.93.58-.89,1.25-1.93,2.69-2.68,3.74-2.59-.75-4.9-1.45-7.25-2.04-.3-.08-.82.34-1.11.65-.41.43-.73.97-1.06,1.48-.75,1.18-2.27,2.55-2.05,3.51.39,1.73,1.78,3.26,2.88,4.78.34.47,1.1.62,1.77.96-.77,1.08-1.58,2.19-2.47,3.43-1.02-4.76-4.36-8.04-6.56-11.96-1.52-2.7-3.31-5.25-4.95-7.88-.31-.5-.5-1.08-.98-2.14Zm4.4,4.3c1.72,2.64,3.13,4.81,4.72,7.25,1.23-1.76,2.27-3.25,3.49-4.99-2.87-.79-5.28-1.46-8.21-2.27Z"/>
    <path d="m1733.47,395.39c-.24,1.82-.45,3.43-.72,5.52-1.33-4.2-3.99-5.95-8.34-5.89-3.56.04-6.46,2.36-7.35,6.06-1.03,4.28-.77,8.31,2.63,11.62,3.73,3.63,8.95,3.46,12.17-.45-.14,4.04-.83,4.81-4.6,4.67-4.48-.17-8.83-.75-12.07-4.47-2.93-3.36-3.2-7.21-2-11.22,1.18-3.95,4-6.25,8-7.15,4.17-.94,8.08.27,12.28,1.31Z"/>
    <path d="m1841.5,347.26c-.06,0-.13.02-.17,0-3.5-2.58-3.65-3.19-1.42-6.9,1.9-3.15,4.05-6.1,7.61-7.53,4.48-1.8,9.45-.49,12.76,3.26,2.95,3.33,3.6,8.26,1.23,12.48-1.44,2.55-3.4,4.81-5.23,7.12-.26.33-1.23.48-1.61.25-1.2-.7-2.28-1.62-3.63-2.62,4.49.89,6.73-.32,9-4.62,1.74-3.3,1.26-6.33-1.64-9.17-3.34-3.27-7.16-4.93-11.86-3.25-4.8,1.71-6.95,6.38-5.03,10.97Z"/>
    <path d="m1879,220.74c-2.01.72-3.62,1.29-5.53,1.97,3.1-3.11,3.43-5.28,1.63-9.44-1.44-3.32-3.75-4.77-7.46-4.67-5.81.15-10.44,4.31-10.98,9.85-.26,2.74.68,5.16,2.47,7.04.9.94,2.56,1.14,3.7,1.6-2.04,1.62-4.35,1.31-5.65-1.22-2.21-4.28-3.86-8.75-2.01-13.59,1.69-4.42,5.23-6.63,9.76-7.02,4.74-.4,8.44,1.72,10.55,5.96,1.48,2.97,2.34,6.26,3.52,9.52Z"/>
    <path d="m1796.35,379.79c3.34-1.9,6.82-3.87,10.47-5.95.46.98.94,2.02,1.53,3.29-3.13-1.96-4.83.56-7.17,1.5,1.34,2.45,2.56,4.67,3.95,7.2,1.95-1.2,3.79-2.33,5.84-3.59.38.84.84,1.84,1.41,3.08-2.81-1.53-4.37.73-6.67,1.66,1.39,2.42,2.64,4.7,4.01,6.92.27.44.95.84,1.46.87,2.37.11,5.08-2.79,4.9-5.75.54,1.14.83,1.82,1.17,2.47.62,1.16.24,1.8-.9,2.38-3.1,1.59-6.14,3.29-9.18,4.94-.39-3.87-2.76-6.87-4.58-10.05-1.78-3.1-2.6-7.02-6.24-8.99Z"/>
    <path d="m1688.96,386.22c3.36,1.13,7.21,2.44,11.24,3.79-.39.93-.84,1.99-1.5,3.59-.3-3.65-3.13-3.4-5.06-4.33-.22-.1-1.03.5-1.18.92-.77,2.07-1.41,4.2-2.18,6.54,2.16.68,4.21,1.32,6.44,2.02-.33.76-.79,1.82-1.36,3.15-.67-3.23-3.44-2.76-5.51-4.07-.95,2.76-1.85,5.27-2.66,7.8-.12.37.04.96.27,1.3,1.47,2.14,5.7,2.38,7.61.55-.35.74-.55,1.64-1.09,2.18-.48.48-1.47.96-2.03.79-3.32-1.05-6.57-2.29-9.45-3.32,1.12-2.96,2.27-5.85,3.32-8.78,1.09-3.05,2.16-6.11,3.09-9.21.27-.91.04-1.98.04-2.93Z"/>
    <path d="m1736.14,117.68c-.12,1.04-.25,2.14-.4,3.38-.88-1.77-5.25-2.99-6.65-1.92-.29.22-.43.83-.41,1.25.08,2.14.23,4.28.37,6.71,2.25-.1,4.41-.2,6.56-.29v3.62c-1.51-2.19-1.69-2.24-6.45-1.82,0,2.71-.03,5.44.04,8.17,0,.37.44.85.8,1.08,1.8,1.13,5.75.08,6.86-1.78.52,3.06.16,3.52-2.67,3.53-3.08,0-6.16,0-8.77,0,0-3.82.27-7.51-.08-11.14-.33-3.51,1.04-7.33-1.25-10.78h12.05Z"/>
    <path d="m1717.51,118.23c-1.96,7.89-3.91,15.76-5.98,24.15-.65-.81-1.03-1.21-1.32-1.66-3.44-5.39-6.89-10.78-10.29-16.2-.92-1.47-1.95-2.58-3.88-2.54,2.33-.42,4.65-.84,6.84-1.24.21.89.23,1.81.63,2.52,2.35,4.16,4.79,8.28,7.21,12.4.12.21.35.35.73.7,1.1-5.42,2.19-10.6,3.18-15.81.1-.51-.4-1.13-.66-1.8,1.14-.16,2.46-.36,3.55-.51Z"/>
    <path d="m1863.6,257.65c.52.35,1.1,1.1,1.69,1.11,6.15.09,12.29.05,18.99.05-1.26-2.95.8-6.2-2.9-8.53,1.7.27,2.83.45,4.05.64v18.92h-2.9c2.2-2.18,1.2-4.78,1.52-7.48-3.92,0-7.58-.02-11.24,0-1.94.01-3.88.16-5.82.13-1.85-.02-3.15.52-3.4,2.63v-7.46Z"/>
    <path d="m1586.58,246.88c1.12.16,2.22.31,3.62.5-3.61,1.56-2.1,4.59-2.79,7.23,2.79.22,5.35.41,8.13.63v-7c1.22.18,2.37.34,3.86.56-3.37,1.36-1.9,4.21-2.79,6.56,3.26.2,6.11.51,8.97.49.84,0,1.67-.92,2.4-1.35-.13,1.76-.29,3.94-.43,5.9-1.44-.34-2.91-.88-4.41-1-4.93-.4-9.88-.71-14.82-.89-.89-.03-1.82.73-2.64,1.09.27-3.85.58-8.23.9-12.72Z"/>
    <path d="m1609.68,290.61c-6.82.3-13.29,2.12-20.24,3.06,1.18,2.76.08,6.11,3.56,7.77h-3.58c-1.07-6.22-2.11-12.31-3.2-18.66.99-.18,2.12-.38,3.62-.64-2.93,2.57-.91,5.22-.98,8.05,3.21-.55,6.16-1.04,9.1-1.56,2.57-.45,5.17-.81,7.7-1.44,1.15-.28,2.17-1.11,3.22-1.67.23,1.44.53,3.38.8,5.09Z"/>
    <path d="m1788.25,407.3c.05-.89.37-1.87.1-2.63-1.97-5.44-4.06-10.84-6.12-16.25-.29-.75-.63-1.48-.95-2.22-.29.21-.59.41-.88.62,1.73-.67,3.45-1.35,5-1.95.28,1.33.39,2.64.83,3.83,1.51,4.11,3.12,8.18,4.73,12.25,1.13,2.86,1.8,3.17,4.74,2.06,1.74-.66,3.68-1.21,3.66-3.81,1.55,2.76,1.32,3.54-1.27,4.51-3.38,1.26-6.78,2.49-9.84,3.61Z"/>
    <path d="m1878.01,313.56c-.63-.61-1.12-1.42-1.8-1.67-4.9-1.79-9.85-3.45-14.77-5.19-1.72-.61-2.73.09-3.24,1.67-.67,2.13-2.29,4.32.31,6.33-.21.08-.29.13-.33.12-3.4-1.26-3.44-1.28-2.24-4.68,1.12-3.17,2.34-6.31,3.42-9.21.73.64,1.36,1.57,2.22,1.89,5.08,1.89,10.19,3.69,15.33,5.4.87.29,1.92.04,2.98.04-.58,1.63-1.27,3.56-1.89,5.3Z"/>
    <path d="m1585.83,275.12c-.09-1.8-.2-4.01-.31-6.15.69.43,1.33,1.18,1.95,1.16,5.95-.13,11.9-.35,17.85-.65.7-.04,1.37-.76,2.14-1.22v5.88c-.94-.27-2.19-.96-3.42-.94-5.21.1-10.42.36-15.63.69-.86.06-1.67.79-2.57,1.24Z"/>
    <path d="m1602.55,196.76c.8-1.36,1.81-3.09,2.83-4.82-.24.27-.48.53-.72.8.88.44,1.78.85,2.64,1.34,4.7,2.71,9.36,5.48,14.1,8.13.81.45,1.89.4,2.91.6-.85,1.54-1.9,3.43-2.78,5.04-.57-.78-1.01-1.9-1.82-2.4-4.63-2.83-9.32-5.57-14.06-8.2-.87-.48-2.08-.34-3.1-.49Z"/>
    <path d="m1773.67,411.86c.1-1.05.48-2.09.25-2.97-1.37-5.29-2.88-10.55-4.35-15.81-.36-1.28-.94-2.31-2.61-2.18,1.96-.56,3.92-1.11,5.72-1.63.19,1.23.25,2.45.56,3.59,1.35,4.94,2.77,9.87,4.18,14.8.41,1.44,1.09,2.55,2.93,2.18-2.33.7-4.65,1.41-6.67,2.02Z"/>
    <path d="m1698.67,144.61c-2.45.83-4.9,1.65-7,2.36.03-1.12.36-2.42.03-3.52-1.54-5.17-3.23-10.29-4.97-15.4-.28-.81-1.13-1.42-1.71-2.11,1.72-.58,3.83-1.28,5.49-1.84-.08.98-.49,2.11-.21,3.03,1.5,5.04,3.17,10.02,4.76,15.03.57,1.78,1.32,3.2,3.61,2.43Z"/>
    <path d="m1873.05,326.81c-.79,1.79-1.6,3.63-2.3,5.22-.68-.69-1.25-1.69-2.1-2.08-4.86-2.27-9.77-4.46-14.71-6.54-.93-.39-2.11-.21-3.2-.3.77-1.72,1.69-3.79,2.48-5.54.52.68.95,1.77,1.72,2.13,5.22,2.46,10.5,4.78,15.8,7.07.62.27,1.46.04,2.33.04Z"/>
    <path d="m1789.4,127.14c1.47.57,2.96,1.14,4.26,1.65-.75,1.58-1.57,3.05-2.18,4.61-1.68,4.34-3.27,8.72-4.91,13.08-.49,1.29-.73,2.48.72,3.43-2.16-.83-4.31-1.67-6.11-2.36.66-.81,1.58-1.54,1.96-2.49,2.04-5.07,3.97-10.19,5.87-15.32.28-.76.25-1.65.38-2.59Z"/>
    <path d="m1588.36,237.38c.43-1.95.88-3.97,1.2-5.42.87.54,1.75,1.41,2.78,1.68,4.99,1.27,10.01,2.42,15.04,3.48,1.07.23,2.26-.12,3.46-.2-.37,1.63-.84,3.7-1.28,5.61-.73-.52-1.39-1.31-2.19-1.52-5.5-1.41-11.03-2.74-16.57-4-.72-.16-1.56.22-2.44.37Z"/>
    <path d="m1761.55,83.42c2.14-2.58,3.93-4.74,5.86-7.07-2.63-3.01-5.37-6.23-8.2-9.36-.76-.84-.89-1.45-.32-2.45,1.15-2.01,2.12-4.08.99-6.51-1.44-3.08-5.28-3.73-7.94-2.21-1.35.77-1.7,2.24-.88,3.71.42.76,1.03,1.42,1.54,2.13,1.53,2.18,1.67,3.83.46,5.58-1.14,1.66-3.64,2.53-5.73,2-2.27-.57-3.03-1.37-4.15-4.43-4.34,0-8.76-.04-13.17.06-.48.01-1.13.75-1.38,1.3-1.42,3.19-5.52,4.3-8.3,2.18-2.16-1.65-2.55-3.97-1.05-6.24.26-.39.54-.78.86-1.13,1.15-1.29,2.18-2.93.87-4.3-.95-1-2.81-1.62-4.23-1.57-3.82.14-6.19,4.04-4.31,7.41,1.53,2.74,1,4.37-1.05,6.36-2.26,2.19-4.19,4.73-6.26,7.12-.13.15-.21.35-.25.42,1.65,2.06,3.26,4.1,4.91,6.1.68.82,2.44.25,3.07-.94,1.7-3.25,4.51-3.71,7.35-1.26.29.25.99.5,1.13.36.31-.29.54-.85.5-1.28-.12-1.27-.28-2.56-.63-3.78-.15-.54-.77-.96-1.23-1.38-1.25-1.15-2.52-2.28-3.78-3.41.22-.24.44-.48.66-.73.75.66,1.39,1.52,2.25,1.95,2.59,1.31,3.4,3.46,3.75,6.23.39,3.08.63,3.05-2.71,4.09-.91-1.33-1.86-2.94-3.89-2.29-.76.24-1.87.81-1.99,1.4-.47,2.17-2.38,2.16-3.79,2.87-.29.14-1.01-.17-1.28-.49-1.94-2.37-3.82-4.79-5.94-7.48,1.47-1.7,3.25-3.77,5.02-5.83.35-.41.64-.88,1.05-1.22,2.44-2.01,3.53-4.04,1.67-7.32-1.29-2.27.17-5.41,2.34-6.94,2.01-1.42,6.04-1.5,7.84-.15,1.52,1.14,1.97,3.57.92,5.27-.49.8-1.06,1.56-1.65,2.29-1,1.24-1.24,2.57-.36,3.93,1.03,1.59,2.65,2.08,4.4,1.77,1.52-.27,2.96-1.14,3.04-2.8.09-1.79.96-1.9,2.32-1.89,4.16.05,8.32.04,12.48,0,1.28-.01,2.1.12,2.29,1.76.21,1.83,1.66,2.74,3.38,2.96,1.7.22,3.39-.19,4.08-1.88.39-.95.25-2.31-.11-3.33-.36-1.04-1.36-1.83-1.94-2.82-1.22-2.08-.41-4.68,1.69-5.69,2.33-1.12,6.09-.54,7.93,1.22,1.85,1.77,2.53,4.64,1.15,7.27-1.16,2.22-.6,3.58.99,5.19,2.22,2.24,4.18,4.74,6.29,7.1.92,1.03,1.09,1.67-.2,2.75-1.62,1.36-2.85,3.19-4.26,4.8-.51.58-1.21,1.67-1.55,1.57-1.31-.38-2.98-.83-3.65-1.84-2.32-3.47-3.73-3.65-6.49-.08-1.02-.46-2.08-.94-3.02-1.37.32-2.21.6-4.19.9-6.18.04-.26.07-.62.24-.75,1.79-1.32,3.61-2.59,5.42-3.88.16.17.33.35.49.52-1.02.99-1.9,2.24-3.1,2.89-1.45.8-1.95,1.87-2.03,3.36-.01.2-.09.4-.1.6-.02.98-.02,1.97-.03,2.96.79-.43,1.61-.81,2.38-1.29,1.83-1.14,4.68-.39,5.9,1.41.68,1,1.68,1.79,2.53,2.66Z"/>
    <path d="m1747.57,73.14c-.71,2.75-1.01,5.35-2.06,7.59-1.87,3.99-4.61,7.44-8.15,10.1-.49.37-1.63.53-2.05.22-5.34-4-9.68-8.7-10.55-15.79-.18-1.46.05-2.05,1.59-2.57,1.62-.54,3.11-1.73,4.38-2.93.77-.73,1.25-1.03,2.34-.92,1.94.2,3.92,0,5.89.05.59.01,1.45.08,1.71.46,1.52,2.18,3.55,3.42,6.89,3.79Zm-21.57,1.7c0,.1-.02.77.1,1.41,1.11,5.87,4.78,9.96,9.31,13.4.37.28,1.52.14,1.84-.22,2.34-2.66,4.84-5.25,6.73-8.23,1.26-1.98,1.58-4.57,2.08-6.15-2.38-1.78-4.08-3.1-5.83-4.35-.42-.3-.98-.52-1.49-.54-1.7-.05-3.41.16-5.09-.02-1.05-.11-1.63.14-2.41.84-1.46,1.31-3.15,2.34-5.24,3.85Z"/>
    <path d="m1732.57,92.95c-6.32,4.97-13.19,7.77-20.72,7.39-.32-3.52-.68-6.81-.88-10.11-.1-1.7,1.56-1.38,2.5-1.71.51-.18,1.33.17,1.88.5,1.07.65,1.96,1.89,3.08,2.11,2,.4,3.19-1.15,2.89-3.24-.1-.73-.22-1.45-.32-2.12.11-.12.14-.19.2-.22,3.38-1.47,3.36-1.45,5.77,1.28,1.77,2,3.61,3.95,5.6,6.11Zm-1.78-.09c-1.86-2.11-3.58-3.97-5.2-5.92-.64-.77-1.24-1.67-2.23-.88-.5.39-.8,1.36-.77,2.05.13,2.86-2.44,5.11-5.1,4.14-1.3-.47-2.39-1.54-3.93-2.58-.11.04-.7.26-1.04.39.17,3.12.33,5.98.51,9.07,6.51.16,12.26-2.29,17.77-6.26Z"/>
    <path d="m1760.87,100.33c-7.94.31-14.86-2.31-21.07-7.28,2.47-2.89,4.7-5.73,7.23-8.27.48-.48,2.2.14,3.26.51.39.13.83,1.04.75,1.51-.32,1.86-.47,3.59,1.75,4.3,1.92.62,3.25-.27,4.54-3.05,1.31.39,2.67.8,3.55,1.06v11.22Zm-2.62-10.81c-.25.22-.38.29-.45.4-1.55,2.25-3.33,3.02-5.41,2.33-2-.65-2.63-1.94-2.6-4.97,0-.4-.37-1.04-.71-1.16-.53-.19-1.46-.28-1.74.03-1.97,2.16-3.82,4.44-5.8,6.79,5.46,3.82,11.19,6.35,17.69,6.15.16-3.16.32-6.08.47-9.1-.41-.13-.91-.3-1.45-.48Z"/>
    <path d="m1702.3,94.28c-.02,2.94-1.75,5.48-3.86,5.68-2.11.2-4.14-1.78-4.79-4.66-.03-.13-.05-.27-.07-.4-.36-2.39-.18-4.75,1.89-6.23.86-.61,2.46-.73,3.49-.38,2.1.71,3.34,3.31,3.33,5.99Zm-7.64-.86c-.11.05-.21.09-.32.14.55,1.34.87,2.84,1.7,3.97,1.41,1.93,3.34,1.61,4.42-.55.98-1.95.92-3.92-.14-5.81-.68-1.21-1.66-2.57-3.09-1.98-1.03.42-1.72,1.81-2.45,2.84-.23.33-.09.92-.11,1.39Z"/>
    <path d="m1641.45,123.68c-.03,2.6-1.8,4.04-4.38,3.57-3.12-.57-5.72-3.18-6.12-6.14-.33-2.42,1.21-4.26,3.61-4.32,3.29-.09,6.93,3.56,6.89,6.89Zm-6.76-5.75c-1.47-.03-2.38.8-2.52,2.31-.28,2.98,3.14,6.29,6.09,5.9,1.45-.19,2.08-1.11,2.08-2.51-.01-2.61-3.03-5.64-5.65-5.7Z"/>
    <path d="m1679.49,206.02c-.25.12-.48.27-.74.35-3.02.97-6.01,2.04-9.06,2.87-2.74.75-5.12-.46-7.36-1.91-4.82-3.09-12.34-.19-13.78,5.33-.63,2.42-1.01,4.81-.34,7.37,1.08,4.08,4.24,5.93,7.56,7.6,2.01,1.01,4.19,1.68,6.29,2.51.1-.18.21-.37.31-.55-1.4-1.03-2.74-2.15-4.21-3.08-4.52-2.84-6.54-6.96-6.43-12.26.02-1.03.19-1.63,1.42-1.62,10.6.04,21.21.03,31.81.04.19,0,.38.1.71.19.61,5.03-.75,9.29-4.77,12.53-2.25,1.81-4.57,3.52-6.79,5.36-1.24,1.03-1.6,2.1-.25,3.57,1.74,1.88,1.49,4.17-.4,6.64,1.15,1.8,1.18,3.42-.41,5.25-.93,1.07-.82,2.82.51,3.99.91.8,1.92,1.49,2.77,2.34.75.75,1.52,1.57,1.99,2.5,1.1,2.2.66,2.82-1.81,2.82-5.23,0-10.47,0-15.7,0-.71,0-1.42,0-2.22,0,.01-4.59,3.97-5.88,6.12-8.43-.83-1.89-1.64-3.7-2.43-5.51-1.11-2.54-.79-3.66,1.54-5.8-4.1-1.64-8.42-3.03-12.44-5.03-10.74-5.36-13.9-17.1-7.3-27.19,3.45-5.28,8.55-7.2,14.8-6.35,2.42.33,4.91.19,7.36.09,2.9-.12,5.43.62,7.49,2.71,1.57,1.59,2.82,3.67,5.71,3.08.02.2.03.4.05.6Zm5.13,7.89h-31.44c-.49,3.62.23,6.81,2.86,9.32,1.35,1.29,2.86,2.47,4.45,3.44,3.8,2.32,6.04,5.44,5.67,10.1,0,.1.12.21.19.32,2.92-.41,5.3-1.34,5.56-4.91.06-.82.78-1.76,1.45-2.34,1.98-1.7,4.06-3.29,6.17-4.84,3.63-2.68,5.34-6.22,5.09-11.08Zm-19.93,22.8c.42-4.28.14-4.44-3.18-5.65-3.19-1.16-6.34-2.55-9.32-4.18-4.29-2.36-5.94-6.36-5.41-11.11.4-3.61.89-7.46,4.83-9.17,4.06-1.76,8.1-2.61,12.22.24,3.17,2.19,6.65,1.77,9.89-.09.47-.27.94-1.43.74-1.82-1.41-2.73-5.28-4.44-8.4-4.16-2.18.19-4.38.03-6.58.05-2.26.02-4.65-.4-6.75.21-10.94,3.18-14.56,18.29-6.57,26.79,3.69,3.93,8.53,5.73,13.41,7.45,1.62.57,3.31.94,5.11,1.44Zm-5.01,19.45c.14.17.28.34.42.52h17.2c.15-.16.29-.31.44-.47-.82-1.01-1.56-2.1-2.49-3-1.88-1.82-4.66-3.02-4.05-6.75-1.81.56-4.07.89-4.76,2.11-1.02,1.8-2.42,2.94-3.82,4.26-1.08,1.01-1.98,2.22-2.95,3.34Zm3.79-12.8c1.83-.66,3.64-1.29,5.43-1.95,1.11-.41,2.3-.72,3.31-1.32,2.2-1.3,2.32-3.05.84-4.73-1.67.86-3.2,1.71-4.78,2.44-.97.45-2.03.68-3.03,1.07-2.42.95-2.88,2.28-1.77,4.49Zm1.5,3.84c1.89-.59,3.57-1.14,5.26-1.65.64-.19,1.57-.09,1.89-.5.5-.64.68-1.59.77-2.44.02-.19-.91-.78-1.28-.69-1.81.45-3.61.99-5.35,1.66-1.96.75-2.24,1.81-1.28,3.62Z"/>
    <path d="m1697.02,185v-21.58h11.56v21.5h20.37v12c-1.67,0-3.26,0-4.85,0-4.43,0-8.86.09-13.28-.04-1.82-.05-2.23.55-2.23,2.3.06,18.68.04,37.36.04,56.04v2.7h-11.61v-60.96h-19.95v-11.95h19.96Zm10.6,71.71v-60.93h20.04v-9.62h-20.16v-21.45h-9.29v21.54h-19.9v9.59h20.02v60.87h9.29Z"/>
    <path d="m1666.63,332.16c-.19-.37-.48-.72-.54-1.11-.23-1.6-.48-3.21-.55-4.82-.06-1.3-.54-1.82-1.84-1.7-.99.09-1.99.02-3.2.02-.58,5.55-1.2,10.96-1.7,16.37-.17,1.89,1.21,2.75,2.79,3.2,2.11.6,4.24-.15,5.15-1.73.29-.5.49-1.06.74-1.59.22.05.44.11.66.16-.21.81-.22,1.75-.65,2.4-1.37,2.07-4.31,2.76-6.87,1.78-2.22-.85-3.23-2.58-2.95-5.32.5-4.96,1.06-9.92,1.59-14.88.15-1.37,1.54-2.3,1.03-4.03-.34-1.18-.7-1.98-1.81-2.35-1.91-.64-3.85-1.18-5.75-1.84-4.25-1.48-7.95-3.83-11.07-7.11-2.53-2.66-3.72-5.93-4.04-9.5-.11-1.3-.64-1.88-1.68-2.43-2.26-1.19-4.46-2.48-6.65-3.79-.4-.24-.63-.76-.94-1.14.15-.15.3-.3.46-.46,2.89,1.61,5.79,3.21,8.69,4.83.64-2.06,1.21-3.91,1.84-5.94-1.99-1.4-4.08-2.84-6.13-4.34-.34-.25-.47-.78-.7-1.18.44.07.97,0,1.32.23,2.08,1.35,4.11,2.78,5.83,3.95,1.77-1.83,3.4-3.51,5.16-5.31-1.65-1.8-3.64-3.98-5.63-6.15.2-.22.4-.44.61-.66,1.09,1,2.21,1.96,3.25,3.01,1.08,1.09,2.08,2.26,3.09,3.36,2.28-1.07,4.39-2.06,6.52-3.06-.64-2.5-2.78-4.52-2.87-7.19.23-.08.45-.17.68-.25,1.2,2.38,2.39,4.77,3.58,7.14,5.57-.88,10.93-.99,15.88,1.93,1.63-3.07,3.17-5.99,4.74-8.89.01-.02.35.13.72.27-1.16,2.59-2.24,5.19-3.49,7.71-.57,1.16-.64,1.9.55,2.68.7.46,1.24,1.23,1.73,1.95.21.3.09.83.13,1.47-1.51-.82-2.68-1.45-3.88-2.1-1.16,1.43-1.63,2.77-1.33,4.57.22,1.31-.25,2.74-.47,4.56.71-.46,1.39-.75,1.85-1.24,4.26-4.59,8.47-9.22,12.72-13.82.65-.71,1.39-1.33,2.1-2,.17.12.34.25.52.37-.21.43-.33.94-.63,1.27-4.26,4.68-8.5,9.37-12.84,13.97-1.19,1.26-2.18,2.46-2.29,4.3-.05.82-.6,1.61-1.1,2.86.88-.21,1.59-.21,2.09-.53,2.25-1.46,4.44-3.02,6.78-4.63-.29-.42-.64-.74-.76-1.14-.21-.74-.47-1.56-.32-2.27.06-.28,1.18-.59,1.73-.48,4.75.98,7.95-2,11.39-4.41.82-.58,1.71-1.05,2.57-1.57.18.28.36.57.53.85-2.17,1.54-4.34,3.08-6.51,4.62.06.2.12.4.17.6,1.15-.24,2.41-.24,3.42-.76,5.8-2.99,11.53-3.04,17.3.05.78.42,1.78.55,2.69.56,3.55.06,7.09.03,10.99.03-.23,1.07-.14,2.13-.63,2.64-1.41,1.5-3.09,2.73-4.56,4.17-.51.5-1.07,1.35-.99,1.96.25,1.99.78,3.94,1.22,6.02.49.08,1.07.17,1.76.27v4.67h-15.16v16.79c1.28-1.75,2.53-3.03,3.27-4.57,2.25-4.68,5.7-7.71,10.74-8.98,2.19-.55,4.2-.52,6.19.65,1.59.94,3.26,1.76,5.09,2.74-.37.3-.58.55-.84.65-1.59.65-3.25,1.15-4.77,1.93-1.71.88-3.33,1.12-5.21.59-.78-.22-1.98.07-2.63.58-.92.73-1.53,1.86-2.22,2.85-1.92,2.8-3.82,5.62-5.88,8.66,1.78,1.47,2.39,3.99,2.25,6.82-.15,3.02-1.81,4.98-3.88,6.26.75,1.96,1.71,3.72,2.07,5.6.43,2.23-.52,4.22-2.03,5.93-.32.36-.56,1.04-.47,1.5.54,2.56.07,3.69-1.97,5.2-.62.46-1.09,1.35-1.28,2.14-.3,1.21-.34,2.56-1.92,2.68-1.6.12-1.88-1.02-2.06-2.39-.1-.75-.65-1.7-1.28-2.07-3.09-1.8-3.38-2.36-2.21-5.56-4.46-4.44-4.75-7.77-.87-11.98-2.46-1.68-4.22-3.83-4.42-6.99-.2-3.15.97-5.66,3.6-7.9-4.16-1.88-5.34-5.87-7.34-9.22-1.44-2.42-2.49-2.64-5.13-2.07-1.42.3-3.09-.22-4.56-.66-1.48-.44-2.86-1.23-4.27-1.9-.26-.12-.47-.37-.55-.44,1.52-1.05,2.97-2.04,4.4-3.05,2.63-1.85,6.97-1.61,10.12,1.07,2.16,1.84,3.86,4.23,5.76,6.38,1.52,1.72,3.04,3.45,4.56,5.18l.47-.4v-15.93h-15.77v-4.8c.67-.07,1.32-.14,2.09-.23.18-1.28.35-2.53.58-4.24-2.71,1.44-5.09,2.7-7.48,3.96-1.61.85-2.89,1.87-3.92,3.54-1.59,2.58-4.33,3.17-7.87,2.68.52,1.19.85,2.02,1.26,2.82.42.83,1.2,1.57,1.32,2.43.64,4.54,1.12,9.1,1.66,13.65.03.26,0,.52,0,.78-.2.09-.4.18-.59.27Zm47.14-31.6h-6.75c1.96-1.66,4.91.58,6.78-2.23-1.58-.17-2.86-.32-4.14-.46.03-.28.06-.56.1-.85,1.18,0,2.36,0,3.53,0q2.39,0,3.34-1.62h-6.95l-.03-.78c3.07-1.23,6.74.6,9.69-1.45-3.62-.36-7.21-.42-10.79-.28-.43.02-1,1.05-1.18,1.71-.24.88-.17,1.85-.23,2.78-.19-.02-.39-.03-.58-.05v-5.36c-4.93-3.02-11.92-2.96-15.64.02.14,1.53.3,2.92.35,4.31.01.36-.36.73-.55,1.1-.24-.39-.61-.76-.68-1.18-.12-.66.11-1.39-.09-2.01-.17-.53-.7-1.31-1.1-1.33-3.59-.1-7.19-.06-10.79-.06-.05.24-.11.49-.16.73.71.23,1.42.62,2.14.65,2.08.09,4.16,0,6.24.06.49.01.98.35,1.46.54-.05.26-.09.53-.14.79h-6.73l-.03.65c1.95,1.78,4.72-.01,6.82,1.64-1.23.14-2.47.29-3.97.47,1.73,2.83,4.76.46,7.15,2.33h-7.05c-.31,1.97-.58,3.72-.87,5.59h31.75c-.3-1.93-.58-3.69-.89-5.7Zm-49.31,22.58c0-1.43-.02-2.64,0-3.86.04-2.68-.48-3.43-2.94-4.38-2.31-.9-4.63-1.8-6.91-2.77-8.58-3.66-11.32-14.99-5.31-22.07,3.18-3.74,7.44-5.5,12.17-5.99,2.75-.28,5.55-.05,8.47-.05-.72-.39-1.43-.84-2.19-1.17-8.44-3.67-19.76-.7-25.64,6.71-5.24,6.61-4.17,15.91,2.39,21.12,3.53,2.8,7.45,4.71,11.8,5.89,5.72,1.55,5.25,2.31,5.3,6.16,0,.11.14.21.28.4h2.58Zm9.36-5.53c1.85,2.52,3.22,2.99,5.97,2.08,2.05-.68,4.15.09,5.34,2.07,1.04,1.73,2.03,3.49,2.96,5.29,1.21,2.36,3.07,3.71,5.57,4.56,2.78.94,5.53,2.07,8.1,3.47,3.45,1.88,3.53,5.68.36,8.01-.64.47-1.34.85-2.02,1.28-.03.19-.05.38-.08.57,1.14.2,2.45.87,3.38.51,2.75-1.06,4.09-3.34,4.12-6.34.02-2.55-.94-4.65-3.16-5.94-2.02-1.18-4.08-2.39-6.27-3.17-4.4-1.57-7.57-4.43-9.84-8.45-1.85-3.29-4.76-5.22-8.27-6.31-2.53-.78-4.66.06-6.17,2.38Zm26.13,39.1c1.37.26,2.71.97,3.35.56,1.86-1.19,2.58-3.3,2.5-5.45-.07-1.97-1.08-3.5-2.98-4.45-2.27-1.13-4.5-2.37-6.62-3.76-3.48-2.29-3.67-3.99-1.04-7.22.66-.81,1.76-1.75.54-2.69-1.01-.78-2.25-1.22-3.58.03-4.25,4-3.44,9.92,1.9,12.69,1.96,1.02,4.05,1.77,6.02,2.76,3.81,1.91,3.99,4.09.63,6.7-.1.08-.17.2-.71.84Zm19.28-36.66l.15.32c1.29-.65,2.62-1.23,3.83-2.01.24-.15.18-1.43-.03-1.51-1.5-.64-3.16-1.75-4.59-1.52-4.63.73-8.66,2.76-10.87,7.33-1.18,2.44-2.53,4.73-4.87,6.29-.37.25-.65,1.24-.46,1.61.58,1.12,2.6,1.42,3.44.43,1.77-2.07,3.33-4.31,5.01-6.46,1.23-1.57,2.29-3.4,3.85-4.52.87-.62,2.6,0,3.94.05.2,0,.4,0,.6,0Zm-38.42-10.2h35.64v-2.22c-.41-.05-.67-.12-.93-.12-11.07,0-22.14.02-33.21-.04-1.82,0-1.76.96-1.51,2.38Zm16.21,1.41c0,4.73-.04,9.23.01,13.74.04,3.57.09,3.57,4.08,4.77v-18.51h-4.09Zm-18.2-15.01c-3.44,2.51-8.14,4.14-8.84,10,.87-.15,1.87-.1,2.65-.49,3.1-1.56,6.15-3.25,9.18-4.94.4-.22.91-.78.88-1.14-.04-.49-.47-1.05-.88-1.38-.84-.68-1.79-1.23-3-2.05Zm18.21,52.99c-2.81-1.48-3.68-1.37-4.97.52-1.79,2.63-.26,7.31,2.76,8.33,1.52.52,3.06,1,4.61,1.42,1.14.31,1.72.93,1.61,2.18-.05.52.06,1.05.1,1.58.2.1.4.2.6.3.53-.86,1.43-1.7,1.48-2.59.04-.74-.74-1.8-1.45-2.25-1.76-1.1-3.72-1.86-5.53-2.88-2.05-1.16-2.33-3.55-.68-5.29.41-.43.89-.8,1.47-1.32Zm-40.69-62.46c2.17,1.61,3.96,2.93,5.88,4.36.13-1.13.24-2.16.36-3.2.2,0,.39.01.59.02.12,1.02.25,2.04.45,3.7,1.32-2.82,5.08-2.66,4.85-6.25-3.88-.44-7.73-.71-12.12,1.37Zm.13,13.75c-.36-4.52-2.91-7.29-6.13-9.98-.67,1.12-1.28,2.12-1.87,3.13-.68,1.16-.6,2.02.72,2.79,1.78,1.05,3.38,2.4,5.13,3.5.61.38,1.46.39,2.15.55Zm-.18,5.19c-1.18-1.83-2.04-3.75-3.43-5.14-1.46-1.46-3.41-2.42-5.15-3.6-.24.1-.47.21-.71.31.38,1.95.11,4.76,1.29,5.66,2.07,1.6,4.32,4.2,8,2.76Zm41.15,28.57c0,2.54-.07,4.94.04,7.34.03.65.64,1.85.88,1.82,1.08-.12,2.33-.33,2.25-1.96-.05-.87-.02-1.75,0-2.63q.09-3.31-3.17-4.56Zm-41.53-47.77c-1.92,1.27-3.16,2.1-4.65,3.09,2.1,1.78,3.35,4.03,5.8,5.25-.4-2.91-.73-5.33-1.15-8.34Zm6.07,14.99c-.1-3.48-2.07-5.52-5.09-5.39-.11,3.15,1.99,5.45,5.09,5.39Zm-.16,9.28c-1.26-3.03-4.21-4.37-6.69-3.12,1.07,2.79,3.79,4.12,6.69,3.12Zm8.21-8.83c-3.37-.5-5.94,1.63-5.89,4.78,2.96.05,5.14-1.68,5.89-4.78Zm-14.19.02c.56,3.16,3.19,5.16,5.97,4.56-.55-3.37-2.86-5.13-5.97-4.56Zm8.12-.39c3.22-.23,5.37-2.82,4.78-5.6-3.03.25-4.95,2.44-4.78,5.6Zm6.45,5.91c-2.91-.86-5.65.5-6.6,3.27,2.76,1.16,5.93-.41,6.6-3.27Zm-2.68-17.68c-2.99,1.12-4.42,3.59-3.81,6.41,2.82-.5,4.57-3.35,3.81-6.41Zm-9.86.08c-.51,3.31,1.04,5.75,4.07,6.4.21-3.37-1.29-5.73-4.07-6.4Zm40.01,65.5l.67.43c.53-.54,1.47-1.04,1.52-1.63.12-1.27-.15-2.59-.4-3.87-.04-.19-.85-.36-1.25-.28-.23.05-.5.61-.51.95-.06,1.46-.02,2.93-.02,4.39Zm.63,12.69c.35,0,.71-.02,1.06-.02.11-2.22.28-4.45.25-6.67,0-.35-.93-.68-1.84-1.29.2,3,.36,5.49.52,7.98Zm-49.67-62.83c1.93,2.97,4.01,4.96,7.26,6.15-3.32-4.39-3.79-4.8-7.26-6.15Zm48.21,58.39c-.11-1.04-.11-1.91-.33-2.71-.13-.47-.76-1.22-.93-1.17-.55.2-1.32.62-1.43,1.11-.45,1.83.71,2.49,2.69,2.77Zm-1.02-26.02c-1.95,1.82-1.83,3.13.31,4.29-.11-1.43-.2-2.78-.31-4.29Zm5.94,3.72c1.74-1.68,1.71-2.74,0-4.23v4.23Z"/>
    <path d="m1783.56,318.03c-.49-7.75-.94-15.35-1.49-22.94-.04-.5-.76-1.37-1.16-1.37-9.26-.04-18.51.01-27.77.06-.05,0-.11.07-.36.23,1.35,3.24,2.71,6.53,4.1,9.8,1.45,3.42,2.94,6.82,4.41,10.22,1.49,3.44.57,6.8-2.45,8.92-4.13,2.9-10.25,2.62-13.84-.63-2.46-2.23-3.03-4.79-1.75-7.8,2.89-6.83,5.78-13.66,8.73-20.64-.55-.1-.91-.19-1.28-.23-2.21-.23-3.52-1.42-3.81-3.48-.31-2.13.74-4.07,2.58-4.77,1.83-.69,4.17-.07,4.99,1.9.75,1.82,1.89,1.88,3.41,1.94,7.6.33,14.95-.83,22.05-3.58.74-.29,1.4-.79,2.12-1.16,1.1-.56,1.56-1.14.96-2.53-1.02-2.37-.1-5.31,1.8-6.75,2.22-1.69,5.19-1.76,7.31-.17,1.97,1.47,2.89,4.48,2.1,6.91-.15.45-.33.88-.68,1.79,2.27,1.05,4.45,2.45,6.84,3.09,6.55,1.76,13.2,3.09,20.05,2.3.63-.07,1.45-.56,1.76-1.11,1.28-2.28,3.13-3.32,5.23-2.72,1.88.54,3.16,2.51,2.94,4.54-.27,2.47-1.69,3.65-4.57,3.81-.26.01-.52.07-1.07.15.79,1.96,1.52,3.8,2.29,5.63,2.28,5.41,4.73,10.76,6.76,16.26.49,1.34.08,3.41-.65,4.73-1.92,3.47-5.35,4.59-9.07,4.5-3.75-.09-6.97-1.43-8.76-5.06-.79-1.61-.93-3.16-.11-5,2.93-6.6,5.62-13.3,8.4-19.97.12-.3.19-.63.32-1.11h-28.74c-.62,8.76-1.24,17.42-1.85,25.93.28.25.38.41.48.41,3.24-.21,6.07.87,8.98,2.29,3.49,1.71,7.35,2.54,11.32,2.27,1.4-.1,2.04.21,1.81,1.95-.16,1.22.35,2.66.93,3.81.51,1,.51,1.68-.1,2.55-5.65,8.06-11.26,16.14-16.94,24.18-.27.38-1.12.61-1.62.51-2.42-.49-4.81-1.11-7.39-1.73-.2,2.16-.43,4.15-.57,6.14-.09,1.33-.8,2.21-2,1.9-.72-.18-1.59-1.24-1.71-2.01-.37-2.32-.41-4.69-.59-7.14-2.12-.47-4.13-.98-6.17-1.33-.49-.09-1.14.21-1.59.52-2.91,1.99-5.48,1.54-7.7-1.29-.36-.46-1.03-.81-1.62-.93-5.19-1.04-10.38-2.06-15.59-3-1.42-.26-1.87-.68-1.56-2.27.26-1.37-.26-2.87-.35-4.32-.05-.8-.2-1.79.17-2.38,4.97-7.79,10.04-15.52,15.04-23.3.72-1.12,1.33-1.41,2.58-.67,4.5,2.67,9.39,2.81,14.45,2.15Zm-29.19-27.69c-.38-1.07-.54-1.81-.88-2.44-.73-1.37-2.51-2-3.81-1.27-1.42.8-2.13,2.05-1.6,3.74.53,1.67,1.76,2.19,3.42,2.19,9.8-.03,19.6-.01,29.4-.01.71,0,1.42,0,2.19,0,.53,8.07,1.04,15.87,1.54,23.67.51,7.88.96,15.76,1.52,23.64.54,7.69.7,15.42,1.65,23.07.39,0,.77,0,1.16,0,1.84-23.42,3.31-46.86,5.13-70.37h2.44c9.4,0,18.79,0,28.19,0,.6,0,1.21.04,1.81-.03,1.79-.21,2.57-1.47,2.64-3.07.07-1.47-.71-2.64-2.23-2.97-1.65-.36-2.91.32-3.6,1.87-.23.52-.27,1.14-.45,1.99-10.86.31-21.5.03-30.96-6.46,1.92-3.65,1.71-5.97-.48-7.78-1.61-1.33-4.13-1.44-5.77.01-.81.71-1.69,1.83-1.75,2.81-.09,1.56.48,3.17.86,5.25-9.03,6.19-19.63,6.46-30.43,6.18Zm19.83,56.65c3.1-5.17,6.06-9.92,8.82-14.78.72-1.26,1.09-2.87,1.14-4.34.08-2.35-.15-4.72-.43-7.06-.06-.52-.91-1.36-1.39-1.36-4.97.02-9.93.1-14.43-2.85-5.32,8.21-10.5,16.21-15.69,24.21,3.51,2.18,7.05,2.91,10.83,2.53,4.12-.41,8.09-.3,11.16,3.66Zm40.08-20.93c-5.21-.25-9.7-1.28-13.96-3.42-1.49-.75-3.27-.94-4.93-1.29-1.92-.4-2.38.71-2.46,2.4-.19,3.76-.49,7.52-.76,11.28-.29,4.1-.63,8.19-.86,12.29-.04.79.08,1.98.58,2.33,1.76,1.23,5.88.14,7.16-1.69,2.51-3.58,5.02-7.16,7.52-10.75,2.49-3.58,4.97-7.17,7.72-11.14Zm-61.21,21.36c.51.13,1.07.3,1.64.41,4.86.92,9.73,1.8,14.58,2.79.75.15,1.64.64,2.07,1.25,1.75,2.47,3.91,2.8,6.31.94.53-.41,1.43-.63,2.1-.53,1.94.28,3.86.77,5.85,1.19,0-1.03-.07-1.84.01-2.63.25-2.52-1.35-3.41-3.35-3.95-2.4-.64-4.67-.27-6.69,1.16-1.1.78-1.74.76-2.61-.43-1.68-2.3-3.98-3.42-6.93-3.16-2.05.18-4.14.25-6.19.04-2.25-.23-4.47-.82-6.8-1.28v4.19Zm46.08,8.3c.61-.83,1.1-1.46,1.56-2.11,4.53-6.45,8.97-12.98,13.64-19.33,1.52-2.07,1.61-3.69.01-5.55-.15.08-.31.1-.37.2-4.96,7.05-9.97,14.07-14.84,21.19-1.08,1.57-1.39,3.5,0,5.6Zm-38.29-38.59h-16.9c-.29,3.18,2.78,6.06,6.84,6.54,5.33.63,9.4-1.91,10.05-6.54Zm55.01.01c.33,4.09,4.14,6.84,8.79,6.62,4.83-.23,8.14-2.9,8.08-6.62h-16.87Zm-64.3-18.43c-.11-.02-.22-.05-.33-.07-2.39,5.67-4.78,11.33-7.27,17.25h7.6v-17.18Zm73.7-.35c-.15.03-.3.06-.46.08,0,5.46-.02,10.92.04,16.38,0,.39.5,1.1.79,1.11,2.23.09,4.47.05,7.03.05-2.57-6.13-4.98-11.88-7.39-17.62Zm-64.49,17.49c-2.52-5.89-4.93-11.53-7.34-17.17-.08.04-.16.07-.25.11v17.06h7.59Zm62.96-17.06c-.18-.03-.36-.06-.53-.09-2.35,5.65-4.7,11.3-7.2,17.3,2.49,0,4.55.07,6.59-.06.4-.02,1.09-.79,1.09-1.22.08-5.31.05-10.63.05-15.94Zm-38.39,47.25c-.26-4.11-.55-8.6-.84-13.1-.15-.04-.29-.07-.44-.11-2.57,4.26-5.13,8.53-7.53,12.51,2.9.23,5.75.45,8.81.7Zm5.49,8.61c2.24.55,4.35,1.07,6.5,1.61-.15-1.82-.29-3.45-.43-5.06h-5.83c-.07,1.02-.15,2.08-.24,3.45Z"/>
    <path d="m1755.27,257.88v-7.76c-.16-.04-.32-.08-.48-.12-1.32,2.07-2.64,4.14-3.96,6.22-.29.45-.5.99-.87,1.35-.31.31-.81.42-1.23.61,0-.42-.12-.9.03-1.26,1.49-3.55,2.74-7.24,4.61-10.57,2.66-4.72,1.72-9.68,1.94-14.85-4.36.19-7.73-1.42-10.28-4.74-1.89-2.45-2.77-5.27-2.79-8.31-.02-5.9,3.73-9.93,10.82-11.61-1.2-1.68-2.35-3.28-3.7-5.17h23.21c2.32-5.39,4.61-10.63,6.8-15.91.25-.59.06-1.44-.12-2.12-1.08-4.21.35-8.47,3.75-10.99,3.41-2.53,7.83-2.67,11.51-.35,3.36,2.11,5.07,6.39,4.42,10.6-.18,1.13-.09,2.43.29,3.5,1.59,4.45,3.42,8.81,5,13.26.51,1.45,1.17,1.98,2.72,1.95,5.03-.1,10.07-.04,15.1-.03.64,0,1.29.05,2.26.1-1.3,1.78-2.43,3.32-3.79,5.18,4.53-.07,8.29.92,11.11,4.29,1.82,2.18,2.7,4.74,2.63,7.48-.09,3.6-1.32,6.85-3.94,9.49-2.6,2.6-5.74,3.59-9.38,3.33-.45,6.48-.54,12.68,2.49,18.54,1.17,2.26,1.91,4.76,2.78,7.17.15.42,0,.94,0,1.42-.42-.28-1-.47-1.24-.87-1.29-2.13-2.5-4.3-4.08-6.41v6.58h-65.64Zm33.21-34.97c-3.09,0-6.18-.02-9.26,0-2.48.02-5.42-.73-7.31.36-1.97,1.13-2.84,4.12-4.35,6.18-1.67,2.28-2.34,4.61-2.18,7.55.32,5.87.07,11.77.12,17.66,0,.69.41,1.38.62,2.07.26-.72.73-1.44.73-2.16.06-6.43.02-12.86.04-19.29,0-2.5,1.5-4.21,3.62-4.25,2.21-.05,3.55,1.52,3.56,4.2,0,6.57-.02,13.13.04,19.7,0,.61.57,1.21.87,1.82.26-.58.74-1.17.74-1.75.05-6.57.03-13.13.04-19.7,0-2.67,1.35-4.28,3.52-4.27,2.17,0,3.5,1.62,3.5,4.29.01,6.36,0,12.73,0,19.09,0,.54-.07,1.1.06,1.62.07.28.48.47.74.7.2-.23.52-.43.56-.68.1-.53.05-1.08.05-1.62,0-6.43-.02-12.86.01-19.29.01-2.44,1.61-4.17,3.7-4.15,2.28.01,3.66,1.5,3.73,4.08.04,1.29,0,2.57,0,3.86,0,5.35-.02,10.7.03,16.04,0,.59.46,1.18.71,1.78.23-.62.61-1.22.65-1.85.1-1.48.03-2.98.03-4.47,0-5.14-.03-10.29.02-15.43.02-2.22,1.59-3.93,3.5-3.96,2.03-.03,3.5,1.48,3.66,3.8.04.54.01,1.08.01,1.62,0,6.16-.03,12.32.04,18.48,0,.61.57,1.21.88,1.82.26-.59.74-1.17.74-1.76.05-6.57.03-13.13.04-19.7,0-2.74,1.26-4.27,3.47-4.27,2.09,0,3.55,1.74,3.55,4.28,0,5.96,0,11.91,0,17.87,0,.88-.06,1.77.05,2.64.04.34.5.62.77.92.28-.3.64-.56.81-.91.13-.27.04-.66.04-1,0-7.11.02-14.22,0-21.32,0-.58-.15-1.21-.42-1.71-1.35-2.49-2.81-4.92-4.15-7.42-.57-1.07-1.27-1.51-2.52-1.49-5.03.08-10.07.03-15.1.03Zm-18.69-14.74c-5.1,0-9.72,0-14.34,0-.54,0-1.08-.04-1.61.05-1.37.25-2.82.36-4.09.9-6.48,2.75-8.29,11.62-3.55,17.06,4.35,5,10.93,5.38,14.88.75,1.99-2.34,2.38-5.12,1.26-7.98-.84-2.15-3.33-3.37-5.98-3.27-1.68.07-2.76.95-3.38,2.43-.59,1.41-.13,2.62.89,3.69.36.38.59.91,1.16,1.83-2.91-1.29-3.83-3.19-3.23-5.67.51-2.09,2.89-3.77,5.27-3.53,3.72.37,6.25,2.3,7.19,6.55,1.91-4.42,3.63-8.41,5.53-12.81Zm52.5,15.21c-.17-.1-.33-.19-.5-.29.36-.51.68-1.05,1.08-1.53,1.66-1.99.79-4.98-1.68-5.74-3.53-1.08-7.43,1.7-7.6,5.42-.18,3.78,1.98,7.02,5.53,8.31,5.19,1.89,10.56-.64,12.88-6.29,3.15-7.65-1.92-14.63-8.36-14.83-4.82-.15-9.65-.18-14.47-.25-.43,0-.87.14-1.57.26,1.54,4.02,3,7.86,4.68,12.24,1.15-4.17,3.65-5.9,7.16-6.25,2.33-.23,4.57,1.27,5.2,3.34.71,2.3-.12,4.27-2.36,5.6Zm-41.86-36.91c-8.96,20.78-17.83,41.32-26.69,61.87.16.08.33.16.49.24,12.01-19.14,24.02-38.27,36.15-57.6-4.87-.01-6.41-.71-9.95-4.51Zm41.13,62.87c.12-.05.24-.1.36-.15-8.01-20.95-16.02-41.89-23.94-62.59-1.9,1.31-3.62,2.55-5.39,3.69-1.9,1.21-2.55,3.46-1.45,5.41,6.91,12.2,13.81,24.4,20.73,36.6,3.22,5.68,6.46,11.36,9.69,17.04Zm-17.13-27.84c-2.53-4.46-4.85-8.61-7.28-12.7-.25-.41-1.14-.59-1.74-.6-2.75-.06-5.54.29-8.23-.1-4.69-.68-7.84.89-9.53,5.37-.14.37-.45.67-.66,1.02-1.4,2.26-2.79,4.53-4.33,7.02h31.77Zm-13.86,35.18c0-7.39.04-14.55-.04-21.71-.02-1.5-.78-2.85-2.51-2.89-1.75-.04-2.28,1.39-2.68,2.8-.09.31-.03.67-.03,1.01,0,6.36,0,12.71,0,19.07,0,.57.1,1.15.16,1.72h5.09Zm-17.74.03c0-7.64.04-15.07-.07-22.5,0-.62-.88-1.52-1.55-1.77-1.69-.64-3.01.54-3.02,2.63-.03,6.77-.01,13.53,0,20.3,0,.44.15.88.23,1.35h4.4Zm34.86-.04c.08-.28.18-.47.18-.65.01-7.02.03-14.04.01-21.07,0-1.71-.88-2.7-2.6-2.63-1.66.07-2.25,1.16-2.25,2.74.02,6.75,0,13.5.02,20.26,0,.45.11.89.17,1.35h4.46Zm-8.66,0c0-7.27,0-14.29,0-21.32,0-2.1-.75-3.08-2.34-3.05-2.02.04-2.31,1.38-2.3,3.06.03,6.49.01,12.97.02,19.46,0,.59.09,1.17.14,1.85h4.48Zm-17.65.02c.05-.66.12-1.26.12-1.85,0-6.57-.01-13.13.02-19.7,0-1.63-.36-2.88-2.28-2.83-1.9.05-2.2,1.33-2.19,2.94.04,6.5.01,13,.02,19.5,0,.64.1,1.28.15,1.94h4.15Zm-17.11-21.54c-3.25,4-5.58,7.87-4.78,12.96.25,1.58.04,3.23.04,4.85,0,1.25,0,2.49,0,3.65h4.74v-21.46Zm47.6,21.49h4.48c0-3.37-.31-6.64.07-9.83.57-4.74-2.27-7.91-4.55-11.47v21.29Zm-40.19-53.65h-19.68c1.39,2.8,2.97,4.64,6.37,4.24,2.91-.34,5.9-.07,8.85-.07,3.35,0,3.91-.52,4.47-4.16Zm16.95-13.31c5.18.1,9.3-3.77,9.32-8.75.02-4.94-4-9.09-8.86-9.14-4.76-.05-8.91,3.97-9.04,8.76-.14,4.81,3.84,9.04,8.58,9.13Zm17.16,13.29c.67,4.01.86,4.18,4.46,4.18,2.01,0,4.02,0,6.03,0,2.65,0,4.32-1.39,5.07-4.18h-15.56Zm-9.88,4.07c-.77-3.36-2.57-4.81-5.82-4.24-1.11.19-2.27.03-3.42.03-2.58,0-4.05,1.39-4.43,4.21h13.67Zm-6.59-12.14c-1.47,2.37-2.72,4.38-4.08,6.57h7.79c-1.25-2.21-2.38-4.22-3.71-6.57Zm28.39,61.65c.17.13.34.27.51.4.44-.45,1.24-.89,1.26-1.36.13-2.28.21-4.59-.01-6.86-.11-1.11-.93-2.16-1.42-3.23-.11.06-.23.13-.34.19v10.86Zm-59.27-11.51c-.2-.06-.4-.13-.6-.19-.41.94-1.11,1.86-1.17,2.83-.17,2.62-.1,5.26-.02,7.88.01.41.58.8.89,1.2.3-.41.86-.81.86-1.22.07-3.5.04-7,.04-10.5Zm57.16-15.72c1.19,3.11,2.35,6.15,3.52,9.19.44-1.24.27-2.39.47-3.48.57-3.08-.62-4.94-3.56-5.75-.06-.02-.12,0-.43.03Zm-58.98,8.2l.5.05c1.12-2.6,2.23-5.2,3.55-8.26-1.22.58-1.96.84-2.6,1.26-.54.36-1.34.87-1.38,1.37-.17,1.85-.07,3.72-.07,5.58Z"/>
    <path d="m1796.53,180.81c0,4.12-3.5,7.64-7.57,7.6-3.87-.04-7.33-3.49-7.42-7.39-.09-4.15,3.36-7.69,7.48-7.67,4.04.02,7.5,3.45,7.5,7.46Zm-13.73.03c0,3.62,2.6,6.29,6.17,6.33,3.51.04,6.32-2.69,6.38-6.19.06-3.56-2.77-6.43-6.34-6.43-3.51,0-6.21,2.73-6.21,6.29Z"/>
  </g>
</svg>