<?xml version="1.0" encoding="UTF-8"?>
<svg id="Capa_1" data-name="Capa 1" xmlns="http://www.w3.org/2000/svg" viewBox="0 0 495.58 120.28">
  <defs>
    <style>
      .cls-1 {
        fill: #fff;
      }
    </style>
  </defs>
  <path class="cls-1" d="m103.07,69.12H29.19c-.15,2.83.23,5.48.95,8.07,2.68,9.7,8.98,15.62,18.88,17.42,7.06,1.28,14.05.71,20.78-1.92,4.25-1.66,7.72-4.49,10.98-7.6.31-.3.62-.59,1-.95,5.99,5.79,11.92,11.52,18.1,17.5-.85.75-1.68,1.43-2.46,2.17-7.46,7.08-15.91,12.42-26.1,14.55-11.71,2.44-23.45,2.44-35.05-.53-16.2-4.14-26.86-14.37-32.25-30.14-2.6-7.6-3.65-15.46-3.94-23.44-.33-9.08.3-18.08,2.74-26.87,2.67-9.61,7.16-18.19,14.59-25.02C26.35,4.15,37.06.44,49.05.05c6.87-.23,13.65.34,20.22,2.52,14.82,4.93,24.5,15.07,29.89,29.53,2.76,7.42,3.89,15.13,3.96,23.01.04,4.22,0,8.44,0,12.66,0,.39-.03.77-.06,1.35Zm-29.03-20.15c-.54-8.45-2.49-16.27-10.03-21.06-8.07-5.13-16.69-5.13-24.79-.06-7.62,4.77-9.59,12.63-10.12,21.12h44.94Z"/>
  <path class="cls-1" d="m223.59,68.15c-.39,6.71,3.79,13.46,11.06,14.91,7.25,1.44,13.8-.17,19.52-4.93.4-.33.79-.68,1.29-1.11,3.63,3.43,7.25,6.85,10.93,10.33-4.69,4.58-9.8,8.26-16.19,9.75-7.93,1.85-15.89,1.83-23.75-.34-8.74-2.41-14.9-7.88-17.87-16.45-3.88-11.22-4.11-22.65-.19-33.89,4.31-12.35,14.8-19.43,27.88-19.48,6.2-.03,12.16.92,17.53,4.17,7.95,4.81,12.47,12.07,13.86,21.09.76,4.95.55,10.05.78,15.07.03.69-.27.92-.93.9-.96-.03-1.91,0-2.87,0-13.14,0-26.28,0-39.42,0h-1.62Zm26.95-12.09c.46-4.79-2.26-10.67-6.25-12.8-5-2.68-10.22-2.7-15.01.4-4.34,2.81-5.53,7.41-5.84,12.4h27.09Z"/>
  <path class="cls-1" d="m444.26,77.09c3.6,3.41,7.16,6.79,10.82,10.25-2.49,2.52-5.13,4.67-8.08,6.44-5.5,3.3-11.55,4.44-17.86,4.57-4.45.09-8.86-.25-13.18-1.43-9.07-2.48-15.56-7.98-18.65-16.87-4.05-11.68-4.21-23.53.41-35.08,4.32-10.78,12.67-16.59,24.19-17.81,6.75-.72,13.31.1,19.39,3.31,8.22,4.33,12.76,11.42,14.82,20.27.91,3.92,1.37,14.25.83,17.38h-44.68c-.12,2.93.49,5.55,1.81,7.98,2.71,5.01,7.19,7.11,12.66,7.42,6.36.37,12.08-1.19,16.69-5.85.15-.15.33-.29.5-.42.07-.05.15-.07.35-.16Zm-32.07-21.03h27.09c.49-4.64-2.2-10.37-6.21-12.65-4.83-2.76-9.88-2.79-14.64.08-4.62,2.78-5.95,7.41-6.24,12.57Z"/>
  <path class="cls-1" d="m339.86,97.7h-17.55v-1.66c0-13.48.01-26.97-.02-40.45,0-1.42-.17-2.88-.5-4.26-1.3-5.46-5.86-8.73-11.61-8.42-5.55.3-9.7,4.02-10.49,9.49-.2,1.37-.28,2.77-.28,4.16-.02,13.18-.01,26.36-.01,39.54v1.61h-17.29V28.06h16.93v6.14c.76-.67,1.26-1.12,1.77-1.56,8.47-7.5,23.44-7.34,31.65.42,4.05,3.83,6.16,8.69,6.91,14.14.33,2.45.46,4.94.47,7.41.04,13.79.02,27.58.02,41.37v1.73Z"/>
  <path class="cls-1" d="m131.54,120.28c-5.59-5.53-11.12-11-16.71-16.53,12.56-10.28,19.44-23.41,19.44-39.7,0-16.25-6.86-29.34-19.33-39.58,5.56-5.49,11.11-10.98,16.68-16.48,33.85,27.56,35.72,82.29-.09,112.29Z"/>
  <path class="cls-1" d="m355.33,13.41h19.88v15.05h9.75v14.3h-11.32v1.55c0,11.4,0,22.8,0,34.19,0,3.45,1.55,5.01,5.03,5.03,2.08.02,4.16,0,6.32,0v14.06c-1.2,0-2.36.04-3.52,0-3.64-.16-7.36.05-10.91-.61-7.98-1.47-13.55-7.84-14.9-16.48-.21-1.33-.31-2.68-.31-4.02-.02-20.45-.01-40.89-.01-61.34v-1.73Z"/>
  <path class="cls-1" d="m468.31,13.15h15.75v1.65c0,21.23,0,42.46,0,63.69,0,.48-.01.96.03,1.43.29,3.13,1.83,4.6,4.97,4.72,1.09.04,2.18,0,3.26,0,1.04,0,2.08,0,3.24,0v12.93s-.1.13-.17.13c-4.26-.07-8.56.24-12.76-.31-8.61-1.12-14.37-7.85-14.39-16.53-.07-22.23-.02-44.46-.02-66.69,0-.3.04-.6.07-1.04Z"/>
</svg>