<?xml version="1.0" encoding="UTF-8"?>
<svg id="Capa_1" data-name="Capa 1" xmlns="http://www.w3.org/2000/svg" viewBox="0 0 695.88 141.98">
  <defs>
    <style>
      .cls-1 {
        fill: #fff;
      }
    </style>
  </defs>
  <path class="cls-1" d="m225.48,106.08c-.66.69-1.35,1.35-1.97,2.08-5.98,6.91-12.19,13.58-19.51,19.11-8.82,6.67-18.42,11.65-29.49,13.24-23.83,3.42-50.53-5.4-65.63-29.09-6.52-10.22-10.1-21.42-10.95-33.5-1.35-19.1,3.05-36.58,15.11-51.71,10.55-13.24,24.54-20.88,41.07-23.87,14.03-2.53,27.95-1.9,41.58,2.56,1.57.51,3.09,1.21,4.62,1.86,1.26.54,1.84,1.52,1.83,2.92-.03,7.33-.02,14.67-.06,22-.01,2.25-.86,2.69-2.88,1.57-9.08-5.04-18.83-7.49-29.19-7.35-5.25.07-10.43.81-15.4,2.63-12.89,4.74-20.41,14.26-23.58,27.29-3.28,13.5-2.32,26.7,4.57,39.01,5.74,10.26,14.83,15.71,26.31,17.72,9.92,1.74,19.05-.58,27.92-4.69,12.71-5.89,24.16-13.77,35.03-22.52.68-.55,1.01-1.91,1.02-2.89.05-24.96.04-49.92.05-74.88,0-1.05-.02-2.1.07-3.14.23-2.67,1.89-4.36,4.54-4.38,7.52-.06,15.04-.05,22.56-.02,1.95,0,3.1,1.12,3.39,3.2.18,1.28.23,2.58.23,3.87.01,16.83,0,33.65,0,50.48,0,.84,0,1.69,0,3.04,1.01-.77,1.62-1.23,2.22-1.7,9.39-7.26,19.3-13.59,30.25-18.32,15.85-6.86,30-1.09,39.31,9.62,6.64,7.63,10.18,16.75,12.32,26.5,1.71,7.79,2.34,15.69,2.31,23.66-.05,11.59-.07,23.17-.11,34.76,0,.55,0,1.11-.03,1.66-.33,4.28-1.31,5.18-5.59,5.18-5.85,0-11.71,0-17.56,0-.92,0-1.85,0-2.77-.08-3.52-.3-4.93-1.83-4.93-5.34,0-13.93.07-27.86-.03-41.79-.06-8.55-1.62-16.8-6.22-24.18-4.3-6.9-10.32-10.96-18.75-9.97-3.81.45-7.66,1.31-11.26,2.61-7.06,2.57-12.97,6.99-17.97,12.6-.96,1.08-1.35,2.22-1.34,3.67.08,18.18.12,36.36.15,54.54,0,1.35-.06,2.71-.21,4.06-.27,2.36-1.66,3.78-4,3.8-7.39.07-14.79.09-22.18,0-2.63-.03-4.39-2.13-4.39-4.94,0-9.49.02-18.98.03-28.47,0-.73,0-1.46,0-2.19l-.49-.24Z"/>
  <path class="cls-1" d="m0,71.55C0,50.72,0,29.89.01,9.05c0-1.35.01-2.72.28-4.04.46-2.3,1.79-3.32,4.14-3.45.49-.03.99-.01,1.48-.01,27.98,0,55.96,0,83.94.02,1.65,0,3.33.13,4.95.43,1.76.32,2.78,1.46,2.77,3.37-.02,5.79.02,11.59-.02,17.38-.02,2.09-1.15,3.33-3.37,3.74-1.33.24-2.69.36-4.04.36-17.26.02-34.51.01-51.77.02-7.05,0-8.55,1.55-8.48,8.62.06,5.85.12,11.71.19,17.56.06,4.94,1.43,6.56,6.32,6.59,13.43.09,26.87,0,40.3.02,1.34,0,2.71.11,4.03.38,2.33.48,3.53,1.9,3.56,4.28.06,4.68.08,9.37-.03,14.04-.07,3.03-1.01,3.97-4.04,4.52-.96.17-1.96.23-2.94.23-12.76.02-25.52.01-38.27.02-.68,0-1.36,0-2.03,0-5.19.07-6.9,1.74-6.9,6.88,0,14.05.05,28.1.04,42.16,0,1.66-.11,3.33-.33,4.97-.35,2.57-1.66,3.65-4.24,3.65-6.84.02-13.68.02-20.51.01-3.52,0-5.03-1.52-5.04-5.08C0,114.32,0,92.94,0,71.55Z"/>
  <path class="cls-1" d="m473.41,73.34c0-.66,0-1.31,0-1.97,0-6.47,0-12.94,0-19.41,0-2.24.15-2.38,2.44-2.39,1.36,0,2.71.03,4.07,0,1.23-.03,1.8.49,1.79,1.76-.02,11.83-.01,23.67,0,35.5,0,1.32-.59,1.95-1.92,1.85-.12,0-.25,0-.37,0-6.2-.16-4.46,1.07-8.03-4.29-4.2-6.3-8.34-12.64-12.89-18.94-.04.61-.1,1.22-.1,1.83,0,6.29,0,12.57,0,18.86,0,2.36-.18,2.53-2.51,2.54-1.11,0-2.22,0-3.33,0-2.28-.01-2.45-.17-2.45-2.39,0-6.41,0-12.82,0-19.23,0-5.12.05-10.23-.03-15.35-.02-1.62.57-2.15,2.16-2.16,5.28-.05,5.28-.09,8.13,4.37,3.82,5.97,7.64,11.93,11.46,17.89.36.56.75,1.11,1.12,1.66.16-.04.32-.08.47-.12Z"/>
  <path class="cls-1" d="m672.55,65.52c0,3.87,0,7.75,0,11.62,0,3.14-.06,6.29.02,9.43.04,1.63-.59,2.23-2.18,2.12-1.29-.09-2.59-.1-3.88,0-1.75.14-2.29-.71-2.25-2.31.06-2.28.01-4.56.01-6.84,0-9.12,0-18.24,0-27.36,0-2.47.18-2.37,2.61-2.68,3.66-.48,5.77.93,7.61,4.11,3.6,6.23,7.68,12.18,11.57,18.25.35.55.73,1.09,1.49,1.54.04-.71.1-1.42.1-2.12,0-6.41,0-12.82,0-19.22,0-2.38.13-2.48,2.53-2.49,1.23,0,2.47.05,3.7-.01,1.4-.07,1.98.45,1.98,1.92-.04,11.77-.03,23.54,0,35.31,0,1.31-.46,2-1.83,1.89-.06,0-.12,0-.18,0-6.59-.16-4.63,1.09-8.32-4.42-3.84-5.73-7.59-11.52-11.39-17.27-.36-.55-.75-1.07-1.13-1.61-.15.05-.31.1-.46.15Z"/>
  <path class="cls-1" d="m490.34,69.04c0-5.79.04-11.57-.03-17.36-.02-1.61.52-2.17,2.13-2.14,5.35.09,10.72-.06,16.07.13,7.83.28,13.02,4.86,14.11,12.48.39,2.72.23,5.53.2,8.3-.03,2.21-.07,4.44-.41,6.61-1.01,6.42-5.01,10.6-11.47,11.14-6.36.53-12.78.35-19.17.46-1.46.03-1.42-1.05-1.42-2.07,0-5.85,0-11.7,0-17.55Zm8.96-12.39c-.09.17-.2.27-.2.37-.03,7.87-.07,15.75-.03,23.62,0,.36.71,1.03,1.09,1.04,2.58.02,5.17.05,7.73-.23,3.44-.37,5.46-2.03,5.75-5.43.38-4.38.47-8.85.1-13.23-.32-3.8-2.31-5.62-6.07-6.08-2.77-.34-5.61-.07-8.39-.07Z"/>
  <path class="cls-1" d="m447.3,121.24c0,5.73-.04,11.46.02,17.19.02,1.72-.52,2.53-2.34,2.4-1.47-.11-2.96-.08-4.43,0-1.44.07-1.98-.53-1.96-1.96.05-4.07-.03-8.13.04-12.2.02-1.34-.33-1.84-1.75-1.81-4,.09-8.01.09-12.01,0-1.44-.03-1.95.39-1.91,1.87.08,3.94-.03,7.89.05,11.83.03,1.64-.45,2.42-2.21,2.28-1.41-.11-2.84-.11-4.25,0-1.75.13-2.29-.7-2.26-2.3.05-2.9.01-5.79.01-8.69,0-8.5,0-17.01,0-25.51,0-2.49.16-2.63,2.6-2.64,1.42,0,2.84.05,4.25-.01,1.36-.05,1.85.54,1.83,1.87-.05,3.88.04,7.76-.04,11.64-.03,1.53.47,2.05,2,2.02,3.88-.08,7.77-.1,11.64,0,1.68.05,2.08-.58,2.04-2.15-.1-3.76.03-7.52-.06-11.27-.04-1.64.59-2.22,2.16-2.13,1.47.08,2.96.08,4.43,0,1.62-.09,2.16.61,2.15,2.19-.05,5.79-.02,11.58-.02,17.38Z"/>
  <path class="cls-1" d="m656.53,77.71c-1.11,6.4-6.14,10.78-12.85,11.28-2.56.19-5.21.28-7.73-.14-7.44-1.26-11.53-5.37-12.24-12.9-.45-4.81-.34-9.75.21-14.55.75-6.66,5.28-11.09,11.9-12.01,3-.42,6.18-.45,9.16.07,7.44,1.31,11.77,6.73,12.01,14.43.05,1.72.04,10.99-.45,13.82Zm-8.27-8.69c-.11,0,.09-4.2-.04-6.16-.28-4.37-3.61-6.92-7.9-6.96-4.25-.04-7.41,2.61-7.65,6.89-.24,4.23-.23,8.5.01,12.73.22,3.84,3.08,6.46,6.68,6.66,4.58.25,7.46-1.65,8.28-5.82.47-2.4.43-4.89.63-7.34Z"/>
  <path class="cls-1" d="m514.95,124.45c0,2.93,0,5.63,0,8.32,0,1.27.93,1.09,1.7,1.09,5.11.01,10.23,0,15.34,0q3,0,3,2.9c0,4.47.37,4.03-4.11,4.03-7.33,0-14.67-.05-22,.04-1.8.02-2.35-.6-2.34-2.35.05-11.52.05-23.04,0-34.57,0-1.65.49-2.28,2.22-2.27,7.82.07,15.65.06,23.47,0,1.72-.01,2.43.48,2.39,2.32-.11,5.2.45,4.64-4.68,4.65-4.25,0-8.5,0-12.75,0-.66,0-1.32,0-2.11,0v8.99c.66.03,1.31.09,1.97.09,4.68,0,9.37.05,14.05-.02,1.58-.02,2.22.54,2.21,2.15-.06,5.12.42,4.61-4.53,4.62-4.49,0-8.99,0-13.81,0Z"/>
  <path class="cls-1" d="m441.51,63.77c0,4.61.45,9.28-.11,13.82-.81,6.64-5.41,10.83-12.15,11.34-3.38.26-6.94.08-10.22-.7-5.9-1.4-9.49-6.18-9.6-12.27-.15-8.19-.06-16.39-.11-24.58,0-1.36.53-1.89,1.87-1.83,1.54.06,3.09.09,4.62,0,1.64-.11,2.16.62,2.15,2.17-.04,6.22-.03,12.45,0,18.67,0,1.6.03,3.2.13,4.8.28,4.36,3.11,6.95,7.51,6.94,4.44,0,7.41-2.73,7.47-7.17.11-7.39.05-14.79.05-22.18q0-3.2,3.14-3.21,5.55,0,5.55,5.52v8.69c-.1,0-.2,0-.3,0Z"/>
  <path class="cls-1" d="m544.93,49.56c5.85.09,4.7-.8,6.71,4.61,3.91,10.49,7.78,20.99,11.67,31.48.99,2.68.76,3.06-2.01,3.01-6.62-.12-5.01,1.16-7.44-5.14-.65-1.68-1.39-2.4-3.28-2.31-3.87.17-7.76.12-11.64.02-1.5-.04-2.28.37-2.83,1.86-2.2,5.99-2.25,5.96-8.62,5.59-1.47-.08-1.84-.7-1.34-2.04,4.37-11.82,8.74-23.65,13.1-35.48.42-1.13,1.14-1.67,2.37-1.61,1.11.05,2.22.01,3.33,0Zm-6.01,24.53h11.93c-1.98-5.5-3.85-10.72-5.73-15.95-.16.03-.32.05-.48.08-1.88,5.22-3.76,10.44-5.72,15.86Z"/>
  <path class="cls-1" d="m382.8,121.27c.18,2.45.17,4.93.57,7.34.57,3.45,2.95,5.46,6.3,5.71,4.63.34,7.54-1.09,8.59-4.67.62-2.11,1.71-2.73,3.71-2.51,1.22.13,2.46.01,3.69.03,2.02.03,2.34.44,2.01,2.46-.64,3.87-2.56,7-5.96,8.91-6.68,3.76-13.64,3.88-20.53.64-3.54-1.66-5.67-4.78-6.47-8.56-1.26-5.9-1.24-11.9-.19-17.81,1.07-6.05,4.96-9.72,10.94-11.13,4.62-1.09,9.18-.88,13.6.85,4.69,1.83,7.71,5.16,8.61,10.23.37,2.11.02,2.53-2.1,2.54-1.6,0-3.21-.05-4.8.02-1.17.04-1.84-.39-2.11-1.56-1.37-5.8-6.87-6.34-10.67-5.27-3.08.86-4.75,3.35-4.95,7.23-.1,1.84-.02,3.7-.02,5.54-.07,0-.14,0-.21.01Z"/>
  <path class="cls-1" d="m566.73,69.04c.18-2.7.15-5.43.6-8.08.95-5.67,4.3-9.45,9.83-11.09,5.31-1.58,10.62-1.39,15.69.94,4.43,2.04,7.22,5.43,7.69,10.48.12,1.33-.3,1.96-1.72,1.9-1.72-.07-3.45-.07-5.17,0-1.2.05-1.89-.45-2.14-1.56-1.22-5.43-6.18-6.28-10.31-5.39-2.87.62-4.93,2.89-5.09,6.08-.22,4.48-.24,8.99,0,13.46.19,3.67,2.8,6.07,6.27,6.39,4.78.44,7.81-1.16,8.91-5.01.49-1.72,1.33-2.27,3.01-2.15,1.53.12,3.08.06,4.62.02,1.29-.04,1.74.52,1.64,1.8-.37,4.5-2.64,7.86-6.5,9.91-6.3,3.34-12.94,3.49-19.4.61-5.2-2.31-7.25-6.95-7.66-12.38-.15-1.96-.02-3.94-.02-5.91-.07,0-.14,0-.22,0Z"/>
  <path class="cls-1" d="m375.36,69.11c0-5.73.05-11.46-.03-17.19-.03-1.72.44-2.41,2.27-2.39,7.7.08,15.4.08,23.1,0,1.81-.02,2.33.64,2.29,2.38-.14,5.59.68,4.91-4.91,4.94-4.13.02-8.26.07-12.38-.03-1.57-.04-2.04.5-1.95,2.01.11,1.9.14,3.83,0,5.72-.14,1.79.6,2.16,2.23,2.13,4.56-.09,9.12.02,13.67-.06,1.71-.03,2.27.6,2.23,2.27-.14,5.78.74,4.95-5.01,4.99-3.57.03-7.15.1-10.72-.03-1.82-.07-2.51.37-2.42,2.33.16,3.44,0,6.9.07,10.35.03,1.58-.48,2.28-2.13,2.16-1.35-.1-2.71-.1-4.06,0-1.67.12-2.3-.49-2.28-2.21.08-5.79.03-11.58.03-17.37Z"/>
  <path class="cls-1" d="m473.39,121.15c0-5.6,0-11.21,0-16.81,0-2.61.02-2.63,2.72-2.64,1.17,0,2.34,0,3.51,0,2.45.01,2.51.07,2.51,2.46,0,8.99,0,17.98,0,26.98q0,2.43,2.42,2.43c4.8,0,9.61.04,14.41-.02,1.52-.02,2.15.53,2.05,2.05-.07,1.1-.06,2.22,0,3.32.08,1.46-.59,1.92-1.99,1.92-7.88-.04-15.77-.04-23.65,0-1.57,0-2.01-.67-2-2.13.05-5.85.02-11.7.02-17.55Z"/>
  <path class="cls-1" d="m607.25,68.96c0-5.73.05-11.45-.03-17.18-.02-1.7.54-2.35,2.23-2.24,1.59.1,3.2.06,4.8.01,1.21-.03,1.83.38,1.82,1.69-.02,11.88-.02,23.77,0,35.65,0,1.38-.62,1.84-1.93,1.79-1.66-.06-3.33-.07-4.99,0-1.46.06-1.94-.59-1.93-1.99.04-5.91.02-11.82.02-17.73Z"/>
  <path class="cls-1" d="m464.74,121.3c0,5.79-.04,11.58.02,17.37.02,1.58-.5,2.27-2.14,2.16-1.53-.1-3.08-.1-4.62,0-1.67.11-2.12-.64-2.11-2.19.05-7.02.02-14.04.02-21.06,0-4.62.04-9.24-.02-13.86-.02-1.51.5-2.14,2.03-2.05,1.6.08,3.2.08,4.8,0,1.53-.07,2.04.57,2.02,2.07-.06,5.85-.02,11.7-.02,17.55Z"/>
  <path class="cls-1" d="m646.75,38.17c1.11,0,2.22-.06,3.31.03.4.03.92.33,1.11.67.13.23-.12.86-.39,1.08-2.45,2.04-4.74,4.41-7.5,5.91-1.65.89-4.04.43-6.1.47-.13,0-.55-1.1-.38-1.34,1.65-2.14,3.18-4.46,5.22-6.16,1.07-.89,3.1-.64,4.69-.91.01.08.02.17.04.25Z"/>
  <path class="cls-1" d="m549.01,129.42c3.57,0,6.31,2.75,6.3,6.3,0,3.54-2.77,6.26-6.34,6.25-3.52,0-6.38-2.83-6.36-6.29.02-3.48,2.86-6.26,6.4-6.26Zm5.46,6.3c.01-3.07-2.38-5.59-5.37-5.64-3.07-.06-5.62,2.47-5.63,5.58-.01,3.1,2.55,5.7,5.58,5.66,2.98-.04,5.41-2.54,5.42-5.61Z"/>
  <path class="cls-1" d="m551.68,138.87h-1.27l-1.39-2.35h-1.09v2.35h-1.1v-6.28h2.76c.62,0,1.11.18,1.49.55.38.36.57.84.57,1.42,0,.53-.14.95-.43,1.27-.29.32-.64.51-1.06.58l1.54,2.47Zm-2.25-3.32c.31,0,.57-.09.77-.27.2-.18.3-.42.3-.73s-.1-.54-.3-.73c-.2-.18-.46-.27-.77-.27h-1.51v2h1.51Z"/>
</svg>