<?xml version="1.0" encoding="UTF-8"?>
<svg id="Capa_1" data-name="Capa 1" xmlns="http://www.w3.org/2000/svg" viewBox="0 0 593.08 192.63">
  <defs>
    <style>
      .cls-1 {
        fill: #fff;
      }
    </style>
  </defs>
  <path class="cls-1" d="m76.64,88.5v-20.32h69.2c.28,1.5.68,3.01.82,4.55,1.38,14.85-.39,29.18-7.6,42.45-9.03,16.61-23.08,26.98-41.22,31.64-18.61,4.79-36.89,3.47-54.37-4.81-17.93-8.49-30.57-22.13-38.12-40.46-2.94-7.15-4.58-14.6-5.15-22.34-.81-10.9.95-21.38,5.23-31.34C15.64,24.08,33.27,8.4,58.49,2.32c23.23-5.61,44.79-.98,64.15,13.25,1.26.92,2.42,1.97,3.6,2.99.63.54,1.2,1.15,1.97,1.9-4.81,4.94-9.58,9.82-14.38,14.74-7.21-6.7-15.54-11.05-25-13.31-21.3-5.09-44.49,3.82-56.77,21.92-5.7,8.39-8.83,17.68-9.35,27.83-.86,16.86,4.55,31.31,16.88,42.89,18.12,17,44.38,18.28,63.79,8.21,9.53-4.95,16.31-12.48,19.84-22.67,1.26-3.64,1.86-7.51,2.83-11.57h-49.41Z"/>
  <path class="cls-1" d="m438.63,64.35v-7.94h20.4v1.73c0,28.42.05,56.83-.03,85.25-.02,9.39-1.58,18.54-5.98,26.96-6.5,12.44-17.02,19.34-30.71,21.51-10.12,1.6-20.03.8-29.45-3.59-10.71-4.99-17.96-13.36-23.2-23.97,6.24-2.59,12.41-5.15,18.66-7.74,1.95,4.39,4.66,8.13,8.27,11.24,10.34,8.92,28.7,7.43,36.57-2.93,2.46-3.24,4.33-6.8,4.73-10.86.51-5.2.66-10.43.97-15.64-.17-.04-.34-.07-.51-.11-.57.56-1.14,1.11-1.7,1.68-6.24,6.37-13.98,9.4-22.74,9.41-19.89.01-34.35-9.33-43.13-26.87-6.93-13.86-6.72-28.25.16-42.2,7.44-15.07,19.49-24.27,36.3-26.51,11.88-1.58,22.48,1.48,31.38,10.57Zm-23.95,66.18c6.21-.11,12.11-2.44,17.02-7.16,4.59-4.41,7.08-9.87,8.08-16.12,1.27-7.92.3-15.49-3.92-22.35-10.66-17.35-32.74-15.95-43-1.39-6.06,8.59-7.16,18.14-4.03,28.06,3.64,11.55,13.73,18.97,25.84,18.96Z"/>
  <path class="cls-1" d="m203.28,149.4c-13.41-.2-24.81-4.05-34.26-12.82-7.87-7.3-12.69-16.34-14.47-26.95-2.07-12.34-.01-23.89,6.83-34.44,7.08-10.92,17.09-17.82,29.75-20.56,15.01-3.25,28.98-.5,41.49,8.53,9.48,6.84,15.32,16.2,17.51,27.63,2.18,11.42,1.33,22.64-4.26,33.05-8.31,15.47-21.54,23.61-38.88,25.33-1.45.14-2.91.18-3.72.23Zm26.65-48.04c.07-5.48-1.1-10.64-3.84-15.38-9.41-16.24-31.32-18.53-43.79-4.6-8.59,9.59-9.66,25.8-2.42,36.74,8.44,12.74,24.88,16.29,37.55,7.84,8.69-5.79,12.42-14.33,12.5-24.6Z"/>
  <path class="cls-1" d="m309.54,149.42c-14.31-.24-26.14-4.46-35.75-14.03-7.41-7.38-11.82-16.34-13.4-26.68-2.1-13.71,1.03-26.15,9.52-37.08,7.32-9.41,17.06-15.17,28.76-17.33,13.69-2.53,26.52-.11,38.18,7.62,10.38,6.88,16.82,16.53,19.23,28.74,2.93,14.82.46,28.61-9.02,40.61-9.74,12.33-22.91,17.82-37.53,18.14Zm.08-18.92c6.98-.08,13.7-3.13,19.08-9.07,9.28-10.24,9.69-27.57,1.22-38.81-9.79-12.98-30.82-13.86-41.38-1.49-7.61,8.92-9.15,19.13-5.92,30.09,3.41,11.58,13.87,19.16,27,19.29Z"/>
  <path class="cls-1" d="m593.08,89.28c-21.72,8.92-43.25,17.76-64.96,26.67,3.69,7.04,8.9,12.18,16.85,13.77,12.83,2.57,23.16-1.37,30.64-12.45,5.6,3.69,11.14,7.34,16.76,11.04-3.87,5.15-8.27,9.6-13.58,13.09-17.74,11.65-41.16,10.59-57.73-2.7-8.14-6.54-13.24-15.08-15.57-25.23-2.7-11.77-1.72-23.25,3.31-34.24,9.53-20.81,33.3-31.08,54.58-23.51,12.81,4.56,21.26,13.77,26.52,26.11,1.03,2.42,2.07,4.85,3.17,7.44Zm-24.87-7.3c-.8-1.18-1.37-2.24-2.14-3.13-5.25-6.06-12.05-8.14-19.69-6.62-10.24,2.04-16.98,8.49-20.63,18.19-1.13,2.99-1.35,6.12-.95,9.52,14.47-5.98,28.79-11.91,43.41-17.95Z"/>
  <path class="cls-1" d="m473.23,5.18h21.26v141.26h-21.26V5.18Z"/>
</svg>