<?xml version="1.0" encoding="UTF-8"?>
<svg id="Capa_1" data-name="Capa 1" xmlns="http://www.w3.org/2000/svg" fill="#fff" viewBox="0 0 1893.39 410.25">
  <path d="m751.33,284.3V3.75h56.02v233.37h109.81v38.84c.34.1.68.19,1.02.29.75-1.62,2.25-4.85,2.25-4.85L1025.51,3.36h64.18l109.54,280.9-63.06.41-23.15-63.21-114.37.13-23.37,63.07s-148.23-.09-220.55-.1c-.99,0-1.97-.15-3.4-.27Zm304.94-222.34c-.4.04-.8.08-1.2.13-12.75,37.37-25.49,74.74-38.34,112.41h79.42c-13.42-37.86-26.65-75.2-39.88-112.53Z"/>
  <path d="m1888.3,284.57c-21.99,0-42.97.05-63.96-.12-1.37-.01-3.25-1.5-4.02-2.81-20.13-34.12-40.15-68.32-60.19-102.5-.91-1.55-1.8-3.11-2.97-5.13-4.57,7.57-8.81,14.71-13.17,21.78-17.47,28.35-35,56.67-52.4,85.06-1.66,2.72-3.41,3.84-6.7,3.81-18.65-.18-37.3-.09-56.94-.09,1.35-2.25,2.28-3.89,3.28-5.48,28.65-45.52,57.24-91.08,86.07-136.48,2.5-3.93,2.18-6.45-.16-10.14-25.97-41.1-51.77-82.32-77.61-123.51-.96-1.52-1.86-3.08-3.12-5.16,1.88-.14,3.26-.33,4.65-.33,19-.02,38,.08,57-.1,3.48-.03,5.26,1.11,6.93,4.13,17.43,31.45,35.03,62.8,52.59,94.17.54.96,1.14,1.89,2.02,3.34,1.25-2,2.24-3.47,3.13-5,17.93-30.79,35.9-61.56,53.67-92.43,1.84-3.19,3.78-4.25,7.4-4.22,18.47.2,36.94.09,56.31.09-1.33,2.23-2.27,3.88-3.29,5.49-25.95,41.32-51.85,82.66-77.95,123.89-2.31,3.65-2.16,6.16.1,9.73,28.78,45.44,57.39,90.98,86.04,136.5.95,1.51,1.83,3.07,3.28,5.5Z"/>
  <path d="m1615.53,53.4h-108.27v63.04h98.56v46.41h-98.59v71.79h108.34v49.58h-164.53V3.81h164.49v49.6Z"/>
  <path d="m591.5,179.16v105.07h-55.83V3.8c1.17-.12,2.29-.33,3.41-.33,27.83,0,55.66-.17,83.49.13,17.08.19,33.79,2.88,49.75,9.4,35.35,14.45,53.89,47.79,50.97,86.56-2.89,38.35-32.12,75.12-83.26,78.8-13.94,1-27.97.58-41.97.8-1.96.03-3.93,0-6.57,0Zm.36-132.49v88.57c13.1-.61,26.01-.12,38.54-2.06,19.99-3.09,33.04-20.25,33.65-41.8.6-21.22-9.85-37.31-29.39-41.23-13.83-2.77-28.28-2.41-42.8-3.48Z"/>
  <path d="m1420.73,57.29c-9.84-2.52-19.19-5.54-28.78-7.26-23.32-4.19-46.53-3.81-68.83,5.18-33.23,13.39-51.16,38.58-55.34,73.84-1.96,16.53-1.29,33,3.44,49.02,10.2,34.53,34.25,53.8,68.87,60.28,25.67,4.8,50.73,1.59,74.86-8.5,1.33-.56,2.73-.97,4.56-1.62,1.11,15.23,2.25,29.97,3.16,44.72.07,1.16-1.2,3.18-2.25,3.51-45.96,14.16-92.11,18.04-137.04-2.65-42.48-19.56-66.86-53.68-73.71-99.98-4.46-30.13-3.06-59.98,8.39-88.49,17.24-42.96,49.75-68.8,94.18-79.45,35.42-8.5,70.97-7.89,106.14,2.49,3.42,1.01,4.75,2.33,4.5,6.11-.92,14.27-1.46,28.56-2.14,42.81Z"/>
  <path d="m257.32,137.11c.2-1.95.58-3.91.58-5.86.03-40.8.03-81.6.03-122.4V2.6h129.04v134.75c-1.52.1-2.98.27-4.43.27-40.13.01-80.27.02-120.4-.01-1.63,0-3.27-.38-4.9-.58l.09.09Z"/>
  <path d="m257.23,273.92c1.46-.26,2.91-.74,4.37-.74,40.83-.04,81.67-.03,122.5-.02.82,0,1.64.15,2.88.27v134.88h-129.05c0-2.2,0-4.15,0-6.1,0-40.83,0-81.67-.03-122.5,0-1.95-.4-3.9-.6-5.85,0,0-.06.05-.06.05Z"/>
  <path d="m257.22,137.02c.24,1.78.68,3.55.68,5.33.04,42.07.04,84.13,0,126.2,0,1.79-.43,3.58-.67,5.37,0,0,.07-.06.06-.05-1.44-.21-2.88-.61-4.32-.61-39.86-.03-79.73-.03-119.59,0-1.45,0-2.89.39-4.34.6l.1.11c-.15-1.31-.43-2.62-.43-3.93-.02-43.2-.02-86.39,0-129.59,0-1.14.25-2.28.38-3.42l-.15.13c1.15.12,2.3.33,3.46.33,40.5.02,81,.02,121.49,0,1.14,0,2.29-.25,3.42-.39,0,0-.1-.1-.1-.1Z"/>
  <path d="m129.1,137.04c-1.3.19-2.59.56-3.89.56-40.65.03-81.3.02-121.95.02-.98,0-1.96-.11-3.26-.19V2.47h128.74c0,1.95,0,3.88,0,5.8,0,41.15,0,82.3,0,123.44,0,1.83.12,3.65.2,5.47,0,0,.16-.14.16-.14Z"/>
  <path d="m129.04,273.87c-.1,1.82-.29,3.64-.29,5.45-.02,40.98-.01,81.95-.01,122.93v6.08H.05v-134.9c1.63-.09,3.24-.26,4.85-.26,39.64-.01,79.29-.02,118.93.02,1.77,0,3.53.5,5.31.78,0,0-.1-.1-.1-.1Z"/>
  <path d="m439.96,3.64h55.44v280.57h-55.44V3.64Z"/>
  <path d="m1684.86,408.32h-17v-85.45h21.86l33.56,62.08v-61.68h17v85.28h-21.81s-22.81-43.11-33.61-63.72v63.48Z"/>
  <path d="m1313.06,408.32h-17v-85.45h21.86l33.56,62.08v-61.68h17v85.28h-21.81s-22.81-43.11-33.61-63.72v63.48Z"/>
  <path d="m662.14,408.32h-17v-85.45h21.86l33.56,62.08v-61.68h17v85.28h-21.81s-22.81-43.11-33.61-63.72v63.48Z"/>
  <path d="m1041.43,339.73c-7.26-1.24-14.2-2.93-21.23-3.52-12.01-1.01-22.51,2.45-27.77,14.21-5.51,12.3-5.28,24.72,3.31,35.85,7.23,9.37,20.15,10.1,29.74,7.77.92-.22,2.15-1.72,2.18-2.66.2-5.94.1-11.89.1-18.27h-16.75v-13.34h33.93c0,7.89,0,15.65,0,23.42,0,6.16.14,12.33-.11,18.48-.06,1.37-1.28,3.57-2.39,3.9-13.59,3.94-27.44,5.83-41.37,2.3-20.57-5.22-32.38-24-29.97-46.84,2.7-25.58,19.45-39.55,47.5-39.07,6.76.12,13.5,1.65,20.25,2.54,2.88.38,3.79,1.9,3.34,4.83-.54,3.57-.55,7.21-.76,10.4Z"/>
  <path d="m1656.17,365.84c-.06,11.48-2.49,22.19-10.39,31.01-10.77,12.01-29.89,16.41-46.57,10.35-16-5.81-23.92-18.13-25.3-34.53-.59-7.03-.24-14.45,1.35-21.3,4.43-19.05,20.58-30.29,40.9-29.45,25.19,1.04,40.08,17.37,40.02,43.92Zm-17.19-.8c0-18.36-5.95-30.75-24.84-30.75-8.65.18-15.24,3.99-18.66,11.85-5.57,12.78-5.62,25.97-.17,38.77,3.68,8.64,10.99,12.73,20.38,12.42,11.46,0,23.29-6.43,23.29-32.29Z"/>
  <path d="m1244.49,365.52c-.06,11.48-2.49,22.19-10.39,31.01-10.77,12.01-29.89,16.41-46.57,10.35-16-5.81-23.92-18.13-25.3-34.53-.59-7.03-.24-14.45,1.35-21.3,4.43-19.05,20.58-30.29,40.9-29.45,25.19,1.04,40.08,17.37,40.02,43.92Zm-17.19-.8c0-18.36-5.95-30.75-24.84-30.75-8.65.18-15.24,3.99-18.66,11.85-5.57,12.78-5.62,25.97-.17,38.77,3.68,8.64,10.99,12.73,20.38,12.42,11.46,0,23.29-6.43,23.29-32.29Z"/>
  <path d="m962.45,366.18c-.06,11.48-2.49,22.19-10.39,31.01-10.77,12.01-29.89,16.41-46.57,10.35-16-5.81-23.92-18.13-25.3-34.53-.59-7.03-.24-14.45,1.35-21.3,4.43-19.05,20.58-30.29,40.9-29.45,25.19,1.04,40.08,17.37,40.02,43.92Zm-17.19-.8c0-18.36-5.95-30.75-24.84-30.75-8.65.18-15.24,3.99-18.66,11.85-5.57,12.78-5.62,25.97-.17,38.77,3.68,8.64,10.99,12.73,20.38,12.42,11.46,0,23.29-6.43,23.29-32.29Z"/>
  <path d="m812.41,366.18c-.06,11.48-2.49,22.19-10.39,31.01-10.77,12.01-29.89,16.41-46.57,10.35-16-5.81-23.92-18.13-25.3-34.53-.59-7.03-.24-14.45,1.35-21.3,4.43-19.05,20.58-30.29,40.9-29.45,25.19,1.04,40.08,17.37,40.02,43.92Zm-17.19-.8c0-18.36-5.95-30.75-24.84-30.75-8.65.18-15.24,3.99-18.66,11.85-5.57,12.78-5.62,25.97-.17,38.77,3.68,8.64,10.99,12.73,20.38,12.42,11.46,0,23.29-6.43,23.29-32.29Z"/>
  <path d="m1835,408.56l-18.93.11-8.1-19.02-33.91-.07-7.52,19.09-18.11-.06s23.45-59.54,33.39-85.29h20.01l33.18,85.25Zm-43.68-68.25c-4.24,12.46-7.96,23.39-11.73,34.48h23.99c-4.06-11.42-7.92-22.3-12.25-34.48Z"/>
  <path d="m1463.3,408.56l-18.93.11-8.1-19.02-33.91-.07-7.52,19.09-18.11-.06s23.45-59.54,33.39-85.29h20.01l33.18,85.25Zm-43.68-68.25c-4.24,12.46-7.96,23.39-11.73,34.48h23.99c-4.06-11.42-7.92-22.3-12.25-34.48Z"/>
  <path d="m526.24,338.16v19.06h29.82v14.09h-29.64v22.1h32.68v14.91h-49.94v-85.13h50.2v14.86l-33.12.11Z"/>
  <path d="m1152.7,391.8c.4,4.65.77,9.1,1.14,13.45-14.54,6.86-41.6,6.86-55.64-9.19-12.51-14.3-13.94-40.33-2.66-56.4,11.35-16.18,37.61-22.77,58.19-14.32-.28,4.44-.58,9.03-.88,13.83-16.1-4.15-31.32-5.33-42.21,9.82-6.69,9.3-6.48,26.21.46,35,11.29,14.31,26.12,12.7,41.6,7.81Z"/>
  <path d="m632.82,392.41c.4,4.65.77,9.1,1.14,13.45-14.54,6.86-41.6,6.86-55.64-9.19-12.51-14.3-13.94-40.33-2.66-56.4,11.35-16.18,37.61-22.77,58.19-14.32-.28,4.44-.58,9.03-.88,13.83-16.1-4.15-31.32-5.33-42.21,9.82-6.69,9.3-6.48,26.21.46,35,11.29,14.31,26.12,12.7,41.6,7.81Z"/>
  <path d="m1532.75,391.68c.4,4.65.77,9.1,1.14,13.45-14.54,6.86-41.6,6.86-55.64-9.19-12.51-14.3-13.94-40.33-2.66-56.4,11.35-16.18,37.61-22.77,58.19-14.32-.28,4.44-.58,9.03-.88,13.83-16.1-4.15-31.32-5.33-42.21,9.82-6.69,9.3-6.48,26.21.46,35,11.29,14.31,26.12,12.7,41.6,7.81Z"/>
  <path d="m459.76,338.15h-24.88v-15.31h65.8v15.28h-23.87v70.1h-17.06v-70.07Z"/>
  <path d="m840.51,394.2h33.57v14.05h-50.03v-85.14h16.46v71.09Z"/>
  <path d="m1843.13,408.3v-84.99h16.9v70.93h33.36v14.06h-50.26Z"/>
  <path d="m1076.32,408.38h-16.43v-85.11h16.43v85.11Z"/>
  <path d="m1561.57,408.38h-16.46v-85.14h16.46v85.14Z"/>
  <path d="m917.13,317.35v-14.93c6.74-1.03,13.39-2.05,21.54-3.3-4.05,6.32-6.9,12.13-11.11,16.67-1.75,1.89-6.43,1.07-10.43,1.56Z"/>
</svg>