<?xml version="1.0" encoding="UTF-8"?>
<svg id="Capa_1" data-name="Capa 1" xmlns="http://www.w3.org/2000/svg" fill="#fff" viewBox="0 0 1863.79 344.63">
  <path d="m1337.59,1.72c-5.31,17.63-10.07,34.23-15.32,50.68-29.16,91.27-58.45,182.5-87.69,273.74-3.48,10.85-10.86,15-21.94,12.28-5.7-1.4-8.35-5.6-10.02-10.78-6.1-19.01-12.28-37.99-18.37-57-27.24-85.07-54.48-170.15-81.65-255.24-4.19-13.11-4.04-13.16,9.36-14.02,11.82-.76,14.77,1.2,18.88,13.81,13.71,42.07,27.33,84.17,40.86,126.3,14.85,46.25,29.56,92.54,44.34,138.81.1.32.17.67.36.93.88,1.22,1.81,2.42,2.71,3.63.78-1.16,1.89-2.21,2.3-3.49,5.2-15.98,10.4-31.95,15.4-47.99,22.82-73.21,45.57-146.45,68.37-219.67,3.36-10.8,6.07-12.56,17.29-12.03,4.47.21,8.95.03,15.12.03Z"/>
  <path d="m819.98,312.27c-12.09,16.07-27.25,24.75-45.09,28.94-17.35,4.07-34.67,3.82-51.8-1.39-26.67-8.12-42.25-27.16-45.26-54.89-1.2-11.02-1.25-21.95,1.43-32.75,6.4-25.75,25.78-43.41,53.91-46.2,23.64-2.35,47.52-2.25,71.29-3.23,1.5-.06,3,.02,4.5-.02,8.44-.2,10.91-2.99,10.33-11.47-.81-11.78-.75-23.69-2.47-35.33-2.59-17.54-12.36-27.34-29.67-30.57-14.79-2.76-29.72-3.64-44.7-.86-11.33,2.1-21.6,6.49-30.92,13.24-6.55,4.74-10.36,4-14.99-2.62-6.7-9.58-5.91-13.66,3.64-20.61,15.77-11.47,33.95-15.82,52.85-17.62,15.68-1.49,31.24-.04,46.59,3.75,25.03,6.19,40.1,21.37,42.94,47.05,2.36,21.29,2.77,42.84,3.04,64.29.46,36.64.13,73.3.13,109.95,0,.67,0,1.33,0,2-.17,12.78-3.84,16.05-16.51,14.68-6.07-.65-9-3.62-9.2-9.73-.17-4.98-.03-9.97-.03-16.62Zm-.3-60.23c-.27-.01-.55-.02-.82-.03,0-5.16.05-10.32-.01-15.49-.07-5.57-2.16-8.42-7.81-8.94-10.29-.94-20.69-2.23-30.95-1.65-14.09.8-28.15,2.86-42.12,5.02-20.24,3.14-30.67,12.48-33.64,30.06-.99,5.84-.89,11.97-.52,17.92.9,14.65,7.78,25.63,21.34,31.82,25.02,11.43,49.39,8.54,72.7-4.6,11.84-6.67,18.3-17.75,20-31.25.95-7.58,1.25-15.25,1.84-22.88Z"/>
  <path d="m339.36,317.1c-6.28,4.28-11.46,7.82-16.65,11.34-26.38,17.83-54.57,20.61-84.27,9.94-26.07-9.37-39.5-28.64-41.33-55.7-.71-10.49-.01-21.45,2.27-31.7,5.63-25.29,24.66-42.12,52.37-44.94,23.64-2.41,47.53-2.5,71.32-3.18,15.18-.44,15.81-.63,14.81-15.93-.8-12.12-1.61-24.26-3-36.32-1.18-10.28-7.08-18.15-16.72-21.28-26.58-8.64-53.19-10.47-78.91,3.47-3.36,1.82-6.44,4.14-9.74,6.08-5.14,3.01-8.57,2.44-12.22-2.15-1.65-2.07-3.13-4.33-4.34-6.69-2.83-5.53-1.74-9.4,3.4-12.84,33.25-22.28,69.23-26.16,106.99-14.89,26.13,7.8,39.82,25.74,40.24,53.71.86,57.63.89,115.28,1.19,172.92.03,6.21-2.81,9.06-9.06,9.65-1.82.17-3.67.15-5.49.06-7.79-.36-10.37-2.86-10.81-10.64-.18-3.24-.03-6.49-.03-10.91Zm-37.59-90.2c-17.84-.12-35.63.35-52.88,5.69-12.98,4.02-21.83,12.55-24.41,25.84-1.59,8.16-1.7,16.91-.77,25.19,1.48,13.08,9.38,21.94,21.46,27.23,24.13,10.57,47.5,9.23,70.31-3.86,13.6-7.8,21.27-19.53,22.35-35.05.78-11.27.33-22.61.65-33.92.24-8.37-2.17-11.07-10.74-11.13-8.66-.06-17.31-.01-25.97,0Z"/>
  <path d="m1543.48,317.61c-5.36,3.62-10.59,7.11-15.78,10.66-27.21,18.62-56.24,20.8-86.56,9.16-21.32-8.18-34.1-23.6-37.7-46.4-1.91-12.1-2.62-24.21-.28-36.29,5.03-26,21.64-40.83,46.61-46.99,20.36-5.02,41.21-5.43,62.05-5.46,8,0,15.99.41,23.99.34,5.88-.05,8.71-2.62,8.48-8.14-.51-12.14-.75-24.35-2.37-36.37-2.67-19.76-12.05-29.42-31.39-32.87-16.14-2.88-32.42-3.72-48.6.32-9.5,2.37-18.12,6.47-25.99,12.29-6.05,4.48-9.89,3.89-14.38-2.05-1.3-1.72-2.47-3.57-3.43-5.5-2.84-5.76-1.8-9.7,3.42-13.4,21.47-15.21,45.6-21.5,71.62-20.58,8.93.32,17.94,1.53,26.7,3.36,32.03,6.7,48.3,26.45,48.82,59.35.54,35.15.69,70.3.88,105.45.11,19.99.01,39.99-.06,59.98-.05,12.59-2.56,14.9-15.11,14.22-6.97-.37-10.17-3.73-10.25-10.83-.03-2.83.1-5.66.1-8.48,0-.44-.36-.88-.74-1.77Zm.35-68.09c-.11-.03-.21-.06-.32-.1,0-3.99-.07-7.99.02-11.98.15-6.65-1.57-9.22-8.26-9.86-9.98-.95-20.08-2.19-30.04-1.62-14.42.83-28.77,3.02-43.12,4.92-16.41,2.17-28.81,9.9-32.51,26.99-1.62,7.5-1.94,15.57-1.23,23.23,1.4,15.08,9.96,25.45,24,31.02,24.23,9.61,47.67,6.68,70.11-5.54,9.5-5.17,15.55-13.64,17.28-24.45,1.73-10.81,2.73-21.74,4.06-32.62Z"/>
  <path d="m1862.85,2.18c.29,3.16.79,6.11.79,9.06.09,36.33.12,72.66.14,108.98,0,8.74-1.82,10.57-10.54,10.57-36.49-.01-72.99-.05-109.48-.1-6.82,0-8.18-1.35-8.18-8.22.03-38.16.13-76.32.08-114.48,0-4.26.91-6.17,5.84-6.14,38.83.21,77.66.11,116.48.12,1.47,0,2.95.13,4.85.22Z"/>
  <path d="m971.04,129.33c13.24-19.81,30.74-30.51,53.36-32.54,12.76-1.14,25.39.43,37.47,4.5,28.06,9.45,43.08,30.26,46.65,58.67,2.29,18.26,1.88,36.91,2.03,55.4.29,36.16.12,72.33.12,108.49,0,2,.05,4.02-.21,5.99-.83,6.12-3.77,8.69-10,8.9-1.16.04-2.33.01-3.5-.03-9.93-.38-12.48-2.62-12.64-12.55-.24-14.99.02-30-.04-44.99-.11-30.5-.29-60.99-.41-91.49-.05-11.94-2.08-23.54-6.21-34.73-7.43-20.09-23.26-30.31-47.72-30.98-30.95-.84-54.35,17.74-58.84,48.88-2.43,16.87-2.15,34.19-2.32,51.31-.32,32.49-.08,64.99-.12,97.49,0,2.48-.14,5.01-.65,7.43-1.57,7.47-6.38,11.21-13.35,10.66-7.03-.55-11.52-4.86-11.85-12.37-.48-10.98-.59-21.99-.59-32.99-.02-58.66.05-117.33.09-175.99,0-.17,0-.33,0-.5.11-14.83,6.5-19.53,20.82-14.76,2.13.71,4.46,3.74,4.88,6.03.88,4.86.39,9.95.83,14.91.15,1.73,1.39,3.37,2.22,5.25Z"/>
  <path d="m0,169.84C0,118.36,0,66.89,0,15.42,0,2.78,1.54,1.65,14.08,1.7c9.28.03,12.51,3.18,12.99,13.15.79,16.46.59,32.97.59,49.46.03,78.13-.02,156.26-.03,234.39,0,11.58.31,11.95,12.14,11.97,43.98.04,87.96.03,131.94.04,2.33,0,4.68-.09,6.99.16,7.67.83,12.59,5.56,12.89,12.21.36,7.93-3.83,13.54-11.85,14.77-5.06.77-10.29.68-15.44.69-50.14.08-100.28.1-150.43.13-1.67,0-3.34.02-4.99-.13-6.17-.55-7.84-2.12-8.41-8.29-.32-3.48-.36-6.98-.36-10.48-.02-49.98-.01-99.95-.01-149.93-.03,0-.06,0-.1,0Z"/>
  <path d="m1604.19,157.75c0-46.47-.03-92.94.02-139.42.01-10.55,3.92-16.48,11.51-18.02,7.29-1.48,13.09,2.24,14.11,9.59.71,5.09.85,10.29.86,15.43.03,86.12,0,172.23.04,258.35,0,4.14.35,8.33,1.03,12.41,1.75,10.59,6.9,15.35,17.53,16.59,3.31.39,6.72.31,9.91,1.13,2.03.52,5.22,2.13,5.35,3.49.58,6.01.69,12.16-.05,18.13-.21,1.7-3.84,4.24-5.89,4.23-8.61-.03-17.44.15-25.77-1.67-15.66-3.41-25.68-15.1-26.93-31.4-1.23-15.92-1.45-31.93-1.55-47.91-.22-33.65-.07-67.29-.07-100.94-.04,0-.07,0-.11,0Z"/>
  <path d="m426.62,126.97c5.25-4.91,9.46-8.86,13.69-12.79,22.22-20.62,47.41-21.63,74.3-11.21,1.85.72,3.58,1.77,5.29,2.78,12.85,7.63,13.82,13.45,4.19,24.91-4.87,5.8-8.18,6.49-14.69,2.59-8.55-5.13-17.63-8.77-27.61-9.38-18.62-1.13-32.94,6.51-42.91,22.19-7.34,11.54-10.54,24.52-10.95,37.94-.82,27.12-1.08,54.27-1.32,81.41-.17,18.82.08,37.64.14,56.46,0,.5,0,1,0,1.5.24,15.87-6.82,17.46-20.88,13.82-2.51-.65-4.82-6.63-5.13-10.33-.84-9.93-.69-19.96-.69-29.95,0-59.96.07-119.92.12-179.88.01-14.38.88-15.21,15.37-14.63,8.84.36,10.72,2.19,11.04,11.08.14,3.98.02,7.97.02,13.49Z"/>
  <path d="m570.96,128.32c4.67-5.37,8.21-10.26,12.54-14.3,18.38-17.16,40.02-20.61,63.59-13.89,7.32,2.09,14.38,5.2,21.4,8.22,7.22,3.1,8.97,8.48,5.43,15.43-.9,1.77-1.98,3.47-3.12,5.11-5.13,7.43-8.81,8.36-16.78,4-12.74-6.96-25.98-11.32-40.67-7.74-18.29,4.46-29.6,16.38-35.49,33.87-5.54,16.48-6.54,33.61-6.63,50.78-.19,37.31-.11,74.62-.15,111.92,0,1,.05,2-.04,3-.4,4.51,1.26,10.83-4.07,12.31-5.61,1.56-12.05.8-17.99.04-1.6-.2-3.22-3.91-3.95-6.28-.71-2.3-.35-4.95-.35-7.45-.01-68.79-.01-137.58,0-206.37,0-13.36,1.63-14.93,14.96-14.62,9.37.22,11.08,1.85,11.3,11.1.11,4.62.02,9.25.02,14.86Z"/>
  <path d="m879.83,220.23c0-34.83,0-69.65,0-104.48,0-12.46,1.34-13.73,13.82-13.36,1.83.05,3.67.14,5.49.35,3.99.45,6.43,2.58,6.76,6.71.25,3.15.48,6.32.49,9.48.03,67.49.02,134.97.02,202.46,0,.67,0,1.33,0,2-.17,14.07-6.88,18.93-20.56,14.46-2.11-.69-4.03-3.16-5.17-5.28-.95-1.76-.84-4.2-.84-6.35-.04-35.33-.03-70.65-.03-105.98.01,0,.02,0,.03,0Z"/>
  <path d="m1379.09,220.26c0,35.15,0,70.3-.01,105.45,0,1.83-.04,3.68-.32,5.48-.23,1.45-.44,3.21-1.35,4.2-4.82,5.21-11.11,3.21-16.92,2.87-4.41-.26-6.83-3.21-7.37-7.5-.31-2.47-.33-4.98-.33-7.48-.02-68.8-.02-137.61,0-206.41,0-13.59,1.68-15.16,15.39-14.57,9.12.39,10.79,1.87,10.82,11,.09,35.65.04,71.3.04,106.95.02,0,.04,0,.07,0Z"/>
</svg>