<?xml version="1.0" encoding="UTF-8"?>
<svg id="Capa_1" data-name="Capa 1" xmlns="http://www.w3.org/2000/svg" fill="#fff" viewBox="0 0 667.01 666.83">
  <path d="m221.94,0c4.49,0,8.98,0,13.47,0,.52.1,1.04.23,1.57.29,5.16.6,10.36.9,15.46,1.82,29.53,5.33,53.41,20.37,72.92,42.8,2.21,2.54,4.36,5.13,6.63,7.81.59-.72,1.08-1.29,1.55-1.88,8.24-10.32,17.6-19.45,28.44-27.02,18.95-13.23,40.08-20.19,63.04-21.89,15.93-1.18,31.61.34,46.85,5.13,34.69,10.9,60.29,32.78,76.76,65.09,8.64,16.94,16.52,34.27,24.72,51.44,15.57,32.61,31.13,65.23,46.67,97.85,11.73,24.63,23.49,49.25,35.1,73.93,5.81,12.36,9.41,25.39,10.95,38.97.32,2.86.62,5.73.94,8.59v12.81c-.24,2.37-.46,4.74-.73,7.11-1.82,15.97-6.26,31.15-13.73,45.41-12.39,23.62-30.33,41.73-54.08,53.89-20.87,10.69-43.19,15.25-66.57,14.6-14.47-.4-28.39-3.54-41.7-9.27-17.42-7.51-32.15-18.75-45.07-32.49-3.32-3.54-6.43-7.27-9.64-10.93-26.1,32.79-59.93,50.74-102.18,50.78-42.19.04-76.17-17.63-102.64-50.36-.45.52-.88,1-1.29,1.51-7.81,9.87-16.54,18.85-26.82,26.16-29.22,20.78-61.73,28.12-96.95,22.31-29.17-4.81-53.74-18.67-73.4-40.78C9.17,407.74-1.09,377.12.09,342.59c.54-15.86,4.26-31.07,10.67-45.57,6.23-14.1,12.73-28.08,19.12-42.11,11.23-24.63,22.48-49.24,33.69-73.87,15.51-34.08,30.96-68.19,46.48-102.26,7.71-16.92,17.51-32.38,31.4-45.04,9.19-8.38,19.12-15.65,30.29-21.15,13.99-6.89,28.81-10.85,44.37-12.01,1.95-.15,3.89-.39,5.83-.59Zm375.31,347.95c-.24-2.66-.4-5.33-.75-7.97-.96-7.4-3.93-14.12-7.11-20.77-5.68-11.89-11.36-23.77-17.03-35.66-5.72-11.99-11.42-23.98-17.13-35.97-5.57-11.69-11.15-23.39-16.73-35.08-5.58-11.69-11.16-23.38-16.73-35.08-5.6-11.74-11.17-23.5-16.78-35.23-5.54-11.59-11.22-23.11-16.63-34.76-4.35-9.37-10.01-17.65-18.31-23.97-12.14-9.24-25.78-13.35-41.02-11.89-11.99,1.15-22.63,5.51-31.9,13.26-5.71,4.77-10.34,10.4-13.8,16.96-4.79,9.08-7.06,18.75-6.75,29.07.23,7.76,1.86,15.16,5.1,22.15,6.16,13.28,12.52,26.47,18.81,39.69,4.42,9.29,8.88,18.56,13.3,27.85,6.5,13.66,12.98,27.34,19.48,41,5.33,11.21,10.68,22.41,16.02,33.61,5.5,11.55,10.97,23.11,16.48,34.65,5.51,11.54,11.07,23.07,16.6,34.6,3.59,7.48,6.89,15.11,12.15,21.69,4.92,6.14,10.79,11.08,17.81,14.49,11.05,5.37,22.76,7.36,34.99,5.73,16.25-2.16,29.2-9.99,38.72-23.24,7.5-10.44,10.99-22.28,11.21-35.14ZM170.33,127.93c-.17,6.26.8,12.78,3.28,18.94,2.59,6.44,5.56,12.73,8.5,19.02,4.35,9.29,8.82,18.53,13.24,27.79,5.75,12.05,11.48,24.11,17.23,36.17,4.44,9.31,8.89,18.62,13.33,27.93,5.63,11.81,11.24,23.63,16.87,35.43,3.34,7.01,6.7,14.01,10.05,21.01,4.58,9.6,9.15,19.21,13.74,28.81,4.29,8.97,8.67,17.88,12.86,26.9,3.58,7.71,8.25,14.55,14.59,20.27,6.05,5.45,12.84,9.57,20.54,12.16,8.7,2.92,17.59,3.72,26.72,2.39,12.75-1.86,23.65-7.4,32.71-16.43,4.97-4.96,8.79-10.81,11.6-17.31,2.9-6.71,4.53-13.7,5.14-20.94.86-10.21-1.59-19.77-5.93-28.91-4.68-9.86-9.41-19.69-14.11-29.54-4.61-9.65-9.21-19.3-13.82-28.96-4.49-9.41-8.97-18.82-13.45-28.22-4.37-9.16-8.75-18.32-13.11-27.49-4.29-9.02-8.57-18.04-12.86-27.06-4.24-8.92-8.5-17.84-12.75-26.76-5.63-11.81-11.24-23.63-16.88-35.43-2.08-4.36-4.36-8.64-6.3-13.06-2.66-6.07-6.23-11.53-10.67-16.38-5.07-5.54-11.08-9.86-17.88-13.11-10.39-4.97-21.27-6.81-32.66-5.11-10.33,1.54-19.67,5.48-27.96,11.94-6.4,4.99-11.52,11.03-15.31,18.15-4.55,8.55-6.87,17.69-6.7,27.82Zm-42.87,278.88c2.06-.15,4.12-.3,6.18-.46,6.79-.52,13.19-2.51,19.25-5.48,6.7-3.28,12.67-7.59,17.66-13.25,3.14-3.56,6.04-7.26,8.11-11.5,3.99-8.18,7.72-16.48,11.6-24.71,1.12-2.38,1.38-4.64.17-7.13-4.65-9.55-9.18-19.15-13.76-28.74-3.41-7.14-6.82-14.28-10.23-21.42-4.57-9.59-9.12-19.18-13.7-28.76-3.13-6.55-6.32-13.08-9.45-19.63-5.22-10.95-10.41-21.92-15.64-32.87-.19-.39-.6-.68-.91-1.01-.36.34-.85.62-1.05,1.04-1.45,3.03-2.87,6.08-4.26,9.13-5.59,12.26-11.17,24.53-16.76,36.8-5.59,12.27-11.18,24.53-16.75,36.8-4.52,9.96-8.92,19.96-13.51,29.88-2.94,6.35-4.44,13.01-4.84,19.92-.29,4.95.21,9.87,1.21,14.75,3.11,15.22,11.08,27.31,23.69,36.23,9.83,6.95,20.91,10.29,32.98,10.41Z"/>
  <path d="m76.06,542.96c1.5-.11,2.8-.28,4.1-.29,6.94-.03,13.89.05,20.83-.05,2.47-.04,4.06.91,5.37,2.97,11.01,17.29,22.1,34.53,33.16,51.79.56.87,1.15,1.72,1.88,2.81.52-.73.97-1.31,1.37-1.92,10.9-16.97,21.79-33.95,32.68-50.93.5-.78.99-1.57,1.51-2.35,1.02-1.51,2.41-2.34,4.27-2.34,8.31,0,16.63,0,24.94,0,.16,0,.32.05.67.11.09,1.37.27,2.76.27,4.16.02,37.77.01,75.53.01,113.3,0,3.15-.83,3.95-4.03,3.89-4.05-.07-8.09-.23-12.14-.22-5.63.01-11.26.14-16.9.23-2.64.04-3.58-.77-3.64-3.48-.05-2.35.1-4.7.1-7.05.01-11,0-22,0-33,0-.66-.13-1.31-.2-1.97-.17-.06-.33-.11-.5-.17-9.42,11.09-18.84,22.17-28.37,33.39-3.24-3.8-6.39-7.48-9.53-11.17-5.98-7.04-11.95-14.09-17.95-21.12-.32-.37-.82-.59-1.24-.88-.17.52-.5,1.03-.5,1.55-.01,13.3.02,26.6.03,39.9,0,3.33-.68,4.03-3.87,4.02-9.74-.04-19.47-.09-29.21-.13-2.92-.01-3.4-.48-3.4-3.45,0-22.88-.02-45.76,0-68.64.01-15.49.08-30.97.13-46.46,0-.76.07-1.52.12-2.49Z"/>
  <path d="m461.66,558.42c-8.53,8.53-16.97,16.97-25.5,25.51-.83-.69-1.72-1.47-2.65-2.2-8.54-6.72-18.06-8.48-28.25-4.85-10.11,3.6-16.34,10.93-18.33,21.53-2.88,15.35,7.55,29.96,23.05,32.6,6.19,1.06,12.08.15,17.75-2.41,2.51-1.13,3.35-2.71,3.28-5.47-.11-4.27-.12-8.53-.13-12.8,0-1.9.7-2.62,2.57-2.62,10.45-.03,20.91-.03,31.36,0,1.88,0,2.5.58,2.57,2.44.08,2.18-.03,4.37-.03,6.56-.02,7.88-.06,15.76-.04,23.65,0,2.04-.69,3.74-2.07,5.19-10.61,11.18-23.51,18.02-38.77,20.31-13.12,1.97-26.06,1.24-38.33-4.03-20.33-8.73-34.45-23.3-39.45-45.29-4.16-18.31.02-35.13,11.59-49.86,11.73-14.93,27.38-23.22,46.17-25.37,19.3-2.21,36.73,2.7,52.17,14.53,1.07.82,2.06,1.76,3.03,2.6Z"/>
  <path d="m477.51,661.44c1.63-4.19,3.09-8,4.58-11.8,13.71-34.95,27.42-69.91,41.14-104.86,1.54-3.92,2.28-4.42,6.43-4.42.27,0,.55,0,.82,0,8.75,0,17.5,0,26.25,0,3.25,0,3.88.4,5.04,3.35,15.01,38.2,30.03,76.4,45.03,114.61.39,1,.66,2.05,1.09,3.37h-2.13c-9.3,0-18.61,0-27.91,0-1.42,0-2.84.13-4.26.11-2.08-.03-3.46-1.01-4.2-3.02-1.52-4.1-3.18-8.15-4.69-12.25-.62-1.69-1.7-2.39-3.46-2.38-12.31.02-24.63.03-36.94,0-1.84,0-2.91.76-3.56,2.5-1.51,4.05-3.14,8.05-4.76,12.05-.98,2.43-1.7,2.87-4.32,2.87-10.56,0-21.12,0-31.68,0-.69,0-1.38-.07-2.47-.13Zm51.47-45.87h27.51c-4.55-11.58-9.01-22.94-13.48-34.3-.18,0-.36.01-.55.02-4.47,11.36-8.93,22.71-13.48,34.28Z"/>
  <path d="m305.27,590.05v26.53c-1.24,0-2.43,0-3.62,0-7.55,0-15.11,0-22.66,0-2.27,0-3.02.73-3.01,2.91.02,4.92.08,9.85.13,14.77,0,.32.05.64.09,1.15.71,0,1.34,0,1.98,0,15.55,0,31.09,0,46.64,0,2.07,0,4.15-.06,6.22,0,1.51.05,2.26.91,2.25,2.45-.01,7.94-.01,15.87-.02,23.81,0,1.36-.62,2.2-2.03,2.28-.98.06-1.96.03-2.94.03-27.21,0-54.42-.03-81.62.03-5.02.01-5.36.09-5.35-5.37.06-37.5.1-74.99.15-112.49,0-1.03.12-2.05.19-3.16h87.2v28.2c-.69,0-1.33,0-1.97,0-15.66-.01-31.31-.02-46.97-.03-3.32,0-4.01.77-3.98,4.07.05,4.86.01,9.72.01,14.81h29.3Z"/>
</svg>