<?xml version="1.0" encoding="UTF-8"?>
<svg id="Capa_1" data-name="Capa 1" xmlns="http://www.w3.org/2000/svg" fill="#fff" viewBox="0 0 1895 360.16">
  <path d="m1735.74,111.35c-14.48-5.98-30.16-8.37-45.85-7.17h-2.41c-14.48,0-30.16,1.2-44.64,4.78-2.41,0-3.62,2.39-3.62,4.78v22.71c0,2.39,1.21,3.59,4.83,3.59,13.27-2.39,26.54-3.59,39.81-3.59h1.21c12.06-1.2,25.34,1.19,36.19,5.98,7.24,4.78,10.86,13.15,10.86,28.69v4.78c-13.27-2.39-25.34-3.59-38.61-3.59h-3.62c-19.3-1.2-38.61,4.78-54.29,16.73-10.86,10.76-16.89,25.1-15.68,40.64v1.19c0,34.66,24.13,56.18,73.6,56.18h8.45c18.1,0,34.99-4.78,49.47-14.34,13.27-10.76,18.1-26.3,18.1-51.4v-50.2c1.21-34.66-13.27-51.4-33.78-59.76h0Zm-3.62,109.97c0,13.15,0,21.51-4.83,26.3-7.24,5.98-16.89,9.56-26.54,8.37h-6.03c-22.92,0-36.19-9.56-36.19-26.3,0-7.17,2.41-14.35,8.45-19.13,8.45-5.98,19.3-8.37,28.95-7.17h3.62c10.86,0,22.92,1.19,33.78,3.59v14.34h-1.21Zm159.26-117.14h-20.51c-28.96,0-51.88,9.56-62.74,31.08-4.83,10.76-7.24,22.71-6.03,34.66v111.16c0,1.19,1.21,3.59,2.41,3.59h31.37c1.21,0,3.62-1.19,3.62-2.39v-94.43c0-9.56,0-19.13,1.21-28.69,1.21-15.54,10.86-22.71,33.78-22.71h16.89c1.21,0,3.62-1.2,3.62-2.39v-26.3c0-2.39-1.21-3.59-3.62-3.59,1.21,0,0,0,0,0h0Zm-733.54,180.49h32.58c2.41,0,3.62-1.2,4.82-3.59,21.72-40.64,54.29-108.77,56.71-170.93,0-1.2-1.21-3.59-2.41-3.59h-32.58c-3.62,0-4.83,1.2-4.83,4.78-1.21,23.91-6.03,49.01-13.27,71.72-7.24,22.71-15.68,44.23-25.34,64.55-9.65-20.32-18.1-41.84-25.34-64.55-7.24-23.91-12.06-47.81-13.27-72.91,0-3.59-2.41-3.59-4.83-3.59h-31.37c-3.62,0-3.62,1.2-3.62,4.78,4.82,60.96,22.92,107.58,56.7,169.73,1.21,2.39,3.62,3.59,6.03,3.59h0Zm246.12-80.09c8.45,3.59,15.68,5.98,22.92,8.37,18.1,5.98,25.34,10.76,25.34,21.51,0,13.15-12.07,21.52-38.61,21.52h-1.21c-15.68,0-31.37-2.39-47.05-7.17-3.62-1.19-4.83,0-4.83,3.59v22.71c0,2.39,0,4.78,3.62,5.98,16.89,4.78,33.78,7.17,50.67,7.17h1.21c47.05,0,72.39-20.32,72.39-53.79h0c0-11.95-3.62-23.91-12.06-32.27-10.86-9.56-24.13-16.73-38.61-20.32-9.65-3.59-16.89-5.98-24.13-8.37-15.68-5.98-19.3-10.76-19.3-17.93,0-13.15,13.27-17.93,32.58-17.93h1.21c14.48,0,28.96,1.2,43.43,4.78,3.62,0,4.83,0,4.83-3.59v-22.71c0-3.59-1.21-3.59-3.62-4.78-14.48-2.39-28.96-4.78-43.43-4.78h-2.41c-19.3-1.19-37.4,3.59-53.08,14.34-10.86,9.56-15.68,22.71-15.68,35.86v1.19c-1.21,11.95,3.62,23.91,13.27,32.27,10.86,5.98,21.72,10.76,32.57,14.34Zm188.21,80.09c1.21,0,3.62-1.2,3.62-2.39v-26.3c0-1.2-1.21-3.59-2.41-3.59h-6.03c-8.44,1.2-16.89-1.2-24.13-7.17-6.03-8.37-8.45-19.13-7.24-28.69v-76.5h33.78c1.21,0,3.62-1.2,3.62-2.39v-26.3c0-1.19-1.21-3.59-2.41-3.59h-34.99v-32.27c0-1.19-1.21-3.59-2.41-3.59h-31.37c-1.21,0-3.62,1.2-3.62,2.39v143.43c0,25.1,4.83,40.64,15.68,51.4,14.48,10.76,31.37,16.73,49.47,15.54h8.45ZM807.96,104.18h-9.65c-26.54,0-44.64,7.17-53.09,17.93h0c-8.45-10.76-27.75-17.93-54.29-17.93h-8.45c-30.16,0-54.29,10.76-63.94,31.08-4.83,10.76-7.24,22.71-6.03,34.66v109.97c0,1.19,1.21,3.59,2.41,3.59h31.37c1.21,0,3.62-1.2,3.62-2.39v-93.23c0-9.56,0-19.13,1.21-28.69,1.21-15.54,13.27-22.71,34.99-22.71h2.41c21.72,0,33.78,7.17,36.19,22.71,1.21,9.56,1.21,19.12,1.21,28.69v92.04c0,1.2,1.21,3.59,2.41,3.59h31.37c2.41,0,3.62-2.39,3.62-4.78v-92.04c0-9.56,0-19.12,1.21-28.69,1.21-15.54,13.27-22.71,36.19-22.71h2.41c21.72,0,33.78,7.17,34.99,22.71,1.21,9.56,1.21,19.13,1.21,28.69v92.04c0,1.19,1.21,3.59,2.41,3.59h31.37c2.41,0,3.62-2.39,3.62-4.78v-109.97c1.21-11.95-1.21-23.91-6.03-34.66-7.24-19.13-32.58-28.69-62.74-28.69h0Zm260.6,139.85c8.45-32.27,8.45-65.74,0-98.01-9.65-31.08-33.78-43.03-73.59-43.03h-4.83c-39.81,0-63.94,11.95-73.6,43.03-8.45,32.27-8.45,65.74,0,98.01,9.65,31.08,33.78,43.03,73.6,43.03h4.83c39.81,0,63.94-11.95,73.59-43.03Zm-33.78-22.71c-2.41,28.69-18.1,33.47-41.02,33.47h-1.21c-22.92,0-38.61-4.78-41.02-33.47-1.21-8.37-1.21-17.93-1.21-26.3,0-9.56,1.21-16.73,1.21-26.3,2.41-28.69,18.1-33.47,41.02-33.47h1.21c22.92,0,38.61,4.78,41.02,33.47,1.21,8.37,1.21,17.93,1.21,26.3,0,10.76-1.21,17.93-1.21,26.3Zm283.52-113.55h-30.16c-1.21,0-3.62,1.19-3.62,2.39v170.93c0,1.2,1.21,3.59,2.41,3.59h31.37c1.21,0,3.62-1.2,3.62-2.39V111.35c0-3.59-1.21-3.59-3.62-3.59Z"/>
  <path d="m94.17,38.44c-22.92,0-65.15,11.95-85.66,90.84C-1.14,166.33-2.35,204.58,3.69,241.64c6.03,31.08,14.48,62.16,26.54,92.04,2.41,5.98,6.03,11.95,10.86,16.73,7.24,8.37,20.51,11.95,31.37,8.37,7.24-3.58,15.68-11.95,12.07-31.08-2.41-10.76-4.83-21.51-8.45-31.08-8.45-22.71-14.48-47.81-18.1-71.72-1.21-27.49,9.65-29.88,16.89-32.27,12.06-2.39,21.72,10.76,31.37,26.3,10.86,19.13,31.37,53.79,47.05,80.08,16.89,29.88,48.26,49.01,83.25,47.81,43.43-1.19,74.8-17.93,91.69-69.33,9.65-33.47,20.51-65.74,33.78-96.82,15.68-33.47,36.19-52.59,54.29-46.61,15.68,4.78,20.51,20.32,20.51,44.23,0,20.32-2.41,43.03-3.62,59.76-1.21,8.37-2.41,16.73-1.21,25.1,0,13.15,8.45,25.1,21.72,28.69,15.68,1.19,30.16-9.56,33.78-25.1,2.41-7.17,3.62-14.34,4.83-21.51,4.83-28.69,6.03-58.57,3.62-88.45-2.41-37.05-9.65-72.91-24.13-106.38C458.53,20.51,438.02,1.38,411.48.19c-30.16-2.39-63.94,17.93-82.04,54.98-16.89,34.66-30.16,70.52-37.4,88.45-6.03,16.73-20.51,29.88-38.61,32.27-22.92,2.39-42.23-14.34-55.5-37.05-14.48-25.1-30.16-49.01-49.47-70.52-10.86-19.12-31.37-31.08-54.29-29.88h0Z"/>
</svg>