<?xml version="1.0" encoding="UTF-8"?>
<svg id="Capa_1" data-name="Capa 1" xmlns="http://www.w3.org/2000/svg" viewBox="0 0 596.95 448.32">
  <defs>
    <style>
      .cls-1 {
        fill: #fff;
      }
    </style>
  </defs>
  <path class="cls-1" d="m52.53,340.16c35.82,0,52.53,22.87,52.53,44.57v48.1h-22.67v-48.08c0-13.72-7.96-35.9-29.86-35.9s-29.9,22.13-29.9,35.9v48.1H0v-48.1c0-21.9,16.64-44.57,52.53-44.57"/>
  <path class="cls-1" d="m364.55,434.45c-35.89,0-52.53-22.86-52.53-44.63v-48.2h22.64v48.2c0,13.72,7.96,35.9,29.9,35.9s29.86-22.14,29.86-35.9v-48.2h22.66v48.2c0,21.9-16.64,44.63-52.49,44.63"/>
  <path class="cls-1" d="m196.6,426.33c-5.31,4.16-11.63,6.85-18.31,7.82-22.86,3.61-54.87-11.43-56.11-44.81-1.19-34.11,32.43-48.55,54.37-47.96,37.04,1,50.3,28.94,50.3,44.85v46.64h-22.88v-46.43c0-10.11-4.57-36.12-28.07-36.61-23.5-.49-30.32,20.69-30.37,36.61,0,10.11,2.15,35.12,28.58,36.61,8.09.45,19.61-1.78,22.63-4.57l-.16,7.85Z"/>
  <path class="cls-1" d="m298.05,446.57c-6.76,2.14-13.99,2.31-20.85.5-10.61-2.75-28.3-7.55-28.3-44.22v-101.29h22.86v40.24h21.08v14.22h-21.08s.55,28.49,0,51.53c-.45,20.54,5.81,27.44,10.29,29.86,5.04,2.04,10.61,2.39,15.86,1l.14,8.14Z"/>
  <path class="cls-1" d="m438.53,381.76c0-22.54,11.66-38.45,32.01-40.51,14.45-1.46,19.67,1.23,19.67,1.23v9.15c-5.27-1.25-10.77-1.11-15.96.41-9.15,2.85-12.99,16.99-12.99,21.76v59.44h-22.86l.14-51.48Z"/>
  <path class="cls-1" d="m566.79,426.33c-5.32,4.15-11.63,6.85-18.31,7.82-22.86,3.61-54.87-11.43-56.06-44.81-1.33-34.23,32.28-48.55,54.24-47.92,37.04,1.01,50.3,28.95,50.3,44.86v46.6h-22.84v-46.43c0-10.11-4.58-36.12-28.08-36.61-23.5-.49-30.32,20.69-30.36,36.61,0,10.11,2.19,35.12,28.57,36.61,8.14.45,19.62-1.78,22.64-4.57l-.1,7.85Z"/>
  <path class="cls-1" d="m284.88,38.92c-8.69,16.78-18.84,52.81-18.84,52.81,0,0-.92,2.7-2.75-.41-1.23-2.01-15.68-21.72-22.86-30.59-8.37-10.2-45.5-49.35-88.16-27.17-38.41,20.17-23.69,69.1-11.89,87.56,7.16,11.14,20.99,28.65,24.92,33.52.68.87.5,1.19-.6.92-3.29-.87-11.88-3.18-27.44-7.16-14.08-3.61-27.71-3.06-31.77,3.02-2.88,4.58-4.58,11.25,1.05,21.63,11.29,20.34,42.38,52.68,93.46,63.24,1.01,0,.92,1,0,2.52-2.51,4.11-2.22,9.36.73,13.17,7.64,9.15,16.05,12.49,49.94,18.31,47.1,8.09,63.68-7.86,65.62-9.92.17-.11.38-.11.55,0,24.38,5.73,49.97,3.36,72.89-6.73,32.79-13.71,45.31-26.57,45.73-34.34s-16.92-6.18-21.99-7.51c-1.59-.41-1.1-1.09,0-1.69,2.33-1.46,8.09-3.84,12.74-6.26s52.68-26.57,62.14-67.4c9.46-40.83-27.48-41.2-47.38-32.66-19.9,8.54-38.64,17.83-42.85,19.8-.68.33-.87,0-.59-.64,5.29-12.83,9.57-26.05,12.8-39.55,4.16-19.39,2.24-72.43-50.3-82.31-3.8-.72-7.66-1.07-11.53-1.05-26.78.16-51.27,15.14-63.61,38.91m2.05,83.27c4.12-11.66,5.57-17.65,12.39-40.15,8.51-28.03,26.98-49.98,56.75-41.15,34.89,10.65,26.75,45.73,21.12,60.22-4.58,11.52-8.09,23.32-15.59,42.43-5.95,15.51,6.86,15.96,13.71,14.45,7.82-1.78,30.5-13.44,44.72-20.11,10.56-4.85,30.09-16.65,41.15-5.21,11.06,11.44-1.37,31.27-14.63,43.16-13.26,11.89-48.55,26.7-59.44,31.04s-14.96,10.56-9.61,13.95,20.94,6.08,25.61,6.68c3.89.45,7.68,1.46,7.68,4.15,0,3.39-9.15,10.35-30.68,17.61-14.45,4.51-29.66,6.07-44.72,4.58-18.74-3.48-21.72-6.5-30.45-3.18-6.5,2.61-7.04,7.82-16.51,11.57-9.46,3.75-23.41,2.97-34.11,1.14-10.71-1.83-29.35-3.57-31.27-12.11-.8-3.43,2.92-5.53,6.03-9.15s5.81-10.01-7.68-12.89c-3.61-.73-40.93-6.72-64.02-18.31s-32.01-30.09-29.77-36.61c1.97-5.26,7.23-5.76,14.33-4.57,8.18,1.55,43.94,11.29,54.87,11.43,4.57,0,7.91-.87,9.46-3.61,4.25-7.41-8.76-16.33-19.48-29.32-15.46-18.31-44.86-49.06-22.87-76.5,14.68-18.31,43.58-6.31,55.65,7.64,9.15,10.75,25.24,32.63,37.59,47.42,3.53,4.95,9.06,8.09,15.12,8.6,6.18,0,11.8-4.57,14.96-13.71"/>
</svg>