<?xml version="1.0" encoding="UTF-8"?>
<svg id="Capa_1" data-name="Capa 1" xmlns="http://www.w3.org/2000/svg" fill="#fff" viewBox="0 0 1062.43 960.34">
  <path d="m493.43,577.45c-67.05-68.68-134.32-137.6-203.23-208.2-69.29,71.2-136.64,140.39-203.99,209.6-30.03-30.92-56.77-58.45-82.85-85.31,65.5-66.74,133.11-135.63,200.11-203.91C136.06,221.22,68.07,152.21,1.11,84.25,27.83,56.69,54.4,29.27,82.76,0c67.97,69.82,135.3,138.97,203.74,209.27C358.23,138.14,426.75,70.19,495.48,2.02c26.93,28.1,53.51,55.82,79.61,83.05-64.96,66.3-132.56,135.3-199.36,203.48,66.54,67.71,134.21,136.57,200.97,204.52-26.74,27.1-53.73,54.45-83.27,84.39Z"/>
  <path d="m157.02,821.78v-131.46h66.8v270.02c-7.19-3.81-13.41-5.65-17.7-9.59-41.94-38.59-83.56-77.54-125.28-116.38-4.21-3.92-8.5-7.77-13.9-12.71v131.25H0v-269.39c6.84,3.37,13.26,4.95,17.53,8.87,41.97,38.56,83.58,77.51,125.3,116.34,4.29,3.99,8.63,7.93,14.19,13.05Z"/>
  <path d="m848.34,709.2c-10.92,18.32-21.04,35.32-31.72,53.25-23.5-15.74-48.74-20.73-75.64-13.09-14.55,4.13-26.39,12.87-34.89,25.55-20.14,30.04-16.92,76.12,5.99,101.87,17.59,19.77,65.31,32.45,108.46,3.36,10.33,15.99,20.65,31.97,31.48,48.73-17.91,14.38-38.29,22.17-60.15,25.9-40.87,6.97-80.43,2.65-115.2-21.18-46.63-31.97-60.49-79.23-53.51-132.58,9.73-74.36,66.75-118.23,145.74-114.92,27.89,1.17,54.28,7.48,79.44,23.12Z"/>
  <path d="m256.62,863.36c-.3-56.68,47.99-101.05,112.76-93.89,48.84,5.4,81.07,35.07,86.96,76.84,9.46,67.09-33.32,116.02-108.38,110.74-49.57-3.49-80.99-30.93-89.48-75.08-1.17-6.1-1.27-12.4-1.87-18.61Zm135.99-.14c.04-22.96-12.25-39.91-30.5-42.05-20.92-2.45-36.04,10.14-39.9,33.23-4.07,24.36,8.21,46.79,27.75,50.61,1.43.28,2.91.33,4.37.41,22.9,1.27,38.23-15.63,38.28-42.2Z"/>
  <path d="m860.75,863.45c1.42-58.83,52.09-101.62,112.53-94.26,48.92,5.96,82.53,35.57,87.97,77.24,9.71,74.46-41.3,116.49-110.73,110.48-40.74-3.53-70.92-22.89-84.17-63.33-3.15-9.62-3.79-20.07-5.59-30.14Zm136.82.15c.09-22.49-11.6-39.48-29.11-42.32-20.95-3.39-37.67,9.81-41.47,32.75-4.02,24.26,8.37,47.22,27.51,50.93,1.07.21,2.19.22,3.28.31,23.53,2.07,39.69-14.86,39.8-41.67Z"/>
  <path d="m559.62,716.32v56.25h33.17v43.94h-33.15c0,7.21,0,13.25,0,19.29,0,16.18-.16,32.36.05,48.53.18,13.49,5.3,18.46,18.81,18.77,6.17.14,12.34.02,20.07.02-5.23,17.51-10.04,33.59-15.45,51.67-18.08-1.15-36.53-.9-54.46-3.85-20.83-3.43-32.13-20.09-32.6-44.91-.48-24.99-.13-50-.14-75,0-4.01,0-8.02,0-13.24-7.02-.35-13.45-.68-20.34-1.03-2.58-11.02-1.81-20.01,7.18-28.82,20.72-20.31,40.13-41.96,60.5-62.64,3.53-3.59,9.15-5.13,16.35-8.98Z"/>
</svg>