<?xml version="1.0" encoding="UTF-8"?>
<svg id="Capa_1" data-name="Capa 1" xmlns="http://www.w3.org/2000/svg" viewBox="0 0 545.2 239.23">
  <defs>
    <style>
      .cls-1 {
        fill: #fff;
      }
    </style>
  </defs>
  <path class="cls-1" d="m0,235.71c2.74-2.27,5.78-4.5,8.45-7.1,3.26-3.16,5.53-6.99,6.9-11.41C35.64,151.8,55.97,86.4,76.29,21c2.15-6.9,1.01-12.87-4.95-17.49-.14-.11-.23-.28-.49-.62.79-.04,1.41-.09,2.03-.09,34.52,0,69.04-.06,103.56.03,11.27.03,22.19,2.11,32.52,6.76,19.42,8.75,28.86,23.9,27.95,45.15-.55,12.83-4.48,24.82-9.99,36.3-10.98,22.89-29.05,38.06-52.36,47.37-15.6,6.23-31.89,9.43-48.61,10.09-9.17.36-18.37-.16-27.56-.4-1.38-.04-1.92.26-2.32,1.56-7.08,22.88-14.22,45.75-21.33,68.63-2.21,7.1.47,13.41,7.11,16.91.16.09.34.14.31.51H0Zm102.27-105.9c5.86,1.34,11.51,1.4,17.16.57,14.51-2.13,25.88-9.54,34.85-20.88,8.22-10.4,13.17-22.39,16.87-34.97,2.9-9.86,5.05-19.83,4.31-30.21-.94-13.24-8.15-21.27-21.29-22.94-5.28-.67-10.68-.29-16.02-.51-1.53-.06-2.13.5-2.56,1.91-7.79,25.12-15.63,50.23-23.45,75.34-3.27,10.5-6.53,21-9.86,31.7Z"/>
  <path class="cls-1" d="m545.2,10.41c-3.25,10.42-6.43,20.6-9.71,31.09-.75-.61-1.38-1.12-2-1.63-8.86-7.34-18.52-13.28-29.5-16.96-18.24-6.1-35.49-3.87-51.77,6.2-12.72,7.87-22.52,18.7-30.93,30.88-12.9,18.69-21.67,39.27-27.69,61.09-4.59,16.62-8.39,33.37-8.91,50.69-.26,8.71.42,17.33,3.27,25.65,5.12,14.95,16.47,23.24,32.28,23.4,3.5.04,7.01-.56,10.52-.81,1.61-.11,2.28-.95,2.74-2.45,7.02-22.77,14.11-45.52,21.18-68.27,1.3-4.17,2.61-8.32,3.9-12.49,2.64-8.56-.31-15.7-8.22-19.9-.55-.29-1.1-.6-2.09-1.13h90.06c-1.91.92-3.55,1.65-5.13,2.49-7.33,3.89-12.15,9.82-14.61,17.76-8.58,27.67-17.25,55.32-25.83,82.99-.43,1.39-1.16,2.15-2.44,2.75-21.71,10.3-44.44,16.55-68.54,17.31-18.47.58-36.21-2.68-53.06-10.48-15.68-7.27-25.75-19.56-31.89-35.36-5.59-14.4-7.37-29.43-6.69-44.73,1.51-34.07,11.12-65.55,32.52-92.46,24.18-30.43,55.88-48.61,94.52-54.23,28.94-4.21,57.23-.79,85.05,7.66.93.28,1.85.59,2.98.94Z"/>
  <path class="cls-1" d="m353.5,235.79h-29.16c-8.03,0-16.06-.09-24.08.06-2.4.05-4.37-.6-6.11-2.05-5.41-4.51-10.76-9.08-16.13-13.63-.64-.54-1.23-1.14-1.81-1.68-4.11,2.52-8.03,5.08-12.1,7.39-10.5,5.95-21.54,10.58-33.55,12.47-10.48,1.65-20.85,1.03-30.94-2.29-19.41-6.39-30.77-23.46-30.05-44.7.58-17.18,8.72-30.2,22.09-40.37,9.61-7.31,20.53-12.05,31.82-16.06,3.01-1.07,6-2.2,9.04-3.18,1.37-.44,1.71-1.13,1.65-2.54-.61-13.56,1.02-26.81,5.97-39.52,7.45-19.17,21.53-30.28,41.72-33.59,9.39-1.54,18.49-.26,26.92,4.41,13.46,7.45,18.33,21.97,12.14,36.02-2.76,6.26-7.02,11.4-12.05,15.96-7.86,7.12-16.99,12.28-26.45,16.9-4.39,2.14-8.79,4.29-13.26,6.27-1.59.71-1.81,1.58-1.54,3.15,2.32,13.41,7.41,25.73,14.5,37.28,2.01,3.27,4.12,6.48,6.29,9.9,3.61-4.64,5.69-9.7,6.85-15.17.31-1.46.5-2.96.66-4.45.55-4.93-1.13-8.95-5.33-12.21h29.35c-.67,8.71-2.63,17.01-6.3,24.88-3.68,7.89-9.09,14.56-15.2,21.16,15.92,15.77,34.5,27.09,55.07,35.6Zm-89.63-30.21c-12.29-17.12-21.13-35.7-26.61-55.86-7.69,2.96-21.57,12.02-28.29,23.38-3.61,6.09-5.16,12.58-4.51,19.63,1.03,11.05,7.34,18.95,18.11,21.65,3.91.98,8.15,1.37,12.17,1.06,10.44-.8,19.91-4.83,29.12-9.87Zm.64-85.05c1.45-.89,2.57-1.5,3.61-2.23,8.52-5.96,16.04-12.98,21.88-21.59,2.5-3.68,4.43-7.8,6.23-11.88,1.4-3.18,1.77-6.65,1.05-10.16-.62-3.03-2.38-4.99-5.35-5.87-3.65-1.08-6.98-.15-10.11,1.7-4.21,2.49-7.23,6.14-9.71,10.26-6.32,10.53-8.22,22.09-7.89,34.16.05,1.73.17,3.46.28,5.6Z"/>
</svg>