<?xml version="1.0" encoding="UTF-8"?>
<svg id="Capa_1" data-name="Capa 1" xmlns="http://www.w3.org/2000/svg" viewBox="0 0 836.52 147.15">
  <defs>
    <style>
      .cls-1 {
        fill: #fff;
      }
    </style>
  </defs>
  <path class="cls-1" d="m76.35,136.89c3.78-6.21,5.58-13.13,4.95-20.64-.46-5.46-2.26-10.46-5.01-15.19-6.24-10.78-12.49-21.55-18.54-32.44-6.25-11.26-6.14-22.65-.04-33.99.14-.26.28-.52.45-.76.08-.11.22-.18.01-.02,8.34,18.11,19.36,34.82,28.93,52.33,3.03,5.54,6.76,10.75,8.11,17.61,3.14-4.94,4.81-9.85,5.3-15.15.69-7.5-.98-14.46-4.77-20.99-6.36-10.97-12.74-21.92-18.85-33.03-5.93-10.79-5.91-21.82-.37-32.82.35-.69.78-1.33,1.06-1.8,7.41,17.1,17.82,32.53,26.75,48.75,2.99,5.43,5.49,10.9,5.99,17.17.04.55,1.01,1.3,1.68,1.5,8.09,2.4,15.89,5.43,23.06,9.94,5.16,3.24,9.81,7.07,13.44,12.03,7.29,9.98,7.34,21.23.04,31.18-5.94,8.11-14.17,13.22-23.17,17.21-13.25,5.87-27.24,8.59-41.64,9.21-16.64.72-33-.98-48.78-6.63-9.66-3.46-18.69-8.07-25.97-15.52C3.33,119.05-.32,112.34.02,103.93c.24-5.84,2.49-10.88,6.03-15.38,6.69-8.5,15.74-13.65,25.57-17.59,3.75-1.5,7.63-2.66,11.72-4.07.22,2.46.07,4.65.66,6.62,1.26,4.2,2.38,8.57,4.47,12.38,7.26,13.25,14.98,26.24,22.38,39.41,2.08,3.7,3.66,7.67,5.5,11.59Z"/>
  <path class="cls-1" d="m684.83,66.11c0-7.41.09-14.56-.06-21.7-.04-1.91.62-2.66,2.34-2.9,4.35-.6,8.71-1.23,13.31-1.89v102.47h-14.45c-.28-2.86-.54-5.61-.85-8.72-.51.55-.82.82-1.04,1.14-4.22,6.25-10.29,9.11-17.62,9.41-16.02.64-27.32-7.44-31.76-22.88-2.96-10.29-2.99-20.72-.07-31,3.93-13.86,13.57-21.45,27.48-23.99,6.88-1.25,13.78-1.29,20.68-.09.57.1,1.16.09,2.04.15Zm0,13.71c-5.32-.3-10.46-1.04-15.56-.79-8.28.42-14.79,4.27-17.89,12.26-3.63,9.35-3.57,18.93-.03,28.31,2.37,6.29,7.17,10.02,13.86,10.95,6.43.89,12.45-.4,17.92-4.05,1.22-.82,1.75-1.69,1.74-3.21-.08-8.78-.04-17.55-.04-26.33v-17.13Z"/>
  <path class="cls-1" d="m185.29,124.74c6.12,1.56,11.61,3.24,17.21,4.32,6.55,1.26,13.21,1.34,19.77-.21,6.53-1.55,10.2-5.01,10.85-10.41.6-5-1-9.35-5.18-12.19-3.88-2.63-8.07-4.84-12.26-6.96-5.13-2.58-10.52-4.64-15.58-7.34-7.24-3.86-13.03-9.23-15.14-17.55-3.33-13.17.19-28.85,19.11-33.8,2.63-.69,5.33-1.25,8.03-1.46,10.68-.83,21.21.03,31.45,3.39.54.18,1.07.41,1.96.77-.94,4.79-1.86,9.52-2.72,13.92-6.13-1.19-11.79-2.5-17.51-3.33-5.11-.74-10.3-.79-15.37.63-4.52,1.27-8.12,3.66-9.25,8.53-1.18,5.11.15,9.67,4.32,12.87,3.07,2.35,6.52,4.27,9.99,6,5.66,2.82,11.54,5.22,17.21,8.02,2.56,1.26,4.92,2.96,7.23,4.66,13.99,10.28,12.4,29.98,4.49,38.82-4.83,5.4-10.97,8.44-17.93,9.74-13.89,2.59-27.57,1.78-40.91-3.22-1.54-.58-2.25-1.29-1.91-3.05.81-4.15,1.45-8.32,2.11-12.17Z"/>
  <path class="cls-1" d="m730.08,111.01c.51,10.03,7.77,17.55,17.76,18.78,9.97,1.23,19.52-.49,28.81-4.08.67-.26,1.34-.53,2.47-.97-.85,4.83-1.6,9.31-2.49,13.77-.11.55-.88,1.15-1.48,1.38-13.43,5.18-27.05,5.81-40.62.85-9.99-3.65-16.09-11.21-18.89-21.34-2.84-10.24-2.85-20.58.06-30.8,4.11-14.43,14.73-22.8,29.98-23.32,4.87-.17,9.97.17,14.65,1.44,12.23,3.32,18.78,12.15,20.45,24.31.82,5.99.1,12.19.09,18.29,0,1.74-1.14,1.7-2.4,1.7-15.2-.02-30.39-.01-45.59-.01h-2.79Zm35.2-13.62c.67-11.03-6.29-18.7-16.89-18.86-11.03-.17-18.86,7.73-18.59,18.86h35.48Z"/>
  <path class="cls-1" d="m327.58,142.12h-14.6c-.31-2.7-.61-5.31-.92-7.93-.21.05-.41.03-.47.12-5.98,8.49-14.54,10.57-24.2,9.39-13.26-1.62-21.38-9.51-25.24-21.93-3.25-10.45-3.27-21.11-.33-31.63,3.85-13.77,13.37-21.57,27.19-24,12.38-2.18,24.66-1.11,36.72,2.47,1.32.39,1.88.9,1.87,2.38-.05,23.15-.04,46.31-.04,69.46v1.67Zm-15.96-62.37c-6.45-.93-12.66-1.5-18.88-.04-6.97,1.64-11.95,5.76-14.38,12.48-3.28,9.05-3.21,18.24.16,27.26,2.09,5.6,6.13,9.37,12.04,10.7,6.93,1.56,13.46.42,19.47-3.48,1.18-.76,1.63-1.63,1.62-3.06-.07-9.96-.03-19.91-.03-29.87v-14Z"/>
  <path class="cls-1" d="m538.36,142.13h-14.49c-.29-2.61-.58-5.21-.88-7.94-.36.21-.59.26-.7.41-5.97,8.27-14.44,10.32-23.89,9.1-13.99-1.81-22.88-10.41-26.24-25.23-2.32-10.25-2.15-20.53,1.28-30.54,4.31-12.57,13.61-19.52,26.37-21.78,12.45-2.2,24.8-1.13,36.94,2.47,1.27.38,1.73.93,1.73,2.29-.04,23.3-.03,46.6-.04,69.89,0,.36-.05.73-.09,1.33Zm-15.87-62.37c-5.59-.89-10.99-1.31-16.44-.52-9.11,1.32-15.04,6.42-17.59,15.21-2.16,7.46-2.06,15.03.07,22.48,2.14,7.51,6.9,12.47,14.87,13.61,6.1.87,11.86-.3,17.16-3.61,1.4-.87,1.99-1.8,1.98-3.52-.08-13.79-.05-27.58-.05-41.36v-2.3Z"/>
  <path class="cls-1" d="m555.95,68.99c4.97-.9,10.01-1.94,15.09-2.71,9.98-1.52,19.97-1.89,29.87.6,12.16,3.07,18.7,10.89,18.87,23.42.24,17.18.06,34.36.06,51.73h-15.93c0-.78,0-1.63,0-2.48,0-14.23,0-28.47-.01-42.7,0-1.84,0-3.7-.26-5.51-1.1-7.4-4.62-10.86-12.02-11.99-6.2-.94-12.35-.39-18.51.44-1.7.23-1.41,1.38-1.41,2.45,0,14.83,0,29.65,0,44.48v15.37h-15.74v-73.09Z"/>
  <path class="cls-1" d="m345.04,68.99c4.97-.9,10-1.92,15.07-2.71,9.46-1.47,18.95-1.82,28.38.22,9.14,1.98,16.35,6.44,19.09,15.99.82,2.88,1.34,5.94,1.36,8.93.14,16.6.08,33.2.08,49.8,0,.21-.06.43-.13.82h-15.8v-2.59c0-14.24,0-28.48-.01-42.72,0-1.62-.07-3.25-.26-4.85-.9-7.65-4.41-11.3-11.99-12.5-6.27-.99-12.5-.43-18.73.43-1.62.22-1.26,1.34-1.26,2.3-.01,13.06,0,26.12,0,39.18v20.75h-15.79v-73.05Z"/>
  <path class="cls-1" d="m440.93,39.62v28h25.19c-.5,4.44-.92,8.65-1.52,12.84-.05.38-1.24.85-1.9.85-6.27.07-12.54.04-18.8.04-.88,0-1.76,0-3.01,0,0,.89,0,1.67,0,2.44,0,10.77,0,21.53,0,32.3,0,1.11,0,2.21.08,3.32.46,6.71,4.36,10.55,11.08,10.75,2.2.06,4.42-.11,6.61-.42,2.18-.3,4.31-.9,6.91-1.47-.46,3.59-1.07,7.03-1.29,10.49-.17,2.56-1.51,3.43-3.77,3.98-6.5,1.57-13,1.76-19.49.2-9.63-2.32-15.38-9.7-15.98-20.27-.1-1.84-.11-3.69-.12-5.53,0-24.11.02-48.23-.05-72.34,0-2.01.57-2.91,2.56-3.17,4.36-.57,8.7-1.28,13.49-2.01Z"/>
  <path class="cls-1" d="m811.2,142.11h-15.91v-72.97c13.31-4.05,26.9-4.72,41.22-3.43-.45,4.56-.88,9.03-1.33,13.64h-23.99v62.76Z"/>
</svg>