<?xml version="1.0" encoding="UTF-8"?>
<svg id="Capa_1" data-name="Capa 1" xmlns="http://www.w3.org/2000/svg" viewBox="0 0 447.03 163.13">
  <defs>
    <style>
      .cls-1, .cls-2 {
        fill: #fff;
      }

      .cls-2 {
        fill-rule: evenodd;
      }
    </style>
  </defs>
  <path id="path4" class="cls-2" d="m292.25,116.02V30.46c0-29.08,30.52-35.33,52.39-27.16v16.34c-14.9-6.01-31.72-4.81-31.72,14.18h24.27v16.34h-24.27v65.61l-20.67.24Z"/>
  <path id="path6" class="cls-2" d="m389.1,21.09h15.14l3.12,12.74h18.99v16.34h-16.58v37.97c0,7.69,3.36,11.3,9.85,11.3h10.33v16.34h-20.43c-13.7,0-20.43-7.21-20.43-21.87V21.09Z"/>
  <rect id="rect8" class="cls-1" x="352.81" y="33.82" width="20.43" height="81.71"/>
  <rect id="rect10" class="cls-1" x="352.81" y="4.26" width="20.43" height="16.82"/>
  <path id="path12" class="cls-2" d="m447.03,115.78c-18.03,28.36-49.75,47.35-86.04,47.35s-68.02-18.99-86.04-47.35c21.15,19.47,51.91,31.72,86.04,31.72s64.89-12.26,86.04-31.72"/>
  <path id="path14" class="cls-1" d="m2.64,96.79v-11.06c6.01,2.4,12.74,3.61,20.43,3.61,5.77,0,8.65-1.92,8.65-5.53,0-3.36-1.92-5.05-5.77-5.05h-9.61c-11.06-.24-16.34-5.53-16.34-16.34s7.93-16.82,23.79-16.82c6.73,0,12.98.96,18.99,3.12v11.06c-6.01-2.4-12.26-3.61-19.23-3.61s-10.82,1.92-10.82,5.53c0,3.36,2.16,5.05,6.25,5.05h8.65c11.78,0,17.78,5.29,17.78,16.34s-7.45,16.82-22.59,16.82c-7.69,0-14.42-.96-20.19-3.12m51.91,2.64v-53.35h10.33l1.68,6.73c6.01-4.57,12.26-6.73,18.27-6.73,6.73,0,11.54,2.4,14.18,7.21,6.73-4.81,13.22-7.21,19.23-7.21,11.3,0,16.82,6.73,16.82,20.19v32.93h-13.46v-33.65c0-6.01-2.4-8.89-7.45-8.89-4.09,0-8.17,2.4-12.5,6.97v35.57h-13.46v-33.17c0-6.01-2.4-9.13-7.45-9.13-4.33,0-8.41,2.4-12.74,6.97v35.57h-13.46Zm90.13-16.58c0-10.82,7.69-16.34,23.07-16.34,4.57,0,8.65.24,12.5.96v-3.61c0-4.81-4.57-7.21-13.94-7.21-5.77,0-11.54.96-17.3,2.64v-10.57c5.77-1.68,11.54-2.64,17.3-2.64,18.27,0,27.4,5.77,27.4,17.54v35.81h-6.73l-5.77-3.85c-4.57,2.4-9.61,3.85-14.9,3.85-14.42,0-21.63-5.53-21.63-16.58Zm35.57-5.29c-3.36-.72-7.45-.96-12.5-.96-6.49,0-9.61,1.92-9.61,6.01s2.64,6.01,8.17,6.01,10.09-1.44,13.94-4.09v-6.97Zm26.44,21.87v-53.35h10.33l1.68,6.73c4.57-4.57,9.61-6.73,14.9-6.73v10.82c-5.05,0-9.61,2.16-13.46,6.73v35.57h-13.46v.24Zm35.33-62.01h9.85l2.16,8.65h12.26v10.57h-10.82v24.51c0,5.05,2.16,7.45,6.49,7.45h4.57v10.57h-11.06c-8.89,0-13.46-4.81-13.46-14.42v-47.35Z"/>
</svg>