<?xml version="1.0" encoding="UTF-8"?>
<svg id="Capa_1" data-name="Capa 1" xmlns="http://www.w3.org/2000/svg" viewBox="0 0 387.03 246.63">
  <defs>
    <style>
      .cls-1 {
        fill: #fff;
      }
    </style>
  </defs>
  <path class="cls-1" d="m240.43,222.8h-2.26l-2.63,13.42h2.76c5.14,0,6.4-5.02,6.4-8.53-.13-2.63-1.13-4.89-4.27-4.89Z"/>
  <polygon class="cls-1" points="338.9 231.83 338.9 231.95 344.3 231.95 344.3 232.08 345.68 224.8 345.55 224.8 338.9 231.83"/>
  <path class="cls-1" d="m360.23,222.29c-2.26,0-3.76,1.63-3.64,4.39,0,1.63,1,2.51,2.89,2.51,1.38,0,2.89-.38,3.64-.88.13-.75.13-1.51,0-2.38,0-1.88-.75-3.64-2.89-3.64Z"/>
  <path class="cls-1" d="m279.32,233.96c0,1.88.63,2.76,2.26,2.76.88,0,1.88-.38,2.89-1.13h0l1.38-7.28c-.38-.38-1.13-.88-2.26-.88-2.76,0-4.27,2.89-4.27,6.52Z"/>
  <path class="cls-1" d="m327.86,222.29c-2.26,0-3.76,1.63-3.64,4.39.13,1.63,1.13,2.51,3.01,2.51,1.25,0,2.63-.38,3.51-.88,0-.75.13-1.51,0-2.38,0-2.01-.75-3.64-2.89-3.64Z"/>
  <path class="cls-1" d="m263.51,196.83c7.4.13,11.79-8.78,13.3-17.19v-.5c1.51-8.28.38-17.19-7.03-17.19-7.4-.13-11.79,8.78-13.3,17.19v.5c-1.51,8.28-.5,17.19,7.03,17.19Z"/>
  <path class="cls-1" d="m259.24,229.32c0-1.51-.88-2.38-2.13-2.38-1.63,0-2.76,1.38-3.14,3.51h5.14c.13-.38.13-.75.13-1.13Z"/>
  <path class="cls-1" d="m106.45,161.95c-7.4-.13-11.79,8.78-13.3,17.19v.25q-.13.13-.13.25c-1.51,8.28-.5,17.19,7.03,17.19,7.4.13,11.79-8.78,13.3-17.19v-.25s0-.13.13-.25c1.51-8.28.5-17.19-7.03-17.19Z"/>
  <path class="cls-1" d="m349.94,163.96c-4.14,3.39-6.4,9.16-6.77,10.16-.25.38-.25.88-.38,1.25,4.52-.38,16.68-2.13,17.69-9.53.63-5.02-4.77-6.52-10.54-1.88Z"/>
  <path class="cls-1" d="m298.26,226.94c-1.51,0-2.63,1.38-3.01,3.51h5.14c0-.38.13-.75,0-1.13,0-1.51-.88-2.38-2.13-2.38Z"/>
  <path class="cls-1" d="m139.94,18.32c0,5.14,4.14,9.66,4.14,9.66,4.52-14.05-4.14-16.18-4.14-9.66Z"/>
  <path class="cls-1" d="m380.3,146.4c-2.26-2.13-4.77-3.89-7.78-5.02-3.76-1.51-7.9-2.13-12.42-2.13-2.26,0-4.64.13-7.15.5-5.27.75-10.41,2.63-15.18,5.52l-3.51,2.13.75-4.01c.88-4.89,1.76-9.66,2.51-13.8l1.25-7.03c.5-2.76-.25-5.52-2.01-7.53-1.76-2.13-4.27-3.26-7.03-3.26h-20.07c-4.52,0-8.28,3.14-9.03,7.53l-5.39,29.48-2.38-1.76c-5.65-4.14-12.67-6.4-20.07-6.4h-1.13c-6.52.13-13.3,1.88-19.57,5.27l-1.38.75-1-1.25c-.63-.88-1.38-1.76-2.26-2.26-3.14-2.13-7.65-2.63-10.79-2.63-2.51,0-5.14.38-7.65,1.25h-25.47c-3.64,0-7.03,2.26-8.41,5.65l-1,2.26-1.88-1.63c-4.77-4.01-10.54-6.27-16.68-6.52h-2.01l-5.65.25,4.39-3.64c3.01-2.51,5.77-5.14,8.15-7.9,13.67-16.31,17.56-39.14,10.16-59.71-2.26-6.02-5.27-11.79-9.28-17.69-5.52-7.9-13.05-15.18-19.82-21.58l-.5-.5c-.38-.38-.88-.75-1.25-1.13l-.75-.75.25-1c.75-4.01,1.25-7.4.88-10.79-1-10.04-8.03-17.06-16.94-17.06h-.63c-8.91.38-15.43,7.53-16.06,17.31-.25,3.39.38,7.03,1.51,10.91l.5,1.38-2.26,1.38c-.63.38-1.38.75-1.51.88-5.65,3.64-7.9,5.14-12.17,8.28-7.9,5.39-14.55,11.04-20.32,17.19-4.01,4.39-7.53,9.28-10.54,14.43-7.28,12.67-9.78,26.97-7.03,40.27l.75,3.64-3.39-1.51c-6.52-2.89-14.55-4.64-22.08-4.64-8.41,0-16.31,2.13-22.83,6.02-9.16,5.65-15.81,15.05-17.69,25.34-1.63,8.78.38,17.31,5.52,23.96,1,1.38,2.26,2.63,3.51,4.01.38.25.75.75,1.25,1.13l.25.25c.13.13.25.25.38.38,1.63,1.63,2.13,3.14,2.13,3.14-1.25-.75-2.38-1.88-4.64-2.89-2.01-.75-4.27-.75-6.4.13-1.63.63-4.64,3.14-5.65,4.52-6.27,8.15-8.91,20.82-.63,30.61,5.65,6.77,12.8,9.66,16.43,10.91h.25c.88.25,1.63.38,2.26.63l.25.13c3.89.88,7.9,1.51,11.79,1.76h2.01c11.54,0,22.46-4.27,30.11-11.67l1.38-1.38,1.25,1.51c0,.13.13.13.13.25l.13.13c6.27,7.4,15.43,11.54,25.72,11.67h1c6.4-.13,13.17-1.88,19.19-5.02l3.39-1.76-4.01,22.58c-.5,2.76.25,5.39,2.01,7.53,1.76,2.13,4.39,3.26,7.03,3.26h19.44c4.52,0,8.28-3.14,9.03-7.53l3.51-19.19,1.76.25c1.63.25,3.26.38,4.77.38,4.64,0,9.28-.88,13.05-2.51,2.01-.88,4.01-1.88,5.9-3.14l1.38-.88,1.13,1.25c1.76,2.01,4.27,3.26,7.03,3.26h19.82c4.39,0,8.28-3.14,9.03-7.53l4.89-26.6s-1.88,13.42,8.28,24.71c2.01,2.26,6.27,5.52,6.27,5.52h-6.65c-2.63,0-4.89,1.88-5.39,4.39l-3.89,19.7c-.38,1.63.13,3.26,1.13,4.52,1,1.25,2.63,2.01,4.27,2.01h8.15c3.01,0,5.77-.75,8.28-2.13l1-.63,1,.63c2.01,1.51,4.64,2.26,7.4,2.26h41.27c2.76,0,5.14-.63,7.28-1.76l1.25-.75.38.38.63.5c1,.88,2.26,1.63,3.64,1.63h45.79c5.27,0,9.91-2.13,12.8-5.9,2.63-3.51,3.89-8.03,3.76-13.05,0-.38-.13-.88-.13-1.38l-.5-2.63,2.76.25h.38c2.01,0,3.89-.75,5.39-2.26,1.51-1.38,2.26-3.39,2.26-5.39,0-3.14-2.13-6.15-5.14-7.28l-1.51-.5,2.76-16.43c.38-2.01,0-4.14-.88-6.02l-.63-1.13.88-1c5.02-5.52,7.03-11.54,7.9-15.56h0c1.76-8.15-.5-15.43-6.15-20.7ZM89.76,76.4c2.89-4.89,6.15-9.16,9.41-12.8,5.52-5.9,11.54-11.04,18.06-15.81,4.14-3.01,6.27-4.52,11.79-8.03.38-.13,2.26-1.25,2.63-1.51.88-.38,1.25-.25,1.51,0,.25.38.25.88-.63,1.51-2.63,2.01-27.22,17.69-37.51,39.27-4.27,8.91-5.52,19.32-2.63,28.85,4.39,14.05,18.44,21.2,32.37,22.58,13.92,1.38,28.85-3.39,38.39-13.92,9.66-10.54,12.17-25.84,7.9-39.27-1.38-4.77-4.39-10.66-9.78-18.44-4.14-6.02-15.68-18.19-15.68-18.19,0,0-2.89,11.29-10.91,18.69-1.76,1.76-5.65,2.38-1.51-3.76,6.52-9.78,8.78-19.32,8.78-19.32,0,0-7.28-9.66-6.77-18.32.25-4.14,2.38-8.41,7.28-8.66,5.14-.13,7.65,4.64,8.03,8.78.38,3.64-.88,8.41-1.88,13.92,7.78,7.78,18.06,16.56,24.71,26.22,3.14,4.64,6.02,9.91,8.15,15.56,6.15,17.19,3.26,36.63-8.53,50.68-11.29,13.3-29.1,20.07-46.42,18.94-17.69-1.25-35.13-10.79-41.27-28.1-4.64-12.92-2.26-27.1,4.52-38.89Zm66.36,7.9l-1.51-2.01c-.5-.63,0-1.51.75-1.51h7.53c.75,8.41-1.88,16.81-7.4,22.83-7.15,7.78-18.57,11.92-29.98,10.79-9.66-.88-21.08-5.77-24.46-16.56-1.63-5.27-1.88-11.42.25-17.06v.13h4.27c1.13,0,1.51.88.88,1.63l-1.63,2.01c-.25.13-.25.5-.25.75.13.75.5,3.39,1.63,5.27,4.01,7.03,10.66,9.16,18.19,9.78,10.29.63,20.57-2.76,27.85-10.16,1.38-1.51,3.01-3.51,3.89-4.77.25-.38.25-.75,0-1.13Zm-85.93,57.71c-15.18-10.91-28.6-8.91-30.86-1.63-2.13,6.77,4.77,9.53,9.28,12.67,10.16,7.28,25.22,12.42,21.08,33.24-3.89,18.94-21.95,24.34-32.99,23.84-3.39-.25-6.9-.75-10.16-1.51-.63-.13-1.38-.38-2.01-.5-2.76-.88-8.03-3.14-12.17-8.03-7.28-8.66.88-19.07.88-19.07,8.03,8.91,32.62,17.06,36.76,6.02,1.88-5.02-1.25-8.66-6.52-12.29-6.27-4.27-15.3-8.41-21.2-15.81-8.28-10.54-3.39-27.72,9.66-35.63,15.68-9.53,37.01-2.63,42.53,3.01l-4.27,15.68Zm49.68,60.09c-6.52,5.27-14.3,8.28-21.95,8.41h-.75c-7.65-.13-14.3-3.14-18.82-8.41-4.89-5.77-5.77-13.67-4.27-21.95,1.51-8.28,5.14-16.18,12.17-21.95,6.52-5.27,14.3-8.28,21.95-8.41h.75c7.53.13,14.3,3.14,18.82,8.41,4.89,5.77,5.65,13.67,4.27,21.95-1.51,8.28-5.14,16.18-12.17,21.95Zm68.37-6.4c-3.39,6.4-8.78,11.04-14.55,13.55-5.14,2.13-15.81,3.26-23.08-2.76l-5.52,30.73h-19.44l15.56-86.43h19.44l-.88,5.14c4.52-3.39,9.78-5.39,15.05-5.14,5.65.13,11.04,3.01,14.8,8.28,3.01,4.39,4.01,10.29,3.76,16.06-.13,7.15-1.88,14.55-5.14,20.57Zm42.4-29.61c-5.39.63-10.54,4.77-12.17,8.91l-6.15,33.87h-19.82l10.54-57.96h20.2l-1.51,6.52c3.14-3.89,9.03-7.78,14.55-7.78,2.89,0,4.89.5,5.65,1l-3.26,16.68c-2.26-1.38-5.02-1.63-8.03-1.25Zm6.9,14.05c1.51-8.28,5.27-16.18,12.17-21.95,6.52-5.27,14.3-8.28,21.95-8.41h.75c7.53.13,14.3,3.14,18.82,8.41,4.89,5.77,5.65,13.67,4.27,21.95-1.51,8.28-5.14,16.18-12.17,21.95-6.52,5.27-14.3,8.28-21.95,8.41h-.75c-7.53-.13-14.3-3.14-18.82-8.41-4.89-5.77-5.77-13.67-4.27-21.95Zm1,59.21h-8.03l3.76-19.7h6.02c5.39,0,8.66,2.89,8.78,8.03.25,5.9-3.26,11.67-10.54,11.67Zm18.06-2.76c1.38,0,2.51-.38,3.64-1h1.38l-.5,2.76c-1,.63-2.63,1.13-4.77,1.13-4.14,0-6.52-2.01-6.65-6.02-.13-4.77,2.63-9.16,7.53-9.16,3.51,0,5.39,2.13,5.52,5.27,0,1-.13,2.13-.38,3.26h-8.66v.5c.13,2.38,1.13,3.26,2.89,3.26Zm17.44-8.15h-1.25c-.63-.63-1.76-1.13-3.01-1.13-1.38,0-2.13.5-2.13,1.38,0,.63.5,1,2.13,1.51,2.26.75,3.89,1.63,4.01,4.01.13,3.14-2.26,5.14-6.15,5.14-2.51.13-4.14-.63-5.02-1.25h0s.5-2.76.5-2.76h1.38c.63.75,1.76,1.25,3.26,1.25,1.25,0,2.38-.38,2.26-1.38,0-.75-.63-1.13-2.01-1.63-2.51-.88-3.89-1.88-4.01-4.14-.13-3.01,2.13-5.02,5.77-5.02,2.26,0,3.76.63,4.77,1.38l-.5,2.63Zm12.67,10.79c-1.51.13-2.26-.63-2.38-1.76-1,1.25-2.38,2.01-4.14,2.01-2.63,0-4.77-1.51-4.89-5.39-.13-5.52,3.01-9.78,7.53-9.78,1.63,0,2.76.5,3.51,1.38l1.13-6.15h2.51c1,0,1.51.38,1.13,2.38l-3.39,17.31h-1Zm16.94-6.4h-8.66v.5c.13,2.38,1.13,3.26,3.01,3.26,1.38,0,2.51-.38,3.51-1h1.25l-.5,2.89c-1,.63-2.63,1.13-4.77,1.13-4.01-.13-6.4-2.13-6.52-6.15-.13-4.77,2.63-9.16,7.53-9.16,3.51,0,5.39,2.13,5.52,5.27,0,1-.13,2.13-.38,3.26Zm-10.04-24.71l15.81-87.19h20.2s-15.56,86.43-15.56,86.81l-.13.38h-20.32Zm17.19,31.24l2.89-14.93-2.51,1.25h-1.13l.5-3.14,5.52-2.89h3.01l-3.89,19.7h-4.39Zm13.42.25c-2.38,0-3.89-.5-5.14-1.25h0s0,0,0,0h0l.63-2.89h1.63c.63.63,1.63,1,3.01,1,2.01,0,3.64-.75,4.64-2.01.75-1,1.38-2.38,1.63-3.76-1.13,1-2.76,1.51-4.77,1.51-3.26,0-5.52-1.88-5.52-5.02-.13-4.39,3.26-7.65,7.78-7.65,4.01,0,7.03,2.51,7.15,6.77.13,3.76-.75,7.03-2.63,9.53-1.76,2.38-4.64,3.76-8.41,3.76Zm26.97-7.4l-.63,3.01h-2.51l-.88,4.14h-4.27l.88-4.14h-8.78l.75-3.64,11.29-11.79h4.14l-2.38,12.42h2.38Zm13.92,3.51c-1.76,2.38-4.64,3.76-8.41,3.76-2.51.13-4.01-.38-5.27-1.13h0s0,0,0,0l.63-2.89h1.63c.75.63,1.63,1,3.01,1,2.01,0,3.64-.75,4.64-2.01.88-1,1.38-2.38,1.63-3.89-1.13,1-2.76,1.51-4.64,1.51-3.26,0-5.52-1.88-5.52-5.02-.13-4.39,3.14-7.65,7.78-7.65,4.01,0,7.03,2.51,7.15,6.77.13,3.76-.75,7.03-2.63,9.53Zm15.93-20.95c.13,3.14-2.51,5.65-5.65,5.65s-5.65-2.51-5.65-5.65,2.51-5.65,5.65-5.65,5.65,2.51,5.65,5.65Zm-3.64-49.43c-3.76,17.94-23.21,21.7-35.5,22.33.5,4.39,4.77,6.77,8.91,7.03,8.03.63,16.68-3.26,19.57-5.65l-2.89,16.43s-8.91,4.27-20.32,3.89h0c-6.65-.25-13.67-2.13-17.94-6.65-3.01-3.26-4.64-7.15-5.27-11.54-.63-5.02-.25-10.04,1.25-14.93,2.13-7.03,5.52-13.17,10.91-18.32,1.51-1.38,3.01-2.63,4.64-3.76h.13c4.01-2.76,8.41-4.52,13.3-5.14,5.02-.75,10.04-.75,14.93,1.13,1.88.75,3.51,1.76,4.77,3.14,3.01,2.63,4.64,6.65,3.51,12.04Z"/>
  <path class="cls-1" d="m166.79,163.46c-4.27.13-7.53,2.63-9.78,6.27l-3.89,23.33c2.13,2.13,4.01,3.51,8.03,3.76,6.9.5,11.67-8.15,13.17-16.43v-.25c.13,0,.13-.13.13-.25,1.38-8.28-.38-16.81-7.65-16.43Z"/>
  <path class="cls-1" d="m374.28,212.13v2.13h.88c.88,0,1.25-.38,1.25-1,.13-.75-.38-1.13-1.25-1.13h-.88Z"/>
  <path class="cls-1" d="m370.64,214.64c0,2.63,2.13,4.89,4.77,4.89s4.77-2.13,4.77-4.89c.13-2.63-2.13-4.77-4.77-4.77s-4.89,2.13-4.77,4.77Zm7.15-1.51c0,1.13-.75,1.76-1.76,1.88.13.13.38.38.75,1l1.51,2.13h-1.38l-1.38-2.01c-.63-1-.75-1-1.13-1h-.13v3.01h-1.13v-6.9h2.13c1.63,0,2.51.63,2.51,1.88Z"/>
</svg>