<?xml version="1.0" encoding="UTF-8"?>
<svg id="Capa_1" data-name="Capa 1" xmlns="http://www.w3.org/2000/svg" viewBox="0 0 816.62 253.49">
  <defs>
    <style>
      .cls-1 {
        fill: #fff;
      }
    </style>
  </defs>
  <path class="cls-1" d="m82.38,196.35c0,25.26,8.57,46.47,35.09,46.47h162.01c26.53,0,35.09-20.26,35.09-46.55.06-1.02-.71-1.89-1.73-1.95-.05,0-.1,0-.15,0H84.07c-1.67,0-1.67,1.36-1.67,2.05"/>
  <path class="cls-1" d="m198.45.01C135.95.01,84.98,30.31,82.47,68.27c-.07,1.02.15,2.95,3.07,2.95h226.23c1.46-.05,2.64-1.21,2.71-2.67C312.19,30.46,261.12,0,198.45,0"/>
  <path class="cls-1" d="m314.46,115.62c0-.14-.07-.29-.09-.43s-.13-.56-.21-.83c-.05-.17-.1-.33-.16-.49-.1-.25-.19-.47-.31-.71s-.14-.35-.24-.5-.27-.42-.39-.61c-.1-.17-.22-.34-.34-.5-.14-.18-.29-.38-.46-.57s-.48-.52-.75-.78-.34-.33-.53-.49-.37-.28-.56-.42-.25-.2-.37-.29c-.08-.05-.17-.1-.26-.14-.06-.05-.13-.1-.2-.14-10.45-6.76-53.69-11.89-106.2-12.2h-9.78c-52.5.31-95.74,5.43-106.2,12.2l-.2.14-.25.14c-.12.08-.24.19-.37.29l-.57.42-.52.49c-.27.26-.52.51-.76.78l-.47.57c-.11.16-.21.33-.32.5-.14.2-.26.4-.38.61-.09.16-.18.33-.25.5-.11.24-.2.46-.3.71-.07.16-.13.32-.17.49-.08.27-.14.55-.21.83s-.06.29-.07.43c-.08.44-.12.88-.11,1.33v31.65c0,.44.03.88.11,1.31,0,.16,0,.3.07.44s.13.56.21.83c.05.17.11.33.18.49.09.24.18.47.3.7.07.18.15.35.25.51.12.2.24.41.38.61s.2.33.32.49l.47.57c.24.27.49.52.76.78s.34.34.52.48.37.3.57.44l.37.28.25.15c.07.04.14.09.2.14,10.46,6.76,53.7,11.89,106.2,12.19h9.78c52.51-.3,95.75-5.42,106.2-12.19l.2-.14.26-.15.37-.28c.39-.28.75-.59,1.09-.92.27-.26.51-.51.75-.78.17-.18.32-.37.46-.57.12-.16.24-.33.34-.49.12-.2.27-.41.39-.61s.15-.34.24-.51.2-.46.31-.7c.07-.16.12-.33.16-.5.08-.27.15-.54.21-.83,0-.14.06-.28.09-.44.06-.43.09-.87.09-1.31v-31.64c0-.44-.03-.89-.09-1.33"/>
  <path class="cls-1" d="m55.04,214.9c.16-15.2-12.02-27.65-27.22-27.82C12.62,186.92.17,199.11,0,214.31c-.16,15.2,12.02,27.65,27.22,27.82.1,0,.2,0,.3,0,15.12.08,27.44-12.11,27.52-27.22"/>
  <path class="cls-1" d="m388.95,167.38c.96,1.69,2.28,3.15,3.87,4.28,1.65,1.14,3.5,1.97,5.45,2.45,2.09.53,4.24.8,6.4.79,1.68,0,3.35-.19,4.98-.55,1.66-.34,3.26-.92,4.75-1.74,1.41-.77,2.62-1.85,3.55-3.16,1-1.46,1.5-3.21,1.43-4.98,0-3.37-2.24-5.9-6.72-7.58-6.12-2.16-12.38-3.87-18.74-5.12-3.26-.74-6.45-1.61-9.57-2.61-2.94-.92-5.73-2.25-8.3-3.95-2.38-1.59-4.38-3.68-5.85-6.14-1.55-2.77-2.31-5.92-2.21-9.1,0-5.27,1.02-9.59,3.07-12.96,2-3.32,4.82-6.06,8.18-7.98,3.53-2,7.39-3.39,11.39-4.09,4.27-.8,8.61-1.2,12.96-1.19,4.33-.01,8.65.41,12.89,1.27,3.94.75,7.71,2.2,11.14,4.27,3.29,2.01,6.09,4.74,8.18,7.98,2.31,3.81,3.64,8.13,3.88,12.57h-21.39c-.31-4.32-1.95-7.24-4.9-8.78-3.24-1.59-6.82-2.38-10.44-2.29-1.37,0-2.73.09-4.09.24-1.39.14-2.75.48-4.03,1.02-1.19.51-2.24,1.3-3.07,2.29-.9,1.15-1.35,2.58-1.27,4.03-.05,1.89.77,3.7,2.22,4.9,1.71,1.39,3.67,2.43,5.77,3.07,2.68.87,5.42,1.59,8.18,2.14,3.05.63,6.16,1.32,9.33,2.05,3.23.73,6.43,1.63,9.57,2.69,2.96.98,5.75,2.39,8.3,4.18,2.4,1.71,4.4,3.93,5.85,6.49,1.56,2.94,2.32,6.24,2.21,9.57.16,4.72-.96,9.39-3.24,13.52-2.08,3.56-4.98,6.57-8.46,8.78-3.65,2.28-7.7,3.86-11.93,4.67-4.5.89-9.09,1.34-13.68,1.34-4.67,0-9.34-.47-13.91-1.42-4.28-.85-8.38-2.46-12.09-4.75-3.54-2.21-6.51-5.21-8.7-8.77-2.42-4.16-3.7-8.87-3.72-13.68h21.35c-.1,2.18.39,4.34,1.4,6.27Z"/>
  <path class="cls-1" d="m497.84,105.95v15.03h-16.44v40.48c0,3.8.62,6.32,1.89,7.59s3.8,1.89,7.59,1.89c1.26,0,2.48-.05,3.63-.15,1.12-.1,2.23-.26,3.33-.48v17.39c-2.09.34-4.2.55-6.32.63-2.32.1-4.59.16-6.8.16-3.31,0-6.61-.23-9.88-.72-2.88-.4-5.66-1.34-8.18-2.77-2.39-1.38-4.33-3.4-5.62-5.84-1.49-3.1-2.19-6.53-2.05-9.97v-48.23h-13.64v-15.03h13.6v-24.55h22.46v24.55h16.44Z"/>
  <path class="cls-1" d="m527.88,105.95v15.18h.32c2.16-5.13,5.79-9.51,10.44-12.57,2.3-1.52,4.8-2.71,7.43-3.55,2.65-.85,5.41-1.27,8.18-1.27,1.66.03,3.31.3,4.9.79v20.87c-1.02-.2-2.32-.39-3.8-.55-1.42-.15-2.84-.23-4.27-.24-3.59-.11-7.15.59-10.44,2.05-2.72,1.27-5.08,3.2-6.88,5.61-1.79,2.49-3.06,5.31-3.72,8.31-.76,3.36-1.13,6.79-1.1,10.23v36.83h-22.41v-81.75l21.34.06Z"/>
  <path class="cls-1" d="m587.18,168.1c3.36,3.26,8.21,4.89,14.54,4.9,4.16.11,8.25-1.08,11.7-3.4,3.27-2.27,5.27-4.66,6.01-7.16h19.77c-3.13,9.78-7.98,16.77-14.55,20.95-6.57,4.19-14.47,6.3-23.72,6.32-5.94.09-11.84-.95-17.39-3.07-4.97-1.93-9.45-4.92-13.13-8.78-3.66-3.92-6.48-8.55-8.3-13.6-2-5.58-3-11.47-2.93-17.39-.05-5.83.97-11.62,3.01-17.08,3.78-10.28,11.65-18.52,21.74-22.77,5.38-2.26,11.16-3.39,16.99-3.31,6.31-.15,12.57,1.25,18.22,4.06,5.03,2.57,9.39,6.28,12.73,10.83,3.36,4.65,5.79,9.91,7.16,15.49,1.49,5.94,2.03,12.07,1.6,18.18h-58.99c.31,7.28,2.16,12.55,5.53,15.82Zm25.37-42.97c-2.69-2.95-6.78-4.42-12.28-4.42-3.08-.11-6.14.51-8.93,1.81-2.2,1.08-4.14,2.62-5.69,4.51-1.37,1.68-2.39,3.61-3.01,5.69-.53,1.75-.88,3.56-1.02,5.38h36.5c-1.04-5.72-2.9-10.06-5.58-13.02v.05Z"/>
  <path class="cls-1" d="m650.86,131.1c.12-4.65,1.48-9.18,3.95-13.13,2.27-3.43,5.3-6.3,8.85-8.38,3.75-2.17,7.85-3.69,12.1-4.51,4.45-.89,8.98-1.34,13.52-1.34,4.18,0,8.35.29,12.49.87,4,.52,7.9,1.66,11.54,3.4,3.38,1.61,6.32,4.03,8.54,7.04,2.21,3,3.31,6.99,3.31,11.94v42.53c0,3.54.2,7.08.63,10.59.2,2.66.95,5.24,2.21,7.59h-22.73c-.42-1.27-.77-2.56-1.02-3.87-.27-1.33-.45-2.68-.56-4.03-3.48,3.62-7.84,6.29-12.65,7.74-4.82,1.47-9.83,2.21-14.87,2.21-3.68.03-7.35-.45-10.91-1.42-3.22-.87-6.23-2.38-8.85-4.43-2.55-2.02-4.59-4.62-5.93-7.59-1.5-3.44-2.23-7.16-2.14-10.91-.15-3.96.69-7.9,2.46-11.46,1.52-2.85,3.68-5.3,6.32-7.16,2.7-1.84,5.7-3.21,8.86-4.03,3.3-.89,6.65-1.6,10.04-2.13,3.38-.53,6.69-.95,9.96-1.27,2.93-.26,5.84-.74,8.7-1.42,2.18-.47,4.23-1.42,6.01-2.76,1.51-1.33,2.27-3.3,2.05-5.3.09-1.99-.32-3.98-1.19-5.77-.74-1.37-1.83-2.51-3.16-3.33-1.41-.82-2.97-1.36-4.59-1.58-1.86-.27-3.73-.41-5.61-.4-4.43,0-7.91.95-10.44,2.84s-3.99,5.05-4.39,9.45h-22.51Zm51.86,16.59c-1.04.9-2.25,1.57-3.56,1.97-1.5.5-3.03.89-4.58,1.19-1.64.32-3.35.58-5.12.8s-3.59.47-5.38.79c-1.69.32-3.35.74-4.98,1.27-1.53.47-2.97,1.19-4.27,2.13-1.21.9-2.21,2.06-2.93,3.4-.79,1.62-1.17,3.41-1.1,5.22-.06,1.75.32,3.49,1.1,5.06.7,1.33,1.73,2.45,3.01,3.24,1.36.82,2.86,1.39,4.42,1.66,1.72.32,3.47.48,5.22.47,4.43,0,7.84-.74,10.23-2.21,2.22-1.27,4.07-3.1,5.37-5.3,1.12-1.92,1.84-4.04,2.14-6.24.23-1.68.37-3.37.4-5.06l.03-8.38Z"/>
  <path class="cls-1" d="m785.44,105.95v15.03h-16.44v40.48c0,3.79.63,6.32,1.9,7.59,1.27,1.27,3.8,1.9,7.58,1.89,1.27,0,2.48-.05,3.64-.15,1.11-.1,2.22-.26,3.31-.48v17.39c-2.09.34-4.2.55-6.32.63-2.32.1-4.58.16-6.79.16-3.31,0-6.61-.23-9.88-.72-2.88-.4-5.66-1.34-8.18-2.77-2.39-1.38-4.33-3.4-5.62-5.84-1.49-3.1-2.19-6.53-2.05-9.97v-48.23h-13.61v-15.03h13.61v-24.55h22.45v24.55h16.4Z"/>
  <path class="cls-1" d="m811.49,177.3c.07-1.64-1.21-3.02-2.85-3.08-.14,0-.29,0-.43.01h-3.86v9.5h1.84v-3.53h1.4l1.92,3.53h1.96l-2.05-3.7c1.23-.33,2.07-1.46,2.05-2.73Zm-3.42,1.36h-1.87v-2.73h1.87c.96,0,1.56.43,1.56,1.37s-.57,1.36-1.53,1.36h-.02Z"/>
  <path class="cls-1" d="m807.83,170.23c-4.86,0-8.8,3.93-8.81,8.79,0,4.86,3.93,8.8,8.79,8.81,4.86,0,8.8-3.93,8.81-8.79h0c0-4.87-3.93-8.8-8.79-8.81Zm0,16.3c-4.15,0-7.51-3.36-7.51-7.51s3.36-7.51,7.51-7.51c4.15,0,7.51,3.36,7.51,7.51h0c0,4.15-3.37,7.51-7.51,7.51Z"/>
  <path class="cls-1" d="m369.51,204.88h6.03v13.96h.1c.42-.67.94-1.28,1.53-1.8.6-.53,1.26-.98,1.97-1.35.72-.37,1.48-.65,2.27-.84.77-.19,1.56-.29,2.35-.3,1.94-.04,3.86.34,5.63,1.14,1.55.72,2.92,1.79,3.99,3.12,1.08,1.37,1.89,2.94,2.38,4.62,1.03,3.59,1.05,7.39.07,10.99-.43,1.64-1.17,3.19-2.16,4.57-2.06,2.85-5.4,4.48-8.91,4.36-.93,0-1.85-.06-2.77-.18-.92-.12-1.82-.36-2.67-.72-.83-.34-1.6-.8-2.29-1.37-.72-.61-1.31-1.37-1.72-2.22h-.1v3.75h-5.71v-37.73Zm21.02,24.09c0-1.21-.15-2.42-.47-3.59-.3-1.1-.78-2.14-1.43-3.07-.62-.89-1.43-1.63-2.37-2.17-1-.56-2.13-.84-3.27-.82-2.24-.14-4.39.85-5.74,2.64-1.37,2.08-2.04,4.54-1.92,7.03-.01,1.3.16,2.59.5,3.84.3,1.11.81,2.15,1.5,3.07.65.84,1.47,1.54,2.4,2.05,1.01.51,2.12.76,3.25.74,1.22.04,2.42-.25,3.49-.84.93-.55,1.73-1.3,2.34-2.2.64-.93,1.09-1.97,1.33-3.07.24-1.17.36-2.36.34-3.56l.05-.04Z"/>
  <path class="cls-1" d="m424.88,242.65h-5.91v-3.81h-.11c-.76,1.4-1.9,2.54-3.29,3.3-1.36.8-2.9,1.22-4.47,1.24-3.59,0-6.18-.89-7.79-2.67-1.6-1.78-2.4-4.46-2.4-8.05v-17.33h6.02v16.75c0,2.39.46,4.1,1.38,5.12,1.01,1.02,2.42,1.56,3.86,1.47,1.08.04,2.16-.16,3.16-.58.8-.35,1.5-.88,2.05-1.56.55-.69.93-1.49,1.14-2.35.23-.97.34-1.96.34-2.96v-15.89h6.03l.02,27.32Z"/>
  <path class="cls-1" d="m430.54,215.33h5.66v5.28h.1c.2-.78.54-1.52,1.02-2.17.53-.72,1.15-1.37,1.84-1.92.73-.59,1.54-1.06,2.4-1.4.86-.35,1.78-.53,2.7-.53.49-.01.97,0,1.45.06l.82.1v5.81c-.42-.07-.86-.13-1.3-.18-.43-.05-.86-.08-1.29-.08-.99,0-1.98.2-2.89.61-.91.41-1.71,1.02-2.35,1.79-.71.87-1.25,1.87-1.59,2.94-.4,1.3-.59,2.65-.57,4.01v13h-6.03v-27.32Z"/>
  <path class="cls-1" d="m473.7,241.22c0,4.09-1.15,7.16-3.46,9.21-2.31,2.05-5.63,3.07-9.96,3.07-1.39,0-2.78-.15-4.14-.43-1.32-.27-2.59-.75-3.75-1.43-1.14-.66-2.12-1.56-2.87-2.64-.81-1.19-1.29-2.58-1.38-4.02h6.03c.13.74.44,1.45.9,2.05.4.52.92.95,1.5,1.25.61.3,1.26.5,1.93.58.74.09,1.48.13,2.22.13,2.43,0,4.2-.6,5.33-1.8,1.21-1.44,1.81-3.29,1.69-5.17v-4.17h-.1c-.8,1.48-2,2.7-3.46,3.54-1.44.83-3.07,1.27-4.73,1.27-1.92.06-3.83-.33-5.58-1.14-1.5-.73-2.8-1.8-3.81-3.12-1.03-1.36-1.77-2.92-2.19-4.57-.47-1.81-.71-3.67-.7-5.55,0-1.78.28-3.54.85-5.23.53-1.59,1.35-3.07,2.43-4.36,1.07-1.26,2.39-2.28,3.88-2.99,1.63-.76,3.41-1.14,5.21-1.12,1.65-.01,3.28.36,4.76,1.08,1.45.74,2.62,1.94,3.33,3.41h.1v-3.74h6.03l-.05,25.88Zm-13.36-3.33c2.29.1,4.46-1.04,5.68-2.99.6-.94,1.03-1.98,1.27-3.07.28-1.12.42-2.27.44-3.43,0-1.14-.14-2.27-.42-3.38-.25-1.04-.69-2.02-1.29-2.91-.58-.86-1.36-1.56-2.27-2.05-1.04-.52-2.19-.78-3.36-.75-1.19-.04-2.36.26-3.39.85-.9.54-1.66,1.29-2.22,2.19-.58.94-.99,1.98-1.22,3.07-.24,1.12-.37,2.26-.37,3.41,0,1.11.14,2.23.42,3.3.26,1.03.7,2,1.3,2.87.58.84,1.34,1.54,2.22,2.05.98.55,2.08.83,3.2.82Z"/>
  <path class="cls-1" d="m483.8,230.55c0,1.04.15,2.07.45,3.07.28.94.73,1.82,1.34,2.59.62.75,1.39,1.35,2.27,1.77,1.03.46,2.15.69,3.28.65,1.5.07,2.98-.32,4.25-1.14,1.14-.85,1.99-2.04,2.4-3.41h5.74c-.57,2.77-2.15,5.23-4.44,6.9-1.11.81-2.35,1.41-3.67,1.8-1.38.4-2.81.61-4.25.6-1.95.05-3.9-.3-5.71-1.02-1.6-.67-3.04-1.67-4.2-2.96-1.17-1.32-2.06-2.87-2.59-4.55-.6-1.88-.89-3.84-.87-5.81,0-1.88.3-3.74.92-5.51.58-1.69,1.48-3.25,2.64-4.6,1.15-1.32,2.57-2.39,4.15-3.14,1.72-.8,3.6-1.2,5.49-1.17,2.01-.03,3.99.43,5.78,1.35,1.67.86,3.12,2.08,4.26,3.57,1.15,1.53,1.98,3.26,2.46,5.12.51,1.94.65,3.96.4,5.94l-20.1-.05Zm14.05-3.96c-.07-.94-.27-1.87-.6-2.75-.31-.84-.78-1.62-1.37-2.29-.59-.66-1.31-1.2-2.12-1.59-.86-.42-1.81-.63-2.77-.61-.99-.01-1.96.17-2.87.55-.84.35-1.59.88-2.22,1.53-.63.67-1.13,1.45-1.48,2.3-.38.91-.58,1.87-.6,2.85h14.05Z"/>
  <path class="cls-1" d="m507.78,215.33h5.66v5.28h.1c.2-.78.55-1.52,1.02-2.17.53-.72,1.15-1.37,1.85-1.92.74-.6,1.57-1.07,2.47-1.41.86-.35,1.77-.53,2.69-.53.49-.01.97,0,1.45.06l.82.1v5.81c-.42-.08-.85-.14-1.29-.18-.43-.05-.87-.08-1.3-.08-.99,0-1.97.2-2.87.61-.91.41-1.72,1.02-2.35,1.79-.71.87-1.25,1.86-1.59,2.94-.41,1.3-.61,2.65-.58,4.01v13h-6.03l-.05-27.31Z"/>
</svg>