<?xml version="1.0" encoding="UTF-8"?>
<svg id="Capa_1" data-name="Capa 1" xmlns="http://www.w3.org/2000/svg" viewBox="0 0 318.11 252">
  <defs>
    <style>
      .cls-1 {
        fill: #fff;
      }
    </style>
  </defs>
  <path class="cls-1" d="m137.23,192.36c-1.19-1.79-2.3-3.39-3.35-5.03-4.61-7.24-7.28-15.14-8.05-23.69-.42-4.6,1.96-7.22,6.58-7.23,9.49-.01,18.99,0,28.48,0,3.64,0,5.59,1.42,6.4,4.97,1.52,6.56,4.73,11.98,10.28,15.91,4.25,3.01,9.05,4.7,14.12,5.59,7.63,1.35,15.02.42,22.08-2.78,7.61-3.45,12.53-9.27,14.51-17.39,1.98-8.13,1.4-16.16-1.83-23.91-3.16-7.58-9.02-12.09-16.81-14.23-5.84-1.6-11.88-1.6-17.86-1.96-5.52-.33-10.23-2.39-13.38-7.07-3.58-5.31-3.93-11.03-1-16.71,2.89-5.6,7.67-8.46,13.98-8.8,4.08-.22,8.18-.27,12.21-.84,12.08-1.71,20.45-10.47,22.01-22.63.63-4.92.38-9.78-.69-14.58-1.83-8.19-7.12-13.52-14.78-16.27-10.81-3.88-21.3-2.76-31.05,3.48-4.14,2.65-6.96,6.44-8.51,11.14-.4,1.21-.76,2.43-1.23,3.61-.75,1.89-2.14,3.1-4.2,3.26-2.07.16-4.16.18-6.24.18-7.6.02-15.19.02-22.79,0-6.16,0-8.33-2.72-7.31-8.82,1.93-11.55,6.99-21.45,15.52-29.5,6.72-6.34,14.57-10.86,23.2-14.07C178.55.89,190-.45,201.67.13c9.41.46,18.74,1.71,27.64,5.06,11.02,4.15,20.63,10.25,27.69,19.9,4.81,6.58,7.7,13.97,9.2,21.94,1.36,7.16,1.72,14.34.35,21.56-1.61,8.5-5.37,15.96-11.21,22.28-2.93,3.17-6.31,5.94-9.55,8.82-1.52,1.35-2.69,2.85-2.84,4.94-.18,2.56,1.12,4.33,3.12,5.76,3.11,2.22,6.36,4.3,9.23,6.81,6.49,5.65,10.82,12.82,13.09,21.06,4.18,15.16,3.13,30-3.84,44.21-4.11,8.4-10.38,14.99-17.91,20.44-.87.63-1.67,1.34-2.77,2.22,2.7.97,5.01,1.8,7.33,2.63,20.21,7.24,39.26,16.76,57.16,28.61,2.3,1.53,4.59,3.08,6.86,4.66,1.49,1.04,2.48,2.51,2.84,4.26.39,1.91-1.35,5.93-4.35,6.42-1.31.22-2.74.23-4.03-.05-12.46-2.77-24.85-5.86-37.35-8.39-10.41-2.1-20.91-3.82-31.44-5.26-11.3-1.54-22.65-2.82-34.02-3.73-11.58-.93-23.2-1.52-34.81-1.79-11.32-.26-22.65-.13-33.97.18-18.01.49-35.95,1.98-53.83,4.27-21.08,2.69-41.94,6.57-62.59,11.58-4.71,1.14-9.43,2.28-14.17,3.3-3.92.84-6.84-1.22-7.43-5.17-.32-2.14.51-4,2.25-5.24,2.81-1.99,5.73-3.82,8.62-5.69,11.14-7.24,22.57-14,34.73-19.4,6.56-2.91,13.29-5.48,19.97-8.12,2.92-1.16,3.43-1.72,3.42-4.86-.03-49.81-.06-99.62-.09-149.43,0-2.91-.45-3.28-3.22-2.43-6.67,2.05-13.31,4.16-19.97,6.23-.73.23-1.48.43-2.23.54-3.85.54-6.45-1.5-6.86-5.39-.09-.89-.09-1.79-.09-2.68,0-6.47-.01-12.95,0-19.42,0-3.61.95-5.14,4.31-6.41,8.4-3.16,16.83-6.24,25.25-9.33,12.06-4.43,24.12-8.84,36.19-13.24.75-.27,1.54-.52,2.33-.63,3.27-.47,5.85,1.24,6.66,4.54.32,1.31.42,2.69.42,4.04.02,60.98.02,121.96.02,182.94,0,3.01.1,3.05,3.14,2.65,6.79-.9,13.59-1.74,20.38-2.62.59-.08,1.17-.2,1.92-.34Z"/>
</svg>