<?xml version="1.0" encoding="UTF-8"?>
<svg id="Capa_1" data-name="Capa 1" xmlns="http://www.w3.org/2000/svg" viewBox="0 0 226.26 226.11">
  <defs>
    <style>
      .cls-1 {
        fill: #fff;
      }
    </style>
  </defs>
  <path class="cls-1" d="m0,0v226.11h226.26V0H0Zm138.25,88.06c-6.81,18.79-13.65,37.57-20.5,56.35-1.3,3.57-3.87,5.45-7.26,5.45-3.45,0-5.99-1.97-7.33-5.67-5.96-16.49-11.95-32.97-17.85-49.48-.59-1.64-1.33-2.18-3.07-2.13-5.03.13-10.07.05-15.38.05v2.75c0,15.32.01,30.63,0,45.95,0,4.39-1.81,7.13-5.31,8.21-4.52,1.39-9.16-1.65-9.63-6.35-.09-.86-.07-1.73-.07-2.6,0-15.03,0-30.05,0-45.08,0-.85,0-1.71,0-2.75-.87-.05-1.56-.13-2.25-.13-5.13-.01-10.26.01-15.39-.01-4.56-.02-7.86-3.16-7.87-7.44,0-4.35,3.17-7.53,7.75-7.58,5.49-.07,10.98-.02,16.47-.02,12.43,0,24.85,0,37.28,0,5.6,0,7.46,1.29,9.36,6.48,4.16,11.39,8.31,22.78,12.47,34.16.24.65.53,1.28.96,2.32,2.81-7.72,5.47-15,8.13-22.29,1.85-5.08,3.69-10.17,5.57-15.24,1.66-4.49,5.65-6.49,9.79-4.96,3.97,1.47,5.73,5.62,4.14,10.02Zm61.38,58.59v2.72h-14.93v-2.28c0-14.02.02-28.03,0-42.05,0-1.51-.11-3.04-.38-4.52-1.54-8.57-6.71-11.92-15.14-9.9-8.45,2.03-13.42,8.53-13.46,17.79-.05,12.79-.01,25.58-.01,38.36v2.64h-14.82v-71.37h14.16v6.4c.84-.64,1.32-1.01,1.8-1.38,8.56-6.67,18.16-8.4,28.4-5.22,9.32,2.89,13.16,10.25,14.12,19.39.33,3.15.25,6.35.26,9.53.02,13.29.01,26.59.01,39.88Z"/>
</svg>