<?xml version="1.0" encoding="UTF-8"?>
<svg id="Capa_1" data-name="Capa 1" xmlns="http://www.w3.org/2000/svg" viewBox="0 0 762.82 317.47">
  <defs>
    <style>
      .cls-1 {
        fill: #fff;
      }
    </style>
  </defs>
  <path class="cls-1" d="m647.77,76.52c-.04-.53-.04-1.07,0-1.6l-12.83.14c.05.53.05,1.07,0,1.6.04,1.55-.14,3.1-.52,4.6h13.83c-.38-1.55-.54-3.15-.48-4.74Z"/>
  <path class="cls-1" d="m627.3,226.95l-25.03,10.16,31.95-5.29c-2.76-.89-5.17-2.59-6.92-4.88Z"/>
  <path class="cls-1" d="m647.49,229.44l7.88-1.02-4.67-2.39c-.87,1.31-1.95,2.46-3.22,3.41Z"/>
  <path class="cls-1" d="m624.7,218.7c.07-7.03,5.46-12.9,12.55-13.64v-15.28c-8.13.01-16.24-.81-24.2-2.46l-18.26,49.26,30.88-12.83c-.64-1.61-.97-3.32-.97-5.05Z"/>
  <path class="cls-1" d="m637.08,165.18c-5.04.02-10.04-.91-14.73-2.73l-4.22,11.29c6.28-.81,12.61-1.24,18.95-1.26v-7.3Z"/>
  <polygon class="cls-1" points="666.33 233.88 660.14 230.7 637.19 234.25 666.33 233.88"/>
  <path class="cls-1" d="m434.52,83.65c-3.22-1.67-7.05-1.67-10.28,0-1.68.84-2.75,2.55-2.78,4.43l-.03,50.46h15.73v-50.33c.01-1.89-1-3.64-2.64-4.56Z"/>
  <path class="cls-1" d="m250.63,83.65c-3.23-1.67-7.08-1.67-10.31,0-1.68.84-2.75,2.55-2.78,4.43l-.13,50.46h15.84v-50.33c.02-1.88-.98-3.63-2.61-4.56Z"/>
  <path class="cls-1" d="m530.99,247.36c0-1.1-1.02-1.29-1.93-1.29h-1.81v2.72h1.59c1.13,0,2.15-.34,2.15-1.44Z"/>
  <path class="cls-1" d="m642.06,172.58c6.28.07,12.55.55,18.77,1.43l-3.73-10.54c-4.89,1.38-9.96,2.03-15.04,1.91v7.2Z"/>
  <path class="cls-1" d="m528.95,243.43c-3.39-.06-6.2,2.62-6.3,6.01-.05,1.68.58,3.31,1.76,4.52,1.18,1.2,2.79,1.88,4.47,1.87,3.39-.02,6.13-2.77,6.15-6.16.02-3.39-2.69-6.17-6.08-6.23Zm2.19,10.28l-2.34-3.78h-1.55l.04,3.97h-1.32v-8.88h3.36c2.08,0,3.1.76,3.1,2.49.03.63-.2,1.25-.63,1.7s-1.04.72-1.67.71l2.53,3.78h-1.51Z"/>
  <path class="cls-1" d="m717.76,243.43c-3.39-.06-6.2,2.62-6.3,6.01-.05,1.68.58,3.31,1.76,4.52,1.18,1.2,2.79,1.88,4.47,1.87,3.39-.02,6.13-2.77,6.15-6.16.02-3.39-2.69-6.17-6.08-6.23Zm2.16,10.39l-2.34-3.78h-1.51v3.86h-1.36v-8.77h3.36c2.11,0,3.13.76,3.13,2.49.03.63-.2,1.25-.63,1.7-.44.46-1.04.72-1.67.71l2.53,3.78h-1.51Z"/>
  <path class="cls-1" d="m345.03,239.16V87.47c0-3.05-2.95-5.03-7.37-5.03-3.92,0-7.9,1.71-7.9,5.03v151.69c.61,3.75,3.84,6.51,7.63,6.51s7.02-2.75,7.63-6.51Z"/>
  <path class="cls-1" d="m752.01,10.15c-6.86-6.72-16.11-10.38-25.66-10.14H35.39C14.88.01,0,15.55,0,37.01v244.26c.1,9.83,4.12,19.21,11.15,26.01,7.02,6.81,16.47,10.47,26.2,10.17h689.48c19.57-.39,35.41-16.21,36-35.98V35.75c-.05-9.65-3.95-18.88-10.8-25.6Zm-4.37,27.23v242.48c-.52,12.35-10.51,22.17-22.83,22.48H39.28c-6.23.26-12.31-2-16.86-6.28-4.55-4.28-7.18-10.22-7.31-16.47V38.62c0-14.06,8.94-23.49,22.2-23.49h686.98c6.08-.24,11.99,2,16.4,6.19,4.41,4.19,6.95,9.99,7.03,16.09l-.07-.03Z"/>
  <path class="cls-1" d="m724.31,25.6h-394.64v51.54l1.91-1.95c3.62-3.66,17.31-5.5,28.05-.97,8.44,3.56,12.89,11.64,12.89,23.25v136.69c0,9.56-12.29,22.78-35.22,22.78s-34.85-13.42-34.85-22.78V34.53c0-7.01-4.22-7.68-7.33-8.92H37.33c-8.4,0-11.75,5.67-11.75,13.02v241c.17,3.48,1.73,6.74,4.32,9.06,2.59,2.32,6,3.5,9.47,3.28h685.4c6.62-.29,11.97-5.49,12.45-12.11l.1-242.44c-.09-3.32-1.53-6.46-3.99-8.69-2.46-2.23-5.72-3.36-9.03-3.12ZM188.19,226.31c0,19.63-19.08,30.46-53.8,30.46s-53.9-10.6-53.9-30.46l.3-132.19c0-11.14-10.61-6.31-10.61-13.09v-6.27h37.43v162.02c0,2.09.85,4.1,2.36,5.54,1.51,1.45,3.55,2.21,5.64,2.11,2.08.11,4.11-.65,5.6-2.1,1.49-1.45,2.31-3.46,2.26-5.55V74.59h21.96v162.19c-.06,2.62,1.3,5.07,3.55,6.41,2.73,1.5,6.04,1.5,8.77,0,2.2-1.39,3.48-3.87,3.35-6.48V74.59h27.08v151.72Zm91.83-66.23h-42.62v79.08c.05,1.94.91,3.76,2.37,5.04s3.38,1.88,5.3,1.67c1.96.2,3.91-.41,5.42-1.67,1.51-1.26,2.45-3.08,2.61-5.04,0,0,.13-60.22.13-62.57h26.78v57.37c0,9.23-10.34,22.78-32.51,22.78h-4.32c-22.16,0-32.54-13.42-32.57-22.78V93.95c0-7.92,9.44-22.75,32.37-22.75h4.62c22.9,0,32.41,14.8,32.41,22.75v66.13Zm184.13,0h-42.68v79.08c.05,1.94.91,3.76,2.37,5.04s3.38,1.88,5.3,1.67c1.96.21,3.92-.39,5.43-1.66,1.51-1.26,2.45-3.09,2.6-5.05v-62.44l26.98-.13v57.37c0,9.23-10.31,22.78-32.47,22.78h-4.52c-22.16,0-32.54-13.42-32.57-22.78V93.95c0-7.92,9.44-22.75,32.37-22.75h4.62c23,0,32.57,14.83,32.57,22.75v66.13Zm64.72,96.92c-2.04.05-4.01-.72-5.46-2.15-1.46-1.42-2.28-3.37-2.28-5.41,0-4.15,3.34-7.52,7.49-7.56,4.15-.03,7.54,3.28,7.61,7.43.07,4.15-3.22,7.58-7.36,7.68Zm27.27-97.19h-27.39v-71.26c-.03-2.09-1.18-4-3.01-5-3.04-1.65-6.7-1.65-9.74,0-1.4.76-2.41,2.07-2.78,3.62v166.75h-27.02V94.38c0-11.11-10.61-6.34-10.61-13.05v-6.31l37.76.03v2.82l1.94-1.34c9.88-7.31,24.07-5.3,33.08-.6,4.93,2.43,7.98,7.55,7.77,13.05v70.83Zm132.14,97.19c-7.81.02-14.16-6.21-14.18-13.92h-81.15l-5.6,13.2h-5.81l26.87-70.16c-4.36-1.47-6.92-3.27-6.92-5.22,0-2.63,4.25-4.61,11.17-6.04l5.29-14.19c-18.64-8.87-28.49-27.53-29.46-37.52-.31-3.31-.48-3.62-.73-6-1.11-.07-2.32.48-2.8-.34-1.59-2.56-.17-8.56.97-8.56h1.9c4.53-23.64,26.62-26.61,41.84-27.05-.33-1.49-.47-3.01-.41-4.54-.04-.55-.04-1.09,0-1.64-1.76-.08-3.11-1.56-3.03-3.29.09-1.73,1.58-3.07,3.34-2.98,3.95-.54,7.94-.77,11.93-.68,4.1-.13,8.21.1,12.27.68,1.77,0,3.2,1.41,3.2,3.16s-1.43,3.16-3.2,3.16h-.41c.05.53.05,1.07,0,1.6.04,1.61-.15,3.22-.59,4.78,14.94,1.26,34.68,6.34,39.52,26.81.24.99,1.83.65,2.25.65s2.45,7.03,0,8.22c0,0-1.8-.31-1.52,1.13-.06,1.84-.27,3.68-.62,5.49,0,8.97-11.13,29.68-30.43,38.14l4.7,13.17c6.02,1.43,9.68,3.38,9.68,5.7,0,1.81-2.18,3.48-5.91,4.88l15.56,43.59c.73-.12,1.47-.17,2.21-.17v.07c7.81-.02,14.16,6.21,14.18,13.92.02,7.7-6.3,13.97-14.11,13.99Zm29.4,0c-2.04.05-4.01-.72-5.46-2.15s-2.28-3.37-2.28-5.41c0-4.15,3.34-7.52,7.49-7.56,4.15-.03,7.54,3.28,7.61,7.43.07,4.15-3.22,7.58-7.36,7.68Z"/>
  <path class="cls-1" d="m642.17,189.77v15.79c6.17,1.48,10.55,6.87,10.68,13.13,0,1.33-.2,2.65-.59,3.92l24.51,12.04.03.1c1.18-1.59,2.69-2.92,4.43-3.89l-15.63-43.76c-7.7,1.7-15.55,2.6-23.44,2.66Z"/>
  <path class="cls-1" d="m671.45,236.37h-45.99l-18.33,2.49,67.46.27v-.07c.07-.34.31-.68.31-.99l-3.73-1.91.28.2Z"/>
  <path class="cls-1" d="m719.81,247.48c0-1.1-1.02-1.29-1.93-1.29h-1.81v2.72h1.59c1.17,0,2.15-.34,2.15-1.44Z"/>
</svg>