<?xml version="1.0" encoding="UTF-8"?>
<svg id="Capa_1" data-name="Capa 1" xmlns="http://www.w3.org/2000/svg" viewBox="0 0 335 334.95">
  <defs>
    <style>
      .cls-1 {
        fill: #fff;
      }
    </style>
  </defs>
  <path class="cls-1" d="m158.32,0c6.12,0,12.24,0,18.36,0,.61.13,1.22.31,1.84.39,7.36.95,14.81,1.46,22.07,2.89,23.95,4.73,45.95,14.21,65.49,28.84,40.03,29.97,62.91,69.82,68.14,119.64.22,2.13.52,4.25.78,6.38v18.34c-.14.67-.36,1.34-.4,2.02-.5,9.53-1.94,18.93-4.23,28.18-9.7,39.24-30.66,71.2-63.1,95.28-34.28,25.44-72.98,35.95-115.54,32.26-11.68-1.01-23.1-3.3-34.27-6.84-31.52-9.98-57.92-27.65-78.97-53.1C16.6,247.84,3.99,217.46.77,183.24.55,180.98.26,178.73,0,176.48c0-6.11,0-12.22,0-18.34.13-.54.32-1.08.39-1.63.9-6.98,1.42-14.02,2.73-20.92,5.83-30.67,19.32-57.65,40.41-80.64C72.71,23.16,108.89,5.05,151.93.75c2.14-.21,4.26-.5,6.4-.75Zm-69.33,189.2c.23-.02.46-.03.69-.05.32.67.67,1.32.94,2,3.55,8.92,7.08,17.86,10.62,26.78,1.13,2.86,2.42,3.57,5.48,3.07.44-.07.88-.13,1.32-.2,4.91-.77,9.82-1.52,14.72-2.31,2.81-.45,3.8-1.62,3.93-4.48.06-1.27.13-2.54.17-3.81.38-11.89.76-23.79,1.14-35.68.42-13.17.85-26.33,1.24-39.5.09-3.2-1.18-4.25-4.36-3.76-4.28.66-8.56,1.33-12.84,1.98-3.97.61-4.78,1.51-4.69,5.47.36,16.29.73,32.57,1.08,48.86.01.68-.16,1.37-.24,2.05-.23.03-.45.07-.68.1-.41-1.07-.87-2.13-1.22-3.22-5-15.23-9.97-30.46-14.97-45.68-1.06-3.22-2.17-3.87-5.58-3.38-3.02.43-6.04.91-9.06,1.44-3.48.61-4.21,1.54-4.22,5.14-.05,16.42-.1,32.84-.16,49.26,0,.71-.15,1.41-.23,2.12-.18.03-.37.06-.55.09-.3-.71-.66-1.4-.88-2.14-4.72-15.58-9.42-31.17-14.14-46.75-1.05-3.46-2.26-4.24-5.73-3.69-4.34.68-8.68,1.39-13.01,2.13-3.51.6-4.29,1.99-3.08,5.32,2.37,6.52,4.7,13.04,7.06,19.56,6.6,18.24,13.21,36.48,19.81,54.72.81,2.25,2.2,3.12,4.56,2.77,5.61-.83,11.21-1.68,16.8-2.6,2.83-.47,3.76-1.6,3.94-4.51.52-8.19,1.02-16.38,1.55-24.57.14-2.18.37-4.35.56-6.53Zm158.02-42.72c-.22.02-.44.05-.66.07-.4-.91-.83-1.81-1.19-2.73-3.46-8.69-6.89-17.39-10.36-26.07-1.15-2.87-2.32-3.55-5.29-3.09-5.22.81-10.44,1.64-15.66,2.51-3.69.61-4.38,1.38-4.53,5.11-.23,6.04-.4,12.08-.6,18.13-.64,20.04-1.29,40.07-1.91,60.11-.11,3.41,1.17,4.46,4.56,3.93,4.15-.65,8.3-1.35,12.45-1.97,4.2-.63,4.96-1.46,4.87-5.71-.34-16.03-.71-32.07-1.05-48.1-.02-.88.11-1.75.16-2.63.21-.02.42-.05.63-.07.28.59.63,1.15.84,1.77.68,1.99,1.31,3.99,1.96,5.99,4.51,13.78,9.02,27.56,13.55,41.34.97,2.96,2.2,3.71,5.31,3.25,3.02-.45,6.04-.93,9.05-1.46,3.75-.65,4.42-1.48,4.43-5.33.03-16.1.05-32.21.09-48.31,0-.96.13-1.93.2-2.89l.6-.1c.31.7.69,1.38.91,2.1,4.75,15.64,9.47,31.29,14.22,46.94,1.01,3.34,2.22,4.06,5.64,3.52,4.28-.68,8.55-1.38,12.82-2.08,3.73-.6,4.55-2.02,3.27-5.52-3.44-9.44-6.85-18.9-10.27-28.35-5.52-15.25-11.03-30.51-16.56-45.76-.79-2.19-2.21-3.15-4.38-2.83-5.73.85-11.46,1.73-17.17,2.71-2.71.47-3.55,1.52-3.73,4.26-.63,9.65-1.24,19.3-1.87,28.96-.05.78-.23,1.54-.35,2.32Zm-48.66,15.22c.16,0,.32,0,.48,0,0-4.77.11-9.54-.04-14.3-.1-3.35-.26-6.75-.89-10.04-1.67-8.75-7.29-14.35-16.12-15.55-11.28-1.53-21.88.78-31.09,7.65-8.81,6.57-12.23,15.99-12.76,26.61-.42,8.39-.76,16.78-.93,25.17-.11,5.14-.39,10.36.35,15.41,1.71,11.62,8.92,17.7,20.67,17.73,4.04.01,8.15-.5,12.1-1.35,15.87-3.41,25.81-14.6,27.26-30.74.61-6.83.66-13.72.96-20.58Z"/>
  <path class="cls-1" d="m158.11,170.77c.33-5.65.48-11.31,1.03-16.93.71-7.25,4.39-10.21,12.04-10.5,3.27-.13,5.1,1.38,5.91,4.57.31,1.22.58,2.51.53,3.76-.37,10.23-.55,20.47-1.33,30.66-.52,6.78-4.7,10.05-11.54,10.16-3.72.06-5.81-1.5-6.38-5.14-.37-2.31-.37-4.68-.41-7.03-.06-3.18-.02-6.36-.02-9.53.06,0,.11,0,.17,0Z"/>
</svg>